G04 #@! TF.GenerationSoftware,KiCad,Pcbnew,(5.1.2)-1*
G04 #@! TF.CreationDate,2019-08-26T21:33:07-05:00*
G04 #@! TF.ProjectId,8266-dev,38323636-2d64-4657-962e-6b696361645f,rev?*
G04 #@! TF.SameCoordinates,Original*
G04 #@! TF.FileFunction,Copper,L2,Bot*
G04 #@! TF.FilePolarity,Positive*
%FSLAX46Y46*%
G04 Gerber Fmt 4.6, Leading zero omitted, Abs format (unit mm)*
G04 Created by KiCad (PCBNEW (5.1.2)-1) date 2019-08-26 21:33:07*
%MOMM*%
%LPD*%
G04 APERTURE LIST*
%ADD10C,2.100000*%
%ADD11R,1.700000X1.700000*%
%ADD12O,1.700000X1.700000*%
%ADD13C,1.450000*%
%ADD14O,1.900000X1.200000*%
%ADD15C,0.600000*%
%ADD16C,0.250000*%
%ADD17C,0.254000*%
G04 APERTURE END LIST*
D10*
X165511480Y-126949200D03*
X168011480Y-126949200D03*
X170511480Y-126949200D03*
X173011480Y-126949200D03*
X175511480Y-126949200D03*
X95417640Y-57104280D03*
X95417640Y-59604280D03*
X95417640Y-62104280D03*
X95417640Y-64604280D03*
X95417640Y-67104280D03*
D11*
X138942530Y-126944200D03*
D12*
X136402530Y-126944200D03*
X133862530Y-126944200D03*
X131322530Y-126944200D03*
X128782530Y-126944200D03*
X126242530Y-126944200D03*
D10*
X174919640Y-59194700D03*
X174919640Y-61734700D03*
X174919640Y-64274700D03*
D13*
X178719500Y-92457400D03*
X178719500Y-87457400D03*
D14*
X181419500Y-93457400D03*
X181419500Y-86457400D03*
D15*
X115752880Y-127088900D03*
X110365540Y-69123560D03*
X163296600Y-49062640D03*
X109570520Y-55278020D03*
X109628940Y-59105800D03*
X86413340Y-127083820D03*
X93548200Y-71678800D03*
X91287600Y-93548200D03*
X100787200Y-93548200D03*
X110261400Y-93548200D03*
X119761000Y-93548200D03*
X159715200Y-91821000D03*
X152725120Y-55153560D03*
X154012900Y-87249000D03*
X155826460Y-57180480D03*
X157276800Y-88595200D03*
X137986780Y-73939400D03*
X135986780Y-73939400D03*
X133986780Y-73939400D03*
X131986780Y-73939400D03*
X129986780Y-73939400D03*
X127986780Y-73939400D03*
X171013120Y-59212480D03*
X158910020Y-59169300D03*
X171137580Y-61739780D03*
X158866840Y-61739780D03*
X94488000Y-76352400D03*
X91236800Y-85140800D03*
X177076100Y-88531700D03*
X172440600Y-89801700D03*
D16*
X152717500Y-55161180D02*
X152725120Y-55153560D01*
X173011480Y-125464276D02*
X152717500Y-105170296D01*
X173011480Y-126949200D02*
X173011480Y-125464276D01*
X152839336Y-86499700D02*
X152717500Y-86499700D01*
X153588636Y-87249000D02*
X152839336Y-86499700D01*
X154012900Y-87249000D02*
X153588636Y-87249000D01*
X152717500Y-105170296D02*
X152717500Y-86499700D01*
X152717500Y-86499700D02*
X152717500Y-55161180D01*
X174461481Y-124414277D02*
X155826460Y-105779256D01*
X174461481Y-125899201D02*
X174461481Y-124414277D01*
X175511480Y-126949200D02*
X174461481Y-125899201D01*
X155826460Y-87569124D02*
X155826460Y-87525860D01*
X156852536Y-88595200D02*
X155826460Y-87569124D01*
X157276800Y-88595200D02*
X156852536Y-88595200D01*
X155826460Y-105779256D02*
X155826460Y-87525860D01*
X155826460Y-87525860D02*
X155826460Y-57180480D01*
X137986780Y-73939400D02*
X138430000Y-73939400D01*
X138430000Y-73939400D02*
X138925300Y-74434700D01*
X138925300Y-125826970D02*
X138925300Y-122250200D01*
X138942530Y-125844200D02*
X138925300Y-125826970D01*
X138942530Y-126944200D02*
X138942530Y-125844200D01*
X138925300Y-74434700D02*
X138925300Y-122250200D01*
X138925300Y-122250200D02*
X138925300Y-122618500D01*
X136410700Y-74363320D02*
X135986780Y-73939400D01*
X136410700Y-125733949D02*
X136410700Y-122072400D01*
X136402530Y-125742119D02*
X136410700Y-125733949D01*
X136402530Y-126944200D02*
X136402530Y-125742119D01*
X136410700Y-122656600D02*
X136410700Y-122072400D01*
X136410700Y-122072400D02*
X136410700Y-74363320D01*
X133845300Y-74080880D02*
X133986780Y-73939400D01*
X133845300Y-125724889D02*
X133845300Y-122301000D01*
X133862530Y-125742119D02*
X133845300Y-125724889D01*
X133862530Y-126944200D02*
X133862530Y-125742119D01*
X133845300Y-122732800D02*
X133845300Y-122301000D01*
X133845300Y-122301000D02*
X133845300Y-74080880D01*
X131318000Y-74608180D02*
X131986780Y-73939400D01*
X131318000Y-125737589D02*
X131318000Y-122097800D01*
X131322530Y-125742119D02*
X131318000Y-125737589D01*
X131322530Y-126944200D02*
X131322530Y-125742119D01*
X131318000Y-122758200D02*
X131318000Y-122097800D01*
X131318000Y-122097800D02*
X131318000Y-74608180D01*
X129959100Y-73952100D02*
X129984500Y-73926700D01*
X128803400Y-75122780D02*
X129986780Y-73939400D01*
X128803400Y-125721249D02*
X128803400Y-122504200D01*
X128782530Y-125742119D02*
X128803400Y-125721249D01*
X128782530Y-126944200D02*
X128782530Y-125742119D01*
X128803400Y-122809000D02*
X128803400Y-122504200D01*
X128803400Y-122504200D02*
X128803400Y-75122780D01*
X127939800Y-73952100D02*
X127914400Y-73926700D01*
X126238000Y-75688180D02*
X127986780Y-73939400D01*
X126238000Y-125737589D02*
X126238000Y-122555000D01*
X126242530Y-125742119D02*
X126238000Y-125737589D01*
X126242530Y-126944200D02*
X126242530Y-125742119D01*
X126238000Y-122847100D02*
X126238000Y-122555000D01*
X126238000Y-122555000D02*
X126238000Y-75688180D01*
X171013120Y-59212480D02*
X158953200Y-59212480D01*
X158953200Y-59212480D02*
X158910020Y-59169300D01*
X171137580Y-61739780D02*
X170713316Y-61739780D01*
X170713316Y-61739780D02*
X158866840Y-61739780D01*
X94488000Y-76776664D02*
X91236800Y-80027864D01*
X94488000Y-76352400D02*
X94488000Y-76776664D01*
X91236800Y-80027864D02*
X91236800Y-85140800D01*
X176651836Y-88531700D02*
X175381836Y-89801700D01*
X177076100Y-88531700D02*
X176651836Y-88531700D01*
X175381836Y-89801700D02*
X172440600Y-89801700D01*
D17*
G36*
X181999890Y-85239116D02*
G01*
X181830165Y-85222400D01*
X181008835Y-85222400D01*
X180827398Y-85240270D01*
X180594599Y-85310889D01*
X180380051Y-85425567D01*
X180191998Y-85579898D01*
X180037667Y-85767951D01*
X179922989Y-85982499D01*
X179852370Y-86215298D01*
X179828525Y-86457400D01*
X179852370Y-86699502D01*
X179855383Y-86709435D01*
X179775881Y-86590451D01*
X179586449Y-86401019D01*
X179363701Y-86252184D01*
X179116197Y-86149664D01*
X178853448Y-86097400D01*
X178585552Y-86097400D01*
X178322803Y-86149664D01*
X178075299Y-86252184D01*
X177852551Y-86401019D01*
X177663119Y-86590451D01*
X177514284Y-86813199D01*
X177411764Y-87060703D01*
X177359500Y-87323452D01*
X177359500Y-87591348D01*
X177369407Y-87641156D01*
X177348829Y-87632632D01*
X177168189Y-87596700D01*
X176984011Y-87596700D01*
X176803371Y-87632632D01*
X176633211Y-87703114D01*
X176516052Y-87781397D01*
X176502850Y-87782697D01*
X176359589Y-87826154D01*
X176227560Y-87896726D01*
X176111835Y-87991699D01*
X176088037Y-88020697D01*
X175067035Y-89041700D01*
X172986135Y-89041700D01*
X172883489Y-88973114D01*
X172713329Y-88902632D01*
X172532689Y-88866700D01*
X172348511Y-88866700D01*
X172167871Y-88902632D01*
X171997711Y-88973114D01*
X171844572Y-89075438D01*
X171714338Y-89205672D01*
X171612014Y-89358811D01*
X171541532Y-89528971D01*
X171505600Y-89709611D01*
X171505600Y-89893789D01*
X171541532Y-90074429D01*
X171612014Y-90244589D01*
X171714338Y-90397728D01*
X171844572Y-90527962D01*
X171997711Y-90630286D01*
X172167871Y-90700768D01*
X172348511Y-90736700D01*
X172532689Y-90736700D01*
X172713329Y-90700768D01*
X172883489Y-90630286D01*
X172986135Y-90561700D01*
X175344514Y-90561700D01*
X175381836Y-90565376D01*
X175419158Y-90561700D01*
X175419169Y-90561700D01*
X175530822Y-90550703D01*
X175674083Y-90507246D01*
X175806112Y-90436674D01*
X175921837Y-90341701D01*
X175945640Y-90312697D01*
X176823555Y-89434783D01*
X176984011Y-89466700D01*
X177168189Y-89466700D01*
X177348829Y-89430768D01*
X177518989Y-89360286D01*
X177672128Y-89257962D01*
X177802362Y-89127728D01*
X177904686Y-88974589D01*
X177975168Y-88804429D01*
X178011100Y-88623789D01*
X178011100Y-88619720D01*
X178075299Y-88662616D01*
X178322803Y-88765136D01*
X178585552Y-88817400D01*
X178853448Y-88817400D01*
X179116197Y-88765136D01*
X179363701Y-88662616D01*
X179586449Y-88513781D01*
X179775881Y-88324349D01*
X179924716Y-88101601D01*
X180027236Y-87854097D01*
X180079500Y-87591348D01*
X180079500Y-87323452D01*
X180046516Y-87157632D01*
X180191998Y-87334902D01*
X180380051Y-87489233D01*
X180594599Y-87603911D01*
X180827398Y-87674530D01*
X181008835Y-87692400D01*
X181830165Y-87692400D01*
X181999890Y-87675684D01*
X181999890Y-92239116D01*
X181830165Y-92222400D01*
X181008835Y-92222400D01*
X180827398Y-92240270D01*
X180594599Y-92310889D01*
X180380051Y-92425567D01*
X180191998Y-92579898D01*
X180046516Y-92757168D01*
X180079500Y-92591348D01*
X180079500Y-92323452D01*
X180027236Y-92060703D01*
X179924716Y-91813199D01*
X179775881Y-91590451D01*
X179586449Y-91401019D01*
X179363701Y-91252184D01*
X179116197Y-91149664D01*
X178853448Y-91097400D01*
X178585552Y-91097400D01*
X178322803Y-91149664D01*
X178075299Y-91252184D01*
X177852551Y-91401019D01*
X177663119Y-91590451D01*
X177514284Y-91813199D01*
X177411764Y-92060703D01*
X177359500Y-92323452D01*
X177359500Y-92591348D01*
X177411764Y-92854097D01*
X177514284Y-93101601D01*
X177663119Y-93324349D01*
X177852551Y-93513781D01*
X178075299Y-93662616D01*
X178322803Y-93765136D01*
X178585552Y-93817400D01*
X178853448Y-93817400D01*
X179116197Y-93765136D01*
X179363701Y-93662616D01*
X179586449Y-93513781D01*
X179775881Y-93324349D01*
X179855383Y-93205365D01*
X179852370Y-93215298D01*
X179828525Y-93457400D01*
X179852370Y-93699502D01*
X179922989Y-93932301D01*
X180037667Y-94146849D01*
X180191998Y-94334902D01*
X180380051Y-94489233D01*
X180594599Y-94603911D01*
X180827398Y-94674530D01*
X181008835Y-94692400D01*
X181830165Y-94692400D01*
X181999890Y-94675684D01*
X181999890Y-140069225D01*
X181982741Y-140114587D01*
X181939260Y-140200816D01*
X181891413Y-140260000D01*
X85144034Y-140260000D01*
X85132437Y-140249206D01*
X85084900Y-140180655D01*
X85050641Y-140097932D01*
X85042528Y-140063957D01*
X85042516Y-140063511D01*
X85042143Y-140025021D01*
X85041763Y-139960623D01*
X85041388Y-139871876D01*
X85041018Y-139759063D01*
X85041019Y-139759063D01*
X85040653Y-139622339D01*
X85040293Y-139462293D01*
X85039938Y-139279194D01*
X85039589Y-139073385D01*
X85039244Y-138845202D01*
X85038905Y-138594990D01*
X85038571Y-138323084D01*
X85038243Y-138029823D01*
X85037919Y-137715543D01*
X85037601Y-137380585D01*
X85037288Y-137025285D01*
X85036980Y-136649980D01*
X85036678Y-136255008D01*
X85036380Y-135840706D01*
X85036088Y-135407412D01*
X85035801Y-134955463D01*
X85035520Y-134485197D01*
X85035243Y-133996950D01*
X85034972Y-133491060D01*
X85034706Y-132967865D01*
X85034446Y-132427702D01*
X85034190Y-131870908D01*
X85033940Y-131297820D01*
X85033695Y-130708775D01*
X85033455Y-130104112D01*
X85033221Y-129484167D01*
X85032991Y-128849277D01*
X85032767Y-128199780D01*
X85032549Y-127536014D01*
X85032363Y-126944200D01*
X124750345Y-126944200D01*
X124779017Y-127235311D01*
X124863931Y-127515234D01*
X125001824Y-127773214D01*
X125187396Y-127999334D01*
X125413516Y-128184906D01*
X125671496Y-128322799D01*
X125951419Y-128407713D01*
X126169580Y-128429200D01*
X126315480Y-128429200D01*
X126533641Y-128407713D01*
X126813564Y-128322799D01*
X127071544Y-128184906D01*
X127297664Y-127999334D01*
X127483236Y-127773214D01*
X127512530Y-127718409D01*
X127541824Y-127773214D01*
X127727396Y-127999334D01*
X127953516Y-128184906D01*
X128211496Y-128322799D01*
X128491419Y-128407713D01*
X128709580Y-128429200D01*
X128855480Y-128429200D01*
X129073641Y-128407713D01*
X129353564Y-128322799D01*
X129611544Y-128184906D01*
X129837664Y-127999334D01*
X130023236Y-127773214D01*
X130052530Y-127718409D01*
X130081824Y-127773214D01*
X130267396Y-127999334D01*
X130493516Y-128184906D01*
X130751496Y-128322799D01*
X131031419Y-128407713D01*
X131249580Y-128429200D01*
X131395480Y-128429200D01*
X131613641Y-128407713D01*
X131893564Y-128322799D01*
X132151544Y-128184906D01*
X132377664Y-127999334D01*
X132563236Y-127773214D01*
X132592530Y-127718409D01*
X132621824Y-127773214D01*
X132807396Y-127999334D01*
X133033516Y-128184906D01*
X133291496Y-128322799D01*
X133571419Y-128407713D01*
X133789580Y-128429200D01*
X133935480Y-128429200D01*
X134153641Y-128407713D01*
X134433564Y-128322799D01*
X134691544Y-128184906D01*
X134917664Y-127999334D01*
X135103236Y-127773214D01*
X135132530Y-127718409D01*
X135161824Y-127773214D01*
X135347396Y-127999334D01*
X135573516Y-128184906D01*
X135831496Y-128322799D01*
X136111419Y-128407713D01*
X136329580Y-128429200D01*
X136475480Y-128429200D01*
X136693641Y-128407713D01*
X136973564Y-128322799D01*
X137231544Y-128184906D01*
X137457664Y-127999334D01*
X137482137Y-127969513D01*
X137503028Y-128038380D01*
X137561993Y-128148694D01*
X137641345Y-128245385D01*
X137738036Y-128324737D01*
X137848350Y-128383702D01*
X137968048Y-128420012D01*
X138092530Y-128432272D01*
X139792530Y-128432272D01*
X139917012Y-128420012D01*
X140036710Y-128383702D01*
X140147024Y-128324737D01*
X140243715Y-128245385D01*
X140323067Y-128148694D01*
X140382032Y-128038380D01*
X140418342Y-127918682D01*
X140430602Y-127794200D01*
X140430602Y-126783242D01*
X163826480Y-126783242D01*
X163826480Y-127115158D01*
X163891234Y-127440696D01*
X164018252Y-127747347D01*
X164202655Y-128023325D01*
X164437355Y-128258025D01*
X164713333Y-128442428D01*
X165019984Y-128569446D01*
X165345522Y-128634200D01*
X165677438Y-128634200D01*
X166002976Y-128569446D01*
X166309627Y-128442428D01*
X166585605Y-128258025D01*
X166761480Y-128082150D01*
X166937355Y-128258025D01*
X167213333Y-128442428D01*
X167519984Y-128569446D01*
X167845522Y-128634200D01*
X168177438Y-128634200D01*
X168502976Y-128569446D01*
X168809627Y-128442428D01*
X169085605Y-128258025D01*
X169223364Y-128120266D01*
X169520019Y-128120266D01*
X169621819Y-128389779D01*
X169919957Y-128535663D01*
X170240826Y-128620580D01*
X170572097Y-128641266D01*
X170901037Y-128596928D01*
X171215007Y-128489269D01*
X171401141Y-128389779D01*
X171502941Y-128120266D01*
X170511480Y-127128805D01*
X169520019Y-128120266D01*
X169223364Y-128120266D01*
X169320305Y-128023325D01*
X169446271Y-127834804D01*
X170331875Y-126949200D01*
X169446271Y-126063596D01*
X169320305Y-125875075D01*
X169223364Y-125778134D01*
X169520019Y-125778134D01*
X170511480Y-126769595D01*
X171502941Y-125778134D01*
X171401141Y-125508621D01*
X171103003Y-125362737D01*
X170782134Y-125277820D01*
X170450863Y-125257134D01*
X170121923Y-125301472D01*
X169807953Y-125409131D01*
X169621819Y-125508621D01*
X169520019Y-125778134D01*
X169223364Y-125778134D01*
X169085605Y-125640375D01*
X168809627Y-125455972D01*
X168502976Y-125328954D01*
X168177438Y-125264200D01*
X167845522Y-125264200D01*
X167519984Y-125328954D01*
X167213333Y-125455972D01*
X166937355Y-125640375D01*
X166761480Y-125816250D01*
X166585605Y-125640375D01*
X166309627Y-125455972D01*
X166002976Y-125328954D01*
X165677438Y-125264200D01*
X165345522Y-125264200D01*
X165019984Y-125328954D01*
X164713333Y-125455972D01*
X164437355Y-125640375D01*
X164202655Y-125875075D01*
X164018252Y-126151053D01*
X163891234Y-126457704D01*
X163826480Y-126783242D01*
X140430602Y-126783242D01*
X140430602Y-126094200D01*
X140418342Y-125969718D01*
X140382032Y-125850020D01*
X140323067Y-125739706D01*
X140243715Y-125643015D01*
X140147024Y-125563663D01*
X140036710Y-125504698D01*
X139917012Y-125468388D01*
X139792530Y-125456128D01*
X139685300Y-125456128D01*
X139685300Y-74472023D01*
X139688976Y-74434700D01*
X139685300Y-74397377D01*
X139685300Y-74397367D01*
X139674303Y-74285714D01*
X139630846Y-74142453D01*
X139595158Y-74075686D01*
X139560274Y-74010423D01*
X139525331Y-73967846D01*
X139465301Y-73894699D01*
X139436298Y-73870897D01*
X138993804Y-73428403D01*
X138970001Y-73399399D01*
X138854276Y-73304426D01*
X138722247Y-73233854D01*
X138578986Y-73190397D01*
X138543550Y-73186907D01*
X138429669Y-73110814D01*
X138259509Y-73040332D01*
X138078869Y-73004400D01*
X137894691Y-73004400D01*
X137714051Y-73040332D01*
X137543891Y-73110814D01*
X137390752Y-73213138D01*
X137260518Y-73343372D01*
X137158194Y-73496511D01*
X137087712Y-73666671D01*
X137051780Y-73847311D01*
X137051780Y-73950467D01*
X137045674Y-73939044D01*
X136950701Y-73823319D01*
X136921702Y-73799520D01*
X136909933Y-73787751D01*
X136885848Y-73666671D01*
X136815366Y-73496511D01*
X136713042Y-73343372D01*
X136582808Y-73213138D01*
X136429669Y-73110814D01*
X136259509Y-73040332D01*
X136078869Y-73004400D01*
X135894691Y-73004400D01*
X135714051Y-73040332D01*
X135543891Y-73110814D01*
X135390752Y-73213138D01*
X135260518Y-73343372D01*
X135158194Y-73496511D01*
X135087712Y-73666671D01*
X135051780Y-73847311D01*
X135051780Y-74031489D01*
X135087712Y-74212129D01*
X135158194Y-74382289D01*
X135260518Y-74535428D01*
X135390752Y-74665662D01*
X135543891Y-74767986D01*
X135650701Y-74812228D01*
X135650700Y-122035067D01*
X135650700Y-122693932D01*
X135650701Y-122693940D01*
X135650700Y-125621845D01*
X135648875Y-125640375D01*
X135646501Y-125664483D01*
X135573516Y-125703494D01*
X135347396Y-125889066D01*
X135161824Y-126115186D01*
X135132530Y-126169991D01*
X135103236Y-126115186D01*
X134917664Y-125889066D01*
X134691544Y-125703494D01*
X134618561Y-125664484D01*
X134611533Y-125593133D01*
X134605300Y-125572585D01*
X134605300Y-74643170D01*
X134713042Y-74535428D01*
X134815366Y-74382289D01*
X134885848Y-74212129D01*
X134921780Y-74031489D01*
X134921780Y-73847311D01*
X134885848Y-73666671D01*
X134815366Y-73496511D01*
X134713042Y-73343372D01*
X134582808Y-73213138D01*
X134429669Y-73110814D01*
X134259509Y-73040332D01*
X134078869Y-73004400D01*
X133894691Y-73004400D01*
X133714051Y-73040332D01*
X133543891Y-73110814D01*
X133390752Y-73213138D01*
X133260518Y-73343372D01*
X133158194Y-73496511D01*
X133087712Y-73666671D01*
X133051780Y-73847311D01*
X133051780Y-74031489D01*
X133085301Y-74200008D01*
X133085300Y-122263667D01*
X133085300Y-122770132D01*
X133085301Y-122770141D01*
X133085300Y-125675815D01*
X133033516Y-125703494D01*
X132807396Y-125889066D01*
X132621824Y-126115186D01*
X132592530Y-126169991D01*
X132563236Y-126115186D01*
X132377664Y-125889066D01*
X132151544Y-125703494D01*
X132078561Y-125664484D01*
X132078000Y-125658793D01*
X132078000Y-74922981D01*
X132138429Y-74862553D01*
X132259509Y-74838468D01*
X132429669Y-74767986D01*
X132582808Y-74665662D01*
X132713042Y-74535428D01*
X132815366Y-74382289D01*
X132885848Y-74212129D01*
X132921780Y-74031489D01*
X132921780Y-73847311D01*
X132885848Y-73666671D01*
X132815366Y-73496511D01*
X132713042Y-73343372D01*
X132582808Y-73213138D01*
X132429669Y-73110814D01*
X132259509Y-73040332D01*
X132078869Y-73004400D01*
X131894691Y-73004400D01*
X131714051Y-73040332D01*
X131543891Y-73110814D01*
X131390752Y-73213138D01*
X131260518Y-73343372D01*
X131158194Y-73496511D01*
X131087712Y-73666671D01*
X131063627Y-73787751D01*
X130921780Y-73929599D01*
X130921780Y-73847311D01*
X130885848Y-73666671D01*
X130815366Y-73496511D01*
X130713042Y-73343372D01*
X130582808Y-73213138D01*
X130429669Y-73110814D01*
X130259509Y-73040332D01*
X130078869Y-73004400D01*
X129894691Y-73004400D01*
X129714051Y-73040332D01*
X129543891Y-73110814D01*
X129390752Y-73213138D01*
X129260518Y-73343372D01*
X129158194Y-73496511D01*
X129087712Y-73666671D01*
X129063627Y-73787751D01*
X128921780Y-73929598D01*
X128921780Y-73847311D01*
X128885848Y-73666671D01*
X128815366Y-73496511D01*
X128713042Y-73343372D01*
X128582808Y-73213138D01*
X128429669Y-73110814D01*
X128259509Y-73040332D01*
X128078869Y-73004400D01*
X127894691Y-73004400D01*
X127714051Y-73040332D01*
X127543891Y-73110814D01*
X127390752Y-73213138D01*
X127260518Y-73343372D01*
X127158194Y-73496511D01*
X127087712Y-73666671D01*
X127063628Y-73787750D01*
X125726998Y-75124381D01*
X125698000Y-75148179D01*
X125674202Y-75177177D01*
X125674201Y-75177178D01*
X125603026Y-75263904D01*
X125532454Y-75395934D01*
X125502180Y-75495738D01*
X125488998Y-75539194D01*
X125480435Y-75626138D01*
X125474324Y-75688180D01*
X125478001Y-75725513D01*
X125478000Y-122517667D01*
X125478000Y-122884432D01*
X125478001Y-122884441D01*
X125478000Y-125669027D01*
X125413516Y-125703494D01*
X125187396Y-125889066D01*
X125001824Y-126115186D01*
X124863931Y-126373166D01*
X124779017Y-126653089D01*
X124750345Y-126944200D01*
X85032363Y-126944200D01*
X85032335Y-126858315D01*
X85032127Y-126167021D01*
X85031924Y-125462468D01*
X85031726Y-124744996D01*
X85031533Y-124014939D01*
X85031346Y-123272637D01*
X85031164Y-122518425D01*
X85030987Y-121752643D01*
X85030815Y-120975626D01*
X85030648Y-120187711D01*
X85030487Y-119389237D01*
X85030331Y-118580542D01*
X85030180Y-117761961D01*
X85030035Y-116933832D01*
X85029895Y-116096492D01*
X85029760Y-115250278D01*
X85029630Y-114395530D01*
X85029505Y-113532581D01*
X85029386Y-112661773D01*
X85029272Y-111783439D01*
X85029163Y-110897919D01*
X85029059Y-110005548D01*
X85028961Y-109106668D01*
X85028867Y-108201610D01*
X85028779Y-107290716D01*
X85028697Y-106374320D01*
X85028619Y-105452762D01*
X85028547Y-104526377D01*
X85028480Y-103595505D01*
X85028418Y-102660481D01*
X85028362Y-101721643D01*
X85028310Y-100779327D01*
X85028264Y-99833874D01*
X85028223Y-98885616D01*
X85028188Y-97934895D01*
X85028157Y-96982045D01*
X85028132Y-96027407D01*
X85028112Y-95071313D01*
X85028097Y-94114105D01*
X85028088Y-93156118D01*
X85028084Y-92197690D01*
X85028085Y-91239159D01*
X85028091Y-90280860D01*
X85028102Y-89323132D01*
X85028119Y-88366311D01*
X85028141Y-87410737D01*
X85028168Y-86456744D01*
X85028201Y-85504671D01*
X85028218Y-85048711D01*
X90301800Y-85048711D01*
X90301800Y-85232889D01*
X90337732Y-85413529D01*
X90408214Y-85583689D01*
X90510538Y-85736828D01*
X90640772Y-85867062D01*
X90793911Y-85969386D01*
X90964071Y-86039868D01*
X91144711Y-86075800D01*
X91328889Y-86075800D01*
X91509529Y-86039868D01*
X91679689Y-85969386D01*
X91832828Y-85867062D01*
X91963062Y-85736828D01*
X92065386Y-85583689D01*
X92135868Y-85413529D01*
X92171800Y-85232889D01*
X92171800Y-85048711D01*
X92135868Y-84868071D01*
X92065386Y-84697911D01*
X91996800Y-84595265D01*
X91996800Y-80342665D01*
X94999003Y-77340463D01*
X95028001Y-77316665D01*
X95081507Y-77251468D01*
X95122974Y-77200941D01*
X95193546Y-77068911D01*
X95230093Y-76948428D01*
X95237003Y-76925650D01*
X95238303Y-76912448D01*
X95316586Y-76795289D01*
X95387068Y-76625129D01*
X95423000Y-76444489D01*
X95423000Y-76260311D01*
X95387068Y-76079671D01*
X95316586Y-75909511D01*
X95214262Y-75756372D01*
X95084028Y-75626138D01*
X94930889Y-75523814D01*
X94760729Y-75453332D01*
X94580089Y-75417400D01*
X94395911Y-75417400D01*
X94215271Y-75453332D01*
X94045111Y-75523814D01*
X93891972Y-75626138D01*
X93761738Y-75756372D01*
X93659414Y-75909511D01*
X93588932Y-76079671D01*
X93553000Y-76260311D01*
X93553000Y-76444489D01*
X93584917Y-76604945D01*
X90725803Y-79464060D01*
X90696799Y-79487863D01*
X90641671Y-79555038D01*
X90601826Y-79603588D01*
X90531255Y-79735617D01*
X90531254Y-79735618D01*
X90487797Y-79878879D01*
X90476800Y-79990532D01*
X90476800Y-79990542D01*
X90473124Y-80027864D01*
X90476800Y-80065187D01*
X90476801Y-84595263D01*
X90408214Y-84697911D01*
X90337732Y-84868071D01*
X90301800Y-85048711D01*
X85028218Y-85048711D01*
X85028238Y-84554855D01*
X85028281Y-83607633D01*
X85028329Y-82663343D01*
X85028383Y-81722323D01*
X85028441Y-80784907D01*
X85028505Y-79851436D01*
X85028574Y-78922244D01*
X85028648Y-77997673D01*
X85028728Y-77078054D01*
X85028813Y-76163731D01*
X85028903Y-75255035D01*
X85028998Y-74352307D01*
X85029098Y-73455883D01*
X85029204Y-72566102D01*
X85029315Y-71683298D01*
X85029431Y-70807812D01*
X85029552Y-69939979D01*
X85029679Y-69080136D01*
X85029811Y-68228623D01*
X85029948Y-67385773D01*
X85030090Y-66551928D01*
X85030238Y-65727421D01*
X85030390Y-64912592D01*
X85030548Y-64107778D01*
X85030712Y-63313315D01*
X85030880Y-62529542D01*
X85031054Y-61756795D01*
X85031233Y-60995411D01*
X85031417Y-60245729D01*
X85031606Y-59508084D01*
X85031801Y-58782815D01*
X85032001Y-58070259D01*
X85032206Y-57370753D01*
X85032338Y-56938322D01*
X93732640Y-56938322D01*
X93732640Y-57270238D01*
X93797394Y-57595776D01*
X93924412Y-57902427D01*
X94108815Y-58178405D01*
X94284690Y-58354280D01*
X94108815Y-58530155D01*
X93924412Y-58806133D01*
X93797394Y-59112784D01*
X93732640Y-59438322D01*
X93732640Y-59770238D01*
X93797394Y-60095776D01*
X93924412Y-60402427D01*
X94108815Y-60678405D01*
X94284690Y-60854280D01*
X94108815Y-61030155D01*
X93924412Y-61306133D01*
X93797394Y-61612784D01*
X93732640Y-61938322D01*
X93732640Y-62270238D01*
X93797394Y-62595776D01*
X93924412Y-62902427D01*
X94108815Y-63178405D01*
X94284690Y-63354280D01*
X94108815Y-63530155D01*
X93924412Y-63806133D01*
X93797394Y-64112784D01*
X93732640Y-64438322D01*
X93732640Y-64770238D01*
X93797394Y-65095776D01*
X93924412Y-65402427D01*
X94108815Y-65678405D01*
X94284690Y-65854280D01*
X94108815Y-66030155D01*
X93924412Y-66306133D01*
X93797394Y-66612784D01*
X93732640Y-66938322D01*
X93732640Y-67270238D01*
X93797394Y-67595776D01*
X93924412Y-67902427D01*
X94108815Y-68178405D01*
X94343515Y-68413105D01*
X94619493Y-68597508D01*
X94926144Y-68724526D01*
X95251682Y-68789280D01*
X95583598Y-68789280D01*
X95909136Y-68724526D01*
X96215787Y-68597508D01*
X96491765Y-68413105D01*
X96726465Y-68178405D01*
X96910868Y-67902427D01*
X97037886Y-67595776D01*
X97102640Y-67270238D01*
X97102640Y-66938322D01*
X97037886Y-66612784D01*
X96910868Y-66306133D01*
X96726465Y-66030155D01*
X96550590Y-65854280D01*
X96726465Y-65678405D01*
X96910868Y-65402427D01*
X97037886Y-65095776D01*
X97102640Y-64770238D01*
X97102640Y-64438322D01*
X97037886Y-64112784D01*
X96910868Y-63806133D01*
X96726465Y-63530155D01*
X96550590Y-63354280D01*
X96726465Y-63178405D01*
X96910868Y-62902427D01*
X97037886Y-62595776D01*
X97102640Y-62270238D01*
X97102640Y-61938322D01*
X97037886Y-61612784D01*
X96910868Y-61306133D01*
X96726465Y-61030155D01*
X96550590Y-60854280D01*
X96726465Y-60678405D01*
X96910868Y-60402427D01*
X97037886Y-60095776D01*
X97102640Y-59770238D01*
X97102640Y-59438322D01*
X97037886Y-59112784D01*
X96910868Y-58806133D01*
X96726465Y-58530155D01*
X96550590Y-58354280D01*
X96726465Y-58178405D01*
X96910868Y-57902427D01*
X97037886Y-57595776D01*
X97102640Y-57270238D01*
X97102640Y-56938322D01*
X97037886Y-56612784D01*
X96910868Y-56306133D01*
X96726465Y-56030155D01*
X96491765Y-55795455D01*
X96215787Y-55611052D01*
X95909136Y-55484034D01*
X95583598Y-55419280D01*
X95251682Y-55419280D01*
X94926144Y-55484034D01*
X94619493Y-55611052D01*
X94343515Y-55795455D01*
X94108815Y-56030155D01*
X93924412Y-56306133D01*
X93797394Y-56612784D01*
X93732640Y-56938322D01*
X85032338Y-56938322D01*
X85032416Y-56684635D01*
X85032632Y-56012241D01*
X85032853Y-55353909D01*
X85032955Y-55061471D01*
X151790120Y-55061471D01*
X151790120Y-55245649D01*
X151826052Y-55426289D01*
X151896534Y-55596449D01*
X151957501Y-55687693D01*
X151957500Y-86462367D01*
X151953823Y-86499700D01*
X151957501Y-86537043D01*
X151957500Y-105132974D01*
X151953824Y-105170296D01*
X151957500Y-105207618D01*
X151957500Y-105207628D01*
X151968497Y-105319281D01*
X152011954Y-105462542D01*
X152082526Y-105594572D01*
X152111824Y-105630271D01*
X152177499Y-105710297D01*
X152206503Y-105734100D01*
X172042513Y-125570111D01*
X171937355Y-125640375D01*
X171702655Y-125875075D01*
X171576689Y-126063596D01*
X170691085Y-126949200D01*
X171576689Y-127834804D01*
X171702655Y-128023325D01*
X171937355Y-128258025D01*
X172213333Y-128442428D01*
X172519984Y-128569446D01*
X172845522Y-128634200D01*
X173177438Y-128634200D01*
X173502976Y-128569446D01*
X173809627Y-128442428D01*
X174085605Y-128258025D01*
X174261480Y-128082150D01*
X174437355Y-128258025D01*
X174713333Y-128442428D01*
X175019984Y-128569446D01*
X175345522Y-128634200D01*
X175677438Y-128634200D01*
X176002976Y-128569446D01*
X176309627Y-128442428D01*
X176585605Y-128258025D01*
X176820305Y-128023325D01*
X177004708Y-127747347D01*
X177131726Y-127440696D01*
X177196480Y-127115158D01*
X177196480Y-126783242D01*
X177131726Y-126457704D01*
X177004708Y-126151053D01*
X176820305Y-125875075D01*
X176585605Y-125640375D01*
X176309627Y-125455972D01*
X176002976Y-125328954D01*
X175677438Y-125264200D01*
X175345522Y-125264200D01*
X175221481Y-125288873D01*
X175221481Y-124451599D01*
X175225157Y-124414276D01*
X175221481Y-124376953D01*
X175221481Y-124376944D01*
X175210484Y-124265291D01*
X175167027Y-124122030D01*
X175096455Y-123990001D01*
X175083292Y-123973962D01*
X175025280Y-123903273D01*
X175025276Y-123903269D01*
X175001482Y-123874276D01*
X174972489Y-123850482D01*
X156586460Y-105464455D01*
X156586460Y-89308685D01*
X156703550Y-89344203D01*
X156716752Y-89345503D01*
X156833911Y-89423786D01*
X157004071Y-89494268D01*
X157184711Y-89530200D01*
X157368889Y-89530200D01*
X157549529Y-89494268D01*
X157719689Y-89423786D01*
X157872828Y-89321462D01*
X158003062Y-89191228D01*
X158105386Y-89038089D01*
X158175868Y-88867929D01*
X158211800Y-88687289D01*
X158211800Y-88503111D01*
X158175868Y-88322471D01*
X158105386Y-88152311D01*
X158003062Y-87999172D01*
X157872828Y-87868938D01*
X157719689Y-87766614D01*
X157549529Y-87696132D01*
X157368889Y-87660200D01*
X157184711Y-87660200D01*
X157024255Y-87692117D01*
X156586460Y-87254323D01*
X156586460Y-61647691D01*
X157931840Y-61647691D01*
X157931840Y-61831869D01*
X157967772Y-62012509D01*
X158038254Y-62182669D01*
X158140578Y-62335808D01*
X158270812Y-62466042D01*
X158423951Y-62568366D01*
X158594111Y-62638848D01*
X158774751Y-62674780D01*
X158958929Y-62674780D01*
X159139569Y-62638848D01*
X159309729Y-62568366D01*
X159412375Y-62499780D01*
X170592045Y-62499780D01*
X170694691Y-62568366D01*
X170864851Y-62638848D01*
X171045491Y-62674780D01*
X171229669Y-62674780D01*
X171410309Y-62638848D01*
X171580469Y-62568366D01*
X171733608Y-62466042D01*
X171863842Y-62335808D01*
X171966166Y-62182669D01*
X172036648Y-62012509D01*
X172072580Y-61831869D01*
X172072580Y-61647691D01*
X172036648Y-61467051D01*
X171966166Y-61296891D01*
X171863842Y-61143752D01*
X171733608Y-61013518D01*
X171580469Y-60911194D01*
X171410309Y-60840712D01*
X171229669Y-60804780D01*
X171045491Y-60804780D01*
X170864851Y-60840712D01*
X170694691Y-60911194D01*
X170592045Y-60979780D01*
X159412375Y-60979780D01*
X159309729Y-60911194D01*
X159139569Y-60840712D01*
X158958929Y-60804780D01*
X158774751Y-60804780D01*
X158594111Y-60840712D01*
X158423951Y-60911194D01*
X158270812Y-61013518D01*
X158140578Y-61143752D01*
X158038254Y-61296891D01*
X157967772Y-61467051D01*
X157931840Y-61647691D01*
X156586460Y-61647691D01*
X156586460Y-59077211D01*
X157975020Y-59077211D01*
X157975020Y-59261389D01*
X158010952Y-59442029D01*
X158081434Y-59612189D01*
X158183758Y-59765328D01*
X158313992Y-59895562D01*
X158467131Y-59997886D01*
X158637291Y-60068368D01*
X158817931Y-60104300D01*
X159002109Y-60104300D01*
X159182749Y-60068368D01*
X159352909Y-59997886D01*
X159390932Y-59972480D01*
X170467585Y-59972480D01*
X170570231Y-60041066D01*
X170740391Y-60111548D01*
X170921031Y-60147480D01*
X171105209Y-60147480D01*
X171285849Y-60111548D01*
X171456009Y-60041066D01*
X171609148Y-59938742D01*
X171739382Y-59808508D01*
X171841706Y-59655369D01*
X171912188Y-59485209D01*
X171948120Y-59304569D01*
X171948120Y-59120391D01*
X171929890Y-59028742D01*
X173234640Y-59028742D01*
X173234640Y-59360658D01*
X173299394Y-59686196D01*
X173426412Y-59992847D01*
X173610815Y-60268825D01*
X173806690Y-60464700D01*
X173610815Y-60660575D01*
X173426412Y-60936553D01*
X173299394Y-61243204D01*
X173234640Y-61568742D01*
X173234640Y-61900658D01*
X173299394Y-62226196D01*
X173426412Y-62532847D01*
X173610815Y-62808825D01*
X173806690Y-63004700D01*
X173610815Y-63200575D01*
X173426412Y-63476553D01*
X173299394Y-63783204D01*
X173234640Y-64108742D01*
X173234640Y-64440658D01*
X173299394Y-64766196D01*
X173426412Y-65072847D01*
X173610815Y-65348825D01*
X173845515Y-65583525D01*
X174121493Y-65767928D01*
X174428144Y-65894946D01*
X174753682Y-65959700D01*
X175085598Y-65959700D01*
X175411136Y-65894946D01*
X175717787Y-65767928D01*
X175993765Y-65583525D01*
X176228465Y-65348825D01*
X176412868Y-65072847D01*
X176539886Y-64766196D01*
X176604640Y-64440658D01*
X176604640Y-64108742D01*
X176539886Y-63783204D01*
X176412868Y-63476553D01*
X176228465Y-63200575D01*
X176032590Y-63004700D01*
X176228465Y-62808825D01*
X176412868Y-62532847D01*
X176539886Y-62226196D01*
X176604640Y-61900658D01*
X176604640Y-61568742D01*
X176539886Y-61243204D01*
X176412868Y-60936553D01*
X176228465Y-60660575D01*
X176032590Y-60464700D01*
X176228465Y-60268825D01*
X176412868Y-59992847D01*
X176539886Y-59686196D01*
X176604640Y-59360658D01*
X176604640Y-59028742D01*
X176539886Y-58703204D01*
X176412868Y-58396553D01*
X176228465Y-58120575D01*
X175993765Y-57885875D01*
X175717787Y-57701472D01*
X175411136Y-57574454D01*
X175085598Y-57509700D01*
X174753682Y-57509700D01*
X174428144Y-57574454D01*
X174121493Y-57701472D01*
X173845515Y-57885875D01*
X173610815Y-58120575D01*
X173426412Y-58396553D01*
X173299394Y-58703204D01*
X173234640Y-59028742D01*
X171929890Y-59028742D01*
X171912188Y-58939751D01*
X171841706Y-58769591D01*
X171739382Y-58616452D01*
X171609148Y-58486218D01*
X171456009Y-58383894D01*
X171285849Y-58313412D01*
X171105209Y-58277480D01*
X170921031Y-58277480D01*
X170740391Y-58313412D01*
X170570231Y-58383894D01*
X170467585Y-58452480D01*
X159515490Y-58452480D01*
X159506048Y-58443038D01*
X159352909Y-58340714D01*
X159182749Y-58270232D01*
X159002109Y-58234300D01*
X158817931Y-58234300D01*
X158637291Y-58270232D01*
X158467131Y-58340714D01*
X158313992Y-58443038D01*
X158183758Y-58573272D01*
X158081434Y-58726411D01*
X158010952Y-58896571D01*
X157975020Y-59077211D01*
X156586460Y-59077211D01*
X156586460Y-57726015D01*
X156655046Y-57623369D01*
X156725528Y-57453209D01*
X156761460Y-57272569D01*
X156761460Y-57088391D01*
X156725528Y-56907751D01*
X156655046Y-56737591D01*
X156552722Y-56584452D01*
X156422488Y-56454218D01*
X156269349Y-56351894D01*
X156099189Y-56281412D01*
X155918549Y-56245480D01*
X155734371Y-56245480D01*
X155553731Y-56281412D01*
X155383571Y-56351894D01*
X155230432Y-56454218D01*
X155100198Y-56584452D01*
X154997874Y-56737591D01*
X154927392Y-56907751D01*
X154891460Y-57088391D01*
X154891460Y-57272569D01*
X154927392Y-57453209D01*
X154997874Y-57623369D01*
X155066461Y-57726017D01*
X155066460Y-87488527D01*
X155066460Y-87531802D01*
X155062784Y-87569124D01*
X155066460Y-87606446D01*
X155066460Y-87606456D01*
X155066461Y-87606466D01*
X155066460Y-105741934D01*
X155062784Y-105779256D01*
X155066460Y-105816578D01*
X155066460Y-105816588D01*
X155077457Y-105928241D01*
X155120914Y-106071502D01*
X155191486Y-106203532D01*
X155231331Y-106252082D01*
X155286459Y-106319257D01*
X155315463Y-106343060D01*
X173701482Y-124729081D01*
X173701482Y-125142948D01*
X173646454Y-125040000D01*
X173551481Y-124924275D01*
X173522483Y-124900477D01*
X153477500Y-104855495D01*
X153477500Y-88015772D01*
X153570011Y-88077586D01*
X153740171Y-88148068D01*
X153920811Y-88184000D01*
X154104989Y-88184000D01*
X154285629Y-88148068D01*
X154455789Y-88077586D01*
X154608928Y-87975262D01*
X154739162Y-87845028D01*
X154841486Y-87691889D01*
X154911968Y-87521729D01*
X154947900Y-87341089D01*
X154947900Y-87156911D01*
X154911968Y-86976271D01*
X154841486Y-86806111D01*
X154739162Y-86652972D01*
X154608928Y-86522738D01*
X154455789Y-86420414D01*
X154285629Y-86349932D01*
X154104989Y-86314000D01*
X153920811Y-86314000D01*
X153760355Y-86345917D01*
X153477500Y-86063063D01*
X153477500Y-55710500D01*
X153553706Y-55596449D01*
X153624188Y-55426289D01*
X153660120Y-55245649D01*
X153660120Y-55061471D01*
X153624188Y-54880831D01*
X153553706Y-54710671D01*
X153451382Y-54557532D01*
X153321148Y-54427298D01*
X153168009Y-54324974D01*
X152997849Y-54254492D01*
X152817209Y-54218560D01*
X152633031Y-54218560D01*
X152452391Y-54254492D01*
X152282231Y-54324974D01*
X152129092Y-54427298D01*
X151998858Y-54557532D01*
X151896534Y-54710671D01*
X151826052Y-54880831D01*
X151790120Y-55061471D01*
X85032955Y-55061471D01*
X85033079Y-54709976D01*
X85033310Y-54080779D01*
X85033547Y-53466656D01*
X85033788Y-52867946D01*
X85034035Y-52284983D01*
X85034288Y-51718105D01*
X85034545Y-51167652D01*
X85034808Y-50633958D01*
X85035076Y-50117361D01*
X85035349Y-49618200D01*
X85035627Y-49136812D01*
X85035911Y-48673533D01*
X85036200Y-48228700D01*
X85036494Y-47802651D01*
X85036793Y-47395726D01*
X85037098Y-47008258D01*
X85037407Y-46640588D01*
X85037722Y-46293052D01*
X85038043Y-45965986D01*
X85038368Y-45659730D01*
X85038699Y-45374622D01*
X85039035Y-45110997D01*
X85039376Y-44869196D01*
X85039722Y-44649558D01*
X85040074Y-44452419D01*
X85040431Y-44278123D01*
X85040793Y-44126950D01*
X85040792Y-44126950D01*
X85041159Y-43999436D01*
X85041531Y-43895760D01*
X85041532Y-43895760D01*
X85041559Y-43890000D01*
X181999890Y-43890000D01*
X181999890Y-85239116D01*
X181999890Y-85239116D01*
G37*
X181999890Y-85239116D02*
X181830165Y-85222400D01*
X181008835Y-85222400D01*
X180827398Y-85240270D01*
X180594599Y-85310889D01*
X180380051Y-85425567D01*
X180191998Y-85579898D01*
X180037667Y-85767951D01*
X179922989Y-85982499D01*
X179852370Y-86215298D01*
X179828525Y-86457400D01*
X179852370Y-86699502D01*
X179855383Y-86709435D01*
X179775881Y-86590451D01*
X179586449Y-86401019D01*
X179363701Y-86252184D01*
X179116197Y-86149664D01*
X178853448Y-86097400D01*
X178585552Y-86097400D01*
X178322803Y-86149664D01*
X178075299Y-86252184D01*
X177852551Y-86401019D01*
X177663119Y-86590451D01*
X177514284Y-86813199D01*
X177411764Y-87060703D01*
X177359500Y-87323452D01*
X177359500Y-87591348D01*
X177369407Y-87641156D01*
X177348829Y-87632632D01*
X177168189Y-87596700D01*
X176984011Y-87596700D01*
X176803371Y-87632632D01*
X176633211Y-87703114D01*
X176516052Y-87781397D01*
X176502850Y-87782697D01*
X176359589Y-87826154D01*
X176227560Y-87896726D01*
X176111835Y-87991699D01*
X176088037Y-88020697D01*
X175067035Y-89041700D01*
X172986135Y-89041700D01*
X172883489Y-88973114D01*
X172713329Y-88902632D01*
X172532689Y-88866700D01*
X172348511Y-88866700D01*
X172167871Y-88902632D01*
X171997711Y-88973114D01*
X171844572Y-89075438D01*
X171714338Y-89205672D01*
X171612014Y-89358811D01*
X171541532Y-89528971D01*
X171505600Y-89709611D01*
X171505600Y-89893789D01*
X171541532Y-90074429D01*
X171612014Y-90244589D01*
X171714338Y-90397728D01*
X171844572Y-90527962D01*
X171997711Y-90630286D01*
X172167871Y-90700768D01*
X172348511Y-90736700D01*
X172532689Y-90736700D01*
X172713329Y-90700768D01*
X172883489Y-90630286D01*
X172986135Y-90561700D01*
X175344514Y-90561700D01*
X175381836Y-90565376D01*
X175419158Y-90561700D01*
X175419169Y-90561700D01*
X175530822Y-90550703D01*
X175674083Y-90507246D01*
X175806112Y-90436674D01*
X175921837Y-90341701D01*
X175945640Y-90312697D01*
X176823555Y-89434783D01*
X176984011Y-89466700D01*
X177168189Y-89466700D01*
X177348829Y-89430768D01*
X177518989Y-89360286D01*
X177672128Y-89257962D01*
X177802362Y-89127728D01*
X177904686Y-88974589D01*
X177975168Y-88804429D01*
X178011100Y-88623789D01*
X178011100Y-88619720D01*
X178075299Y-88662616D01*
X178322803Y-88765136D01*
X178585552Y-88817400D01*
X178853448Y-88817400D01*
X179116197Y-88765136D01*
X179363701Y-88662616D01*
X179586449Y-88513781D01*
X179775881Y-88324349D01*
X179924716Y-88101601D01*
X180027236Y-87854097D01*
X180079500Y-87591348D01*
X180079500Y-87323452D01*
X180046516Y-87157632D01*
X180191998Y-87334902D01*
X180380051Y-87489233D01*
X180594599Y-87603911D01*
X180827398Y-87674530D01*
X181008835Y-87692400D01*
X181830165Y-87692400D01*
X181999890Y-87675684D01*
X181999890Y-92239116D01*
X181830165Y-92222400D01*
X181008835Y-92222400D01*
X180827398Y-92240270D01*
X180594599Y-92310889D01*
X180380051Y-92425567D01*
X180191998Y-92579898D01*
X180046516Y-92757168D01*
X180079500Y-92591348D01*
X180079500Y-92323452D01*
X180027236Y-92060703D01*
X179924716Y-91813199D01*
X179775881Y-91590451D01*
X179586449Y-91401019D01*
X179363701Y-91252184D01*
X179116197Y-91149664D01*
X178853448Y-91097400D01*
X178585552Y-91097400D01*
X178322803Y-91149664D01*
X178075299Y-91252184D01*
X177852551Y-91401019D01*
X177663119Y-91590451D01*
X177514284Y-91813199D01*
X177411764Y-92060703D01*
X177359500Y-92323452D01*
X177359500Y-92591348D01*
X177411764Y-92854097D01*
X177514284Y-93101601D01*
X177663119Y-93324349D01*
X177852551Y-93513781D01*
X178075299Y-93662616D01*
X178322803Y-93765136D01*
X178585552Y-93817400D01*
X178853448Y-93817400D01*
X179116197Y-93765136D01*
X179363701Y-93662616D01*
X179586449Y-93513781D01*
X179775881Y-93324349D01*
X179855383Y-93205365D01*
X179852370Y-93215298D01*
X179828525Y-93457400D01*
X179852370Y-93699502D01*
X179922989Y-93932301D01*
X180037667Y-94146849D01*
X180191998Y-94334902D01*
X180380051Y-94489233D01*
X180594599Y-94603911D01*
X180827398Y-94674530D01*
X181008835Y-94692400D01*
X181830165Y-94692400D01*
X181999890Y-94675684D01*
X181999890Y-140069225D01*
X181982741Y-140114587D01*
X181939260Y-140200816D01*
X181891413Y-140260000D01*
X85144034Y-140260000D01*
X85132437Y-140249206D01*
X85084900Y-140180655D01*
X85050641Y-140097932D01*
X85042528Y-140063957D01*
X85042516Y-140063511D01*
X85042143Y-140025021D01*
X85041763Y-139960623D01*
X85041388Y-139871876D01*
X85041018Y-139759063D01*
X85041019Y-139759063D01*
X85040653Y-139622339D01*
X85040293Y-139462293D01*
X85039938Y-139279194D01*
X85039589Y-139073385D01*
X85039244Y-138845202D01*
X85038905Y-138594990D01*
X85038571Y-138323084D01*
X85038243Y-138029823D01*
X85037919Y-137715543D01*
X85037601Y-137380585D01*
X85037288Y-137025285D01*
X85036980Y-136649980D01*
X85036678Y-136255008D01*
X85036380Y-135840706D01*
X85036088Y-135407412D01*
X85035801Y-134955463D01*
X85035520Y-134485197D01*
X85035243Y-133996950D01*
X85034972Y-133491060D01*
X85034706Y-132967865D01*
X85034446Y-132427702D01*
X85034190Y-131870908D01*
X85033940Y-131297820D01*
X85033695Y-130708775D01*
X85033455Y-130104112D01*
X85033221Y-129484167D01*
X85032991Y-128849277D01*
X85032767Y-128199780D01*
X85032549Y-127536014D01*
X85032363Y-126944200D01*
X124750345Y-126944200D01*
X124779017Y-127235311D01*
X124863931Y-127515234D01*
X125001824Y-127773214D01*
X125187396Y-127999334D01*
X125413516Y-128184906D01*
X125671496Y-128322799D01*
X125951419Y-128407713D01*
X126169580Y-128429200D01*
X126315480Y-128429200D01*
X126533641Y-128407713D01*
X126813564Y-128322799D01*
X127071544Y-128184906D01*
X127297664Y-127999334D01*
X127483236Y-127773214D01*
X127512530Y-127718409D01*
X127541824Y-127773214D01*
X127727396Y-127999334D01*
X127953516Y-128184906D01*
X128211496Y-128322799D01*
X128491419Y-128407713D01*
X128709580Y-128429200D01*
X128855480Y-128429200D01*
X129073641Y-128407713D01*
X129353564Y-128322799D01*
X129611544Y-128184906D01*
X129837664Y-127999334D01*
X130023236Y-127773214D01*
X130052530Y-127718409D01*
X130081824Y-127773214D01*
X130267396Y-127999334D01*
X130493516Y-128184906D01*
X130751496Y-128322799D01*
X131031419Y-128407713D01*
X131249580Y-128429200D01*
X131395480Y-128429200D01*
X131613641Y-128407713D01*
X131893564Y-128322799D01*
X132151544Y-128184906D01*
X132377664Y-127999334D01*
X132563236Y-127773214D01*
X132592530Y-127718409D01*
X132621824Y-127773214D01*
X132807396Y-127999334D01*
X133033516Y-128184906D01*
X133291496Y-128322799D01*
X133571419Y-128407713D01*
X133789580Y-128429200D01*
X133935480Y-128429200D01*
X134153641Y-128407713D01*
X134433564Y-128322799D01*
X134691544Y-128184906D01*
X134917664Y-127999334D01*
X135103236Y-127773214D01*
X135132530Y-127718409D01*
X135161824Y-127773214D01*
X135347396Y-127999334D01*
X135573516Y-128184906D01*
X135831496Y-128322799D01*
X136111419Y-128407713D01*
X136329580Y-128429200D01*
X136475480Y-128429200D01*
X136693641Y-128407713D01*
X136973564Y-128322799D01*
X137231544Y-128184906D01*
X137457664Y-127999334D01*
X137482137Y-127969513D01*
X137503028Y-128038380D01*
X137561993Y-128148694D01*
X137641345Y-128245385D01*
X137738036Y-128324737D01*
X137848350Y-128383702D01*
X137968048Y-128420012D01*
X138092530Y-128432272D01*
X139792530Y-128432272D01*
X139917012Y-128420012D01*
X140036710Y-128383702D01*
X140147024Y-128324737D01*
X140243715Y-128245385D01*
X140323067Y-128148694D01*
X140382032Y-128038380D01*
X140418342Y-127918682D01*
X140430602Y-127794200D01*
X140430602Y-126783242D01*
X163826480Y-126783242D01*
X163826480Y-127115158D01*
X163891234Y-127440696D01*
X164018252Y-127747347D01*
X164202655Y-128023325D01*
X164437355Y-128258025D01*
X164713333Y-128442428D01*
X165019984Y-128569446D01*
X165345522Y-128634200D01*
X165677438Y-128634200D01*
X166002976Y-128569446D01*
X166309627Y-128442428D01*
X166585605Y-128258025D01*
X166761480Y-128082150D01*
X166937355Y-128258025D01*
X167213333Y-128442428D01*
X167519984Y-128569446D01*
X167845522Y-128634200D01*
X168177438Y-128634200D01*
X168502976Y-128569446D01*
X168809627Y-128442428D01*
X169085605Y-128258025D01*
X169223364Y-128120266D01*
X169520019Y-128120266D01*
X169621819Y-128389779D01*
X169919957Y-128535663D01*
X170240826Y-128620580D01*
X170572097Y-128641266D01*
X170901037Y-128596928D01*
X171215007Y-128489269D01*
X171401141Y-128389779D01*
X171502941Y-128120266D01*
X170511480Y-127128805D01*
X169520019Y-128120266D01*
X169223364Y-128120266D01*
X169320305Y-128023325D01*
X169446271Y-127834804D01*
X170331875Y-126949200D01*
X169446271Y-126063596D01*
X169320305Y-125875075D01*
X169223364Y-125778134D01*
X169520019Y-125778134D01*
X170511480Y-126769595D01*
X171502941Y-125778134D01*
X171401141Y-125508621D01*
X171103003Y-125362737D01*
X170782134Y-125277820D01*
X170450863Y-125257134D01*
X170121923Y-125301472D01*
X169807953Y-125409131D01*
X169621819Y-125508621D01*
X169520019Y-125778134D01*
X169223364Y-125778134D01*
X169085605Y-125640375D01*
X168809627Y-125455972D01*
X168502976Y-125328954D01*
X168177438Y-125264200D01*
X167845522Y-125264200D01*
X167519984Y-125328954D01*
X167213333Y-125455972D01*
X166937355Y-125640375D01*
X166761480Y-125816250D01*
X166585605Y-125640375D01*
X166309627Y-125455972D01*
X166002976Y-125328954D01*
X165677438Y-125264200D01*
X165345522Y-125264200D01*
X165019984Y-125328954D01*
X164713333Y-125455972D01*
X164437355Y-125640375D01*
X164202655Y-125875075D01*
X164018252Y-126151053D01*
X163891234Y-126457704D01*
X163826480Y-126783242D01*
X140430602Y-126783242D01*
X140430602Y-126094200D01*
X140418342Y-125969718D01*
X140382032Y-125850020D01*
X140323067Y-125739706D01*
X140243715Y-125643015D01*
X140147024Y-125563663D01*
X140036710Y-125504698D01*
X139917012Y-125468388D01*
X139792530Y-125456128D01*
X139685300Y-125456128D01*
X139685300Y-74472023D01*
X139688976Y-74434700D01*
X139685300Y-74397377D01*
X139685300Y-74397367D01*
X139674303Y-74285714D01*
X139630846Y-74142453D01*
X139595158Y-74075686D01*
X139560274Y-74010423D01*
X139525331Y-73967846D01*
X139465301Y-73894699D01*
X139436298Y-73870897D01*
X138993804Y-73428403D01*
X138970001Y-73399399D01*
X138854276Y-73304426D01*
X138722247Y-73233854D01*
X138578986Y-73190397D01*
X138543550Y-73186907D01*
X138429669Y-73110814D01*
X138259509Y-73040332D01*
X138078869Y-73004400D01*
X137894691Y-73004400D01*
X137714051Y-73040332D01*
X137543891Y-73110814D01*
X137390752Y-73213138D01*
X137260518Y-73343372D01*
X137158194Y-73496511D01*
X137087712Y-73666671D01*
X137051780Y-73847311D01*
X137051780Y-73950467D01*
X137045674Y-73939044D01*
X136950701Y-73823319D01*
X136921702Y-73799520D01*
X136909933Y-73787751D01*
X136885848Y-73666671D01*
X136815366Y-73496511D01*
X136713042Y-73343372D01*
X136582808Y-73213138D01*
X136429669Y-73110814D01*
X136259509Y-73040332D01*
X136078869Y-73004400D01*
X135894691Y-73004400D01*
X135714051Y-73040332D01*
X135543891Y-73110814D01*
X135390752Y-73213138D01*
X135260518Y-73343372D01*
X135158194Y-73496511D01*
X135087712Y-73666671D01*
X135051780Y-73847311D01*
X135051780Y-74031489D01*
X135087712Y-74212129D01*
X135158194Y-74382289D01*
X135260518Y-74535428D01*
X135390752Y-74665662D01*
X135543891Y-74767986D01*
X135650701Y-74812228D01*
X135650700Y-122035067D01*
X135650700Y-122693932D01*
X135650701Y-122693940D01*
X135650700Y-125621845D01*
X135648875Y-125640375D01*
X135646501Y-125664483D01*
X135573516Y-125703494D01*
X135347396Y-125889066D01*
X135161824Y-126115186D01*
X135132530Y-126169991D01*
X135103236Y-126115186D01*
X134917664Y-125889066D01*
X134691544Y-125703494D01*
X134618561Y-125664484D01*
X134611533Y-125593133D01*
X134605300Y-125572585D01*
X134605300Y-74643170D01*
X134713042Y-74535428D01*
X134815366Y-74382289D01*
X134885848Y-74212129D01*
X134921780Y-74031489D01*
X134921780Y-73847311D01*
X134885848Y-73666671D01*
X134815366Y-73496511D01*
X134713042Y-73343372D01*
X134582808Y-73213138D01*
X134429669Y-73110814D01*
X134259509Y-73040332D01*
X134078869Y-73004400D01*
X133894691Y-73004400D01*
X133714051Y-73040332D01*
X133543891Y-73110814D01*
X133390752Y-73213138D01*
X133260518Y-73343372D01*
X133158194Y-73496511D01*
X133087712Y-73666671D01*
X133051780Y-73847311D01*
X133051780Y-74031489D01*
X133085301Y-74200008D01*
X133085300Y-122263667D01*
X133085300Y-122770132D01*
X133085301Y-122770141D01*
X133085300Y-125675815D01*
X133033516Y-125703494D01*
X132807396Y-125889066D01*
X132621824Y-126115186D01*
X132592530Y-126169991D01*
X132563236Y-126115186D01*
X132377664Y-125889066D01*
X132151544Y-125703494D01*
X132078561Y-125664484D01*
X132078000Y-125658793D01*
X132078000Y-74922981D01*
X132138429Y-74862553D01*
X132259509Y-74838468D01*
X132429669Y-74767986D01*
X132582808Y-74665662D01*
X132713042Y-74535428D01*
X132815366Y-74382289D01*
X132885848Y-74212129D01*
X132921780Y-74031489D01*
X132921780Y-73847311D01*
X132885848Y-73666671D01*
X132815366Y-73496511D01*
X132713042Y-73343372D01*
X132582808Y-73213138D01*
X132429669Y-73110814D01*
X132259509Y-73040332D01*
X132078869Y-73004400D01*
X131894691Y-73004400D01*
X131714051Y-73040332D01*
X131543891Y-73110814D01*
X131390752Y-73213138D01*
X131260518Y-73343372D01*
X131158194Y-73496511D01*
X131087712Y-73666671D01*
X131063627Y-73787751D01*
X130921780Y-73929599D01*
X130921780Y-73847311D01*
X130885848Y-73666671D01*
X130815366Y-73496511D01*
X130713042Y-73343372D01*
X130582808Y-73213138D01*
X130429669Y-73110814D01*
X130259509Y-73040332D01*
X130078869Y-73004400D01*
X129894691Y-73004400D01*
X129714051Y-73040332D01*
X129543891Y-73110814D01*
X129390752Y-73213138D01*
X129260518Y-73343372D01*
X129158194Y-73496511D01*
X129087712Y-73666671D01*
X129063627Y-73787751D01*
X128921780Y-73929598D01*
X128921780Y-73847311D01*
X128885848Y-73666671D01*
X128815366Y-73496511D01*
X128713042Y-73343372D01*
X128582808Y-73213138D01*
X128429669Y-73110814D01*
X128259509Y-73040332D01*
X128078869Y-73004400D01*
X127894691Y-73004400D01*
X127714051Y-73040332D01*
X127543891Y-73110814D01*
X127390752Y-73213138D01*
X127260518Y-73343372D01*
X127158194Y-73496511D01*
X127087712Y-73666671D01*
X127063628Y-73787750D01*
X125726998Y-75124381D01*
X125698000Y-75148179D01*
X125674202Y-75177177D01*
X125674201Y-75177178D01*
X125603026Y-75263904D01*
X125532454Y-75395934D01*
X125502180Y-75495738D01*
X125488998Y-75539194D01*
X125480435Y-75626138D01*
X125474324Y-75688180D01*
X125478001Y-75725513D01*
X125478000Y-122517667D01*
X125478000Y-122884432D01*
X125478001Y-122884441D01*
X125478000Y-125669027D01*
X125413516Y-125703494D01*
X125187396Y-125889066D01*
X125001824Y-126115186D01*
X124863931Y-126373166D01*
X124779017Y-126653089D01*
X124750345Y-126944200D01*
X85032363Y-126944200D01*
X85032335Y-126858315D01*
X85032127Y-126167021D01*
X85031924Y-125462468D01*
X85031726Y-124744996D01*
X85031533Y-124014939D01*
X85031346Y-123272637D01*
X85031164Y-122518425D01*
X85030987Y-121752643D01*
X85030815Y-120975626D01*
X85030648Y-120187711D01*
X85030487Y-119389237D01*
X85030331Y-118580542D01*
X85030180Y-117761961D01*
X85030035Y-116933832D01*
X85029895Y-116096492D01*
X85029760Y-115250278D01*
X85029630Y-114395530D01*
X85029505Y-113532581D01*
X85029386Y-112661773D01*
X85029272Y-111783439D01*
X85029163Y-110897919D01*
X85029059Y-110005548D01*
X85028961Y-109106668D01*
X85028867Y-108201610D01*
X85028779Y-107290716D01*
X85028697Y-106374320D01*
X85028619Y-105452762D01*
X85028547Y-104526377D01*
X85028480Y-103595505D01*
X85028418Y-102660481D01*
X85028362Y-101721643D01*
X85028310Y-100779327D01*
X85028264Y-99833874D01*
X85028223Y-98885616D01*
X85028188Y-97934895D01*
X85028157Y-96982045D01*
X85028132Y-96027407D01*
X85028112Y-95071313D01*
X85028097Y-94114105D01*
X85028088Y-93156118D01*
X85028084Y-92197690D01*
X85028085Y-91239159D01*
X85028091Y-90280860D01*
X85028102Y-89323132D01*
X85028119Y-88366311D01*
X85028141Y-87410737D01*
X85028168Y-86456744D01*
X85028201Y-85504671D01*
X85028218Y-85048711D01*
X90301800Y-85048711D01*
X90301800Y-85232889D01*
X90337732Y-85413529D01*
X90408214Y-85583689D01*
X90510538Y-85736828D01*
X90640772Y-85867062D01*
X90793911Y-85969386D01*
X90964071Y-86039868D01*
X91144711Y-86075800D01*
X91328889Y-86075800D01*
X91509529Y-86039868D01*
X91679689Y-85969386D01*
X91832828Y-85867062D01*
X91963062Y-85736828D01*
X92065386Y-85583689D01*
X92135868Y-85413529D01*
X92171800Y-85232889D01*
X92171800Y-85048711D01*
X92135868Y-84868071D01*
X92065386Y-84697911D01*
X91996800Y-84595265D01*
X91996800Y-80342665D01*
X94999003Y-77340463D01*
X95028001Y-77316665D01*
X95081507Y-77251468D01*
X95122974Y-77200941D01*
X95193546Y-77068911D01*
X95230093Y-76948428D01*
X95237003Y-76925650D01*
X95238303Y-76912448D01*
X95316586Y-76795289D01*
X95387068Y-76625129D01*
X95423000Y-76444489D01*
X95423000Y-76260311D01*
X95387068Y-76079671D01*
X95316586Y-75909511D01*
X95214262Y-75756372D01*
X95084028Y-75626138D01*
X94930889Y-75523814D01*
X94760729Y-75453332D01*
X94580089Y-75417400D01*
X94395911Y-75417400D01*
X94215271Y-75453332D01*
X94045111Y-75523814D01*
X93891972Y-75626138D01*
X93761738Y-75756372D01*
X93659414Y-75909511D01*
X93588932Y-76079671D01*
X93553000Y-76260311D01*
X93553000Y-76444489D01*
X93584917Y-76604945D01*
X90725803Y-79464060D01*
X90696799Y-79487863D01*
X90641671Y-79555038D01*
X90601826Y-79603588D01*
X90531255Y-79735617D01*
X90531254Y-79735618D01*
X90487797Y-79878879D01*
X90476800Y-79990532D01*
X90476800Y-79990542D01*
X90473124Y-80027864D01*
X90476800Y-80065187D01*
X90476801Y-84595263D01*
X90408214Y-84697911D01*
X90337732Y-84868071D01*
X90301800Y-85048711D01*
X85028218Y-85048711D01*
X85028238Y-84554855D01*
X85028281Y-83607633D01*
X85028329Y-82663343D01*
X85028383Y-81722323D01*
X85028441Y-80784907D01*
X85028505Y-79851436D01*
X85028574Y-78922244D01*
X85028648Y-77997673D01*
X85028728Y-77078054D01*
X85028813Y-76163731D01*
X85028903Y-75255035D01*
X85028998Y-74352307D01*
X85029098Y-73455883D01*
X85029204Y-72566102D01*
X85029315Y-71683298D01*
X85029431Y-70807812D01*
X85029552Y-69939979D01*
X85029679Y-69080136D01*
X85029811Y-68228623D01*
X85029948Y-67385773D01*
X85030090Y-66551928D01*
X85030238Y-65727421D01*
X85030390Y-64912592D01*
X85030548Y-64107778D01*
X85030712Y-63313315D01*
X85030880Y-62529542D01*
X85031054Y-61756795D01*
X85031233Y-60995411D01*
X85031417Y-60245729D01*
X85031606Y-59508084D01*
X85031801Y-58782815D01*
X85032001Y-58070259D01*
X85032206Y-57370753D01*
X85032338Y-56938322D01*
X93732640Y-56938322D01*
X93732640Y-57270238D01*
X93797394Y-57595776D01*
X93924412Y-57902427D01*
X94108815Y-58178405D01*
X94284690Y-58354280D01*
X94108815Y-58530155D01*
X93924412Y-58806133D01*
X93797394Y-59112784D01*
X93732640Y-59438322D01*
X93732640Y-59770238D01*
X93797394Y-60095776D01*
X93924412Y-60402427D01*
X94108815Y-60678405D01*
X94284690Y-60854280D01*
X94108815Y-61030155D01*
X93924412Y-61306133D01*
X93797394Y-61612784D01*
X93732640Y-61938322D01*
X93732640Y-62270238D01*
X93797394Y-62595776D01*
X93924412Y-62902427D01*
X94108815Y-63178405D01*
X94284690Y-63354280D01*
X94108815Y-63530155D01*
X93924412Y-63806133D01*
X93797394Y-64112784D01*
X93732640Y-64438322D01*
X93732640Y-64770238D01*
X93797394Y-65095776D01*
X93924412Y-65402427D01*
X94108815Y-65678405D01*
X94284690Y-65854280D01*
X94108815Y-66030155D01*
X93924412Y-66306133D01*
X93797394Y-66612784D01*
X93732640Y-66938322D01*
X93732640Y-67270238D01*
X93797394Y-67595776D01*
X93924412Y-67902427D01*
X94108815Y-68178405D01*
X94343515Y-68413105D01*
X94619493Y-68597508D01*
X94926144Y-68724526D01*
X95251682Y-68789280D01*
X95583598Y-68789280D01*
X95909136Y-68724526D01*
X96215787Y-68597508D01*
X96491765Y-68413105D01*
X96726465Y-68178405D01*
X96910868Y-67902427D01*
X97037886Y-67595776D01*
X97102640Y-67270238D01*
X97102640Y-66938322D01*
X97037886Y-66612784D01*
X96910868Y-66306133D01*
X96726465Y-66030155D01*
X96550590Y-65854280D01*
X96726465Y-65678405D01*
X96910868Y-65402427D01*
X97037886Y-65095776D01*
X97102640Y-64770238D01*
X97102640Y-64438322D01*
X97037886Y-64112784D01*
X96910868Y-63806133D01*
X96726465Y-63530155D01*
X96550590Y-63354280D01*
X96726465Y-63178405D01*
X96910868Y-62902427D01*
X97037886Y-62595776D01*
X97102640Y-62270238D01*
X97102640Y-61938322D01*
X97037886Y-61612784D01*
X96910868Y-61306133D01*
X96726465Y-61030155D01*
X96550590Y-60854280D01*
X96726465Y-60678405D01*
X96910868Y-60402427D01*
X97037886Y-60095776D01*
X97102640Y-59770238D01*
X97102640Y-59438322D01*
X97037886Y-59112784D01*
X96910868Y-58806133D01*
X96726465Y-58530155D01*
X96550590Y-58354280D01*
X96726465Y-58178405D01*
X96910868Y-57902427D01*
X97037886Y-57595776D01*
X97102640Y-57270238D01*
X97102640Y-56938322D01*
X97037886Y-56612784D01*
X96910868Y-56306133D01*
X96726465Y-56030155D01*
X96491765Y-55795455D01*
X96215787Y-55611052D01*
X95909136Y-55484034D01*
X95583598Y-55419280D01*
X95251682Y-55419280D01*
X94926144Y-55484034D01*
X94619493Y-55611052D01*
X94343515Y-55795455D01*
X94108815Y-56030155D01*
X93924412Y-56306133D01*
X93797394Y-56612784D01*
X93732640Y-56938322D01*
X85032338Y-56938322D01*
X85032416Y-56684635D01*
X85032632Y-56012241D01*
X85032853Y-55353909D01*
X85032955Y-55061471D01*
X151790120Y-55061471D01*
X151790120Y-55245649D01*
X151826052Y-55426289D01*
X151896534Y-55596449D01*
X151957501Y-55687693D01*
X151957500Y-86462367D01*
X151953823Y-86499700D01*
X151957501Y-86537043D01*
X151957500Y-105132974D01*
X151953824Y-105170296D01*
X151957500Y-105207618D01*
X151957500Y-105207628D01*
X151968497Y-105319281D01*
X152011954Y-105462542D01*
X152082526Y-105594572D01*
X152111824Y-105630271D01*
X152177499Y-105710297D01*
X152206503Y-105734100D01*
X172042513Y-125570111D01*
X171937355Y-125640375D01*
X171702655Y-125875075D01*
X171576689Y-126063596D01*
X170691085Y-126949200D01*
X171576689Y-127834804D01*
X171702655Y-128023325D01*
X171937355Y-128258025D01*
X172213333Y-128442428D01*
X172519984Y-128569446D01*
X172845522Y-128634200D01*
X173177438Y-128634200D01*
X173502976Y-128569446D01*
X173809627Y-128442428D01*
X174085605Y-128258025D01*
X174261480Y-128082150D01*
X174437355Y-128258025D01*
X174713333Y-128442428D01*
X175019984Y-128569446D01*
X175345522Y-128634200D01*
X175677438Y-128634200D01*
X176002976Y-128569446D01*
X176309627Y-128442428D01*
X176585605Y-128258025D01*
X176820305Y-128023325D01*
X177004708Y-127747347D01*
X177131726Y-127440696D01*
X177196480Y-127115158D01*
X177196480Y-126783242D01*
X177131726Y-126457704D01*
X177004708Y-126151053D01*
X176820305Y-125875075D01*
X176585605Y-125640375D01*
X176309627Y-125455972D01*
X176002976Y-125328954D01*
X175677438Y-125264200D01*
X175345522Y-125264200D01*
X175221481Y-125288873D01*
X175221481Y-124451599D01*
X175225157Y-124414276D01*
X175221481Y-124376953D01*
X175221481Y-124376944D01*
X175210484Y-124265291D01*
X175167027Y-124122030D01*
X175096455Y-123990001D01*
X175083292Y-123973962D01*
X175025280Y-123903273D01*
X175025276Y-123903269D01*
X175001482Y-123874276D01*
X174972489Y-123850482D01*
X156586460Y-105464455D01*
X156586460Y-89308685D01*
X156703550Y-89344203D01*
X156716752Y-89345503D01*
X156833911Y-89423786D01*
X157004071Y-89494268D01*
X157184711Y-89530200D01*
X157368889Y-89530200D01*
X157549529Y-89494268D01*
X157719689Y-89423786D01*
X157872828Y-89321462D01*
X158003062Y-89191228D01*
X158105386Y-89038089D01*
X158175868Y-88867929D01*
X158211800Y-88687289D01*
X158211800Y-88503111D01*
X158175868Y-88322471D01*
X158105386Y-88152311D01*
X158003062Y-87999172D01*
X157872828Y-87868938D01*
X157719689Y-87766614D01*
X157549529Y-87696132D01*
X157368889Y-87660200D01*
X157184711Y-87660200D01*
X157024255Y-87692117D01*
X156586460Y-87254323D01*
X156586460Y-61647691D01*
X157931840Y-61647691D01*
X157931840Y-61831869D01*
X157967772Y-62012509D01*
X158038254Y-62182669D01*
X158140578Y-62335808D01*
X158270812Y-62466042D01*
X158423951Y-62568366D01*
X158594111Y-62638848D01*
X158774751Y-62674780D01*
X158958929Y-62674780D01*
X159139569Y-62638848D01*
X159309729Y-62568366D01*
X159412375Y-62499780D01*
X170592045Y-62499780D01*
X170694691Y-62568366D01*
X170864851Y-62638848D01*
X171045491Y-62674780D01*
X171229669Y-62674780D01*
X171410309Y-62638848D01*
X171580469Y-62568366D01*
X171733608Y-62466042D01*
X171863842Y-62335808D01*
X171966166Y-62182669D01*
X172036648Y-62012509D01*
X172072580Y-61831869D01*
X172072580Y-61647691D01*
X172036648Y-61467051D01*
X171966166Y-61296891D01*
X171863842Y-61143752D01*
X171733608Y-61013518D01*
X171580469Y-60911194D01*
X171410309Y-60840712D01*
X171229669Y-60804780D01*
X171045491Y-60804780D01*
X170864851Y-60840712D01*
X170694691Y-60911194D01*
X170592045Y-60979780D01*
X159412375Y-60979780D01*
X159309729Y-60911194D01*
X159139569Y-60840712D01*
X158958929Y-60804780D01*
X158774751Y-60804780D01*
X158594111Y-60840712D01*
X158423951Y-60911194D01*
X158270812Y-61013518D01*
X158140578Y-61143752D01*
X158038254Y-61296891D01*
X157967772Y-61467051D01*
X157931840Y-61647691D01*
X156586460Y-61647691D01*
X156586460Y-59077211D01*
X157975020Y-59077211D01*
X157975020Y-59261389D01*
X158010952Y-59442029D01*
X158081434Y-59612189D01*
X158183758Y-59765328D01*
X158313992Y-59895562D01*
X158467131Y-59997886D01*
X158637291Y-60068368D01*
X158817931Y-60104300D01*
X159002109Y-60104300D01*
X159182749Y-60068368D01*
X159352909Y-59997886D01*
X159390932Y-59972480D01*
X170467585Y-59972480D01*
X170570231Y-60041066D01*
X170740391Y-60111548D01*
X170921031Y-60147480D01*
X171105209Y-60147480D01*
X171285849Y-60111548D01*
X171456009Y-60041066D01*
X171609148Y-59938742D01*
X171739382Y-59808508D01*
X171841706Y-59655369D01*
X171912188Y-59485209D01*
X171948120Y-59304569D01*
X171948120Y-59120391D01*
X171929890Y-59028742D01*
X173234640Y-59028742D01*
X173234640Y-59360658D01*
X173299394Y-59686196D01*
X173426412Y-59992847D01*
X173610815Y-60268825D01*
X173806690Y-60464700D01*
X173610815Y-60660575D01*
X173426412Y-60936553D01*
X173299394Y-61243204D01*
X173234640Y-61568742D01*
X173234640Y-61900658D01*
X173299394Y-62226196D01*
X173426412Y-62532847D01*
X173610815Y-62808825D01*
X173806690Y-63004700D01*
X173610815Y-63200575D01*
X173426412Y-63476553D01*
X173299394Y-63783204D01*
X173234640Y-64108742D01*
X173234640Y-64440658D01*
X173299394Y-64766196D01*
X173426412Y-65072847D01*
X173610815Y-65348825D01*
X173845515Y-65583525D01*
X174121493Y-65767928D01*
X174428144Y-65894946D01*
X174753682Y-65959700D01*
X175085598Y-65959700D01*
X175411136Y-65894946D01*
X175717787Y-65767928D01*
X175993765Y-65583525D01*
X176228465Y-65348825D01*
X176412868Y-65072847D01*
X176539886Y-64766196D01*
X176604640Y-64440658D01*
X176604640Y-64108742D01*
X176539886Y-63783204D01*
X176412868Y-63476553D01*
X176228465Y-63200575D01*
X176032590Y-63004700D01*
X176228465Y-62808825D01*
X176412868Y-62532847D01*
X176539886Y-62226196D01*
X176604640Y-61900658D01*
X176604640Y-61568742D01*
X176539886Y-61243204D01*
X176412868Y-60936553D01*
X176228465Y-60660575D01*
X176032590Y-60464700D01*
X176228465Y-60268825D01*
X176412868Y-59992847D01*
X176539886Y-59686196D01*
X176604640Y-59360658D01*
X176604640Y-59028742D01*
X176539886Y-58703204D01*
X176412868Y-58396553D01*
X176228465Y-58120575D01*
X175993765Y-57885875D01*
X175717787Y-57701472D01*
X175411136Y-57574454D01*
X175085598Y-57509700D01*
X174753682Y-57509700D01*
X174428144Y-57574454D01*
X174121493Y-57701472D01*
X173845515Y-57885875D01*
X173610815Y-58120575D01*
X173426412Y-58396553D01*
X173299394Y-58703204D01*
X173234640Y-59028742D01*
X171929890Y-59028742D01*
X171912188Y-58939751D01*
X171841706Y-58769591D01*
X171739382Y-58616452D01*
X171609148Y-58486218D01*
X171456009Y-58383894D01*
X171285849Y-58313412D01*
X171105209Y-58277480D01*
X170921031Y-58277480D01*
X170740391Y-58313412D01*
X170570231Y-58383894D01*
X170467585Y-58452480D01*
X159515490Y-58452480D01*
X159506048Y-58443038D01*
X159352909Y-58340714D01*
X159182749Y-58270232D01*
X159002109Y-58234300D01*
X158817931Y-58234300D01*
X158637291Y-58270232D01*
X158467131Y-58340714D01*
X158313992Y-58443038D01*
X158183758Y-58573272D01*
X158081434Y-58726411D01*
X158010952Y-58896571D01*
X157975020Y-59077211D01*
X156586460Y-59077211D01*
X156586460Y-57726015D01*
X156655046Y-57623369D01*
X156725528Y-57453209D01*
X156761460Y-57272569D01*
X156761460Y-57088391D01*
X156725528Y-56907751D01*
X156655046Y-56737591D01*
X156552722Y-56584452D01*
X156422488Y-56454218D01*
X156269349Y-56351894D01*
X156099189Y-56281412D01*
X155918549Y-56245480D01*
X155734371Y-56245480D01*
X155553731Y-56281412D01*
X155383571Y-56351894D01*
X155230432Y-56454218D01*
X155100198Y-56584452D01*
X154997874Y-56737591D01*
X154927392Y-56907751D01*
X154891460Y-57088391D01*
X154891460Y-57272569D01*
X154927392Y-57453209D01*
X154997874Y-57623369D01*
X155066461Y-57726017D01*
X155066460Y-87488527D01*
X155066460Y-87531802D01*
X155062784Y-87569124D01*
X155066460Y-87606446D01*
X155066460Y-87606456D01*
X155066461Y-87606466D01*
X155066460Y-105741934D01*
X155062784Y-105779256D01*
X155066460Y-105816578D01*
X155066460Y-105816588D01*
X155077457Y-105928241D01*
X155120914Y-106071502D01*
X155191486Y-106203532D01*
X155231331Y-106252082D01*
X155286459Y-106319257D01*
X155315463Y-106343060D01*
X173701482Y-124729081D01*
X173701482Y-125142948D01*
X173646454Y-125040000D01*
X173551481Y-124924275D01*
X173522483Y-124900477D01*
X153477500Y-104855495D01*
X153477500Y-88015772D01*
X153570011Y-88077586D01*
X153740171Y-88148068D01*
X153920811Y-88184000D01*
X154104989Y-88184000D01*
X154285629Y-88148068D01*
X154455789Y-88077586D01*
X154608928Y-87975262D01*
X154739162Y-87845028D01*
X154841486Y-87691889D01*
X154911968Y-87521729D01*
X154947900Y-87341089D01*
X154947900Y-87156911D01*
X154911968Y-86976271D01*
X154841486Y-86806111D01*
X154739162Y-86652972D01*
X154608928Y-86522738D01*
X154455789Y-86420414D01*
X154285629Y-86349932D01*
X154104989Y-86314000D01*
X153920811Y-86314000D01*
X153760355Y-86345917D01*
X153477500Y-86063063D01*
X153477500Y-55710500D01*
X153553706Y-55596449D01*
X153624188Y-55426289D01*
X153660120Y-55245649D01*
X153660120Y-55061471D01*
X153624188Y-54880831D01*
X153553706Y-54710671D01*
X153451382Y-54557532D01*
X153321148Y-54427298D01*
X153168009Y-54324974D01*
X152997849Y-54254492D01*
X152817209Y-54218560D01*
X152633031Y-54218560D01*
X152452391Y-54254492D01*
X152282231Y-54324974D01*
X152129092Y-54427298D01*
X151998858Y-54557532D01*
X151896534Y-54710671D01*
X151826052Y-54880831D01*
X151790120Y-55061471D01*
X85032955Y-55061471D01*
X85033079Y-54709976D01*
X85033310Y-54080779D01*
X85033547Y-53466656D01*
X85033788Y-52867946D01*
X85034035Y-52284983D01*
X85034288Y-51718105D01*
X85034545Y-51167652D01*
X85034808Y-50633958D01*
X85035076Y-50117361D01*
X85035349Y-49618200D01*
X85035627Y-49136812D01*
X85035911Y-48673533D01*
X85036200Y-48228700D01*
X85036494Y-47802651D01*
X85036793Y-47395726D01*
X85037098Y-47008258D01*
X85037407Y-46640588D01*
X85037722Y-46293052D01*
X85038043Y-45965986D01*
X85038368Y-45659730D01*
X85038699Y-45374622D01*
X85039035Y-45110997D01*
X85039376Y-44869196D01*
X85039722Y-44649558D01*
X85040074Y-44452419D01*
X85040431Y-44278123D01*
X85040793Y-44126950D01*
X85040792Y-44126950D01*
X85041159Y-43999436D01*
X85041531Y-43895760D01*
X85041532Y-43895760D01*
X85041559Y-43890000D01*
X181999890Y-43890000D01*
X181999890Y-85239116D01*
M02*
