G04 #@! TF.GenerationSoftware,KiCad,Pcbnew,(5.1.2)-1*
G04 #@! TF.CreationDate,2019-08-26T21:33:07-05:00*
G04 #@! TF.ProjectId,8266-dev,38323636-2d64-4657-962e-6b696361645f,rev?*
G04 #@! TF.SameCoordinates,Original*
G04 #@! TF.FileFunction,Other,Fab,Top*
%FSLAX46Y46*%
G04 Gerber Fmt 4.6, Leading zero omitted, Abs format (unit mm)*
G04 Created by KiCad (PCBNEW (5.1.2)-1) date 2019-08-26 21:33:07*
%MOMM*%
%LPD*%
G04 APERTURE LIST*
%ADD10C,0.100000*%
%ADD11C,0.150000*%
%ADD12C,0.120000*%
%ADD13C,0.075000*%
G04 APERTURE END LIST*
D10*
X90818200Y-131935180D02*
X111518200Y-131935180D01*
X90818200Y-122405180D02*
X111518200Y-122405180D01*
X90818200Y-131935180D02*
X90818200Y-122405180D01*
X111518200Y-131935180D02*
X111518200Y-122405180D01*
X111518200Y-129695180D02*
X113168200Y-129695180D01*
X111518200Y-124645180D02*
X113168200Y-124645180D01*
X113868200Y-125345180D02*
X113168200Y-124645180D01*
X113868200Y-128995180D02*
X113168200Y-129695180D01*
X113868200Y-125345180D02*
X113868200Y-128995180D01*
X90818200Y-124645180D02*
X89168200Y-124645180D01*
X90818200Y-129695180D02*
X89168200Y-129695180D01*
X88468200Y-125345180D02*
X89168200Y-124645180D01*
X88468200Y-128995180D02*
X89168200Y-129695180D01*
X88468200Y-125345180D02*
X88468200Y-128995180D01*
X112090300Y-68933720D02*
X113690300Y-68933720D01*
X113690300Y-68933720D02*
X113690300Y-72133720D01*
X113690300Y-72133720D02*
X112090300Y-72133720D01*
X112090300Y-72133720D02*
X112090300Y-68933720D01*
X115246760Y-54488180D02*
X115246760Y-56088180D01*
X115246760Y-56088180D02*
X112046760Y-56088180D01*
X112046760Y-56088180D02*
X112046760Y-54488180D01*
X112046760Y-54488180D02*
X115246760Y-54488180D01*
X111879120Y-58361680D02*
X115079120Y-58361680D01*
X111879120Y-59961680D02*
X111879120Y-58361680D01*
X115079120Y-59961680D02*
X111879120Y-59961680D01*
X115079120Y-58361680D02*
X115079120Y-59961680D01*
X163509300Y-52158800D02*
X160309300Y-52158800D01*
X163509300Y-50558800D02*
X163509300Y-52158800D01*
X160309300Y-50558800D02*
X163509300Y-50558800D01*
X160309300Y-52158800D02*
X160309300Y-50558800D01*
X152943360Y-66675100D02*
X152943360Y-68275100D01*
X152943360Y-68275100D02*
X149743360Y-68275100D01*
X149743360Y-68275100D02*
X149743360Y-66675100D01*
X149743360Y-66675100D02*
X152943360Y-66675100D01*
X167805360Y-60563780D02*
X167805360Y-66263780D01*
X167530360Y-60263780D02*
X161805360Y-60263780D01*
X167805360Y-60563780D02*
X167530360Y-60263780D01*
X161805360Y-60263780D02*
X161805360Y-66263780D01*
X161805360Y-66263780D02*
X167805360Y-66263780D01*
X177961480Y-124074200D02*
X177961480Y-129824200D01*
X163061480Y-129824200D02*
X177961480Y-129824200D01*
X163061480Y-124074200D02*
X177961480Y-124074200D01*
X163061480Y-124074200D02*
X163061480Y-129824200D01*
X98292640Y-69554280D02*
X92542640Y-69554280D01*
X92542640Y-54654280D02*
X92542640Y-69554280D01*
X98292640Y-54654280D02*
X98292640Y-69554280D01*
X98292640Y-54654280D02*
X92542640Y-54654280D01*
X140212530Y-126309200D02*
X140212530Y-128214200D01*
X140212530Y-128214200D02*
X124972530Y-128214200D01*
X124972530Y-128214200D02*
X124972530Y-125674200D01*
X124972530Y-125674200D02*
X139577530Y-125674200D01*
X139577530Y-125674200D02*
X140212530Y-126309200D01*
X173649640Y-57924700D02*
X173649640Y-65544700D01*
X176189640Y-57924700D02*
X173649640Y-57924700D01*
X176189640Y-65544700D02*
X173649640Y-65544700D01*
X176189640Y-57924700D02*
X176189640Y-65544700D01*
X117406520Y-68978980D02*
X119006520Y-68978980D01*
X119006520Y-68978980D02*
X119006520Y-72178980D01*
X119006520Y-72178980D02*
X117406520Y-72178980D01*
X117406520Y-72178980D02*
X117406520Y-68978980D01*
X94874000Y-89445000D02*
G75*
G03X94874000Y-89445000I-2000000J0D01*
G01*
X90374000Y-86945000D02*
X90374000Y-91945000D01*
X95374000Y-86945000D02*
X90374000Y-86945000D01*
X95374000Y-91945000D02*
X95374000Y-86945000D01*
X90374000Y-91945000D02*
X95374000Y-91945000D01*
X94374000Y-86945000D02*
X95374000Y-87945000D01*
X103869666Y-86945000D02*
X104869666Y-87945000D01*
X99869666Y-91945000D02*
X104869666Y-91945000D01*
X104869666Y-91945000D02*
X104869666Y-86945000D01*
X104869666Y-86945000D02*
X99869666Y-86945000D01*
X99869666Y-86945000D02*
X99869666Y-91945000D01*
X104369666Y-89445000D02*
G75*
G03X104369666Y-89445000I-2000000J0D01*
G01*
X113865332Y-89445000D02*
G75*
G03X113865332Y-89445000I-2000000J0D01*
G01*
X109365332Y-86945000D02*
X109365332Y-91945000D01*
X114365332Y-86945000D02*
X109365332Y-86945000D01*
X114365332Y-91945000D02*
X114365332Y-86945000D01*
X109365332Y-91945000D02*
X114365332Y-91945000D01*
X113365332Y-86945000D02*
X114365332Y-87945000D01*
X122861000Y-86945000D02*
X123861000Y-87945000D01*
X118861000Y-91945000D02*
X123861000Y-91945000D01*
X123861000Y-91945000D02*
X123861000Y-86945000D01*
X123861000Y-86945000D02*
X118861000Y-86945000D01*
X118861000Y-86945000D02*
X118861000Y-91945000D01*
X123361000Y-89445000D02*
G75*
G03X123361000Y-89445000I-2000000J0D01*
G01*
X95440500Y-73198000D02*
X92990500Y-73198000D01*
X96010500Y-73748000D02*
X96010500Y-74598000D01*
X95440500Y-73198000D02*
X96010500Y-73748000D01*
X96010500Y-74598000D02*
X92970500Y-74598000D01*
X92970500Y-73198000D02*
X92970500Y-74598000D01*
X183569500Y-86207400D02*
X178569500Y-86207400D01*
X182871204Y-92957400D02*
X182871204Y-86957400D01*
X183571204Y-93707400D02*
X183571204Y-86207400D01*
X178569500Y-93707400D02*
X178569500Y-86207400D01*
X183569500Y-93707400D02*
X178569500Y-93707400D01*
X178469500Y-91257400D02*
X178269500Y-91457400D01*
X178269500Y-91057400D02*
X178469500Y-91257400D01*
X178059500Y-91457400D02*
X178059500Y-91057400D01*
X178059500Y-91457400D02*
X178269500Y-91457400D01*
X178059500Y-91057400D02*
X178269500Y-91057400D01*
X163180900Y-90359400D02*
X160255900Y-90359400D01*
X160255900Y-90359400D02*
X160255900Y-85459400D01*
X160255900Y-85459400D02*
X164155900Y-85459400D01*
X164155900Y-85459400D02*
X164155900Y-89384400D01*
X164155900Y-89384400D02*
X163180900Y-90359400D01*
X168247699Y-92421301D02*
X169847699Y-92421301D01*
X169847699Y-92421301D02*
X169847699Y-95621301D01*
X169847699Y-95621301D02*
X168247699Y-95621301D01*
X168247699Y-95621301D02*
X168247699Y-92421301D01*
X164957699Y-95621301D02*
X164957699Y-92421301D01*
X166557699Y-95621301D02*
X164957699Y-95621301D01*
X166557699Y-92421301D02*
X166557699Y-95621301D01*
X164957699Y-92421301D02*
X166557699Y-92421301D01*
X146494500Y-53728700D02*
X146494500Y-54228700D01*
X146094500Y-53728700D02*
X146494500Y-53128700D01*
X146894500Y-53728700D02*
X146094500Y-53728700D01*
X146494500Y-53128700D02*
X146894500Y-53728700D01*
X146494500Y-53128700D02*
X145944500Y-53128700D01*
X146494500Y-53128700D02*
X147044500Y-53128700D01*
X146494500Y-52728700D02*
X146494500Y-53128700D01*
X145594500Y-52078700D02*
X147394500Y-52078700D01*
X145594500Y-54878700D02*
X145594500Y-52078700D01*
X147394500Y-54878700D02*
X145594500Y-54878700D01*
X147394500Y-52078700D02*
X147394500Y-54878700D01*
X156935600Y-56924400D02*
X156935600Y-54124400D01*
X156935600Y-54124400D02*
X158735600Y-54124400D01*
X158735600Y-54124400D02*
X158735600Y-56924400D01*
X158735600Y-56924400D02*
X156935600Y-56924400D01*
X157835600Y-56274400D02*
X157835600Y-55874400D01*
X157835600Y-55874400D02*
X157285600Y-55874400D01*
X157835600Y-55874400D02*
X158385600Y-55874400D01*
X157835600Y-55874400D02*
X157435600Y-55274400D01*
X157435600Y-55274400D02*
X158235600Y-55274400D01*
X158235600Y-55274400D02*
X157835600Y-55874400D01*
X157835600Y-55274400D02*
X157835600Y-54774400D01*
D11*
X99096771Y-138298751D02*
X99239628Y-138346370D01*
X99287247Y-138393989D01*
X99334866Y-138489227D01*
X99334866Y-138632084D01*
X99287247Y-138727322D01*
X99239628Y-138774941D01*
X99144390Y-138822560D01*
X98763438Y-138822560D01*
X98763438Y-137822560D01*
X99096771Y-137822560D01*
X99192009Y-137870180D01*
X99239628Y-137917799D01*
X99287247Y-138013037D01*
X99287247Y-138108275D01*
X99239628Y-138203513D01*
X99192009Y-138251132D01*
X99096771Y-138298751D01*
X98763438Y-138298751D01*
X100192009Y-138822560D02*
X100192009Y-138298751D01*
X100144390Y-138203513D01*
X100049152Y-138155894D01*
X99858676Y-138155894D01*
X99763438Y-138203513D01*
X100192009Y-138774941D02*
X100096771Y-138822560D01*
X99858676Y-138822560D01*
X99763438Y-138774941D01*
X99715819Y-138679703D01*
X99715819Y-138584465D01*
X99763438Y-138489227D01*
X99858676Y-138441608D01*
X100096771Y-138441608D01*
X100192009Y-138393989D01*
X100525342Y-138155894D02*
X100906295Y-138155894D01*
X100668200Y-137822560D02*
X100668200Y-138679703D01*
X100715819Y-138774941D01*
X100811057Y-138822560D01*
X100906295Y-138822560D01*
X101096771Y-138155894D02*
X101477723Y-138155894D01*
X101239628Y-137822560D02*
X101239628Y-138679703D01*
X101287247Y-138774941D01*
X101382485Y-138822560D01*
X101477723Y-138822560D01*
X102192009Y-138774941D02*
X102096771Y-138822560D01*
X101906295Y-138822560D01*
X101811057Y-138774941D01*
X101763438Y-138679703D01*
X101763438Y-138298751D01*
X101811057Y-138203513D01*
X101906295Y-138155894D01*
X102096771Y-138155894D01*
X102192009Y-138203513D01*
X102239628Y-138298751D01*
X102239628Y-138393989D01*
X101763438Y-138489227D01*
X102668200Y-138822560D02*
X102668200Y-138155894D01*
X102668200Y-138346370D02*
X102715819Y-138251132D01*
X102763438Y-138203513D01*
X102858676Y-138155894D01*
X102953914Y-138155894D01*
X103192009Y-138155894D02*
X103430104Y-138822560D01*
X103668200Y-138155894D02*
X103430104Y-138822560D01*
X103334866Y-139060656D01*
X103287247Y-139108275D01*
X103192009Y-139155894D01*
X100382485Y-127098751D02*
X100525342Y-127146370D01*
X100572961Y-127193989D01*
X100620580Y-127289227D01*
X100620580Y-127432084D01*
X100572961Y-127527322D01*
X100525342Y-127574941D01*
X100430104Y-127622560D01*
X100049152Y-127622560D01*
X100049152Y-126622560D01*
X100382485Y-126622560D01*
X100477723Y-126670180D01*
X100525342Y-126717799D01*
X100572961Y-126813037D01*
X100572961Y-126908275D01*
X100525342Y-127003513D01*
X100477723Y-127051132D01*
X100382485Y-127098751D01*
X100049152Y-127098751D01*
X100906295Y-126622560D02*
X101477723Y-126622560D01*
X101192009Y-127622560D02*
X101192009Y-126622560D01*
X102334866Y-127622560D02*
X101763438Y-127622560D01*
X102049152Y-127622560D02*
X102049152Y-126622560D01*
X101953914Y-126765418D01*
X101858676Y-126860656D01*
X101763438Y-126908275D01*
X111522680Y-71605148D02*
X111522680Y-72176577D01*
X111522680Y-71890862D02*
X110522680Y-71890862D01*
X110665538Y-71986100D01*
X110760776Y-72081339D01*
X110808395Y-72176577D01*
X110522680Y-70986100D02*
X110522680Y-70890862D01*
X110570300Y-70795624D01*
X110617919Y-70748005D01*
X110713157Y-70700386D01*
X110903633Y-70652767D01*
X111141728Y-70652767D01*
X111332204Y-70700386D01*
X111427442Y-70748005D01*
X111475061Y-70795624D01*
X111522680Y-70890862D01*
X111522680Y-70986100D01*
X111475061Y-71081339D01*
X111427442Y-71128958D01*
X111332204Y-71176577D01*
X111141728Y-71224196D01*
X110903633Y-71224196D01*
X110713157Y-71176577D01*
X110617919Y-71128958D01*
X110570300Y-71081339D01*
X110522680Y-70986100D01*
X110856014Y-69795624D02*
X111522680Y-69795624D01*
X110856014Y-70224196D02*
X111379823Y-70224196D01*
X111475061Y-70176577D01*
X111522680Y-70081339D01*
X111522680Y-69938481D01*
X111475061Y-69843243D01*
X111427442Y-69795624D01*
X110998871Y-68986100D02*
X110998871Y-69319434D01*
X111522680Y-69319434D02*
X110522680Y-69319434D01*
X110522680Y-68843243D01*
D12*
X113176014Y-70667053D02*
X113214109Y-70705148D01*
X113252204Y-70819434D01*
X113252204Y-70895624D01*
X113214109Y-71009910D01*
X113137919Y-71086100D01*
X113061728Y-71124196D01*
X112909347Y-71162291D01*
X112795061Y-71162291D01*
X112642680Y-71124196D01*
X112566490Y-71086100D01*
X112490300Y-71009910D01*
X112452204Y-70895624D01*
X112452204Y-70819434D01*
X112490300Y-70705148D01*
X112528395Y-70667053D01*
X113252204Y-69905148D02*
X113252204Y-70362291D01*
X113252204Y-70133720D02*
X112452204Y-70133720D01*
X112566490Y-70209910D01*
X112642680Y-70286100D01*
X112680776Y-70362291D01*
D11*
X112956283Y-53920560D02*
X112384855Y-53920560D01*
X112670569Y-53920560D02*
X112670569Y-52920560D01*
X112575331Y-53063418D01*
X112480093Y-53158656D01*
X112384855Y-53206275D01*
X113575331Y-52920560D02*
X113670569Y-52920560D01*
X113765807Y-52968180D01*
X113813426Y-53015799D01*
X113861045Y-53111037D01*
X113908664Y-53301513D01*
X113908664Y-53539608D01*
X113861045Y-53730084D01*
X113813426Y-53825322D01*
X113765807Y-53872941D01*
X113670569Y-53920560D01*
X113575331Y-53920560D01*
X113480093Y-53872941D01*
X113432474Y-53825322D01*
X113384855Y-53730084D01*
X113337236Y-53539608D01*
X113337236Y-53301513D01*
X113384855Y-53111037D01*
X113432474Y-53015799D01*
X113480093Y-52968180D01*
X113575331Y-52920560D01*
X114337236Y-53920560D02*
X114337236Y-52920560D01*
X114908664Y-53920560D02*
X114480093Y-53349132D01*
X114908664Y-52920560D02*
X114337236Y-53491989D01*
D12*
X113513426Y-55650084D02*
X113246760Y-55269132D01*
X113056283Y-55650084D02*
X113056283Y-54850084D01*
X113361045Y-54850084D01*
X113437236Y-54888180D01*
X113475331Y-54926275D01*
X113513426Y-55002465D01*
X113513426Y-55116751D01*
X113475331Y-55192941D01*
X113437236Y-55231037D01*
X113361045Y-55269132D01*
X113056283Y-55269132D01*
X114275331Y-55650084D02*
X113818188Y-55650084D01*
X114046760Y-55650084D02*
X114046760Y-54850084D01*
X113970569Y-54964370D01*
X113894379Y-55040560D01*
X113818188Y-55078656D01*
D11*
X112788643Y-57794060D02*
X112217215Y-57794060D01*
X112502929Y-57794060D02*
X112502929Y-56794060D01*
X112407691Y-56936918D01*
X112312453Y-57032156D01*
X112217215Y-57079775D01*
X113407691Y-56794060D02*
X113502929Y-56794060D01*
X113598167Y-56841680D01*
X113645786Y-56889299D01*
X113693405Y-56984537D01*
X113741024Y-57175013D01*
X113741024Y-57413108D01*
X113693405Y-57603584D01*
X113645786Y-57698822D01*
X113598167Y-57746441D01*
X113502929Y-57794060D01*
X113407691Y-57794060D01*
X113312453Y-57746441D01*
X113264834Y-57698822D01*
X113217215Y-57603584D01*
X113169596Y-57413108D01*
X113169596Y-57175013D01*
X113217215Y-56984537D01*
X113264834Y-56889299D01*
X113312453Y-56841680D01*
X113407691Y-56794060D01*
X114169596Y-57794060D02*
X114169596Y-56794060D01*
X114741024Y-57794060D02*
X114312453Y-57222632D01*
X114741024Y-56794060D02*
X114169596Y-57365489D01*
D12*
X113345786Y-59523584D02*
X113079120Y-59142632D01*
X112888643Y-59523584D02*
X112888643Y-58723584D01*
X113193405Y-58723584D01*
X113269596Y-58761680D01*
X113307691Y-58799775D01*
X113345786Y-58875965D01*
X113345786Y-58990251D01*
X113307691Y-59066441D01*
X113269596Y-59104537D01*
X113193405Y-59142632D01*
X112888643Y-59142632D01*
X113650548Y-58799775D02*
X113688643Y-58761680D01*
X113764834Y-58723584D01*
X113955310Y-58723584D01*
X114031500Y-58761680D01*
X114069596Y-58799775D01*
X114107691Y-58875965D01*
X114107691Y-58952156D01*
X114069596Y-59066441D01*
X113612453Y-59523584D01*
X114107691Y-59523584D01*
D11*
X161218823Y-53631180D02*
X160647395Y-53631180D01*
X160933109Y-53631180D02*
X160933109Y-52631180D01*
X160837871Y-52774038D01*
X160742633Y-52869276D01*
X160647395Y-52916895D01*
X161837871Y-52631180D02*
X161933109Y-52631180D01*
X162028347Y-52678800D01*
X162075966Y-52726419D01*
X162123585Y-52821657D01*
X162171204Y-53012133D01*
X162171204Y-53250228D01*
X162123585Y-53440704D01*
X162075966Y-53535942D01*
X162028347Y-53583561D01*
X161933109Y-53631180D01*
X161837871Y-53631180D01*
X161742633Y-53583561D01*
X161695014Y-53535942D01*
X161647395Y-53440704D01*
X161599776Y-53250228D01*
X161599776Y-53012133D01*
X161647395Y-52821657D01*
X161695014Y-52726419D01*
X161742633Y-52678800D01*
X161837871Y-52631180D01*
X162599776Y-53631180D02*
X162599776Y-52631180D01*
X163171204Y-53631180D02*
X162742633Y-53059752D01*
X163171204Y-52631180D02*
X162599776Y-53202609D01*
D12*
X161775966Y-51720704D02*
X161509300Y-51339752D01*
X161318823Y-51720704D02*
X161318823Y-50920704D01*
X161623585Y-50920704D01*
X161699776Y-50958800D01*
X161737871Y-50996895D01*
X161775966Y-51073085D01*
X161775966Y-51187371D01*
X161737871Y-51263561D01*
X161699776Y-51301657D01*
X161623585Y-51339752D01*
X161318823Y-51339752D01*
X162042633Y-50920704D02*
X162537871Y-50920704D01*
X162271204Y-51225466D01*
X162385490Y-51225466D01*
X162461680Y-51263561D01*
X162499776Y-51301657D01*
X162537871Y-51377847D01*
X162537871Y-51568323D01*
X162499776Y-51644514D01*
X162461680Y-51682609D01*
X162385490Y-51720704D01*
X162156919Y-51720704D01*
X162080728Y-51682609D01*
X162042633Y-51644514D01*
D11*
X150652883Y-66107480D02*
X150081455Y-66107480D01*
X150367169Y-66107480D02*
X150367169Y-65107480D01*
X150271931Y-65250338D01*
X150176693Y-65345576D01*
X150081455Y-65393195D01*
X151271931Y-65107480D02*
X151367169Y-65107480D01*
X151462407Y-65155100D01*
X151510026Y-65202719D01*
X151557645Y-65297957D01*
X151605264Y-65488433D01*
X151605264Y-65726528D01*
X151557645Y-65917004D01*
X151510026Y-66012242D01*
X151462407Y-66059861D01*
X151367169Y-66107480D01*
X151271931Y-66107480D01*
X151176693Y-66059861D01*
X151129074Y-66012242D01*
X151081455Y-65917004D01*
X151033836Y-65726528D01*
X151033836Y-65488433D01*
X151081455Y-65297957D01*
X151129074Y-65202719D01*
X151176693Y-65155100D01*
X151271931Y-65107480D01*
X152033836Y-66107480D02*
X152033836Y-65107480D01*
X152605264Y-66107480D02*
X152176693Y-65536052D01*
X152605264Y-65107480D02*
X152033836Y-65678909D01*
D12*
X151210026Y-67837004D02*
X150943360Y-67456052D01*
X150752883Y-67837004D02*
X150752883Y-67037004D01*
X151057645Y-67037004D01*
X151133836Y-67075100D01*
X151171931Y-67113195D01*
X151210026Y-67189385D01*
X151210026Y-67303671D01*
X151171931Y-67379861D01*
X151133836Y-67417957D01*
X151057645Y-67456052D01*
X150752883Y-67456052D01*
X151895740Y-67303671D02*
X151895740Y-67837004D01*
X151705264Y-66998909D02*
X151514788Y-67570338D01*
X152010026Y-67570338D01*
D11*
X159511074Y-68311399D02*
X160177740Y-68311399D01*
X159130121Y-68549494D02*
X159844407Y-68787589D01*
X159844407Y-68168541D01*
X159177740Y-67882827D02*
X159177740Y-67263780D01*
X159558693Y-67597113D01*
X159558693Y-67454256D01*
X159606312Y-67359018D01*
X159653931Y-67311399D01*
X159749169Y-67263780D01*
X159987264Y-67263780D01*
X160082502Y-67311399D01*
X160130121Y-67359018D01*
X160177740Y-67454256D01*
X160177740Y-67739970D01*
X160130121Y-67835208D01*
X160082502Y-67882827D01*
X159177740Y-66644732D02*
X159177740Y-66549494D01*
X159225360Y-66454256D01*
X159272979Y-66406637D01*
X159368217Y-66359018D01*
X159558693Y-66311399D01*
X159796788Y-66311399D01*
X159987264Y-66359018D01*
X160082502Y-66406637D01*
X160130121Y-66454256D01*
X160177740Y-66549494D01*
X160177740Y-66644732D01*
X160130121Y-66739970D01*
X160082502Y-66787589D01*
X159987264Y-66835208D01*
X159796788Y-66882827D01*
X159558693Y-66882827D01*
X159368217Y-66835208D01*
X159272979Y-66787589D01*
X159225360Y-66739970D01*
X159177740Y-66644732D01*
X160177740Y-65359018D02*
X160177740Y-65930446D01*
X160177740Y-65644732D02*
X159177740Y-65644732D01*
X159320598Y-65739970D01*
X159415836Y-65835208D01*
X159463455Y-65930446D01*
X159177740Y-64454256D02*
X159177740Y-64930446D01*
X159653931Y-64978065D01*
X159606312Y-64930446D01*
X159558693Y-64835208D01*
X159558693Y-64597113D01*
X159606312Y-64501875D01*
X159653931Y-64454256D01*
X159749169Y-64406637D01*
X159987264Y-64406637D01*
X160082502Y-64454256D01*
X160130121Y-64501875D01*
X160177740Y-64597113D01*
X160177740Y-64835208D01*
X160130121Y-64930446D01*
X160082502Y-64978065D01*
X159272979Y-64025684D02*
X159225360Y-63978065D01*
X159177740Y-63882827D01*
X159177740Y-63644732D01*
X159225360Y-63549494D01*
X159272979Y-63501875D01*
X159368217Y-63454256D01*
X159463455Y-63454256D01*
X159606312Y-63501875D01*
X160177740Y-64073303D01*
X160177740Y-63454256D01*
X159177740Y-62835208D02*
X159177740Y-62739970D01*
X159225360Y-62644732D01*
X159272979Y-62597113D01*
X159368217Y-62549494D01*
X159558693Y-62501875D01*
X159796788Y-62501875D01*
X159987264Y-62549494D01*
X160082502Y-62597113D01*
X160130121Y-62644732D01*
X160177740Y-62739970D01*
X160177740Y-62835208D01*
X160130121Y-62930446D01*
X160082502Y-62978065D01*
X159987264Y-63025684D01*
X159796788Y-63073303D01*
X159558693Y-63073303D01*
X159368217Y-63025684D01*
X159272979Y-62978065D01*
X159225360Y-62930446D01*
X159177740Y-62835208D01*
X159177740Y-62168541D02*
X159177740Y-61501875D01*
X160177740Y-61930446D01*
X159177740Y-60930446D02*
X159177740Y-60835208D01*
X159225360Y-60739970D01*
X159272979Y-60692351D01*
X159368217Y-60644732D01*
X159558693Y-60597113D01*
X159796788Y-60597113D01*
X159987264Y-60644732D01*
X160082502Y-60692351D01*
X160130121Y-60739970D01*
X160177740Y-60835208D01*
X160177740Y-60930446D01*
X160130121Y-61025684D01*
X160082502Y-61073303D01*
X159987264Y-61120922D01*
X159796788Y-61168541D01*
X159558693Y-61168541D01*
X159368217Y-61120922D01*
X159272979Y-61073303D01*
X159225360Y-61025684D01*
X159177740Y-60930446D01*
X159606312Y-60025684D02*
X159558693Y-60120922D01*
X159511074Y-60168541D01*
X159415836Y-60216160D01*
X159368217Y-60216160D01*
X159272979Y-60168541D01*
X159225360Y-60120922D01*
X159177740Y-60025684D01*
X159177740Y-59835208D01*
X159225360Y-59739970D01*
X159272979Y-59692351D01*
X159368217Y-59644732D01*
X159415836Y-59644732D01*
X159511074Y-59692351D01*
X159558693Y-59739970D01*
X159606312Y-59835208D01*
X159606312Y-60025684D01*
X159653931Y-60120922D01*
X159701550Y-60168541D01*
X159796788Y-60216160D01*
X159987264Y-60216160D01*
X160082502Y-60168541D01*
X160130121Y-60120922D01*
X160177740Y-60025684D01*
X160177740Y-59835208D01*
X160130121Y-59739970D01*
X160082502Y-59692351D01*
X159987264Y-59644732D01*
X159796788Y-59644732D01*
X159701550Y-59692351D01*
X159653931Y-59739970D01*
X159606312Y-59835208D01*
X159272979Y-59263780D02*
X159225360Y-59216160D01*
X159177740Y-59120922D01*
X159177740Y-58882827D01*
X159225360Y-58787589D01*
X159272979Y-58739970D01*
X159368217Y-58692351D01*
X159463455Y-58692351D01*
X159606312Y-58739970D01*
X160177740Y-59311399D01*
X160177740Y-58692351D01*
X159177740Y-57835208D02*
X159177740Y-58025684D01*
X159225360Y-58120922D01*
X159272979Y-58168541D01*
X159415836Y-58263780D01*
X159606312Y-58311399D01*
X159987264Y-58311399D01*
X160082502Y-58263780D01*
X160130121Y-58216160D01*
X160177740Y-58120922D01*
X160177740Y-57930446D01*
X160130121Y-57835208D01*
X160082502Y-57787589D01*
X159987264Y-57739970D01*
X159749169Y-57739970D01*
X159653931Y-57787589D01*
X159606312Y-57835208D01*
X159558693Y-57930446D01*
X159558693Y-58120922D01*
X159606312Y-58216160D01*
X159653931Y-58263780D01*
X159749169Y-58311399D01*
X165085121Y-63900684D02*
X165132740Y-63757827D01*
X165132740Y-63519732D01*
X165085121Y-63424494D01*
X165037502Y-63376875D01*
X164942264Y-63329256D01*
X164847026Y-63329256D01*
X164751788Y-63376875D01*
X164704169Y-63424494D01*
X164656550Y-63519732D01*
X164608931Y-63710208D01*
X164561312Y-63805446D01*
X164513693Y-63853065D01*
X164418455Y-63900684D01*
X164323217Y-63900684D01*
X164227979Y-63853065D01*
X164180360Y-63805446D01*
X164132740Y-63710208D01*
X164132740Y-63472113D01*
X164180360Y-63329256D01*
X165132740Y-62376875D02*
X165132740Y-62948303D01*
X165132740Y-62662589D02*
X164132740Y-62662589D01*
X164275598Y-62757827D01*
X164370836Y-62853065D01*
X164418455Y-62948303D01*
X163825765Y-131506342D02*
X163778146Y-131553961D01*
X163635289Y-131601580D01*
X163540051Y-131601580D01*
X163397194Y-131553961D01*
X163301956Y-131458723D01*
X163254337Y-131363485D01*
X163206718Y-131173009D01*
X163206718Y-131030152D01*
X163254337Y-130839676D01*
X163301956Y-130744438D01*
X163397194Y-130649200D01*
X163540051Y-130601580D01*
X163635289Y-130601580D01*
X163778146Y-130649200D01*
X163825765Y-130696819D01*
X164397194Y-131601580D02*
X164301956Y-131553961D01*
X164254337Y-131506342D01*
X164206718Y-131411104D01*
X164206718Y-131125390D01*
X164254337Y-131030152D01*
X164301956Y-130982533D01*
X164397194Y-130934914D01*
X164540051Y-130934914D01*
X164635289Y-130982533D01*
X164682908Y-131030152D01*
X164730527Y-131125390D01*
X164730527Y-131411104D01*
X164682908Y-131506342D01*
X164635289Y-131553961D01*
X164540051Y-131601580D01*
X164397194Y-131601580D01*
X165159099Y-130934914D02*
X165159099Y-131601580D01*
X165159099Y-131030152D02*
X165206718Y-130982533D01*
X165301956Y-130934914D01*
X165444813Y-130934914D01*
X165540051Y-130982533D01*
X165587670Y-131077771D01*
X165587670Y-131601580D01*
X166063860Y-130934914D02*
X166063860Y-131601580D01*
X166063860Y-131030152D02*
X166111480Y-130982533D01*
X166206718Y-130934914D01*
X166349575Y-130934914D01*
X166444813Y-130982533D01*
X166492432Y-131077771D01*
X166492432Y-131601580D01*
X166730527Y-131696819D02*
X167492432Y-131696819D01*
X167921003Y-130601580D02*
X168016241Y-130601580D01*
X168111480Y-130649200D01*
X168159099Y-130696819D01*
X168206718Y-130792057D01*
X168254337Y-130982533D01*
X168254337Y-131220628D01*
X168206718Y-131411104D01*
X168159099Y-131506342D01*
X168111480Y-131553961D01*
X168016241Y-131601580D01*
X167921003Y-131601580D01*
X167825765Y-131553961D01*
X167778146Y-131506342D01*
X167730527Y-131411104D01*
X167682908Y-131220628D01*
X167682908Y-130982533D01*
X167730527Y-130792057D01*
X167778146Y-130696819D01*
X167825765Y-130649200D01*
X167921003Y-130601580D01*
X169206718Y-131601580D02*
X168635289Y-131601580D01*
X168921003Y-131601580D02*
X168921003Y-130601580D01*
X168825765Y-130744438D01*
X168730527Y-130839676D01*
X168635289Y-130887295D01*
X169540051Y-131601580D02*
X170063860Y-130934914D01*
X169540051Y-130934914D02*
X170063860Y-131601580D01*
X170635289Y-130601580D02*
X170730527Y-130601580D01*
X170825765Y-130649200D01*
X170873384Y-130696819D01*
X170921003Y-130792057D01*
X170968622Y-130982533D01*
X170968622Y-131220628D01*
X170921003Y-131411104D01*
X170873384Y-131506342D01*
X170825765Y-131553961D01*
X170730527Y-131601580D01*
X170635289Y-131601580D01*
X170540051Y-131553961D01*
X170492432Y-131506342D01*
X170444813Y-131411104D01*
X170397194Y-131220628D01*
X170397194Y-130982533D01*
X170444813Y-130792057D01*
X170492432Y-130696819D01*
X170540051Y-130649200D01*
X170635289Y-130601580D01*
X171873384Y-130601580D02*
X171397194Y-130601580D01*
X171349575Y-131077771D01*
X171397194Y-131030152D01*
X171492432Y-130982533D01*
X171730527Y-130982533D01*
X171825765Y-131030152D01*
X171873384Y-131077771D01*
X171921003Y-131173009D01*
X171921003Y-131411104D01*
X171873384Y-131506342D01*
X171825765Y-131553961D01*
X171730527Y-131601580D01*
X171492432Y-131601580D01*
X171397194Y-131553961D01*
X171349575Y-131506342D01*
X172111480Y-131696819D02*
X172873384Y-131696819D01*
X173444813Y-131077771D02*
X173111480Y-131077771D01*
X173111480Y-131601580D02*
X173111480Y-130601580D01*
X173587670Y-130601580D01*
X174349575Y-131553961D02*
X174254337Y-131601580D01*
X174063860Y-131601580D01*
X173968622Y-131553961D01*
X173921003Y-131458723D01*
X173921003Y-131077771D01*
X173968622Y-130982533D01*
X174063860Y-130934914D01*
X174254337Y-130934914D01*
X174349575Y-130982533D01*
X174397194Y-131077771D01*
X174397194Y-131173009D01*
X173921003Y-131268247D01*
X174825765Y-131601580D02*
X174825765Y-130934914D01*
X174825765Y-131030152D02*
X174873384Y-130982533D01*
X174968622Y-130934914D01*
X175111480Y-130934914D01*
X175206718Y-130982533D01*
X175254337Y-131077771D01*
X175254337Y-131601580D01*
X175254337Y-131077771D02*
X175301956Y-130982533D01*
X175397194Y-130934914D01*
X175540051Y-130934914D01*
X175635289Y-130982533D01*
X175682908Y-131077771D01*
X175682908Y-131601580D01*
X176587670Y-131601580D02*
X176587670Y-131077771D01*
X176540051Y-130982533D01*
X176444813Y-130934914D01*
X176254337Y-130934914D01*
X176159099Y-130982533D01*
X176587670Y-131553961D02*
X176492432Y-131601580D01*
X176254337Y-131601580D01*
X176159099Y-131553961D01*
X176111480Y-131458723D01*
X176111480Y-131363485D01*
X176159099Y-131268247D01*
X176254337Y-131220628D01*
X176492432Y-131220628D01*
X176587670Y-131173009D01*
X177206718Y-131601580D02*
X177111480Y-131553961D01*
X177063860Y-131458723D01*
X177063860Y-130601580D01*
X177968622Y-131553961D02*
X177873384Y-131601580D01*
X177682908Y-131601580D01*
X177587670Y-131553961D01*
X177540051Y-131458723D01*
X177540051Y-131077771D01*
X177587670Y-130982533D01*
X177682908Y-130934914D01*
X177873384Y-130934914D01*
X177968622Y-130982533D01*
X178016241Y-131077771D01*
X178016241Y-131173009D01*
X177540051Y-131268247D01*
X170178146Y-126401580D02*
X170178146Y-127115866D01*
X170130527Y-127258723D01*
X170035289Y-127353961D01*
X169892432Y-127401580D01*
X169797194Y-127401580D01*
X171178146Y-127401580D02*
X170606718Y-127401580D01*
X170892432Y-127401580D02*
X170892432Y-126401580D01*
X170797194Y-126544438D01*
X170701956Y-126639676D01*
X170606718Y-126687295D01*
X91574782Y-68989994D02*
X91622401Y-69037613D01*
X91670020Y-69180470D01*
X91670020Y-69275708D01*
X91622401Y-69418565D01*
X91527163Y-69513803D01*
X91431925Y-69561422D01*
X91241449Y-69609041D01*
X91098592Y-69609041D01*
X90908116Y-69561422D01*
X90812878Y-69513803D01*
X90717640Y-69418565D01*
X90670020Y-69275708D01*
X90670020Y-69180470D01*
X90717640Y-69037613D01*
X90765259Y-68989994D01*
X91670020Y-68418565D02*
X91622401Y-68513803D01*
X91574782Y-68561422D01*
X91479544Y-68609041D01*
X91193830Y-68609041D01*
X91098592Y-68561422D01*
X91050973Y-68513803D01*
X91003354Y-68418565D01*
X91003354Y-68275708D01*
X91050973Y-68180470D01*
X91098592Y-68132851D01*
X91193830Y-68085232D01*
X91479544Y-68085232D01*
X91574782Y-68132851D01*
X91622401Y-68180470D01*
X91670020Y-68275708D01*
X91670020Y-68418565D01*
X91003354Y-67656660D02*
X91670020Y-67656660D01*
X91098592Y-67656660D02*
X91050973Y-67609041D01*
X91003354Y-67513803D01*
X91003354Y-67370946D01*
X91050973Y-67275708D01*
X91146211Y-67228089D01*
X91670020Y-67228089D01*
X91003354Y-66751899D02*
X91670020Y-66751899D01*
X91098592Y-66751899D02*
X91050973Y-66704280D01*
X91003354Y-66609041D01*
X91003354Y-66466184D01*
X91050973Y-66370946D01*
X91146211Y-66323327D01*
X91670020Y-66323327D01*
X91765259Y-66085232D02*
X91765259Y-65323327D01*
X90670020Y-64894756D02*
X90670020Y-64799518D01*
X90717640Y-64704280D01*
X90765259Y-64656660D01*
X90860497Y-64609041D01*
X91050973Y-64561422D01*
X91289068Y-64561422D01*
X91479544Y-64609041D01*
X91574782Y-64656660D01*
X91622401Y-64704280D01*
X91670020Y-64799518D01*
X91670020Y-64894756D01*
X91622401Y-64989994D01*
X91574782Y-65037613D01*
X91479544Y-65085232D01*
X91289068Y-65132851D01*
X91050973Y-65132851D01*
X90860497Y-65085232D01*
X90765259Y-65037613D01*
X90717640Y-64989994D01*
X90670020Y-64894756D01*
X91670020Y-63609041D02*
X91670020Y-64180470D01*
X91670020Y-63894756D02*
X90670020Y-63894756D01*
X90812878Y-63989994D01*
X90908116Y-64085232D01*
X90955735Y-64180470D01*
X91670020Y-63275708D02*
X91003354Y-62751899D01*
X91003354Y-63275708D02*
X91670020Y-62751899D01*
X90670020Y-62180470D02*
X90670020Y-62085232D01*
X90717640Y-61989994D01*
X90765259Y-61942375D01*
X90860497Y-61894756D01*
X91050973Y-61847137D01*
X91289068Y-61847137D01*
X91479544Y-61894756D01*
X91574782Y-61942375D01*
X91622401Y-61989994D01*
X91670020Y-62085232D01*
X91670020Y-62180470D01*
X91622401Y-62275708D01*
X91574782Y-62323327D01*
X91479544Y-62370946D01*
X91289068Y-62418565D01*
X91050973Y-62418565D01*
X90860497Y-62370946D01*
X90765259Y-62323327D01*
X90717640Y-62275708D01*
X90670020Y-62180470D01*
X90670020Y-60942375D02*
X90670020Y-61418565D01*
X91146211Y-61466184D01*
X91098592Y-61418565D01*
X91050973Y-61323327D01*
X91050973Y-61085232D01*
X91098592Y-60989994D01*
X91146211Y-60942375D01*
X91241449Y-60894756D01*
X91479544Y-60894756D01*
X91574782Y-60942375D01*
X91622401Y-60989994D01*
X91670020Y-61085232D01*
X91670020Y-61323327D01*
X91622401Y-61418565D01*
X91574782Y-61466184D01*
X91765259Y-60704280D02*
X91765259Y-59942375D01*
X91146211Y-59370946D02*
X91146211Y-59704280D01*
X91670020Y-59704280D02*
X90670020Y-59704280D01*
X90670020Y-59228089D01*
X91622401Y-58466184D02*
X91670020Y-58561422D01*
X91670020Y-58751899D01*
X91622401Y-58847137D01*
X91527163Y-58894756D01*
X91146211Y-58894756D01*
X91050973Y-58847137D01*
X91003354Y-58751899D01*
X91003354Y-58561422D01*
X91050973Y-58466184D01*
X91146211Y-58418565D01*
X91241449Y-58418565D01*
X91336687Y-58894756D01*
X91670020Y-57989994D02*
X91003354Y-57989994D01*
X91098592Y-57989994D02*
X91050973Y-57942375D01*
X91003354Y-57847137D01*
X91003354Y-57704280D01*
X91050973Y-57609041D01*
X91146211Y-57561422D01*
X91670020Y-57561422D01*
X91146211Y-57561422D02*
X91050973Y-57513803D01*
X91003354Y-57418565D01*
X91003354Y-57275708D01*
X91050973Y-57180470D01*
X91146211Y-57132851D01*
X91670020Y-57132851D01*
X91670020Y-56228089D02*
X91146211Y-56228089D01*
X91050973Y-56275708D01*
X91003354Y-56370946D01*
X91003354Y-56561422D01*
X91050973Y-56656660D01*
X91622401Y-56228089D02*
X91670020Y-56323327D01*
X91670020Y-56561422D01*
X91622401Y-56656660D01*
X91527163Y-56704280D01*
X91431925Y-56704280D01*
X91336687Y-56656660D01*
X91289068Y-56561422D01*
X91289068Y-56323327D01*
X91241449Y-56228089D01*
X91670020Y-55609041D02*
X91622401Y-55704280D01*
X91527163Y-55751899D01*
X90670020Y-55751899D01*
X91622401Y-54847137D02*
X91670020Y-54942375D01*
X91670020Y-55132851D01*
X91622401Y-55228089D01*
X91527163Y-55275708D01*
X91146211Y-55275708D01*
X91050973Y-55228089D01*
X91003354Y-55132851D01*
X91003354Y-54942375D01*
X91050973Y-54847137D01*
X91146211Y-54799518D01*
X91241449Y-54799518D01*
X91336687Y-55275708D01*
X94870020Y-62437613D02*
X95584306Y-62437613D01*
X95727163Y-62485232D01*
X95822401Y-62580470D01*
X95870020Y-62723327D01*
X95870020Y-62818565D01*
X94965259Y-62009041D02*
X94917640Y-61961422D01*
X94870020Y-61866184D01*
X94870020Y-61628089D01*
X94917640Y-61532851D01*
X94965259Y-61485232D01*
X95060497Y-61437613D01*
X95155735Y-61437613D01*
X95298592Y-61485232D01*
X95870020Y-62056660D01*
X95870020Y-61437613D01*
X124269672Y-133729914D02*
X124317291Y-133777533D01*
X124364910Y-133920390D01*
X124364910Y-134015628D01*
X124317291Y-134158485D01*
X124222053Y-134253723D01*
X124126815Y-134301342D01*
X123936339Y-134348961D01*
X123793482Y-134348961D01*
X123603006Y-134301342D01*
X123507768Y-134253723D01*
X123412530Y-134158485D01*
X123364910Y-134015628D01*
X123364910Y-133920390D01*
X123412530Y-133777533D01*
X123460149Y-133729914D01*
X124364910Y-133158485D02*
X124317291Y-133253723D01*
X124269672Y-133301342D01*
X124174434Y-133348961D01*
X123888720Y-133348961D01*
X123793482Y-133301342D01*
X123745863Y-133253723D01*
X123698244Y-133158485D01*
X123698244Y-133015628D01*
X123745863Y-132920390D01*
X123793482Y-132872771D01*
X123888720Y-132825152D01*
X124174434Y-132825152D01*
X124269672Y-132872771D01*
X124317291Y-132920390D01*
X124364910Y-133015628D01*
X124364910Y-133158485D01*
X123698244Y-132396580D02*
X124364910Y-132396580D01*
X123793482Y-132396580D02*
X123745863Y-132348961D01*
X123698244Y-132253723D01*
X123698244Y-132110866D01*
X123745863Y-132015628D01*
X123841101Y-131968009D01*
X124364910Y-131968009D01*
X123698244Y-131491819D02*
X124364910Y-131491819D01*
X123793482Y-131491819D02*
X123745863Y-131444200D01*
X123698244Y-131348961D01*
X123698244Y-131206104D01*
X123745863Y-131110866D01*
X123841101Y-131063247D01*
X124364910Y-131063247D01*
X124460149Y-130825152D02*
X124460149Y-130063247D01*
X123364910Y-129634676D02*
X123364910Y-129539438D01*
X123412530Y-129444200D01*
X123460149Y-129396580D01*
X123555387Y-129348961D01*
X123745863Y-129301342D01*
X123983958Y-129301342D01*
X124174434Y-129348961D01*
X124269672Y-129396580D01*
X124317291Y-129444200D01*
X124364910Y-129539438D01*
X124364910Y-129634676D01*
X124317291Y-129729914D01*
X124269672Y-129777533D01*
X124174434Y-129825152D01*
X123983958Y-129872771D01*
X123745863Y-129872771D01*
X123555387Y-129825152D01*
X123460149Y-129777533D01*
X123412530Y-129729914D01*
X123364910Y-129634676D01*
X124364910Y-128348961D02*
X124364910Y-128920390D01*
X124364910Y-128634676D02*
X123364910Y-128634676D01*
X123507768Y-128729914D01*
X123603006Y-128825152D01*
X123650625Y-128920390D01*
X124364910Y-128015628D02*
X123698244Y-127491819D01*
X123698244Y-128015628D02*
X124364910Y-127491819D01*
X123364910Y-126920390D02*
X123364910Y-126825152D01*
X123412530Y-126729914D01*
X123460149Y-126682295D01*
X123555387Y-126634676D01*
X123745863Y-126587057D01*
X123983958Y-126587057D01*
X124174434Y-126634676D01*
X124269672Y-126682295D01*
X124317291Y-126729914D01*
X124364910Y-126825152D01*
X124364910Y-126920390D01*
X124317291Y-127015628D01*
X124269672Y-127063247D01*
X124174434Y-127110866D01*
X123983958Y-127158485D01*
X123745863Y-127158485D01*
X123555387Y-127110866D01*
X123460149Y-127063247D01*
X123412530Y-127015628D01*
X123364910Y-126920390D01*
X123364910Y-125729914D02*
X123364910Y-125920390D01*
X123412530Y-126015628D01*
X123460149Y-126063247D01*
X123603006Y-126158485D01*
X123793482Y-126206104D01*
X124174434Y-126206104D01*
X124269672Y-126158485D01*
X124317291Y-126110866D01*
X124364910Y-126015628D01*
X124364910Y-125825152D01*
X124317291Y-125729914D01*
X124269672Y-125682295D01*
X124174434Y-125634676D01*
X123936339Y-125634676D01*
X123841101Y-125682295D01*
X123793482Y-125729914D01*
X123745863Y-125825152D01*
X123745863Y-126015628D01*
X123793482Y-126110866D01*
X123841101Y-126158485D01*
X123936339Y-126206104D01*
X124460149Y-125444200D02*
X124460149Y-124682295D01*
X123841101Y-124110866D02*
X123841101Y-124444200D01*
X124364910Y-124444200D02*
X123364910Y-124444200D01*
X123364910Y-123968009D01*
X124317291Y-123206104D02*
X124364910Y-123301342D01*
X124364910Y-123491819D01*
X124317291Y-123587057D01*
X124222053Y-123634676D01*
X123841101Y-123634676D01*
X123745863Y-123587057D01*
X123698244Y-123491819D01*
X123698244Y-123301342D01*
X123745863Y-123206104D01*
X123841101Y-123158485D01*
X123936339Y-123158485D01*
X124031577Y-123634676D01*
X124364910Y-122729914D02*
X123698244Y-122729914D01*
X123793482Y-122729914D02*
X123745863Y-122682295D01*
X123698244Y-122587057D01*
X123698244Y-122444200D01*
X123745863Y-122348961D01*
X123841101Y-122301342D01*
X124364910Y-122301342D01*
X123841101Y-122301342D02*
X123745863Y-122253723D01*
X123698244Y-122158485D01*
X123698244Y-122015628D01*
X123745863Y-121920390D01*
X123841101Y-121872771D01*
X124364910Y-121872771D01*
X124364910Y-120968009D02*
X123841101Y-120968009D01*
X123745863Y-121015628D01*
X123698244Y-121110866D01*
X123698244Y-121301342D01*
X123745863Y-121396580D01*
X124317291Y-120968009D02*
X124364910Y-121063247D01*
X124364910Y-121301342D01*
X124317291Y-121396580D01*
X124222053Y-121444200D01*
X124126815Y-121444200D01*
X124031577Y-121396580D01*
X123983958Y-121301342D01*
X123983958Y-121063247D01*
X123936339Y-120968009D01*
X124364910Y-120348961D02*
X124317291Y-120444200D01*
X124222053Y-120491819D01*
X123364910Y-120491819D01*
X124317291Y-119587057D02*
X124364910Y-119682295D01*
X124364910Y-119872771D01*
X124317291Y-119968009D01*
X124222053Y-120015628D01*
X123841101Y-120015628D01*
X123745863Y-119968009D01*
X123698244Y-119872771D01*
X123698244Y-119682295D01*
X123745863Y-119587057D01*
X123841101Y-119539438D01*
X123936339Y-119539438D01*
X124031577Y-120015628D01*
X132259196Y-126396580D02*
X132259196Y-127110866D01*
X132211577Y-127253723D01*
X132116339Y-127348961D01*
X131973482Y-127396580D01*
X131878244Y-127396580D01*
X132640149Y-126396580D02*
X133259196Y-126396580D01*
X132925863Y-126777533D01*
X133068720Y-126777533D01*
X133163958Y-126825152D01*
X133211577Y-126872771D01*
X133259196Y-126968009D01*
X133259196Y-127206104D01*
X133211577Y-127301342D01*
X133163958Y-127348961D01*
X133068720Y-127396580D01*
X132783006Y-127396580D01*
X132687768Y-127348961D01*
X132640149Y-127301342D01*
X172576782Y-68690414D02*
X172624401Y-68738033D01*
X172672020Y-68880890D01*
X172672020Y-68976128D01*
X172624401Y-69118985D01*
X172529163Y-69214223D01*
X172433925Y-69261842D01*
X172243449Y-69309461D01*
X172100592Y-69309461D01*
X171910116Y-69261842D01*
X171814878Y-69214223D01*
X171719640Y-69118985D01*
X171672020Y-68976128D01*
X171672020Y-68880890D01*
X171719640Y-68738033D01*
X171767259Y-68690414D01*
X172672020Y-68118985D02*
X172624401Y-68214223D01*
X172576782Y-68261842D01*
X172481544Y-68309461D01*
X172195830Y-68309461D01*
X172100592Y-68261842D01*
X172052973Y-68214223D01*
X172005354Y-68118985D01*
X172005354Y-67976128D01*
X172052973Y-67880890D01*
X172100592Y-67833271D01*
X172195830Y-67785652D01*
X172481544Y-67785652D01*
X172576782Y-67833271D01*
X172624401Y-67880890D01*
X172672020Y-67976128D01*
X172672020Y-68118985D01*
X172005354Y-67357080D02*
X172672020Y-67357080D01*
X172100592Y-67357080D02*
X172052973Y-67309461D01*
X172005354Y-67214223D01*
X172005354Y-67071366D01*
X172052973Y-66976128D01*
X172148211Y-66928509D01*
X172672020Y-66928509D01*
X172005354Y-66452319D02*
X172672020Y-66452319D01*
X172100592Y-66452319D02*
X172052973Y-66404700D01*
X172005354Y-66309461D01*
X172005354Y-66166604D01*
X172052973Y-66071366D01*
X172148211Y-66023747D01*
X172672020Y-66023747D01*
X172767259Y-65785652D02*
X172767259Y-65023747D01*
X171672020Y-64595176D02*
X171672020Y-64499938D01*
X171719640Y-64404700D01*
X171767259Y-64357080D01*
X171862497Y-64309461D01*
X172052973Y-64261842D01*
X172291068Y-64261842D01*
X172481544Y-64309461D01*
X172576782Y-64357080D01*
X172624401Y-64404700D01*
X172672020Y-64499938D01*
X172672020Y-64595176D01*
X172624401Y-64690414D01*
X172576782Y-64738033D01*
X172481544Y-64785652D01*
X172291068Y-64833271D01*
X172052973Y-64833271D01*
X171862497Y-64785652D01*
X171767259Y-64738033D01*
X171719640Y-64690414D01*
X171672020Y-64595176D01*
X172672020Y-63309461D02*
X172672020Y-63880890D01*
X172672020Y-63595176D02*
X171672020Y-63595176D01*
X171814878Y-63690414D01*
X171910116Y-63785652D01*
X171957735Y-63880890D01*
X172672020Y-62976128D02*
X172005354Y-62452319D01*
X172005354Y-62976128D02*
X172672020Y-62452319D01*
X171672020Y-61880890D02*
X171672020Y-61785652D01*
X171719640Y-61690414D01*
X171767259Y-61642795D01*
X171862497Y-61595176D01*
X172052973Y-61547557D01*
X172291068Y-61547557D01*
X172481544Y-61595176D01*
X172576782Y-61642795D01*
X172624401Y-61690414D01*
X172672020Y-61785652D01*
X172672020Y-61880890D01*
X172624401Y-61976128D01*
X172576782Y-62023747D01*
X172481544Y-62071366D01*
X172291068Y-62118985D01*
X172052973Y-62118985D01*
X171862497Y-62071366D01*
X171767259Y-62023747D01*
X171719640Y-61976128D01*
X171672020Y-61880890D01*
X171672020Y-61214223D02*
X171672020Y-60595176D01*
X172052973Y-60928509D01*
X172052973Y-60785652D01*
X172100592Y-60690414D01*
X172148211Y-60642795D01*
X172243449Y-60595176D01*
X172481544Y-60595176D01*
X172576782Y-60642795D01*
X172624401Y-60690414D01*
X172672020Y-60785652D01*
X172672020Y-61071366D01*
X172624401Y-61166604D01*
X172576782Y-61214223D01*
X172767259Y-60404700D02*
X172767259Y-59642795D01*
X172148211Y-59071366D02*
X172148211Y-59404700D01*
X172672020Y-59404700D02*
X171672020Y-59404700D01*
X171672020Y-58928509D01*
X172624401Y-58166604D02*
X172672020Y-58261842D01*
X172672020Y-58452319D01*
X172624401Y-58547557D01*
X172529163Y-58595176D01*
X172148211Y-58595176D01*
X172052973Y-58547557D01*
X172005354Y-58452319D01*
X172005354Y-58261842D01*
X172052973Y-58166604D01*
X172148211Y-58118985D01*
X172243449Y-58118985D01*
X172338687Y-58595176D01*
X172672020Y-57690414D02*
X172005354Y-57690414D01*
X172100592Y-57690414D02*
X172052973Y-57642795D01*
X172005354Y-57547557D01*
X172005354Y-57404700D01*
X172052973Y-57309461D01*
X172148211Y-57261842D01*
X172672020Y-57261842D01*
X172148211Y-57261842D02*
X172052973Y-57214223D01*
X172005354Y-57118985D01*
X172005354Y-56976128D01*
X172052973Y-56880890D01*
X172148211Y-56833271D01*
X172672020Y-56833271D01*
X172672020Y-55928509D02*
X172148211Y-55928509D01*
X172052973Y-55976128D01*
X172005354Y-56071366D01*
X172005354Y-56261842D01*
X172052973Y-56357080D01*
X172624401Y-55928509D02*
X172672020Y-56023747D01*
X172672020Y-56261842D01*
X172624401Y-56357080D01*
X172529163Y-56404700D01*
X172433925Y-56404700D01*
X172338687Y-56357080D01*
X172291068Y-56261842D01*
X172291068Y-56023747D01*
X172243449Y-55928509D01*
X172672020Y-55309461D02*
X172624401Y-55404700D01*
X172529163Y-55452319D01*
X171672020Y-55452319D01*
X172624401Y-54547557D02*
X172672020Y-54642795D01*
X172672020Y-54833271D01*
X172624401Y-54928509D01*
X172529163Y-54976128D01*
X172148211Y-54976128D01*
X172052973Y-54928509D01*
X172005354Y-54833271D01*
X172005354Y-54642795D01*
X172052973Y-54547557D01*
X172148211Y-54499938D01*
X172243449Y-54499938D01*
X172338687Y-54976128D01*
X116838900Y-72126599D02*
X116838900Y-72698027D01*
X116838900Y-72412313D02*
X115838900Y-72412313D01*
X115981758Y-72507551D01*
X116076996Y-72602789D01*
X116124615Y-72698027D01*
X115838900Y-71507551D02*
X115838900Y-71412313D01*
X115886520Y-71317075D01*
X115934139Y-71269456D01*
X116029377Y-71221837D01*
X116219853Y-71174218D01*
X116457948Y-71174218D01*
X116648424Y-71221837D01*
X116743662Y-71269456D01*
X116791281Y-71317075D01*
X116838900Y-71412313D01*
X116838900Y-71507551D01*
X116791281Y-71602789D01*
X116743662Y-71650408D01*
X116648424Y-71698027D01*
X116457948Y-71745646D01*
X116219853Y-71745646D01*
X116029377Y-71698027D01*
X115934139Y-71650408D01*
X115886520Y-71602789D01*
X115838900Y-71507551D01*
X115838900Y-70555170D02*
X115838900Y-70459932D01*
X115886520Y-70364694D01*
X115934139Y-70317075D01*
X116029377Y-70269456D01*
X116219853Y-70221837D01*
X116457948Y-70221837D01*
X116648424Y-70269456D01*
X116743662Y-70317075D01*
X116791281Y-70364694D01*
X116838900Y-70459932D01*
X116838900Y-70555170D01*
X116791281Y-70650408D01*
X116743662Y-70698027D01*
X116648424Y-70745646D01*
X116457948Y-70793265D01*
X116219853Y-70793265D01*
X116029377Y-70745646D01*
X115934139Y-70698027D01*
X115886520Y-70650408D01*
X115838900Y-70555170D01*
X116172234Y-69793265D02*
X116838900Y-69793265D01*
X116267472Y-69793265D02*
X116219853Y-69745646D01*
X116172234Y-69650408D01*
X116172234Y-69507551D01*
X116219853Y-69412313D01*
X116315091Y-69364694D01*
X116838900Y-69364694D01*
X116315091Y-68555170D02*
X116315091Y-68888503D01*
X116838900Y-68888503D02*
X115838900Y-68888503D01*
X115838900Y-68412313D01*
D12*
X118492234Y-70712313D02*
X118530329Y-70750408D01*
X118568424Y-70864694D01*
X118568424Y-70940884D01*
X118530329Y-71055170D01*
X118454139Y-71131360D01*
X118377948Y-71169456D01*
X118225567Y-71207551D01*
X118111281Y-71207551D01*
X117958900Y-71169456D01*
X117882710Y-71131360D01*
X117806520Y-71055170D01*
X117768424Y-70940884D01*
X117768424Y-70864694D01*
X117806520Y-70750408D01*
X117844615Y-70712313D01*
X117844615Y-70407551D02*
X117806520Y-70369456D01*
X117768424Y-70293265D01*
X117768424Y-70102789D01*
X117806520Y-70026599D01*
X117844615Y-69988503D01*
X117920805Y-69950408D01*
X117996996Y-69950408D01*
X118111281Y-69988503D01*
X118568424Y-70445646D01*
X118568424Y-69950408D01*
D11*
X96326380Y-92754523D02*
X97326380Y-92516428D01*
X96612095Y-92325952D01*
X97326380Y-92135476D01*
X96326380Y-91897380D01*
X97278761Y-91564047D02*
X97326380Y-91421190D01*
X97326380Y-91183095D01*
X97278761Y-91087857D01*
X97231142Y-91040238D01*
X97135904Y-90992619D01*
X97040666Y-90992619D01*
X96945428Y-91040238D01*
X96897809Y-91087857D01*
X96850190Y-91183095D01*
X96802571Y-91373571D01*
X96754952Y-91468809D01*
X96707333Y-91516428D01*
X96612095Y-91564047D01*
X96516857Y-91564047D01*
X96421619Y-91516428D01*
X96374000Y-91468809D01*
X96326380Y-91373571D01*
X96326380Y-91135476D01*
X96374000Y-90992619D01*
X96421619Y-90611666D02*
X96374000Y-90564047D01*
X96326380Y-90468809D01*
X96326380Y-90230714D01*
X96374000Y-90135476D01*
X96421619Y-90087857D01*
X96516857Y-90040238D01*
X96612095Y-90040238D01*
X96754952Y-90087857D01*
X97326380Y-90659285D01*
X97326380Y-90040238D01*
X96754952Y-89468809D02*
X96707333Y-89564047D01*
X96659714Y-89611666D01*
X96564476Y-89659285D01*
X96516857Y-89659285D01*
X96421619Y-89611666D01*
X96374000Y-89564047D01*
X96326380Y-89468809D01*
X96326380Y-89278333D01*
X96374000Y-89183095D01*
X96421619Y-89135476D01*
X96516857Y-89087857D01*
X96564476Y-89087857D01*
X96659714Y-89135476D01*
X96707333Y-89183095D01*
X96754952Y-89278333D01*
X96754952Y-89468809D01*
X96802571Y-89564047D01*
X96850190Y-89611666D01*
X96945428Y-89659285D01*
X97135904Y-89659285D01*
X97231142Y-89611666D01*
X97278761Y-89564047D01*
X97326380Y-89468809D01*
X97326380Y-89278333D01*
X97278761Y-89183095D01*
X97231142Y-89135476D01*
X97135904Y-89087857D01*
X96945428Y-89087857D01*
X96850190Y-89135476D01*
X96802571Y-89183095D01*
X96754952Y-89278333D01*
X97326380Y-88135476D02*
X97326380Y-88706904D01*
X97326380Y-88421190D02*
X96326380Y-88421190D01*
X96469238Y-88516428D01*
X96564476Y-88611666D01*
X96612095Y-88706904D01*
X96421619Y-87754523D02*
X96374000Y-87706904D01*
X96326380Y-87611666D01*
X96326380Y-87373571D01*
X96374000Y-87278333D01*
X96421619Y-87230714D01*
X96516857Y-87183095D01*
X96612095Y-87183095D01*
X96754952Y-87230714D01*
X97326380Y-87802142D01*
X97326380Y-87183095D01*
X96802571Y-86421190D02*
X96850190Y-86278333D01*
X96897809Y-86230714D01*
X96993047Y-86183095D01*
X97135904Y-86183095D01*
X97231142Y-86230714D01*
X97278761Y-86278333D01*
X97326380Y-86373571D01*
X97326380Y-86754523D01*
X96326380Y-86754523D01*
X96326380Y-86421190D01*
X96374000Y-86325952D01*
X96421619Y-86278333D01*
X96516857Y-86230714D01*
X96612095Y-86230714D01*
X96707333Y-86278333D01*
X96754952Y-86325952D01*
X96802571Y-86421190D01*
X96802571Y-86754523D01*
X93235904Y-90340238D02*
X93235904Y-90721190D01*
X92435904Y-90721190D01*
X92816857Y-90073571D02*
X92816857Y-89806904D01*
X93235904Y-89692619D02*
X93235904Y-90073571D01*
X92435904Y-90073571D01*
X92435904Y-89692619D01*
X93235904Y-89349761D02*
X92435904Y-89349761D01*
X92435904Y-89159285D01*
X92474000Y-89045000D01*
X92550190Y-88968809D01*
X92626380Y-88930714D01*
X92778761Y-88892619D01*
X92893047Y-88892619D01*
X93045428Y-88930714D01*
X93121619Y-88968809D01*
X93197809Y-89045000D01*
X93235904Y-89159285D01*
X93235904Y-89349761D01*
X93235904Y-88130714D02*
X93235904Y-88587857D01*
X93235904Y-88359285D02*
X92435904Y-88359285D01*
X92550190Y-88435476D01*
X92626380Y-88511666D01*
X92664476Y-88587857D01*
X105822046Y-92754523D02*
X106822046Y-92516428D01*
X106107761Y-92325952D01*
X106822046Y-92135476D01*
X105822046Y-91897380D01*
X106774427Y-91564047D02*
X106822046Y-91421190D01*
X106822046Y-91183095D01*
X106774427Y-91087857D01*
X106726808Y-91040238D01*
X106631570Y-90992619D01*
X106536332Y-90992619D01*
X106441094Y-91040238D01*
X106393475Y-91087857D01*
X106345856Y-91183095D01*
X106298237Y-91373571D01*
X106250618Y-91468809D01*
X106202999Y-91516428D01*
X106107761Y-91564047D01*
X106012523Y-91564047D01*
X105917285Y-91516428D01*
X105869666Y-91468809D01*
X105822046Y-91373571D01*
X105822046Y-91135476D01*
X105869666Y-90992619D01*
X105917285Y-90611666D02*
X105869666Y-90564047D01*
X105822046Y-90468809D01*
X105822046Y-90230714D01*
X105869666Y-90135476D01*
X105917285Y-90087857D01*
X106012523Y-90040238D01*
X106107761Y-90040238D01*
X106250618Y-90087857D01*
X106822046Y-90659285D01*
X106822046Y-90040238D01*
X106250618Y-89468809D02*
X106202999Y-89564047D01*
X106155380Y-89611666D01*
X106060142Y-89659285D01*
X106012523Y-89659285D01*
X105917285Y-89611666D01*
X105869666Y-89564047D01*
X105822046Y-89468809D01*
X105822046Y-89278333D01*
X105869666Y-89183095D01*
X105917285Y-89135476D01*
X106012523Y-89087857D01*
X106060142Y-89087857D01*
X106155380Y-89135476D01*
X106202999Y-89183095D01*
X106250618Y-89278333D01*
X106250618Y-89468809D01*
X106298237Y-89564047D01*
X106345856Y-89611666D01*
X106441094Y-89659285D01*
X106631570Y-89659285D01*
X106726808Y-89611666D01*
X106774427Y-89564047D01*
X106822046Y-89468809D01*
X106822046Y-89278333D01*
X106774427Y-89183095D01*
X106726808Y-89135476D01*
X106631570Y-89087857D01*
X106441094Y-89087857D01*
X106345856Y-89135476D01*
X106298237Y-89183095D01*
X106250618Y-89278333D01*
X106822046Y-88135476D02*
X106822046Y-88706904D01*
X106822046Y-88421190D02*
X105822046Y-88421190D01*
X105964904Y-88516428D01*
X106060142Y-88611666D01*
X106107761Y-88706904D01*
X105917285Y-87754523D02*
X105869666Y-87706904D01*
X105822046Y-87611666D01*
X105822046Y-87373571D01*
X105869666Y-87278333D01*
X105917285Y-87230714D01*
X106012523Y-87183095D01*
X106107761Y-87183095D01*
X106250618Y-87230714D01*
X106822046Y-87802142D01*
X106822046Y-87183095D01*
X106298237Y-86421190D02*
X106345856Y-86278333D01*
X106393475Y-86230714D01*
X106488713Y-86183095D01*
X106631570Y-86183095D01*
X106726808Y-86230714D01*
X106774427Y-86278333D01*
X106822046Y-86373571D01*
X106822046Y-86754523D01*
X105822046Y-86754523D01*
X105822046Y-86421190D01*
X105869666Y-86325952D01*
X105917285Y-86278333D01*
X106012523Y-86230714D01*
X106107761Y-86230714D01*
X106202999Y-86278333D01*
X106250618Y-86325952D01*
X106298237Y-86421190D01*
X106298237Y-86754523D01*
X102731570Y-90340238D02*
X102731570Y-90721190D01*
X101931570Y-90721190D01*
X102312523Y-90073571D02*
X102312523Y-89806904D01*
X102731570Y-89692619D02*
X102731570Y-90073571D01*
X101931570Y-90073571D01*
X101931570Y-89692619D01*
X102731570Y-89349761D02*
X101931570Y-89349761D01*
X101931570Y-89159285D01*
X101969666Y-89045000D01*
X102045856Y-88968809D01*
X102122046Y-88930714D01*
X102274427Y-88892619D01*
X102388713Y-88892619D01*
X102541094Y-88930714D01*
X102617285Y-88968809D01*
X102693475Y-89045000D01*
X102731570Y-89159285D01*
X102731570Y-89349761D01*
X102007761Y-88587857D02*
X101969666Y-88549761D01*
X101931570Y-88473571D01*
X101931570Y-88283095D01*
X101969666Y-88206904D01*
X102007761Y-88168809D01*
X102083951Y-88130714D01*
X102160142Y-88130714D01*
X102274427Y-88168809D01*
X102731570Y-88625952D01*
X102731570Y-88130714D01*
X115317712Y-92754523D02*
X116317712Y-92516428D01*
X115603427Y-92325952D01*
X116317712Y-92135476D01*
X115317712Y-91897380D01*
X116270093Y-91564047D02*
X116317712Y-91421190D01*
X116317712Y-91183095D01*
X116270093Y-91087857D01*
X116222474Y-91040238D01*
X116127236Y-90992619D01*
X116031998Y-90992619D01*
X115936760Y-91040238D01*
X115889141Y-91087857D01*
X115841522Y-91183095D01*
X115793903Y-91373571D01*
X115746284Y-91468809D01*
X115698665Y-91516428D01*
X115603427Y-91564047D01*
X115508189Y-91564047D01*
X115412951Y-91516428D01*
X115365332Y-91468809D01*
X115317712Y-91373571D01*
X115317712Y-91135476D01*
X115365332Y-90992619D01*
X115412951Y-90611666D02*
X115365332Y-90564047D01*
X115317712Y-90468809D01*
X115317712Y-90230714D01*
X115365332Y-90135476D01*
X115412951Y-90087857D01*
X115508189Y-90040238D01*
X115603427Y-90040238D01*
X115746284Y-90087857D01*
X116317712Y-90659285D01*
X116317712Y-90040238D01*
X115746284Y-89468809D02*
X115698665Y-89564047D01*
X115651046Y-89611666D01*
X115555808Y-89659285D01*
X115508189Y-89659285D01*
X115412951Y-89611666D01*
X115365332Y-89564047D01*
X115317712Y-89468809D01*
X115317712Y-89278333D01*
X115365332Y-89183095D01*
X115412951Y-89135476D01*
X115508189Y-89087857D01*
X115555808Y-89087857D01*
X115651046Y-89135476D01*
X115698665Y-89183095D01*
X115746284Y-89278333D01*
X115746284Y-89468809D01*
X115793903Y-89564047D01*
X115841522Y-89611666D01*
X115936760Y-89659285D01*
X116127236Y-89659285D01*
X116222474Y-89611666D01*
X116270093Y-89564047D01*
X116317712Y-89468809D01*
X116317712Y-89278333D01*
X116270093Y-89183095D01*
X116222474Y-89135476D01*
X116127236Y-89087857D01*
X115936760Y-89087857D01*
X115841522Y-89135476D01*
X115793903Y-89183095D01*
X115746284Y-89278333D01*
X116317712Y-88135476D02*
X116317712Y-88706904D01*
X116317712Y-88421190D02*
X115317712Y-88421190D01*
X115460570Y-88516428D01*
X115555808Y-88611666D01*
X115603427Y-88706904D01*
X115412951Y-87754523D02*
X115365332Y-87706904D01*
X115317712Y-87611666D01*
X115317712Y-87373571D01*
X115365332Y-87278333D01*
X115412951Y-87230714D01*
X115508189Y-87183095D01*
X115603427Y-87183095D01*
X115746284Y-87230714D01*
X116317712Y-87802142D01*
X116317712Y-87183095D01*
X115793903Y-86421190D02*
X115841522Y-86278333D01*
X115889141Y-86230714D01*
X115984379Y-86183095D01*
X116127236Y-86183095D01*
X116222474Y-86230714D01*
X116270093Y-86278333D01*
X116317712Y-86373571D01*
X116317712Y-86754523D01*
X115317712Y-86754523D01*
X115317712Y-86421190D01*
X115365332Y-86325952D01*
X115412951Y-86278333D01*
X115508189Y-86230714D01*
X115603427Y-86230714D01*
X115698665Y-86278333D01*
X115746284Y-86325952D01*
X115793903Y-86421190D01*
X115793903Y-86754523D01*
X112227236Y-90340238D02*
X112227236Y-90721190D01*
X111427236Y-90721190D01*
X111808189Y-90073571D02*
X111808189Y-89806904D01*
X112227236Y-89692619D02*
X112227236Y-90073571D01*
X111427236Y-90073571D01*
X111427236Y-89692619D01*
X112227236Y-89349761D02*
X111427236Y-89349761D01*
X111427236Y-89159285D01*
X111465332Y-89045000D01*
X111541522Y-88968809D01*
X111617712Y-88930714D01*
X111770093Y-88892619D01*
X111884379Y-88892619D01*
X112036760Y-88930714D01*
X112112951Y-88968809D01*
X112189141Y-89045000D01*
X112227236Y-89159285D01*
X112227236Y-89349761D01*
X111427236Y-88625952D02*
X111427236Y-88130714D01*
X111731998Y-88397380D01*
X111731998Y-88283095D01*
X111770093Y-88206904D01*
X111808189Y-88168809D01*
X111884379Y-88130714D01*
X112074855Y-88130714D01*
X112151046Y-88168809D01*
X112189141Y-88206904D01*
X112227236Y-88283095D01*
X112227236Y-88511666D01*
X112189141Y-88587857D01*
X112151046Y-88625952D01*
X124813380Y-92754523D02*
X125813380Y-92516428D01*
X125099095Y-92325952D01*
X125813380Y-92135476D01*
X124813380Y-91897380D01*
X125765761Y-91564047D02*
X125813380Y-91421190D01*
X125813380Y-91183095D01*
X125765761Y-91087857D01*
X125718142Y-91040238D01*
X125622904Y-90992619D01*
X125527666Y-90992619D01*
X125432428Y-91040238D01*
X125384809Y-91087857D01*
X125337190Y-91183095D01*
X125289571Y-91373571D01*
X125241952Y-91468809D01*
X125194333Y-91516428D01*
X125099095Y-91564047D01*
X125003857Y-91564047D01*
X124908619Y-91516428D01*
X124861000Y-91468809D01*
X124813380Y-91373571D01*
X124813380Y-91135476D01*
X124861000Y-90992619D01*
X124908619Y-90611666D02*
X124861000Y-90564047D01*
X124813380Y-90468809D01*
X124813380Y-90230714D01*
X124861000Y-90135476D01*
X124908619Y-90087857D01*
X125003857Y-90040238D01*
X125099095Y-90040238D01*
X125241952Y-90087857D01*
X125813380Y-90659285D01*
X125813380Y-90040238D01*
X125241952Y-89468809D02*
X125194333Y-89564047D01*
X125146714Y-89611666D01*
X125051476Y-89659285D01*
X125003857Y-89659285D01*
X124908619Y-89611666D01*
X124861000Y-89564047D01*
X124813380Y-89468809D01*
X124813380Y-89278333D01*
X124861000Y-89183095D01*
X124908619Y-89135476D01*
X125003857Y-89087857D01*
X125051476Y-89087857D01*
X125146714Y-89135476D01*
X125194333Y-89183095D01*
X125241952Y-89278333D01*
X125241952Y-89468809D01*
X125289571Y-89564047D01*
X125337190Y-89611666D01*
X125432428Y-89659285D01*
X125622904Y-89659285D01*
X125718142Y-89611666D01*
X125765761Y-89564047D01*
X125813380Y-89468809D01*
X125813380Y-89278333D01*
X125765761Y-89183095D01*
X125718142Y-89135476D01*
X125622904Y-89087857D01*
X125432428Y-89087857D01*
X125337190Y-89135476D01*
X125289571Y-89183095D01*
X125241952Y-89278333D01*
X125813380Y-88135476D02*
X125813380Y-88706904D01*
X125813380Y-88421190D02*
X124813380Y-88421190D01*
X124956238Y-88516428D01*
X125051476Y-88611666D01*
X125099095Y-88706904D01*
X124908619Y-87754523D02*
X124861000Y-87706904D01*
X124813380Y-87611666D01*
X124813380Y-87373571D01*
X124861000Y-87278333D01*
X124908619Y-87230714D01*
X125003857Y-87183095D01*
X125099095Y-87183095D01*
X125241952Y-87230714D01*
X125813380Y-87802142D01*
X125813380Y-87183095D01*
X125289571Y-86421190D02*
X125337190Y-86278333D01*
X125384809Y-86230714D01*
X125480047Y-86183095D01*
X125622904Y-86183095D01*
X125718142Y-86230714D01*
X125765761Y-86278333D01*
X125813380Y-86373571D01*
X125813380Y-86754523D01*
X124813380Y-86754523D01*
X124813380Y-86421190D01*
X124861000Y-86325952D01*
X124908619Y-86278333D01*
X125003857Y-86230714D01*
X125099095Y-86230714D01*
X125194333Y-86278333D01*
X125241952Y-86325952D01*
X125289571Y-86421190D01*
X125289571Y-86754523D01*
X121722904Y-90340238D02*
X121722904Y-90721190D01*
X120922904Y-90721190D01*
X121303857Y-90073571D02*
X121303857Y-89806904D01*
X121722904Y-89692619D02*
X121722904Y-90073571D01*
X120922904Y-90073571D01*
X120922904Y-89692619D01*
X121722904Y-89349761D02*
X120922904Y-89349761D01*
X120922904Y-89159285D01*
X120961000Y-89045000D01*
X121037190Y-88968809D01*
X121113380Y-88930714D01*
X121265761Y-88892619D01*
X121380047Y-88892619D01*
X121532428Y-88930714D01*
X121608619Y-88968809D01*
X121684809Y-89045000D01*
X121722904Y-89159285D01*
X121722904Y-89349761D01*
X121189571Y-88206904D02*
X121722904Y-88206904D01*
X120884809Y-88397380D02*
X121456238Y-88587857D01*
X121456238Y-88092619D01*
X91919071Y-76207523D02*
X91966690Y-76064666D01*
X92014309Y-76017047D01*
X92109547Y-75969428D01*
X92252404Y-75969428D01*
X92347642Y-76017047D01*
X92395261Y-76064666D01*
X92442880Y-76159904D01*
X92442880Y-76540857D01*
X91442880Y-76540857D01*
X91442880Y-76207523D01*
X91490500Y-76112285D01*
X91538119Y-76064666D01*
X91633357Y-76017047D01*
X91728595Y-76017047D01*
X91823833Y-76064666D01*
X91871452Y-76112285D01*
X91919071Y-76207523D01*
X91919071Y-76540857D01*
X92395261Y-75588476D02*
X92442880Y-75445619D01*
X92442880Y-75207523D01*
X92395261Y-75112285D01*
X92347642Y-75064666D01*
X92252404Y-75017047D01*
X92157166Y-75017047D01*
X92061928Y-75064666D01*
X92014309Y-75112285D01*
X91966690Y-75207523D01*
X91919071Y-75398000D01*
X91871452Y-75493238D01*
X91823833Y-75540857D01*
X91728595Y-75588476D01*
X91633357Y-75588476D01*
X91538119Y-75540857D01*
X91490500Y-75493238D01*
X91442880Y-75398000D01*
X91442880Y-75159904D01*
X91490500Y-75017047D01*
X92395261Y-74636095D02*
X92442880Y-74493238D01*
X92442880Y-74255142D01*
X92395261Y-74159904D01*
X92347642Y-74112285D01*
X92252404Y-74064666D01*
X92157166Y-74064666D01*
X92061928Y-74112285D01*
X92014309Y-74159904D01*
X91966690Y-74255142D01*
X91919071Y-74445619D01*
X91871452Y-74540857D01*
X91823833Y-74588476D01*
X91728595Y-74636095D01*
X91633357Y-74636095D01*
X91538119Y-74588476D01*
X91490500Y-74540857D01*
X91442880Y-74445619D01*
X91442880Y-74207523D01*
X91490500Y-74064666D01*
X92442880Y-73112285D02*
X92442880Y-73683714D01*
X92442880Y-73398000D02*
X91442880Y-73398000D01*
X91585738Y-73493238D01*
X91680976Y-73588476D01*
X91728595Y-73683714D01*
X91442880Y-72778952D02*
X91442880Y-72159904D01*
X91823833Y-72493238D01*
X91823833Y-72350380D01*
X91871452Y-72255142D01*
X91919071Y-72207523D01*
X92014309Y-72159904D01*
X92252404Y-72159904D01*
X92347642Y-72207523D01*
X92395261Y-72255142D01*
X92442880Y-72350380D01*
X92442880Y-72636095D01*
X92395261Y-72731333D01*
X92347642Y-72778952D01*
X91871452Y-71588476D02*
X91823833Y-71683714D01*
X91776214Y-71731333D01*
X91680976Y-71778952D01*
X91633357Y-71778952D01*
X91538119Y-71731333D01*
X91490500Y-71683714D01*
X91442880Y-71588476D01*
X91442880Y-71398000D01*
X91490500Y-71302761D01*
X91538119Y-71255142D01*
X91633357Y-71207523D01*
X91680976Y-71207523D01*
X91776214Y-71255142D01*
X91823833Y-71302761D01*
X91871452Y-71398000D01*
X91871452Y-71588476D01*
X91919071Y-71683714D01*
X91966690Y-71731333D01*
X92061928Y-71778952D01*
X92252404Y-71778952D01*
X92347642Y-71731333D01*
X92395261Y-71683714D01*
X92442880Y-71588476D01*
X92442880Y-71398000D01*
X92395261Y-71302761D01*
X92347642Y-71255142D01*
X92252404Y-71207523D01*
X92061928Y-71207523D01*
X91966690Y-71255142D01*
X91919071Y-71302761D01*
X91871452Y-71398000D01*
D13*
X94442880Y-74171809D02*
X94395261Y-74148000D01*
X94347642Y-74100380D01*
X94276214Y-74028952D01*
X94228595Y-74005142D01*
X94180976Y-74005142D01*
X94204785Y-74124190D02*
X94157166Y-74100380D01*
X94109547Y-74052761D01*
X94085738Y-73957523D01*
X94085738Y-73790857D01*
X94109547Y-73695619D01*
X94157166Y-73648000D01*
X94204785Y-73624190D01*
X94300023Y-73624190D01*
X94347642Y-73648000D01*
X94395261Y-73695619D01*
X94419071Y-73790857D01*
X94419071Y-73957523D01*
X94395261Y-74052761D01*
X94347642Y-74100380D01*
X94300023Y-74124190D01*
X94204785Y-74124190D01*
X94895261Y-74124190D02*
X94609547Y-74124190D01*
X94752404Y-74124190D02*
X94752404Y-73624190D01*
X94704785Y-73695619D01*
X94657166Y-73743238D01*
X94609547Y-73767047D01*
D11*
X183971880Y-94181209D02*
X184781404Y-94181209D01*
X184876642Y-94133590D01*
X184924261Y-94085971D01*
X184971880Y-93990733D01*
X184971880Y-93800257D01*
X184924261Y-93705019D01*
X184876642Y-93657400D01*
X184781404Y-93609780D01*
X183971880Y-93609780D01*
X184924261Y-93181209D02*
X184971880Y-93038352D01*
X184971880Y-92800257D01*
X184924261Y-92705019D01*
X184876642Y-92657400D01*
X184781404Y-92609780D01*
X184686166Y-92609780D01*
X184590928Y-92657400D01*
X184543309Y-92705019D01*
X184495690Y-92800257D01*
X184448071Y-92990733D01*
X184400452Y-93085971D01*
X184352833Y-93133590D01*
X184257595Y-93181209D01*
X184162357Y-93181209D01*
X184067119Y-93133590D01*
X184019500Y-93085971D01*
X183971880Y-92990733D01*
X183971880Y-92752638D01*
X184019500Y-92609780D01*
X184448071Y-91847876D02*
X184495690Y-91705019D01*
X184543309Y-91657400D01*
X184638547Y-91609780D01*
X184781404Y-91609780D01*
X184876642Y-91657400D01*
X184924261Y-91705019D01*
X184971880Y-91800257D01*
X184971880Y-92181209D01*
X183971880Y-92181209D01*
X183971880Y-91847876D01*
X184019500Y-91752638D01*
X184067119Y-91705019D01*
X184162357Y-91657400D01*
X184257595Y-91657400D01*
X184352833Y-91705019D01*
X184400452Y-91752638D01*
X184448071Y-91847876D01*
X184448071Y-92181209D01*
X185067119Y-91419304D02*
X185067119Y-90657400D01*
X184448071Y-90085971D02*
X184495690Y-89943114D01*
X184543309Y-89895495D01*
X184638547Y-89847876D01*
X184781404Y-89847876D01*
X184876642Y-89895495D01*
X184924261Y-89943114D01*
X184971880Y-90038352D01*
X184971880Y-90419304D01*
X183971880Y-90419304D01*
X183971880Y-90085971D01*
X184019500Y-89990733D01*
X184067119Y-89943114D01*
X184162357Y-89895495D01*
X184257595Y-89895495D01*
X184352833Y-89943114D01*
X184400452Y-89990733D01*
X184448071Y-90085971D01*
X184448071Y-90419304D01*
X185067119Y-89657400D02*
X185067119Y-88895495D01*
X184971880Y-88657400D02*
X183971880Y-88657400D01*
X184686166Y-88324066D01*
X183971880Y-87990733D01*
X184971880Y-87990733D01*
X184971880Y-87514542D02*
X184305214Y-87514542D01*
X183971880Y-87514542D02*
X184019500Y-87562161D01*
X184067119Y-87514542D01*
X184019500Y-87466923D01*
X183971880Y-87514542D01*
X184067119Y-87514542D01*
X184924261Y-86609780D02*
X184971880Y-86705019D01*
X184971880Y-86895495D01*
X184924261Y-86990733D01*
X184876642Y-87038352D01*
X184781404Y-87085971D01*
X184495690Y-87085971D01*
X184400452Y-87038352D01*
X184352833Y-86990733D01*
X184305214Y-86895495D01*
X184305214Y-86705019D01*
X184352833Y-86609780D01*
X184971880Y-86181209D02*
X184305214Y-86181209D01*
X184495690Y-86181209D02*
X184400452Y-86133590D01*
X184352833Y-86085971D01*
X184305214Y-85990733D01*
X184305214Y-85895495D01*
X184971880Y-85419304D02*
X184924261Y-85514542D01*
X184876642Y-85562161D01*
X184781404Y-85609780D01*
X184495690Y-85609780D01*
X184400452Y-85562161D01*
X184352833Y-85514542D01*
X184305214Y-85419304D01*
X184305214Y-85276447D01*
X184352833Y-85181209D01*
X184400452Y-85133590D01*
X184495690Y-85085971D01*
X184781404Y-85085971D01*
X184876642Y-85133590D01*
X184924261Y-85181209D01*
X184971880Y-85276447D01*
X184971880Y-85419304D01*
X180521880Y-90290733D02*
X181236166Y-90290733D01*
X181379023Y-90338352D01*
X181474261Y-90433590D01*
X181521880Y-90576447D01*
X181521880Y-90671685D01*
X180521880Y-89338352D02*
X180521880Y-89814542D01*
X180998071Y-89862161D01*
X180950452Y-89814542D01*
X180902833Y-89719304D01*
X180902833Y-89481209D01*
X180950452Y-89385971D01*
X180998071Y-89338352D01*
X181093309Y-89290733D01*
X181331404Y-89290733D01*
X181426642Y-89338352D01*
X181474261Y-89385971D01*
X181521880Y-89481209D01*
X181521880Y-89719304D01*
X181474261Y-89814542D01*
X181426642Y-89862161D01*
X160039233Y-84866542D02*
X159991614Y-84914161D01*
X159848757Y-84961780D01*
X159753519Y-84961780D01*
X159610661Y-84914161D01*
X159515423Y-84818923D01*
X159467804Y-84723685D01*
X159420185Y-84533209D01*
X159420185Y-84390352D01*
X159467804Y-84199876D01*
X159515423Y-84104638D01*
X159610661Y-84009400D01*
X159753519Y-83961780D01*
X159848757Y-83961780D01*
X159991614Y-84009400D01*
X160039233Y-84057019D01*
X160467804Y-84961780D02*
X160467804Y-83961780D01*
X160467804Y-84437971D02*
X161039233Y-84437971D01*
X161039233Y-84961780D02*
X161039233Y-83961780D01*
X161420185Y-83961780D02*
X162039233Y-83961780D01*
X161705900Y-84342733D01*
X161848757Y-84342733D01*
X161943995Y-84390352D01*
X161991614Y-84437971D01*
X162039233Y-84533209D01*
X162039233Y-84771304D01*
X161991614Y-84866542D01*
X161943995Y-84914161D01*
X161848757Y-84961780D01*
X161563042Y-84961780D01*
X161467804Y-84914161D01*
X161420185Y-84866542D01*
X162372566Y-83961780D02*
X162991614Y-83961780D01*
X162658280Y-84342733D01*
X162801138Y-84342733D01*
X162896376Y-84390352D01*
X162943995Y-84437971D01*
X162991614Y-84533209D01*
X162991614Y-84771304D01*
X162943995Y-84866542D01*
X162896376Y-84914161D01*
X162801138Y-84961780D01*
X162515423Y-84961780D01*
X162420185Y-84914161D01*
X162372566Y-84866542D01*
X163610661Y-83961780D02*
X163705900Y-83961780D01*
X163801138Y-84009400D01*
X163848757Y-84057019D01*
X163896376Y-84152257D01*
X163943995Y-84342733D01*
X163943995Y-84580828D01*
X163896376Y-84771304D01*
X163848757Y-84866542D01*
X163801138Y-84914161D01*
X163705900Y-84961780D01*
X163610661Y-84961780D01*
X163515423Y-84914161D01*
X163467804Y-84866542D01*
X163420185Y-84771304D01*
X163372566Y-84580828D01*
X163372566Y-84342733D01*
X163420185Y-84152257D01*
X163467804Y-84057019D01*
X163515423Y-84009400D01*
X163610661Y-83961780D01*
X164372566Y-84961780D02*
X164372566Y-83961780D01*
X164943995Y-84961780D01*
X164943995Y-83961780D01*
X161459233Y-87372733D02*
X161459233Y-88166066D01*
X161505900Y-88259400D01*
X161552566Y-88306066D01*
X161645900Y-88352733D01*
X161832566Y-88352733D01*
X161925900Y-88306066D01*
X161972566Y-88259400D01*
X162019233Y-88166066D01*
X162019233Y-87372733D01*
X162439233Y-87466066D02*
X162485900Y-87419400D01*
X162579233Y-87372733D01*
X162812566Y-87372733D01*
X162905900Y-87419400D01*
X162952566Y-87466066D01*
X162999233Y-87559400D01*
X162999233Y-87652733D01*
X162952566Y-87792733D01*
X162392566Y-88352733D01*
X162999233Y-88352733D01*
X167680079Y-95568920D02*
X167680079Y-96140348D01*
X167680079Y-95854634D02*
X166680079Y-95854634D01*
X166822937Y-95949872D01*
X166918175Y-96045110D01*
X166965794Y-96140348D01*
X166680079Y-94949872D02*
X166680079Y-94854634D01*
X166727699Y-94759396D01*
X166775318Y-94711777D01*
X166870556Y-94664158D01*
X167061032Y-94616539D01*
X167299127Y-94616539D01*
X167489603Y-94664158D01*
X167584841Y-94711777D01*
X167632460Y-94759396D01*
X167680079Y-94854634D01*
X167680079Y-94949872D01*
X167632460Y-95045110D01*
X167584841Y-95092729D01*
X167489603Y-95140348D01*
X167299127Y-95187967D01*
X167061032Y-95187967D01*
X166870556Y-95140348D01*
X166775318Y-95092729D01*
X166727699Y-95045110D01*
X166680079Y-94949872D01*
X166680079Y-93997491D02*
X166680079Y-93902253D01*
X166727699Y-93807015D01*
X166775318Y-93759396D01*
X166870556Y-93711777D01*
X167061032Y-93664158D01*
X167299127Y-93664158D01*
X167489603Y-93711777D01*
X167584841Y-93759396D01*
X167632460Y-93807015D01*
X167680079Y-93902253D01*
X167680079Y-93997491D01*
X167632460Y-94092729D01*
X167584841Y-94140348D01*
X167489603Y-94187967D01*
X167299127Y-94235586D01*
X167061032Y-94235586D01*
X166870556Y-94187967D01*
X166775318Y-94140348D01*
X166727699Y-94092729D01*
X166680079Y-93997491D01*
X167013413Y-93235586D02*
X167680079Y-93235586D01*
X167108651Y-93235586D02*
X167061032Y-93187967D01*
X167013413Y-93092729D01*
X167013413Y-92949872D01*
X167061032Y-92854634D01*
X167156270Y-92807015D01*
X167680079Y-92807015D01*
X167156270Y-91997491D02*
X167156270Y-92330824D01*
X167680079Y-92330824D02*
X166680079Y-92330824D01*
X166680079Y-91854634D01*
D12*
X169333413Y-94154634D02*
X169371508Y-94192729D01*
X169409603Y-94307015D01*
X169409603Y-94383205D01*
X169371508Y-94497491D01*
X169295318Y-94573681D01*
X169219127Y-94611777D01*
X169066746Y-94649872D01*
X168952460Y-94649872D01*
X168800079Y-94611777D01*
X168723889Y-94573681D01*
X168647699Y-94497491D01*
X168609603Y-94383205D01*
X168609603Y-94307015D01*
X168647699Y-94192729D01*
X168685794Y-94154634D01*
X168609603Y-93887967D02*
X168609603Y-93392729D01*
X168914365Y-93659396D01*
X168914365Y-93545110D01*
X168952460Y-93468920D01*
X168990556Y-93430824D01*
X169066746Y-93392729D01*
X169257222Y-93392729D01*
X169333413Y-93430824D01*
X169371508Y-93468920D01*
X169409603Y-93545110D01*
X169409603Y-93773681D01*
X169371508Y-93849872D01*
X169333413Y-93887967D01*
D11*
X164390079Y-95568920D02*
X164390079Y-96140348D01*
X164390079Y-95854634D02*
X163390079Y-95854634D01*
X163532937Y-95949872D01*
X163628175Y-96045110D01*
X163675794Y-96140348D01*
X163390079Y-94949872D02*
X163390079Y-94854634D01*
X163437699Y-94759396D01*
X163485318Y-94711777D01*
X163580556Y-94664158D01*
X163771032Y-94616539D01*
X164009127Y-94616539D01*
X164199603Y-94664158D01*
X164294841Y-94711777D01*
X164342460Y-94759396D01*
X164390079Y-94854634D01*
X164390079Y-94949872D01*
X164342460Y-95045110D01*
X164294841Y-95092729D01*
X164199603Y-95140348D01*
X164009127Y-95187967D01*
X163771032Y-95187967D01*
X163580556Y-95140348D01*
X163485318Y-95092729D01*
X163437699Y-95045110D01*
X163390079Y-94949872D01*
X163390079Y-93997491D02*
X163390079Y-93902253D01*
X163437699Y-93807015D01*
X163485318Y-93759396D01*
X163580556Y-93711777D01*
X163771032Y-93664158D01*
X164009127Y-93664158D01*
X164199603Y-93711777D01*
X164294841Y-93759396D01*
X164342460Y-93807015D01*
X164390079Y-93902253D01*
X164390079Y-93997491D01*
X164342460Y-94092729D01*
X164294841Y-94140348D01*
X164199603Y-94187967D01*
X164009127Y-94235586D01*
X163771032Y-94235586D01*
X163580556Y-94187967D01*
X163485318Y-94140348D01*
X163437699Y-94092729D01*
X163390079Y-93997491D01*
X163723413Y-93235586D02*
X164390079Y-93235586D01*
X163818651Y-93235586D02*
X163771032Y-93187967D01*
X163723413Y-93092729D01*
X163723413Y-92949872D01*
X163771032Y-92854634D01*
X163866270Y-92807015D01*
X164390079Y-92807015D01*
X163866270Y-91997491D02*
X163866270Y-92330824D01*
X164390079Y-92330824D02*
X163390079Y-92330824D01*
X163390079Y-91854634D01*
D12*
X166043413Y-94154634D02*
X166081508Y-94192729D01*
X166119603Y-94307015D01*
X166119603Y-94383205D01*
X166081508Y-94497491D01*
X166005318Y-94573681D01*
X165929127Y-94611777D01*
X165776746Y-94649872D01*
X165662460Y-94649872D01*
X165510079Y-94611777D01*
X165433889Y-94573681D01*
X165357699Y-94497491D01*
X165319603Y-94383205D01*
X165319603Y-94307015D01*
X165357699Y-94192729D01*
X165395794Y-94154634D01*
X165586270Y-93468920D02*
X166119603Y-93468920D01*
X165281508Y-93659396D02*
X165852937Y-93849872D01*
X165852937Y-93354634D01*
D11*
X144846880Y-56716795D02*
X143846880Y-56716795D01*
X144561166Y-56383461D01*
X143846880Y-56050128D01*
X144846880Y-56050128D01*
X144323071Y-55240604D02*
X144370690Y-55097747D01*
X144418309Y-55050128D01*
X144513547Y-55002509D01*
X144656404Y-55002509D01*
X144751642Y-55050128D01*
X144799261Y-55097747D01*
X144846880Y-55192985D01*
X144846880Y-55573938D01*
X143846880Y-55573938D01*
X143846880Y-55240604D01*
X143894500Y-55145366D01*
X143942119Y-55097747D01*
X144037357Y-55050128D01*
X144132595Y-55050128D01*
X144227833Y-55097747D01*
X144275452Y-55145366D01*
X144323071Y-55240604D01*
X144323071Y-55573938D01*
X144846880Y-54002509D02*
X144370690Y-54335842D01*
X144846880Y-54573938D02*
X143846880Y-54573938D01*
X143846880Y-54192985D01*
X143894500Y-54097747D01*
X143942119Y-54050128D01*
X144037357Y-54002509D01*
X144180214Y-54002509D01*
X144275452Y-54050128D01*
X144323071Y-54097747D01*
X144370690Y-54192985D01*
X144370690Y-54573938D01*
X143846880Y-53383461D02*
X143846880Y-53288223D01*
X143894500Y-53192985D01*
X143942119Y-53145366D01*
X144037357Y-53097747D01*
X144227833Y-53050128D01*
X144465928Y-53050128D01*
X144656404Y-53097747D01*
X144751642Y-53145366D01*
X144799261Y-53192985D01*
X144846880Y-53288223D01*
X144846880Y-53383461D01*
X144799261Y-53478700D01*
X144751642Y-53526319D01*
X144656404Y-53573938D01*
X144465928Y-53621557D01*
X144227833Y-53621557D01*
X144037357Y-53573938D01*
X143942119Y-53526319D01*
X143894500Y-53478700D01*
X143846880Y-53383461D01*
X143846880Y-52145366D02*
X143846880Y-52621557D01*
X144323071Y-52669176D01*
X144275452Y-52621557D01*
X144227833Y-52526319D01*
X144227833Y-52288223D01*
X144275452Y-52192985D01*
X144323071Y-52145366D01*
X144418309Y-52097747D01*
X144656404Y-52097747D01*
X144751642Y-52145366D01*
X144799261Y-52192985D01*
X144846880Y-52288223D01*
X144846880Y-52526319D01*
X144799261Y-52621557D01*
X144751642Y-52669176D01*
X143942119Y-51716795D02*
X143894500Y-51669176D01*
X143846880Y-51573938D01*
X143846880Y-51335842D01*
X143894500Y-51240604D01*
X143942119Y-51192985D01*
X144037357Y-51145366D01*
X144132595Y-51145366D01*
X144275452Y-51192985D01*
X144846880Y-51764414D01*
X144846880Y-51145366D01*
X143846880Y-50526319D02*
X143846880Y-50431080D01*
X143894500Y-50335842D01*
X143942119Y-50288223D01*
X144037357Y-50240604D01*
X144227833Y-50192985D01*
X144465928Y-50192985D01*
X144656404Y-50240604D01*
X144751642Y-50288223D01*
X144799261Y-50335842D01*
X144846880Y-50431080D01*
X144846880Y-50526319D01*
X144799261Y-50621557D01*
X144751642Y-50669176D01*
X144656404Y-50716795D01*
X144465928Y-50764414D01*
X144227833Y-50764414D01*
X144037357Y-50716795D01*
X143942119Y-50669176D01*
X143894500Y-50621557D01*
X143846880Y-50526319D01*
X148946880Y-54216795D02*
X147946880Y-54216795D01*
X147946880Y-53978700D01*
X147994500Y-53835842D01*
X148089738Y-53740604D01*
X148184976Y-53692985D01*
X148375452Y-53645366D01*
X148518309Y-53645366D01*
X148708785Y-53692985D01*
X148804023Y-53740604D01*
X148899261Y-53835842D01*
X148946880Y-53978700D01*
X148946880Y-54216795D01*
X148946880Y-52692985D02*
X148946880Y-53264414D01*
X148946880Y-52978700D02*
X147946880Y-52978700D01*
X148089738Y-53073938D01*
X148184976Y-53169176D01*
X148232595Y-53264414D01*
X160387980Y-58762495D02*
X159387980Y-58762495D01*
X160102266Y-58429161D01*
X159387980Y-58095828D01*
X160387980Y-58095828D01*
X159864171Y-57286304D02*
X159911790Y-57143447D01*
X159959409Y-57095828D01*
X160054647Y-57048209D01*
X160197504Y-57048209D01*
X160292742Y-57095828D01*
X160340361Y-57143447D01*
X160387980Y-57238685D01*
X160387980Y-57619638D01*
X159387980Y-57619638D01*
X159387980Y-57286304D01*
X159435600Y-57191066D01*
X159483219Y-57143447D01*
X159578457Y-57095828D01*
X159673695Y-57095828D01*
X159768933Y-57143447D01*
X159816552Y-57191066D01*
X159864171Y-57286304D01*
X159864171Y-57619638D01*
X160387980Y-56048209D02*
X159911790Y-56381542D01*
X160387980Y-56619638D02*
X159387980Y-56619638D01*
X159387980Y-56238685D01*
X159435600Y-56143447D01*
X159483219Y-56095828D01*
X159578457Y-56048209D01*
X159721314Y-56048209D01*
X159816552Y-56095828D01*
X159864171Y-56143447D01*
X159911790Y-56238685D01*
X159911790Y-56619638D01*
X159387980Y-55429161D02*
X159387980Y-55333923D01*
X159435600Y-55238685D01*
X159483219Y-55191066D01*
X159578457Y-55143447D01*
X159768933Y-55095828D01*
X160007028Y-55095828D01*
X160197504Y-55143447D01*
X160292742Y-55191066D01*
X160340361Y-55238685D01*
X160387980Y-55333923D01*
X160387980Y-55429161D01*
X160340361Y-55524400D01*
X160292742Y-55572019D01*
X160197504Y-55619638D01*
X160007028Y-55667257D01*
X159768933Y-55667257D01*
X159578457Y-55619638D01*
X159483219Y-55572019D01*
X159435600Y-55524400D01*
X159387980Y-55429161D01*
X159387980Y-54191066D02*
X159387980Y-54667257D01*
X159864171Y-54714876D01*
X159816552Y-54667257D01*
X159768933Y-54572019D01*
X159768933Y-54333923D01*
X159816552Y-54238685D01*
X159864171Y-54191066D01*
X159959409Y-54143447D01*
X160197504Y-54143447D01*
X160292742Y-54191066D01*
X160340361Y-54238685D01*
X160387980Y-54333923D01*
X160387980Y-54572019D01*
X160340361Y-54667257D01*
X160292742Y-54714876D01*
X159483219Y-53762495D02*
X159435600Y-53714876D01*
X159387980Y-53619638D01*
X159387980Y-53381542D01*
X159435600Y-53286304D01*
X159483219Y-53238685D01*
X159578457Y-53191066D01*
X159673695Y-53191066D01*
X159816552Y-53238685D01*
X160387980Y-53810114D01*
X160387980Y-53191066D01*
X159387980Y-52572019D02*
X159387980Y-52476780D01*
X159435600Y-52381542D01*
X159483219Y-52333923D01*
X159578457Y-52286304D01*
X159768933Y-52238685D01*
X160007028Y-52238685D01*
X160197504Y-52286304D01*
X160292742Y-52333923D01*
X160340361Y-52381542D01*
X160387980Y-52476780D01*
X160387980Y-52572019D01*
X160340361Y-52667257D01*
X160292742Y-52714876D01*
X160197504Y-52762495D01*
X160007028Y-52810114D01*
X159768933Y-52810114D01*
X159578457Y-52762495D01*
X159483219Y-52714876D01*
X159435600Y-52667257D01*
X159387980Y-52572019D01*
X156287980Y-56262495D02*
X155287980Y-56262495D01*
X155287980Y-56024400D01*
X155335600Y-55881542D01*
X155430838Y-55786304D01*
X155526076Y-55738685D01*
X155716552Y-55691066D01*
X155859409Y-55691066D01*
X156049885Y-55738685D01*
X156145123Y-55786304D01*
X156240361Y-55881542D01*
X156287980Y-56024400D01*
X156287980Y-56262495D01*
X155383219Y-55310114D02*
X155335600Y-55262495D01*
X155287980Y-55167257D01*
X155287980Y-54929161D01*
X155335600Y-54833923D01*
X155383219Y-54786304D01*
X155478457Y-54738685D01*
X155573695Y-54738685D01*
X155716552Y-54786304D01*
X156287980Y-55357733D01*
X156287980Y-54738685D01*
M02*
