G04 #@! TF.GenerationSoftware,KiCad,Pcbnew,(5.1.2)-1*
G04 #@! TF.CreationDate,2019-08-26T21:33:07-05:00*
G04 #@! TF.ProjectId,8266-dev,38323636-2d64-4657-962e-6b696361645f,rev?*
G04 #@! TF.SameCoordinates,Original*
G04 #@! TF.FileFunction,Legend,Top*
G04 #@! TF.FilePolarity,Positive*
%FSLAX46Y46*%
G04 Gerber Fmt 4.6, Leading zero omitted, Abs format (unit mm)*
G04 Created by KiCad (PCBNEW (5.1.2)-1) date 2019-08-26 21:33:07*
%MOMM*%
%LPD*%
G04 APERTURE LIST*
%ADD10C,0.300000*%
%ADD11C,0.120000*%
%ADD12C,0.100000*%
%ADD13C,0.127000*%
%ADD14C,0.150000*%
%ADD15C,0.050000*%
G04 APERTURE END LIST*
D10*
X88605011Y-82883891D02*
X88605011Y-84169605D01*
X88533582Y-84312462D01*
X88390725Y-84383891D01*
X88319297Y-84383891D01*
X88605011Y-82383891D02*
X88533582Y-82455320D01*
X88605011Y-82526748D01*
X88676440Y-82455320D01*
X88605011Y-82383891D01*
X88605011Y-82526748D01*
X89319297Y-83883891D02*
X89319297Y-82883891D01*
X89319297Y-82383891D02*
X89247868Y-82455320D01*
X89319297Y-82526748D01*
X89390725Y-82455320D01*
X89319297Y-82383891D01*
X89319297Y-82526748D01*
X90676440Y-82883891D02*
X90676440Y-84098177D01*
X90605011Y-84241034D01*
X90533582Y-84312462D01*
X90390725Y-84383891D01*
X90176440Y-84383891D01*
X90033582Y-84312462D01*
X90676440Y-83812462D02*
X90533582Y-83883891D01*
X90247868Y-83883891D01*
X90105011Y-83812462D01*
X90033582Y-83741034D01*
X89962154Y-83598177D01*
X89962154Y-83169605D01*
X90033582Y-83026748D01*
X90105011Y-82955320D01*
X90247868Y-82883891D01*
X90533582Y-82883891D01*
X90676440Y-82955320D01*
X92033582Y-82883891D02*
X92033582Y-84098177D01*
X91962154Y-84241034D01*
X91890725Y-84312462D01*
X91747868Y-84383891D01*
X91533582Y-84383891D01*
X91390725Y-84312462D01*
X92033582Y-83812462D02*
X91890725Y-83883891D01*
X91605011Y-83883891D01*
X91462154Y-83812462D01*
X91390725Y-83741034D01*
X91319297Y-83598177D01*
X91319297Y-83169605D01*
X91390725Y-83026748D01*
X91462154Y-82955320D01*
X91605011Y-82883891D01*
X91890725Y-82883891D01*
X92033582Y-82955320D01*
X92962154Y-83883891D02*
X92819297Y-83812462D01*
X92747868Y-83669605D01*
X92747868Y-82383891D01*
X94105011Y-83812462D02*
X93962154Y-83883891D01*
X93676440Y-83883891D01*
X93533582Y-83812462D01*
X93462154Y-83669605D01*
X93462154Y-83098177D01*
X93533582Y-82955320D01*
X93676440Y-82883891D01*
X93962154Y-82883891D01*
X94105011Y-82955320D01*
X94176440Y-83098177D01*
X94176440Y-83241034D01*
X93462154Y-83383891D01*
X94819297Y-83883891D02*
X94819297Y-82383891D01*
X94819297Y-82955320D02*
X94962154Y-82883891D01*
X95247868Y-82883891D01*
X95390725Y-82955320D01*
X95462154Y-83026748D01*
X95533582Y-83169605D01*
X95533582Y-83598177D01*
X95462154Y-83741034D01*
X95390725Y-83812462D01*
X95247868Y-83883891D01*
X94962154Y-83883891D01*
X94819297Y-83812462D01*
X96176440Y-83883891D02*
X96176440Y-82883891D01*
X96176440Y-82383891D02*
X96105011Y-82455320D01*
X96176440Y-82526748D01*
X96247868Y-82455320D01*
X96176440Y-82383891D01*
X96176440Y-82526748D01*
X97105011Y-83883891D02*
X96962154Y-83812462D01*
X96890725Y-83669605D01*
X96890725Y-82383891D01*
X97890725Y-83883891D02*
X97747868Y-83812462D01*
X97676440Y-83669605D01*
X97676440Y-82383891D01*
X98319297Y-82883891D02*
X98676440Y-83883891D01*
X99033582Y-82883891D02*
X98676440Y-83883891D01*
X98533582Y-84241034D01*
X98462154Y-84312462D01*
X98319297Y-84383891D01*
X99676440Y-82383891D02*
X99533582Y-82669605D01*
X100247868Y-83812462D02*
X100390725Y-83883891D01*
X100676440Y-83883891D01*
X100819297Y-83812462D01*
X100890725Y-83669605D01*
X100890725Y-83598177D01*
X100819297Y-83455320D01*
X100676440Y-83383891D01*
X100462154Y-83383891D01*
X100319297Y-83312462D01*
X100247868Y-83169605D01*
X100247868Y-83098177D01*
X100319297Y-82955320D01*
X100462154Y-82883891D01*
X100676440Y-82883891D01*
X100819297Y-82955320D01*
X102676440Y-83098177D02*
X103176440Y-83098177D01*
X103390725Y-83883891D02*
X102676440Y-83883891D01*
X102676440Y-82383891D01*
X103390725Y-82383891D01*
X103962154Y-83812462D02*
X104176440Y-83883891D01*
X104533582Y-83883891D01*
X104676440Y-83812462D01*
X104747868Y-83741034D01*
X104819297Y-83598177D01*
X104819297Y-83455320D01*
X104747868Y-83312462D01*
X104676440Y-83241034D01*
X104533582Y-83169605D01*
X104247868Y-83098177D01*
X104105011Y-83026748D01*
X104033582Y-82955320D01*
X103962154Y-82812462D01*
X103962154Y-82669605D01*
X104033582Y-82526748D01*
X104105011Y-82455320D01*
X104247868Y-82383891D01*
X104605011Y-82383891D01*
X104819297Y-82455320D01*
X105462154Y-83883891D02*
X105462154Y-82383891D01*
X106033582Y-82383891D01*
X106176440Y-82455320D01*
X106247868Y-82526748D01*
X106319297Y-82669605D01*
X106319297Y-82883891D01*
X106247868Y-83026748D01*
X106176440Y-83098177D01*
X106033582Y-83169605D01*
X105462154Y-83169605D01*
X107176440Y-83026748D02*
X107033582Y-82955320D01*
X106962154Y-82883891D01*
X106890725Y-82741034D01*
X106890725Y-82669605D01*
X106962154Y-82526748D01*
X107033582Y-82455320D01*
X107176440Y-82383891D01*
X107462154Y-82383891D01*
X107605011Y-82455320D01*
X107676440Y-82526748D01*
X107747868Y-82669605D01*
X107747868Y-82741034D01*
X107676440Y-82883891D01*
X107605011Y-82955320D01*
X107462154Y-83026748D01*
X107176440Y-83026748D01*
X107033582Y-83098177D01*
X106962154Y-83169605D01*
X106890725Y-83312462D01*
X106890725Y-83598177D01*
X106962154Y-83741034D01*
X107033582Y-83812462D01*
X107176440Y-83883891D01*
X107462154Y-83883891D01*
X107605011Y-83812462D01*
X107676440Y-83741034D01*
X107747868Y-83598177D01*
X107747868Y-83312462D01*
X107676440Y-83169605D01*
X107605011Y-83098177D01*
X107462154Y-83026748D01*
X108319297Y-82526748D02*
X108390725Y-82455320D01*
X108533582Y-82383891D01*
X108890725Y-82383891D01*
X109033582Y-82455320D01*
X109105011Y-82526748D01*
X109176440Y-82669605D01*
X109176440Y-82812462D01*
X109105011Y-83026748D01*
X108247868Y-83883891D01*
X109176440Y-83883891D01*
X110462154Y-82383891D02*
X110176440Y-82383891D01*
X110033582Y-82455320D01*
X109962154Y-82526748D01*
X109819297Y-82741034D01*
X109747868Y-83026748D01*
X109747868Y-83598177D01*
X109819297Y-83741034D01*
X109890725Y-83812462D01*
X110033582Y-83883891D01*
X110319297Y-83883891D01*
X110462154Y-83812462D01*
X110533582Y-83741034D01*
X110605011Y-83598177D01*
X110605011Y-83241034D01*
X110533582Y-83098177D01*
X110462154Y-83026748D01*
X110319297Y-82955320D01*
X110033582Y-82955320D01*
X109890725Y-83026748D01*
X109819297Y-83098177D01*
X109747868Y-83241034D01*
X111890725Y-82383891D02*
X111605011Y-82383891D01*
X111462154Y-82455320D01*
X111390725Y-82526748D01*
X111247868Y-82741034D01*
X111176440Y-83026748D01*
X111176440Y-83598177D01*
X111247868Y-83741034D01*
X111319297Y-83812462D01*
X111462154Y-83883891D01*
X111747868Y-83883891D01*
X111890725Y-83812462D01*
X111962154Y-83741034D01*
X112033582Y-83598177D01*
X112033582Y-83241034D01*
X111962154Y-83098177D01*
X111890725Y-83026748D01*
X111747868Y-82955320D01*
X111462154Y-82955320D01*
X111319297Y-83026748D01*
X111247868Y-83098177D01*
X111176440Y-83241034D01*
X112676440Y-83312462D02*
X113819297Y-83312462D01*
X115319297Y-83883891D02*
X114462154Y-83883891D01*
X114890725Y-83883891D02*
X114890725Y-82383891D01*
X114747868Y-82598177D01*
X114605011Y-82741034D01*
X114462154Y-82812462D01*
X115890725Y-82526748D02*
X115962154Y-82455320D01*
X116105011Y-82383891D01*
X116462154Y-82383891D01*
X116605011Y-82455320D01*
X116676440Y-82526748D01*
X116747868Y-82669605D01*
X116747868Y-82812462D01*
X116676440Y-83026748D01*
X115819297Y-83883891D01*
X116747868Y-83883891D01*
X117890725Y-83098177D02*
X117390725Y-83098177D01*
X117390725Y-83883891D02*
X117390725Y-82383891D01*
X118105011Y-82383891D01*
X120462154Y-83883891D02*
X120462154Y-82383891D01*
X120462154Y-83812462D02*
X120319297Y-83883891D01*
X120033582Y-83883891D01*
X119890725Y-83812462D01*
X119819297Y-83741034D01*
X119747868Y-83598177D01*
X119747868Y-83169605D01*
X119819297Y-83026748D01*
X119890725Y-82955320D01*
X120033582Y-82883891D01*
X120319297Y-82883891D01*
X120462154Y-82955320D01*
X121747868Y-83812462D02*
X121605011Y-83883891D01*
X121319297Y-83883891D01*
X121176440Y-83812462D01*
X121105011Y-83669605D01*
X121105011Y-83098177D01*
X121176440Y-82955320D01*
X121319297Y-82883891D01*
X121605011Y-82883891D01*
X121747868Y-82955320D01*
X121819297Y-83098177D01*
X121819297Y-83241034D01*
X121105011Y-83383891D01*
X122319297Y-82883891D02*
X122676440Y-83883891D01*
X123033582Y-82883891D01*
X124605011Y-82883891D02*
X124962154Y-83883891D01*
X125319297Y-82883891D01*
X125819297Y-82526748D02*
X125890725Y-82455320D01*
X126033582Y-82383891D01*
X126390725Y-82383891D01*
X126533582Y-82455320D01*
X126605011Y-82526748D01*
X126676440Y-82669605D01*
X126676440Y-82812462D01*
X126605011Y-83026748D01*
X125747868Y-83883891D01*
X126676440Y-83883891D01*
X127319297Y-83741034D02*
X127390725Y-83812462D01*
X127319297Y-83883891D01*
X127247868Y-83812462D01*
X127319297Y-83741034D01*
X127319297Y-83883891D01*
X128319297Y-82383891D02*
X128462154Y-82383891D01*
X128605011Y-82455320D01*
X128676440Y-82526748D01*
X128747868Y-82669605D01*
X128819297Y-82955320D01*
X128819297Y-83312462D01*
X128747868Y-83598177D01*
X128676440Y-83741034D01*
X128605011Y-83812462D01*
X128462154Y-83883891D01*
X128319297Y-83883891D01*
X128176440Y-83812462D01*
X128105011Y-83741034D01*
X128033582Y-83598177D01*
X127962154Y-83312462D01*
X127962154Y-82955320D01*
X128033582Y-82669605D01*
X128105011Y-82526748D01*
X128176440Y-82455320D01*
X128319297Y-82383891D01*
X139804222Y-135060214D02*
X139875651Y-134845928D01*
X139875651Y-134488785D01*
X139804222Y-134345928D01*
X139732794Y-134274500D01*
X139589937Y-134203071D01*
X139447080Y-134203071D01*
X139304222Y-134274500D01*
X139232794Y-134345928D01*
X139161365Y-134488785D01*
X139089937Y-134774500D01*
X139018508Y-134917357D01*
X138947080Y-134988785D01*
X138804222Y-135060214D01*
X138661365Y-135060214D01*
X138518508Y-134988785D01*
X138447080Y-134917357D01*
X138375651Y-134774500D01*
X138375651Y-134417357D01*
X138447080Y-134203071D01*
X139732794Y-132703071D02*
X139804222Y-132774500D01*
X139875651Y-132988785D01*
X139875651Y-133131642D01*
X139804222Y-133345928D01*
X139661365Y-133488785D01*
X139518508Y-133560214D01*
X139232794Y-133631642D01*
X139018508Y-133631642D01*
X138732794Y-133560214D01*
X138589937Y-133488785D01*
X138447080Y-133345928D01*
X138375651Y-133131642D01*
X138375651Y-132988785D01*
X138447080Y-132774500D01*
X138518508Y-132703071D01*
X139875651Y-131345928D02*
X139875651Y-132060214D01*
X138375651Y-132060214D01*
X139875651Y-130845928D02*
X138375651Y-130845928D01*
X139875651Y-129988785D02*
X139018508Y-130631642D01*
X138375651Y-129988785D02*
X139232794Y-130845928D01*
X137107051Y-134716542D02*
X135607051Y-134716542D01*
X136678480Y-134216542D01*
X135607051Y-133716542D01*
X137107051Y-133716542D01*
X135607051Y-132716542D02*
X135607051Y-132430828D01*
X135678480Y-132287971D01*
X135821337Y-132145114D01*
X136107051Y-132073685D01*
X136607051Y-132073685D01*
X136892765Y-132145114D01*
X137035622Y-132287971D01*
X137107051Y-132430828D01*
X137107051Y-132716542D01*
X137035622Y-132859400D01*
X136892765Y-133002257D01*
X136607051Y-133073685D01*
X136107051Y-133073685D01*
X135821337Y-133002257D01*
X135678480Y-132859400D01*
X135607051Y-132716542D01*
X137035622Y-131502257D02*
X137107051Y-131287971D01*
X137107051Y-130930828D01*
X137035622Y-130787971D01*
X136964194Y-130716542D01*
X136821337Y-130645114D01*
X136678480Y-130645114D01*
X136535622Y-130716542D01*
X136464194Y-130787971D01*
X136392765Y-130930828D01*
X136321337Y-131216542D01*
X136249908Y-131359400D01*
X136178480Y-131430828D01*
X136035622Y-131502257D01*
X135892765Y-131502257D01*
X135749908Y-131430828D01*
X135678480Y-131359400D01*
X135607051Y-131216542D01*
X135607051Y-130859400D01*
X135678480Y-130645114D01*
X137107051Y-130002257D02*
X135607051Y-130002257D01*
X134622931Y-134472085D02*
X133122931Y-134472085D01*
X133122931Y-133472085D02*
X133122931Y-133186371D01*
X133194360Y-133043514D01*
X133337217Y-132900657D01*
X133622931Y-132829228D01*
X134122931Y-132829228D01*
X134408645Y-132900657D01*
X134551502Y-133043514D01*
X134622931Y-133186371D01*
X134622931Y-133472085D01*
X134551502Y-133614942D01*
X134408645Y-133757800D01*
X134122931Y-133829228D01*
X133622931Y-133829228D01*
X133337217Y-133757800D01*
X133194360Y-133614942D01*
X133122931Y-133472085D01*
X134622931Y-131400657D02*
X134622931Y-132257800D01*
X134622931Y-131829228D02*
X133122931Y-131829228D01*
X133337217Y-131972085D01*
X133480074Y-132114942D01*
X133551502Y-132257800D01*
X133122931Y-130472085D02*
X133122931Y-130329228D01*
X133194360Y-130186371D01*
X133265788Y-130114942D01*
X133408645Y-130043514D01*
X133694360Y-129972085D01*
X134051502Y-129972085D01*
X134337217Y-130043514D01*
X134480074Y-130114942D01*
X134551502Y-130186371D01*
X134622931Y-130329228D01*
X134622931Y-130472085D01*
X134551502Y-130614942D01*
X134480074Y-130686371D01*
X134337217Y-130757800D01*
X134051502Y-130829228D01*
X133694360Y-130829228D01*
X133408645Y-130757800D01*
X133265788Y-130686371D01*
X133194360Y-130614942D01*
X133122931Y-130472085D01*
X131976251Y-133041520D02*
X130476251Y-133041520D01*
X130476251Y-132041520D02*
X130476251Y-131755805D01*
X130547680Y-131612948D01*
X130690537Y-131470091D01*
X130976251Y-131398662D01*
X131476251Y-131398662D01*
X131761965Y-131470091D01*
X131904822Y-131612948D01*
X131976251Y-131755805D01*
X131976251Y-132041520D01*
X131904822Y-132184377D01*
X131761965Y-132327234D01*
X131476251Y-132398662D01*
X130976251Y-132398662D01*
X130690537Y-132327234D01*
X130547680Y-132184377D01*
X130476251Y-132041520D01*
X131976251Y-130684377D02*
X131976251Y-130398662D01*
X131904822Y-130255805D01*
X131833394Y-130184377D01*
X131619108Y-130041520D01*
X131333394Y-129970091D01*
X130761965Y-129970091D01*
X130619108Y-130041520D01*
X130547680Y-130112948D01*
X130476251Y-130255805D01*
X130476251Y-130541520D01*
X130547680Y-130684377D01*
X130619108Y-130755805D01*
X130761965Y-130827234D01*
X131119108Y-130827234D01*
X131261965Y-130755805D01*
X131333394Y-130684377D01*
X131404822Y-130541520D01*
X131404822Y-130255805D01*
X131333394Y-130112948D01*
X131261965Y-130041520D01*
X131119108Y-129970091D01*
X129542931Y-134731782D02*
X128042931Y-134731782D01*
X129114360Y-134231782D01*
X128042931Y-133731782D01*
X129542931Y-133731782D01*
X129542931Y-133017497D02*
X128042931Y-133017497D01*
X129471502Y-132374640D02*
X129542931Y-132160354D01*
X129542931Y-131803211D01*
X129471502Y-131660354D01*
X129400074Y-131588925D01*
X129257217Y-131517497D01*
X129114360Y-131517497D01*
X128971502Y-131588925D01*
X128900074Y-131660354D01*
X128828645Y-131803211D01*
X128757217Y-132088925D01*
X128685788Y-132231782D01*
X128614360Y-132303211D01*
X128471502Y-132374640D01*
X128328645Y-132374640D01*
X128185788Y-132303211D01*
X128114360Y-132231782D01*
X128042931Y-132088925D01*
X128042931Y-131731782D01*
X128114360Y-131517497D01*
X128042931Y-130588925D02*
X128042931Y-130303211D01*
X128114360Y-130160354D01*
X128257217Y-130017497D01*
X128542931Y-129946068D01*
X129042931Y-129946068D01*
X129328645Y-130017497D01*
X129471502Y-130160354D01*
X129542931Y-130303211D01*
X129542931Y-130588925D01*
X129471502Y-130731782D01*
X129328645Y-130874640D01*
X129042931Y-130946068D01*
X128542931Y-130946068D01*
X128257217Y-130874640D01*
X128114360Y-130731782D01*
X128042931Y-130588925D01*
X126700054Y-132841085D02*
X126771482Y-132912514D01*
X126842911Y-133126800D01*
X126842911Y-133269657D01*
X126771482Y-133483942D01*
X126628625Y-133626800D01*
X126485768Y-133698228D01*
X126200054Y-133769657D01*
X125985768Y-133769657D01*
X125700054Y-133698228D01*
X125557197Y-133626800D01*
X125414340Y-133483942D01*
X125342911Y-133269657D01*
X125342911Y-133126800D01*
X125414340Y-132912514D01*
X125485768Y-132841085D01*
X126771482Y-132269657D02*
X126842911Y-132055371D01*
X126842911Y-131698228D01*
X126771482Y-131555371D01*
X126700054Y-131483942D01*
X126557197Y-131412514D01*
X126414340Y-131412514D01*
X126271482Y-131483942D01*
X126200054Y-131555371D01*
X126128625Y-131698228D01*
X126057197Y-131983942D01*
X125985768Y-132126800D01*
X125914340Y-132198228D01*
X125771482Y-132269657D01*
X125628625Y-132269657D01*
X125485768Y-132198228D01*
X125414340Y-132126800D01*
X125342911Y-131983942D01*
X125342911Y-131626800D01*
X125414340Y-131412514D01*
X125342911Y-130483942D02*
X125342911Y-130341085D01*
X125414340Y-130198228D01*
X125485768Y-130126800D01*
X125628625Y-130055371D01*
X125914340Y-129983942D01*
X126271482Y-129983942D01*
X126557197Y-130055371D01*
X126700054Y-130126800D01*
X126771482Y-130198228D01*
X126842911Y-130341085D01*
X126842911Y-130483942D01*
X126771482Y-130626800D01*
X126700054Y-130698228D01*
X126557197Y-130769657D01*
X126271482Y-130841085D01*
X125914340Y-130841085D01*
X125628625Y-130769657D01*
X125485768Y-130698228D01*
X125414340Y-130626800D01*
X125342911Y-130483942D01*
X177542060Y-64950731D02*
X177542060Y-63450731D01*
X178542060Y-63450731D02*
X178827774Y-63450731D01*
X178970631Y-63522160D01*
X179113488Y-63665017D01*
X179184917Y-63950731D01*
X179184917Y-64450731D01*
X179113488Y-64736445D01*
X178970631Y-64879302D01*
X178827774Y-64950731D01*
X178542060Y-64950731D01*
X178399202Y-64879302D01*
X178256345Y-64736445D01*
X178184917Y-64450731D01*
X178184917Y-63950731D01*
X178256345Y-63665017D01*
X178399202Y-63522160D01*
X178542060Y-63450731D01*
X179756345Y-63593588D02*
X179827774Y-63522160D01*
X179970631Y-63450731D01*
X180327774Y-63450731D01*
X180470631Y-63522160D01*
X180542060Y-63593588D01*
X180613488Y-63736445D01*
X180613488Y-63879302D01*
X180542060Y-64093588D01*
X179684917Y-64950731D01*
X180613488Y-64950731D01*
X177542060Y-62408191D02*
X177542060Y-60908191D01*
X178542060Y-60908191D02*
X178827774Y-60908191D01*
X178970631Y-60979620D01*
X179113488Y-61122477D01*
X179184917Y-61408191D01*
X179184917Y-61908191D01*
X179113488Y-62193905D01*
X178970631Y-62336762D01*
X178827774Y-62408191D01*
X178542060Y-62408191D01*
X178399202Y-62336762D01*
X178256345Y-62193905D01*
X178184917Y-61908191D01*
X178184917Y-61408191D01*
X178256345Y-61122477D01*
X178399202Y-60979620D01*
X178542060Y-60908191D01*
X180470631Y-61408191D02*
X180470631Y-62408191D01*
X180113488Y-60836762D02*
X179756345Y-61908191D01*
X180684917Y-61908191D01*
X177542060Y-59985031D02*
X177542060Y-58485031D01*
X178542060Y-58485031D02*
X178827774Y-58485031D01*
X178970631Y-58556460D01*
X179113488Y-58699317D01*
X179184917Y-58985031D01*
X179184917Y-59485031D01*
X179113488Y-59770745D01*
X178970631Y-59913602D01*
X178827774Y-59985031D01*
X178542060Y-59985031D01*
X178399202Y-59913602D01*
X178256345Y-59770745D01*
X178184917Y-59485031D01*
X178184917Y-58985031D01*
X178256345Y-58699317D01*
X178399202Y-58556460D01*
X178542060Y-58485031D01*
X180542060Y-58485031D02*
X179827774Y-58485031D01*
X179756345Y-59199317D01*
X179827774Y-59127888D01*
X179970631Y-59056460D01*
X180327774Y-59056460D01*
X180470631Y-59127888D01*
X180542060Y-59199317D01*
X180613488Y-59342174D01*
X180613488Y-59699317D01*
X180542060Y-59842174D01*
X180470631Y-59913602D01*
X180327774Y-59985031D01*
X179970631Y-59985031D01*
X179827774Y-59913602D01*
X179756345Y-59842174D01*
X87120054Y-67754891D02*
X87120054Y-66254891D01*
X88120054Y-66254891D02*
X88405768Y-66254891D01*
X88548625Y-66326320D01*
X88691482Y-66469177D01*
X88762911Y-66754891D01*
X88762911Y-67254891D01*
X88691482Y-67540605D01*
X88548625Y-67683462D01*
X88405768Y-67754891D01*
X88120054Y-67754891D01*
X87977197Y-67683462D01*
X87834340Y-67540605D01*
X87762911Y-67254891D01*
X87762911Y-66754891D01*
X87834340Y-66469177D01*
X87977197Y-66326320D01*
X88120054Y-66254891D01*
X90191482Y-67754891D02*
X89334340Y-67754891D01*
X89762911Y-67754891D02*
X89762911Y-66254891D01*
X89620054Y-66469177D01*
X89477197Y-66612034D01*
X89334340Y-66683462D01*
X90691482Y-66254891D02*
X91620054Y-66254891D01*
X91120054Y-66826320D01*
X91334340Y-66826320D01*
X91477197Y-66897748D01*
X91548625Y-66969177D01*
X91620054Y-67112034D01*
X91620054Y-67469177D01*
X91548625Y-67612034D01*
X91477197Y-67683462D01*
X91334340Y-67754891D01*
X90905768Y-67754891D01*
X90762911Y-67683462D01*
X90691482Y-67612034D01*
X87089574Y-65336811D02*
X87089574Y-63836811D01*
X88089574Y-63836811D02*
X88375288Y-63836811D01*
X88518145Y-63908240D01*
X88661002Y-64051097D01*
X88732431Y-64336811D01*
X88732431Y-64836811D01*
X88661002Y-65122525D01*
X88518145Y-65265382D01*
X88375288Y-65336811D01*
X88089574Y-65336811D01*
X87946717Y-65265382D01*
X87803860Y-65122525D01*
X87732431Y-64836811D01*
X87732431Y-64336811D01*
X87803860Y-64051097D01*
X87946717Y-63908240D01*
X88089574Y-63836811D01*
X90161002Y-65336811D02*
X89303860Y-65336811D01*
X89732431Y-65336811D02*
X89732431Y-63836811D01*
X89589574Y-64051097D01*
X89446717Y-64193954D01*
X89303860Y-64265382D01*
X90732431Y-63979668D02*
X90803860Y-63908240D01*
X90946717Y-63836811D01*
X91303860Y-63836811D01*
X91446717Y-63908240D01*
X91518145Y-63979668D01*
X91589574Y-64122525D01*
X91589574Y-64265382D01*
X91518145Y-64479668D01*
X90661002Y-65336811D01*
X91589574Y-65336811D01*
X87069254Y-62918731D02*
X87069254Y-61418731D01*
X88069254Y-61418731D02*
X88354968Y-61418731D01*
X88497825Y-61490160D01*
X88640682Y-61633017D01*
X88712111Y-61918731D01*
X88712111Y-62418731D01*
X88640682Y-62704445D01*
X88497825Y-62847302D01*
X88354968Y-62918731D01*
X88069254Y-62918731D01*
X87926397Y-62847302D01*
X87783540Y-62704445D01*
X87712111Y-62418731D01*
X87712111Y-61918731D01*
X87783540Y-61633017D01*
X87926397Y-61490160D01*
X88069254Y-61418731D01*
X90140682Y-62918731D02*
X89283540Y-62918731D01*
X89712111Y-62918731D02*
X89712111Y-61418731D01*
X89569254Y-61633017D01*
X89426397Y-61775874D01*
X89283540Y-61847302D01*
X91426397Y-61918731D02*
X91426397Y-62918731D01*
X91069254Y-61347302D02*
X90712111Y-62418731D01*
X91640682Y-62418731D01*
X87033694Y-60470171D02*
X87033694Y-58970171D01*
X88033694Y-58970171D02*
X88319408Y-58970171D01*
X88462265Y-59041600D01*
X88605122Y-59184457D01*
X88676551Y-59470171D01*
X88676551Y-59970171D01*
X88605122Y-60255885D01*
X88462265Y-60398742D01*
X88319408Y-60470171D01*
X88033694Y-60470171D01*
X87890837Y-60398742D01*
X87747980Y-60255885D01*
X87676551Y-59970171D01*
X87676551Y-59470171D01*
X87747980Y-59184457D01*
X87890837Y-59041600D01*
X88033694Y-58970171D01*
X90105122Y-60470171D02*
X89247980Y-60470171D01*
X89676551Y-60470171D02*
X89676551Y-58970171D01*
X89533694Y-59184457D01*
X89390837Y-59327314D01*
X89247980Y-59398742D01*
X91390837Y-58970171D02*
X91105122Y-58970171D01*
X90962265Y-59041600D01*
X90890837Y-59113028D01*
X90747980Y-59327314D01*
X90676551Y-59613028D01*
X90676551Y-60184457D01*
X90747980Y-60327314D01*
X90819408Y-60398742D01*
X90962265Y-60470171D01*
X91247980Y-60470171D01*
X91390837Y-60398742D01*
X91462265Y-60327314D01*
X91533694Y-60184457D01*
X91533694Y-59827314D01*
X91462265Y-59684457D01*
X91390837Y-59613028D01*
X91247980Y-59541600D01*
X90962265Y-59541600D01*
X90819408Y-59613028D01*
X90747980Y-59684457D01*
X90676551Y-59827314D01*
X87418777Y-57364440D02*
X88133062Y-57364440D01*
X87275920Y-57793011D02*
X87775920Y-56293011D01*
X88275920Y-57793011D01*
X88775920Y-57793011D02*
X88775920Y-56293011D01*
X89133062Y-56293011D01*
X89347348Y-56364440D01*
X89490205Y-56507297D01*
X89561634Y-56650154D01*
X89633062Y-56935868D01*
X89633062Y-57150154D01*
X89561634Y-57435868D01*
X89490205Y-57578725D01*
X89347348Y-57721582D01*
X89133062Y-57793011D01*
X88775920Y-57793011D01*
X91133062Y-57650154D02*
X91061634Y-57721582D01*
X90847348Y-57793011D01*
X90704491Y-57793011D01*
X90490205Y-57721582D01*
X90347348Y-57578725D01*
X90275920Y-57435868D01*
X90204491Y-57150154D01*
X90204491Y-56935868D01*
X90275920Y-56650154D01*
X90347348Y-56507297D01*
X90490205Y-56364440D01*
X90704491Y-56293011D01*
X90847348Y-56293011D01*
X91061634Y-56364440D01*
X91133062Y-56435868D01*
X176489751Y-130496120D02*
X175775465Y-130996120D01*
X176489751Y-131353262D02*
X174989751Y-131353262D01*
X174989751Y-130781834D01*
X175061180Y-130638977D01*
X175132608Y-130567548D01*
X175275465Y-130496120D01*
X175489751Y-130496120D01*
X175632608Y-130567548D01*
X175704037Y-130638977D01*
X175775465Y-130781834D01*
X175775465Y-131353262D01*
X174989751Y-129996120D02*
X176489751Y-128996120D01*
X174989751Y-128996120D02*
X176489751Y-129996120D01*
X172525951Y-131287377D02*
X172525951Y-130430234D01*
X174025951Y-130858805D02*
X172525951Y-130858805D01*
X172525951Y-130073091D02*
X174025951Y-129073091D01*
X172525951Y-129073091D02*
X174025951Y-130073091D01*
X169757351Y-132850640D02*
X171257351Y-132350640D01*
X169757351Y-131850640D01*
X171114494Y-130493497D02*
X171185922Y-130564925D01*
X171257351Y-130779211D01*
X171257351Y-130922068D01*
X171185922Y-131136354D01*
X171043065Y-131279211D01*
X170900208Y-131350640D01*
X170614494Y-131422068D01*
X170400208Y-131422068D01*
X170114494Y-131350640D01*
X169971637Y-131279211D01*
X169828780Y-131136354D01*
X169757351Y-130922068D01*
X169757351Y-130779211D01*
X169828780Y-130564925D01*
X169900208Y-130493497D01*
X171114494Y-128993497D02*
X171185922Y-129064925D01*
X171257351Y-129279211D01*
X171257351Y-129422068D01*
X171185922Y-129636354D01*
X171043065Y-129779211D01*
X170900208Y-129850640D01*
X170614494Y-129922068D01*
X170400208Y-129922068D01*
X170114494Y-129850640D01*
X169971637Y-129779211D01*
X169828780Y-129636354D01*
X169757351Y-129422068D01*
X169757351Y-129279211D01*
X169828780Y-129064925D01*
X169900208Y-128993497D01*
X164695440Y-132092557D02*
X164624011Y-132235414D01*
X164624011Y-132449700D01*
X164695440Y-132663985D01*
X164838297Y-132806842D01*
X164981154Y-132878271D01*
X165266868Y-132949700D01*
X165481154Y-132949700D01*
X165766868Y-132878271D01*
X165909725Y-132806842D01*
X166052582Y-132663985D01*
X166124011Y-132449700D01*
X166124011Y-132306842D01*
X166052582Y-132092557D01*
X165981154Y-132021128D01*
X165481154Y-132021128D01*
X165481154Y-132306842D01*
X166124011Y-131378271D02*
X164624011Y-131378271D01*
X166124011Y-130521128D01*
X164624011Y-130521128D01*
X166124011Y-129806842D02*
X164624011Y-129806842D01*
X164624011Y-129449700D01*
X164695440Y-129235414D01*
X164838297Y-129092557D01*
X164981154Y-129021128D01*
X165266868Y-128949700D01*
X165481154Y-128949700D01*
X165766868Y-129021128D01*
X165909725Y-129092557D01*
X166052582Y-129235414D01*
X166124011Y-129449700D01*
X166124011Y-129806842D01*
X164055765Y-120658771D02*
X164055765Y-121944485D01*
X163984337Y-122087342D01*
X163841480Y-122158771D01*
X163770051Y-122158771D01*
X164055765Y-120158771D02*
X163984337Y-120230200D01*
X164055765Y-120301628D01*
X164127194Y-120230200D01*
X164055765Y-120158771D01*
X164055765Y-120301628D01*
X165412908Y-121658771D02*
X165412908Y-120873057D01*
X165341480Y-120730200D01*
X165198622Y-120658771D01*
X164912908Y-120658771D01*
X164770051Y-120730200D01*
X165412908Y-121587342D02*
X165270051Y-121658771D01*
X164912908Y-121658771D01*
X164770051Y-121587342D01*
X164698622Y-121444485D01*
X164698622Y-121301628D01*
X164770051Y-121158771D01*
X164912908Y-121087342D01*
X165270051Y-121087342D01*
X165412908Y-121015914D01*
X166770051Y-121587342D02*
X166627194Y-121658771D01*
X166341480Y-121658771D01*
X166198622Y-121587342D01*
X166127194Y-121515914D01*
X166055765Y-121373057D01*
X166055765Y-120944485D01*
X166127194Y-120801628D01*
X166198622Y-120730200D01*
X166341480Y-120658771D01*
X166627194Y-120658771D01*
X166770051Y-120730200D01*
X167412908Y-121658771D02*
X167412908Y-120158771D01*
X167555765Y-121087342D02*
X167984337Y-121658771D01*
X167984337Y-120658771D02*
X167412908Y-121230200D01*
X169770051Y-121658771D02*
X169770051Y-120658771D01*
X169770051Y-120158771D02*
X169698622Y-120230200D01*
X169770051Y-120301628D01*
X169841480Y-120230200D01*
X169770051Y-120158771D01*
X169770051Y-120301628D01*
X170484337Y-120658771D02*
X170484337Y-121658771D01*
X170484337Y-120801628D02*
X170555765Y-120730200D01*
X170698622Y-120658771D01*
X170912908Y-120658771D01*
X171055765Y-120730200D01*
X171127194Y-120873057D01*
X171127194Y-121658771D01*
X172984337Y-121658771D02*
X172984337Y-120158771D01*
X173627194Y-121658771D02*
X173627194Y-120873057D01*
X173555765Y-120730200D01*
X173412908Y-120658771D01*
X173198622Y-120658771D01*
X173055765Y-120730200D01*
X172984337Y-120801628D01*
X174912908Y-121587342D02*
X174770051Y-121658771D01*
X174484337Y-121658771D01*
X174341480Y-121587342D01*
X174270051Y-121444485D01*
X174270051Y-120873057D01*
X174341480Y-120730200D01*
X174484337Y-120658771D01*
X174770051Y-120658771D01*
X174912908Y-120730200D01*
X174984337Y-120873057D01*
X174984337Y-121015914D01*
X174270051Y-121158771D01*
X175627194Y-121658771D02*
X175627194Y-120658771D01*
X175627194Y-120944485D02*
X175698622Y-120801628D01*
X175770051Y-120730200D01*
X175912908Y-120658771D01*
X176055765Y-120658771D01*
X177127194Y-121587342D02*
X176984337Y-121658771D01*
X176698622Y-121658771D01*
X176555765Y-121587342D01*
X176484337Y-121444485D01*
X176484337Y-120873057D01*
X176555765Y-120730200D01*
X176698622Y-120658771D01*
X176984337Y-120658771D01*
X177127194Y-120730200D01*
X177198622Y-120873057D01*
X177198622Y-121015914D01*
X176484337Y-121158771D01*
D11*
X90698200Y-122285180D02*
X92305290Y-122285180D01*
X90698200Y-124170180D02*
X90698200Y-122285180D01*
X111638200Y-124170180D02*
X111638200Y-122285180D01*
X90698200Y-130170180D02*
X90698200Y-132055180D01*
X111638200Y-130170180D02*
X111638200Y-132055180D01*
X111638200Y-122285180D02*
X110031110Y-122285180D01*
X90698200Y-132055180D02*
X92305290Y-132055180D01*
X111638200Y-132055180D02*
X110031110Y-132055180D01*
X92305290Y-122285180D02*
G75*
G02X110031110Y-122285180I8862910J-4885000D01*
G01*
X110033221Y-132051348D02*
G75*
G02X92305290Y-132055180I-8865021J4881168D01*
G01*
X113800300Y-69931656D02*
X113800300Y-71135784D01*
X111980300Y-69931656D02*
X111980300Y-71135784D01*
X114248824Y-56198180D02*
X113044696Y-56198180D01*
X114248824Y-54378180D02*
X113044696Y-54378180D01*
X114081184Y-58251680D02*
X112877056Y-58251680D01*
X114081184Y-60071680D02*
X112877056Y-60071680D01*
X161307236Y-52268800D02*
X162511364Y-52268800D01*
X161307236Y-50448800D02*
X162511364Y-50448800D01*
X151945424Y-68385100D02*
X150741296Y-68385100D01*
X151945424Y-66565100D02*
X150741296Y-66565100D01*
D12*
X167930360Y-60488780D02*
X167930360Y-60788780D01*
X167930360Y-60488780D02*
X167605360Y-60138780D01*
X167605360Y-60138780D02*
X167605360Y-59838780D01*
X167605360Y-59838780D02*
X167830360Y-59838780D01*
X167830360Y-59838780D02*
X167830360Y-58188780D01*
X167380360Y-66388780D02*
X167930360Y-66388780D01*
X167930360Y-66388780D02*
X167930360Y-65888780D01*
X161680360Y-60538780D02*
X161680360Y-60138780D01*
X161680360Y-60138780D02*
X162080360Y-60138780D01*
X162055360Y-66388780D02*
X161680360Y-66388780D01*
X161680360Y-66388780D02*
X161680360Y-66013780D01*
D13*
X123986780Y-54296580D02*
G75*
G03X123986780Y-54296580I-250000J0D01*
G01*
X140986780Y-70671580D02*
X138986780Y-70671580D01*
X140986780Y-70171580D02*
X140986780Y-70671580D01*
X124986780Y-70671580D02*
X126986780Y-70671580D01*
X124986780Y-70171580D02*
X124986780Y-70671580D01*
X140986780Y-46671580D02*
X140986780Y-54171580D01*
X124986780Y-46671580D02*
X140986780Y-46671580D01*
X124986780Y-54171580D02*
X124986780Y-46671580D01*
X126986780Y-69431580D02*
X126986780Y-54431580D01*
X138986780Y-69431580D02*
X126986780Y-69431580D01*
X138986780Y-54431580D02*
X138986780Y-69431580D01*
X126986780Y-54431580D02*
X138986780Y-54431580D01*
D12*
X178111480Y-123949200D02*
X178111480Y-124449200D01*
X178111480Y-123949200D02*
X177611480Y-123949200D01*
X178111480Y-129949200D02*
X177611480Y-129949200D01*
X178111480Y-129949200D02*
X178111480Y-129449200D01*
X162911480Y-123949200D02*
X162911480Y-124449200D01*
X162911480Y-123949200D02*
X163411480Y-123949200D01*
X162911480Y-129949200D02*
X162911480Y-129449200D01*
X162911480Y-129949200D02*
X163411480Y-129949200D01*
X98417640Y-69704280D02*
X97917640Y-69704280D01*
X98417640Y-69704280D02*
X98417640Y-69204280D01*
X92417640Y-69704280D02*
X92417640Y-69204280D01*
X92417640Y-69704280D02*
X92917640Y-69704280D01*
X98417640Y-54504280D02*
X97917640Y-54504280D01*
X98417640Y-54504280D02*
X98417640Y-55004280D01*
X92417640Y-54504280D02*
X92917640Y-54504280D01*
X92417640Y-54504280D02*
X92417640Y-55004280D01*
D11*
X124912530Y-125614200D02*
X124912530Y-128274200D01*
X137672530Y-125614200D02*
X124912530Y-125614200D01*
X137672530Y-128274200D02*
X124912530Y-128274200D01*
X137672530Y-125614200D02*
X137672530Y-128274200D01*
X138942530Y-125614200D02*
X140272530Y-125614200D01*
X140272530Y-125614200D02*
X140272530Y-126944200D01*
D12*
X173519640Y-65694700D02*
X174019640Y-65694700D01*
X173519640Y-65694700D02*
X173519640Y-65194700D01*
X173519640Y-57794700D02*
X173519640Y-58294700D01*
X173519640Y-57794700D02*
X174019640Y-57794700D01*
X176319640Y-57794700D02*
X175819640Y-57794700D01*
X176319640Y-57794700D02*
X176319640Y-58294700D01*
X176319640Y-65694700D02*
X175819640Y-65694700D01*
X176319640Y-65694700D02*
X176319640Y-65194700D01*
D11*
X119116520Y-69976916D02*
X119116520Y-71181044D01*
X117296520Y-69976916D02*
X117296520Y-71181044D01*
X95624000Y-85795000D02*
X94474000Y-85795000D01*
X95624000Y-93095000D02*
X95624000Y-85795000D01*
X90124000Y-93095000D02*
X90124000Y-85795000D01*
X99619666Y-93095000D02*
X99619666Y-85795000D01*
X105119666Y-93095000D02*
X105119666Y-85795000D01*
X105119666Y-85795000D02*
X103969666Y-85795000D01*
X114615332Y-85795000D02*
X113465332Y-85795000D01*
X114615332Y-93095000D02*
X114615332Y-85795000D01*
X109115332Y-93095000D02*
X109115332Y-85795000D01*
X118611000Y-93095000D02*
X118611000Y-85795000D01*
X124111000Y-93095000D02*
X124111000Y-85795000D01*
X124111000Y-85795000D02*
X122961000Y-85795000D01*
X92910500Y-74658000D02*
X93840500Y-74658000D01*
X96070500Y-74658000D02*
X95140500Y-74658000D01*
X96070500Y-74658000D02*
X96070500Y-72498000D01*
X92910500Y-74658000D02*
X92910500Y-73198000D01*
X178419500Y-93857400D02*
X178419500Y-93407400D01*
X180269500Y-93857400D02*
X178419500Y-93857400D01*
X182819500Y-86057400D02*
X182569500Y-86057400D01*
X182819500Y-93857400D02*
X182569500Y-93857400D01*
X180269500Y-86057400D02*
X178419500Y-86057400D01*
X178419500Y-86057400D02*
X178419500Y-86507400D01*
X177869500Y-91657400D02*
X177869500Y-91207400D01*
X177869500Y-91657400D02*
X178319500Y-91657400D01*
X162205900Y-85349400D02*
X160255900Y-85349400D01*
X162205900Y-85349400D02*
X164155900Y-85349400D01*
X162205900Y-90469400D02*
X160255900Y-90469400D01*
X162205900Y-90469400D02*
X165655900Y-90469400D01*
X169957699Y-93419237D02*
X169957699Y-94623365D01*
X168137699Y-93419237D02*
X168137699Y-94623365D01*
X164847699Y-93419237D02*
X164847699Y-94623365D01*
X166667699Y-93419237D02*
X166667699Y-94623365D01*
X147494500Y-51228700D02*
X145494500Y-51228700D01*
X145494500Y-51228700D02*
X145494500Y-55128700D01*
X147494500Y-51228700D02*
X147494500Y-55128700D01*
X156835600Y-57774400D02*
X156835600Y-53874400D01*
X158835600Y-57774400D02*
X158835600Y-53874400D01*
X156835600Y-57774400D02*
X158835600Y-57774400D01*
D14*
X100382485Y-115898751D02*
X100525342Y-115946370D01*
X100572961Y-115993989D01*
X100620580Y-116089227D01*
X100620580Y-116232084D01*
X100572961Y-116327322D01*
X100525342Y-116374941D01*
X100430104Y-116422560D01*
X100049152Y-116422560D01*
X100049152Y-115422560D01*
X100382485Y-115422560D01*
X100477723Y-115470180D01*
X100525342Y-115517799D01*
X100572961Y-115613037D01*
X100572961Y-115708275D01*
X100525342Y-115803513D01*
X100477723Y-115851132D01*
X100382485Y-115898751D01*
X100049152Y-115898751D01*
X100906295Y-115422560D02*
X101477723Y-115422560D01*
X101192009Y-116422560D02*
X101192009Y-115422560D01*
X102334866Y-116422560D02*
X101763438Y-116422560D01*
X102049152Y-116422560D02*
X102049152Y-115422560D01*
X101953914Y-115565418D01*
X101858676Y-115660656D01*
X101763438Y-115708275D01*
X115067442Y-70700386D02*
X115115061Y-70748005D01*
X115162680Y-70890862D01*
X115162680Y-70986100D01*
X115115061Y-71128958D01*
X115019823Y-71224196D01*
X114924585Y-71271815D01*
X114734109Y-71319434D01*
X114591252Y-71319434D01*
X114400776Y-71271815D01*
X114305538Y-71224196D01*
X114210300Y-71128958D01*
X114162680Y-70986100D01*
X114162680Y-70890862D01*
X114210300Y-70748005D01*
X114257919Y-70700386D01*
X115162680Y-69748005D02*
X115162680Y-70319434D01*
X115162680Y-70033720D02*
X114162680Y-70033720D01*
X114305538Y-70128958D01*
X114400776Y-70224196D01*
X114448395Y-70319434D01*
X113480093Y-57560560D02*
X113146760Y-57084370D01*
X112908664Y-57560560D02*
X112908664Y-56560560D01*
X113289617Y-56560560D01*
X113384855Y-56608180D01*
X113432474Y-56655799D01*
X113480093Y-56751037D01*
X113480093Y-56893894D01*
X113432474Y-56989132D01*
X113384855Y-57036751D01*
X113289617Y-57084370D01*
X112908664Y-57084370D01*
X114432474Y-57560560D02*
X113861045Y-57560560D01*
X114146760Y-57560560D02*
X114146760Y-56560560D01*
X114051521Y-56703418D01*
X113956283Y-56798656D01*
X113861045Y-56846275D01*
X113312453Y-61434060D02*
X112979120Y-60957870D01*
X112741024Y-61434060D02*
X112741024Y-60434060D01*
X113121977Y-60434060D01*
X113217215Y-60481680D01*
X113264834Y-60529299D01*
X113312453Y-60624537D01*
X113312453Y-60767394D01*
X113264834Y-60862632D01*
X113217215Y-60910251D01*
X113121977Y-60957870D01*
X112741024Y-60957870D01*
X113693405Y-60529299D02*
X113741024Y-60481680D01*
X113836262Y-60434060D01*
X114074358Y-60434060D01*
X114169596Y-60481680D01*
X114217215Y-60529299D01*
X114264834Y-60624537D01*
X114264834Y-60719775D01*
X114217215Y-60862632D01*
X113645786Y-61434060D01*
X114264834Y-61434060D01*
X161742633Y-49991180D02*
X161409300Y-49514990D01*
X161171204Y-49991180D02*
X161171204Y-48991180D01*
X161552157Y-48991180D01*
X161647395Y-49038800D01*
X161695014Y-49086419D01*
X161742633Y-49181657D01*
X161742633Y-49324514D01*
X161695014Y-49419752D01*
X161647395Y-49467371D01*
X161552157Y-49514990D01*
X161171204Y-49514990D01*
X162075966Y-48991180D02*
X162695014Y-48991180D01*
X162361680Y-49372133D01*
X162504538Y-49372133D01*
X162599776Y-49419752D01*
X162647395Y-49467371D01*
X162695014Y-49562609D01*
X162695014Y-49800704D01*
X162647395Y-49895942D01*
X162599776Y-49943561D01*
X162504538Y-49991180D01*
X162218823Y-49991180D01*
X162123585Y-49943561D01*
X162075966Y-49895942D01*
X151176693Y-69747480D02*
X150843360Y-69271290D01*
X150605264Y-69747480D02*
X150605264Y-68747480D01*
X150986217Y-68747480D01*
X151081455Y-68795100D01*
X151129074Y-68842719D01*
X151176693Y-68937957D01*
X151176693Y-69080814D01*
X151129074Y-69176052D01*
X151081455Y-69223671D01*
X150986217Y-69271290D01*
X150605264Y-69271290D01*
X152033836Y-69080814D02*
X152033836Y-69747480D01*
X151795740Y-68699861D02*
X151557645Y-69414147D01*
X152176693Y-69414147D01*
X169900121Y-63995684D02*
X169947740Y-63852827D01*
X169947740Y-63614732D01*
X169900121Y-63519494D01*
X169852502Y-63471875D01*
X169757264Y-63424256D01*
X169662026Y-63424256D01*
X169566788Y-63471875D01*
X169519169Y-63519494D01*
X169471550Y-63614732D01*
X169423931Y-63805208D01*
X169376312Y-63900446D01*
X169328693Y-63948065D01*
X169233455Y-63995684D01*
X169138217Y-63995684D01*
X169042979Y-63948065D01*
X168995360Y-63900446D01*
X168947740Y-63805208D01*
X168947740Y-63567113D01*
X168995360Y-63424256D01*
X169947740Y-62471875D02*
X169947740Y-63043303D01*
X169947740Y-62757589D02*
X168947740Y-62757589D01*
X169090598Y-62852827D01*
X169185836Y-62948065D01*
X169233455Y-63043303D01*
D15*
X126009508Y-45225939D02*
X126009508Y-46036086D01*
X126057164Y-46131397D01*
X126104820Y-46179053D01*
X126200131Y-46226709D01*
X126390754Y-46226709D01*
X126486065Y-46179053D01*
X126533721Y-46131397D01*
X126581377Y-46036086D01*
X126581377Y-45225939D01*
X127582147Y-46226709D02*
X127010278Y-46226709D01*
X127296212Y-46226709D02*
X127296212Y-45225939D01*
X127200901Y-45368906D01*
X127105590Y-45464217D01*
X127010278Y-45511873D01*
X124144856Y-76636505D02*
X124478500Y-76636505D01*
X124621490Y-77160801D02*
X124144856Y-77160801D01*
X124144856Y-76159871D01*
X124621490Y-76159871D01*
X125002796Y-77113138D02*
X125145786Y-77160801D01*
X125384103Y-77160801D01*
X125479430Y-77113138D01*
X125527093Y-77065475D01*
X125574756Y-76970148D01*
X125574756Y-76874821D01*
X125527093Y-76779495D01*
X125479430Y-76731831D01*
X125384103Y-76684168D01*
X125193450Y-76636505D01*
X125098123Y-76588841D01*
X125050460Y-76541178D01*
X125002796Y-76445851D01*
X125002796Y-76350525D01*
X125050460Y-76255198D01*
X125098123Y-76207535D01*
X125193450Y-76159871D01*
X125431766Y-76159871D01*
X125574756Y-76207535D01*
X126003726Y-77160801D02*
X126003726Y-76159871D01*
X126385033Y-76159871D01*
X126480360Y-76207535D01*
X126528023Y-76255198D01*
X126575686Y-76350525D01*
X126575686Y-76493515D01*
X126528023Y-76588841D01*
X126480360Y-76636505D01*
X126385033Y-76684168D01*
X126003726Y-76684168D01*
X127147646Y-76588841D02*
X127052320Y-76541178D01*
X127004656Y-76493515D01*
X126956993Y-76398188D01*
X126956993Y-76350525D01*
X127004656Y-76255198D01*
X127052320Y-76207535D01*
X127147646Y-76159871D01*
X127338300Y-76159871D01*
X127433626Y-76207535D01*
X127481290Y-76255198D01*
X127528953Y-76350525D01*
X127528953Y-76398188D01*
X127481290Y-76493515D01*
X127433626Y-76541178D01*
X127338300Y-76588841D01*
X127147646Y-76588841D01*
X127052320Y-76636505D01*
X127004656Y-76684168D01*
X126956993Y-76779495D01*
X126956993Y-76970148D01*
X127004656Y-77065475D01*
X127052320Y-77113138D01*
X127147646Y-77160801D01*
X127338300Y-77160801D01*
X127433626Y-77113138D01*
X127481290Y-77065475D01*
X127528953Y-76970148D01*
X127528953Y-76779495D01*
X127481290Y-76684168D01*
X127433626Y-76636505D01*
X127338300Y-76588841D01*
X127910260Y-76255198D02*
X127957923Y-76207535D01*
X128053250Y-76159871D01*
X128291566Y-76159871D01*
X128386893Y-76207535D01*
X128434556Y-76255198D01*
X128482220Y-76350525D01*
X128482220Y-76445851D01*
X128434556Y-76588841D01*
X127862596Y-77160801D01*
X128482220Y-77160801D01*
X129340160Y-76159871D02*
X129149506Y-76159871D01*
X129054180Y-76207535D01*
X129006516Y-76255198D01*
X128911190Y-76398188D01*
X128863526Y-76588841D01*
X128863526Y-76970148D01*
X128911190Y-77065475D01*
X128958853Y-77113138D01*
X129054180Y-77160801D01*
X129244833Y-77160801D01*
X129340160Y-77113138D01*
X129387823Y-77065475D01*
X129435486Y-76970148D01*
X129435486Y-76731831D01*
X129387823Y-76636505D01*
X129340160Y-76588841D01*
X129244833Y-76541178D01*
X129054180Y-76541178D01*
X128958853Y-76588841D01*
X128911190Y-76636505D01*
X128863526Y-76731831D01*
X130293426Y-76159871D02*
X130102773Y-76159871D01*
X130007446Y-76207535D01*
X129959783Y-76255198D01*
X129864456Y-76398188D01*
X129816793Y-76588841D01*
X129816793Y-76970148D01*
X129864456Y-77065475D01*
X129912120Y-77113138D01*
X130007446Y-77160801D01*
X130198100Y-77160801D01*
X130293426Y-77113138D01*
X130341090Y-77065475D01*
X130388753Y-76970148D01*
X130388753Y-76731831D01*
X130341090Y-76636505D01*
X130293426Y-76588841D01*
X130198100Y-76541178D01*
X130007446Y-76541178D01*
X129912120Y-76588841D01*
X129864456Y-76636505D01*
X129816793Y-76731831D01*
X130817723Y-76779495D02*
X131580336Y-76779495D01*
X132581266Y-77160801D02*
X132009306Y-77160801D01*
X132295286Y-77160801D02*
X132295286Y-76159871D01*
X132199960Y-76302861D01*
X132104633Y-76398188D01*
X132009306Y-76445851D01*
X132962573Y-76255198D02*
X133010236Y-76207535D01*
X133105563Y-76159871D01*
X133343880Y-76159871D01*
X133439206Y-76207535D01*
X133486870Y-76255198D01*
X133534533Y-76350525D01*
X133534533Y-76445851D01*
X133486870Y-76588841D01*
X132914910Y-77160801D01*
X133534533Y-77160801D01*
X134297146Y-76636505D02*
X133963503Y-76636505D01*
X133963503Y-77160801D02*
X133963503Y-76159871D01*
X134440136Y-76159871D01*
X134583126Y-77256128D02*
X135345740Y-77256128D01*
X135584056Y-76636505D02*
X135917700Y-76636505D01*
X136060690Y-77160801D02*
X135584056Y-77160801D01*
X135584056Y-76159871D01*
X136060690Y-76159871D01*
X136441996Y-77113138D02*
X136584986Y-77160801D01*
X136823303Y-77160801D01*
X136918630Y-77113138D01*
X136966293Y-77065475D01*
X137013956Y-76970148D01*
X137013956Y-76874821D01*
X136966293Y-76779495D01*
X136918630Y-76731831D01*
X136823303Y-76684168D01*
X136632650Y-76636505D01*
X136537323Y-76588841D01*
X136489660Y-76541178D01*
X136441996Y-76445851D01*
X136441996Y-76350525D01*
X136489660Y-76255198D01*
X136537323Y-76207535D01*
X136632650Y-76159871D01*
X136870966Y-76159871D01*
X137013956Y-76207535D01*
X137442926Y-77160801D02*
X137442926Y-76159871D01*
X137824233Y-76159871D01*
X137919560Y-76207535D01*
X137967223Y-76255198D01*
X138014886Y-76350525D01*
X138014886Y-76493515D01*
X137967223Y-76588841D01*
X137919560Y-76636505D01*
X137824233Y-76684168D01*
X137442926Y-76684168D01*
X138443856Y-76779495D02*
X139206470Y-76779495D01*
X140207400Y-77160801D02*
X139635440Y-77160801D01*
X139921420Y-77160801D02*
X139921420Y-76159871D01*
X139826093Y-76302861D01*
X139730766Y-76398188D01*
X139635440Y-76445851D01*
X140588706Y-76255198D02*
X140636370Y-76207535D01*
X140731696Y-76159871D01*
X140970013Y-76159871D01*
X141065340Y-76207535D01*
X141113003Y-76255198D01*
X141160666Y-76350525D01*
X141160666Y-76445851D01*
X141113003Y-76588841D01*
X140541043Y-77160801D01*
X141160666Y-77160801D01*
X141923280Y-76636505D02*
X141589636Y-76636505D01*
X141589636Y-77160801D02*
X141589636Y-76159871D01*
X142066270Y-76159871D01*
D14*
X170078146Y-122501580D02*
X170078146Y-123215866D01*
X170030527Y-123358723D01*
X169935289Y-123453961D01*
X169792432Y-123501580D01*
X169697194Y-123501580D01*
X171078146Y-123501580D02*
X170506718Y-123501580D01*
X170792432Y-123501580D02*
X170792432Y-122501580D01*
X170697194Y-122644438D01*
X170601956Y-122739676D01*
X170506718Y-122787295D01*
X98770020Y-62337613D02*
X99484306Y-62337613D01*
X99627163Y-62385232D01*
X99722401Y-62480470D01*
X99770020Y-62623327D01*
X99770020Y-62718565D01*
X98865259Y-61909041D02*
X98817640Y-61861422D01*
X98770020Y-61766184D01*
X98770020Y-61528089D01*
X98817640Y-61432851D01*
X98865259Y-61385232D01*
X98960497Y-61337613D01*
X99055735Y-61337613D01*
X99198592Y-61385232D01*
X99770020Y-61956660D01*
X99770020Y-61337613D01*
X140724910Y-127277533D02*
X141439196Y-127277533D01*
X141582053Y-127325152D01*
X141677291Y-127420390D01*
X141724910Y-127563247D01*
X141724910Y-127658485D01*
X140724910Y-126896580D02*
X140724910Y-126277533D01*
X141105863Y-126610866D01*
X141105863Y-126468009D01*
X141153482Y-126372771D01*
X141201101Y-126325152D01*
X141296339Y-126277533D01*
X141534434Y-126277533D01*
X141629672Y-126325152D01*
X141677291Y-126372771D01*
X141724910Y-126468009D01*
X141724910Y-126753723D01*
X141677291Y-126848961D01*
X141629672Y-126896580D01*
X176652020Y-62378033D02*
X177366306Y-62378033D01*
X177509163Y-62425652D01*
X177604401Y-62520890D01*
X177652020Y-62663747D01*
X177652020Y-62758985D01*
X176985354Y-61473271D02*
X177652020Y-61473271D01*
X176604401Y-61711366D02*
X177318687Y-61949461D01*
X177318687Y-61330414D01*
X120383662Y-70745646D02*
X120431281Y-70793265D01*
X120478900Y-70936122D01*
X120478900Y-71031360D01*
X120431281Y-71174218D01*
X120336043Y-71269456D01*
X120240805Y-71317075D01*
X120050329Y-71364694D01*
X119907472Y-71364694D01*
X119716996Y-71317075D01*
X119621758Y-71269456D01*
X119526520Y-71174218D01*
X119478900Y-71031360D01*
X119478900Y-70936122D01*
X119526520Y-70793265D01*
X119574139Y-70745646D01*
X119574139Y-70364694D02*
X119526520Y-70317075D01*
X119478900Y-70221837D01*
X119478900Y-69983741D01*
X119526520Y-69888503D01*
X119574139Y-69840884D01*
X119669377Y-69793265D01*
X119764615Y-69793265D01*
X119907472Y-69840884D01*
X120478900Y-70412313D01*
X120478900Y-69793265D01*
X89826380Y-90564047D02*
X89826380Y-91040238D01*
X88826380Y-91040238D01*
X89302571Y-90230714D02*
X89302571Y-89897380D01*
X89826380Y-89754523D02*
X89826380Y-90230714D01*
X88826380Y-90230714D01*
X88826380Y-89754523D01*
X89826380Y-89325952D02*
X88826380Y-89325952D01*
X88826380Y-89087857D01*
X88874000Y-88945000D01*
X88969238Y-88849761D01*
X89064476Y-88802142D01*
X89254952Y-88754523D01*
X89397809Y-88754523D01*
X89588285Y-88802142D01*
X89683523Y-88849761D01*
X89778761Y-88945000D01*
X89826380Y-89087857D01*
X89826380Y-89325952D01*
X89826380Y-87802142D02*
X89826380Y-88373571D01*
X89826380Y-88087857D02*
X88826380Y-88087857D01*
X88969238Y-88183095D01*
X89064476Y-88278333D01*
X89112095Y-88373571D01*
X91726380Y-93309285D02*
X91726380Y-93880714D01*
X91726380Y-93595000D02*
X90726380Y-93595000D01*
X90869238Y-93690238D01*
X90964476Y-93785476D01*
X91012095Y-93880714D01*
X99322046Y-90564047D02*
X99322046Y-91040238D01*
X98322046Y-91040238D01*
X98798237Y-90230714D02*
X98798237Y-89897380D01*
X99322046Y-89754523D02*
X99322046Y-90230714D01*
X98322046Y-90230714D01*
X98322046Y-89754523D01*
X99322046Y-89325952D02*
X98322046Y-89325952D01*
X98322046Y-89087857D01*
X98369666Y-88945000D01*
X98464904Y-88849761D01*
X98560142Y-88802142D01*
X98750618Y-88754523D01*
X98893475Y-88754523D01*
X99083951Y-88802142D01*
X99179189Y-88849761D01*
X99274427Y-88945000D01*
X99322046Y-89087857D01*
X99322046Y-89325952D01*
X98417285Y-88373571D02*
X98369666Y-88325952D01*
X98322046Y-88230714D01*
X98322046Y-87992619D01*
X98369666Y-87897380D01*
X98417285Y-87849761D01*
X98512523Y-87802142D01*
X98607761Y-87802142D01*
X98750618Y-87849761D01*
X99322046Y-88421190D01*
X99322046Y-87802142D01*
X101222046Y-93309285D02*
X101222046Y-93880714D01*
X101222046Y-93595000D02*
X100222046Y-93595000D01*
X100364904Y-93690238D01*
X100460142Y-93785476D01*
X100507761Y-93880714D01*
X108817712Y-90564047D02*
X108817712Y-91040238D01*
X107817712Y-91040238D01*
X108293903Y-90230714D02*
X108293903Y-89897380D01*
X108817712Y-89754523D02*
X108817712Y-90230714D01*
X107817712Y-90230714D01*
X107817712Y-89754523D01*
X108817712Y-89325952D02*
X107817712Y-89325952D01*
X107817712Y-89087857D01*
X107865332Y-88945000D01*
X107960570Y-88849761D01*
X108055808Y-88802142D01*
X108246284Y-88754523D01*
X108389141Y-88754523D01*
X108579617Y-88802142D01*
X108674855Y-88849761D01*
X108770093Y-88945000D01*
X108817712Y-89087857D01*
X108817712Y-89325952D01*
X107817712Y-88421190D02*
X107817712Y-87802142D01*
X108198665Y-88135476D01*
X108198665Y-87992619D01*
X108246284Y-87897380D01*
X108293903Y-87849761D01*
X108389141Y-87802142D01*
X108627236Y-87802142D01*
X108722474Y-87849761D01*
X108770093Y-87897380D01*
X108817712Y-87992619D01*
X108817712Y-88278333D01*
X108770093Y-88373571D01*
X108722474Y-88421190D01*
X110717712Y-93309285D02*
X110717712Y-93880714D01*
X110717712Y-93595000D02*
X109717712Y-93595000D01*
X109860570Y-93690238D01*
X109955808Y-93785476D01*
X110003427Y-93880714D01*
X118313380Y-90564047D02*
X118313380Y-91040238D01*
X117313380Y-91040238D01*
X117789571Y-90230714D02*
X117789571Y-89897380D01*
X118313380Y-89754523D02*
X118313380Y-90230714D01*
X117313380Y-90230714D01*
X117313380Y-89754523D01*
X118313380Y-89325952D02*
X117313380Y-89325952D01*
X117313380Y-89087857D01*
X117361000Y-88945000D01*
X117456238Y-88849761D01*
X117551476Y-88802142D01*
X117741952Y-88754523D01*
X117884809Y-88754523D01*
X118075285Y-88802142D01*
X118170523Y-88849761D01*
X118265761Y-88945000D01*
X118313380Y-89087857D01*
X118313380Y-89325952D01*
X117646714Y-87897380D02*
X118313380Y-87897380D01*
X117265761Y-88135476D02*
X117980047Y-88373571D01*
X117980047Y-87754523D01*
X120213380Y-93309285D02*
X120213380Y-93880714D01*
X120213380Y-93595000D02*
X119213380Y-93595000D01*
X119356238Y-93690238D01*
X119451476Y-93785476D01*
X119499095Y-93880714D01*
X97538119Y-73993238D02*
X97490500Y-74088476D01*
X97395261Y-74183714D01*
X97252404Y-74326571D01*
X97204785Y-74421809D01*
X97204785Y-74517047D01*
X97442880Y-74469428D02*
X97395261Y-74564666D01*
X97300023Y-74659904D01*
X97109547Y-74707523D01*
X96776214Y-74707523D01*
X96585738Y-74659904D01*
X96490500Y-74564666D01*
X96442880Y-74469428D01*
X96442880Y-74278952D01*
X96490500Y-74183714D01*
X96585738Y-74088476D01*
X96776214Y-74040857D01*
X97109547Y-74040857D01*
X97300023Y-74088476D01*
X97395261Y-74183714D01*
X97442880Y-74278952D01*
X97442880Y-74469428D01*
X97442880Y-73088476D02*
X97442880Y-73659904D01*
X97442880Y-73374190D02*
X96442880Y-73374190D01*
X96585738Y-73469428D01*
X96680976Y-73564666D01*
X96728595Y-73659904D01*
X176521880Y-90290733D02*
X177236166Y-90290733D01*
X177379023Y-90338352D01*
X177474261Y-90433590D01*
X177521880Y-90576447D01*
X177521880Y-90671685D01*
X176521880Y-89338352D02*
X176521880Y-89814542D01*
X176998071Y-89862161D01*
X176950452Y-89814542D01*
X176902833Y-89719304D01*
X176902833Y-89481209D01*
X176950452Y-89385971D01*
X176998071Y-89338352D01*
X177093309Y-89290733D01*
X177331404Y-89290733D01*
X177426642Y-89338352D01*
X177474261Y-89385971D01*
X177521880Y-89481209D01*
X177521880Y-89719304D01*
X177474261Y-89814542D01*
X177426642Y-89862161D01*
X161443995Y-90761780D02*
X161443995Y-91571304D01*
X161491614Y-91666542D01*
X161539233Y-91714161D01*
X161634471Y-91761780D01*
X161824947Y-91761780D01*
X161920185Y-91714161D01*
X161967804Y-91666542D01*
X162015423Y-91571304D01*
X162015423Y-90761780D01*
X162443995Y-90857019D02*
X162491614Y-90809400D01*
X162586852Y-90761780D01*
X162824947Y-90761780D01*
X162920185Y-90809400D01*
X162967804Y-90857019D01*
X163015423Y-90952257D01*
X163015423Y-91047495D01*
X162967804Y-91190352D01*
X162396376Y-91761780D01*
X163015423Y-91761780D01*
X171224841Y-94187967D02*
X171272460Y-94235586D01*
X171320079Y-94378443D01*
X171320079Y-94473681D01*
X171272460Y-94616539D01*
X171177222Y-94711777D01*
X171081984Y-94759396D01*
X170891508Y-94807015D01*
X170748651Y-94807015D01*
X170558175Y-94759396D01*
X170462937Y-94711777D01*
X170367699Y-94616539D01*
X170320079Y-94473681D01*
X170320079Y-94378443D01*
X170367699Y-94235586D01*
X170415318Y-94187967D01*
X170320079Y-93854634D02*
X170320079Y-93235586D01*
X170701032Y-93568920D01*
X170701032Y-93426062D01*
X170748651Y-93330824D01*
X170796270Y-93283205D01*
X170891508Y-93235586D01*
X171129603Y-93235586D01*
X171224841Y-93283205D01*
X171272460Y-93330824D01*
X171320079Y-93426062D01*
X171320079Y-93711777D01*
X171272460Y-93807015D01*
X171224841Y-93854634D01*
X167934841Y-94187967D02*
X167982460Y-94235586D01*
X168030079Y-94378443D01*
X168030079Y-94473681D01*
X167982460Y-94616539D01*
X167887222Y-94711777D01*
X167791984Y-94759396D01*
X167601508Y-94807015D01*
X167458651Y-94807015D01*
X167268175Y-94759396D01*
X167172937Y-94711777D01*
X167077699Y-94616539D01*
X167030079Y-94473681D01*
X167030079Y-94378443D01*
X167077699Y-94235586D01*
X167125318Y-94187967D01*
X167363413Y-93330824D02*
X168030079Y-93330824D01*
X166982460Y-93568920D02*
X167696746Y-93807015D01*
X167696746Y-93187967D01*
X148946880Y-54216795D02*
X147946880Y-54216795D01*
X147946880Y-53978700D01*
X147994500Y-53835842D01*
X148089738Y-53740604D01*
X148184976Y-53692985D01*
X148375452Y-53645366D01*
X148518309Y-53645366D01*
X148708785Y-53692985D01*
X148804023Y-53740604D01*
X148899261Y-53835842D01*
X148946880Y-53978700D01*
X148946880Y-54216795D01*
X148946880Y-52692985D02*
X148946880Y-53264414D01*
X148946880Y-52978700D02*
X147946880Y-52978700D01*
X148089738Y-53073938D01*
X148184976Y-53169176D01*
X148232595Y-53264414D01*
X156287980Y-56262495D02*
X155287980Y-56262495D01*
X155287980Y-56024400D01*
X155335600Y-55881542D01*
X155430838Y-55786304D01*
X155526076Y-55738685D01*
X155716552Y-55691066D01*
X155859409Y-55691066D01*
X156049885Y-55738685D01*
X156145123Y-55786304D01*
X156240361Y-55881542D01*
X156287980Y-56024400D01*
X156287980Y-56262495D01*
X155383219Y-55310114D02*
X155335600Y-55262495D01*
X155287980Y-55167257D01*
X155287980Y-54929161D01*
X155335600Y-54833923D01*
X155383219Y-54786304D01*
X155478457Y-54738685D01*
X155573695Y-54738685D01*
X155716552Y-54786304D01*
X156287980Y-55357733D01*
X156287980Y-54738685D01*
M02*
