M48
; DRILL file {KiCad (5.1.2)-1} date 8/27/2019 8:32:46 PM
; FORMAT={-:-/ absolute / inch / decimal}
; #@! TF.CreationDate,2019-08-27T20:32:46-05:00
; #@! TF.GenerationSoftware,Kicad,Pcbnew,(5.1.2)-1
; #@! TF.FileFunction,Plated,1,2,PTH
FMAT,2
INCH
T1C0.0157
T2C0.0236
T3C0.0335
T4C0.0394
T5C0.0433
%
G90
G05
T1
X3.4021Y-5.0033
X3.592Y-3.352
X3.594Y-3.683
X3.683Y-2.822
X3.72Y-3.006
X3.968Y-3.683
X4.3138Y-2.1763
X4.3161Y-2.327
X4.341Y-3.683
X4.3451Y-2.7214
X4.5572Y-5.0035
X4.715Y-3.683
X5.0388Y-2.911
X5.1176Y-2.911
X5.1963Y-2.911
X5.2751Y-2.911
X5.3538Y-2.911
X5.4326Y-2.911
X6.0128Y-2.1714
X6.0635Y-3.435
X6.1349Y-2.2512
X6.192Y-3.488
X6.2546Y-2.4307
X6.2563Y-2.3295
X6.288Y-3.615
X6.429Y-1.9316
X6.7328Y-2.3312
X6.7377Y-2.4307
X6.7698Y-3.9738
X6.789Y-3.5355
X6.9715Y-3.4855
T3
X7.0362Y-3.4432
X7.0362Y-3.6401
T4
X4.9702Y-4.9978
X5.0702Y-4.9978
X5.1702Y-4.9978
X5.2702Y-4.9978
X5.3702Y-4.9978
X5.4702Y-4.9978
T5
X6.5162Y-4.998
X6.6146Y-4.998
X6.7131Y-4.998
X6.8115Y-4.998
X6.9099Y-4.998
X3.7566Y-2.2482
X3.7566Y-2.3466
X3.7566Y-2.4451
X3.7566Y-2.5435
X3.7566Y-2.6419
X6.8866Y-2.3305
X6.8866Y-2.4305
X6.8866Y-2.5305
T2
G00X7.1287Y-3.4038
M15
G01X7.1563Y-3.4038
M16
G05
G00X7.1563Y-3.6794
M15
G01X7.1287Y-3.6794
M16
G05
T0
M30
