G04 #@! TF.GenerationSoftware,KiCad,Pcbnew,(5.1.2)-1*
G04 #@! TF.CreationDate,2020-01-23T21:52:20-06:00*
G04 #@! TF.ProjectId,8266-dev,38323636-2d64-4657-962e-6b696361645f,rev?*
G04 #@! TF.SameCoordinates,Original*
G04 #@! TF.FileFunction,Other,Fab,Top*
%FSLAX46Y46*%
G04 Gerber Fmt 4.6, Leading zero omitted, Abs format (unit mm)*
G04 Created by KiCad (PCBNEW (5.1.2)-1) date 2020-01-23 21:52:20*
%MOMM*%
%LPD*%
G04 APERTURE LIST*
%ADD10C,0.100000*%
%ADD11C,0.150000*%
%ADD12C,0.120000*%
%ADD13C,0.075000*%
G04 APERTURE END LIST*
D10*
X168247699Y-92421301D02*
X169847699Y-92421301D01*
X169847699Y-92421301D02*
X169847699Y-95621301D01*
X169847699Y-95621301D02*
X168247699Y-95621301D01*
X168247699Y-95621301D02*
X168247699Y-92421301D01*
X90818200Y-131935180D02*
X111518200Y-131935180D01*
X90818200Y-122405180D02*
X111518200Y-122405180D01*
X90818200Y-131935180D02*
X90818200Y-122405180D01*
X111518200Y-131935180D02*
X111518200Y-122405180D01*
X111518200Y-129695180D02*
X113168200Y-129695180D01*
X111518200Y-124645180D02*
X113168200Y-124645180D01*
X113868200Y-125345180D02*
X113168200Y-124645180D01*
X113868200Y-128995180D02*
X113168200Y-129695180D01*
X113868200Y-125345180D02*
X113868200Y-128995180D01*
X90818200Y-124645180D02*
X89168200Y-124645180D01*
X90818200Y-129695180D02*
X89168200Y-129695180D01*
X88468200Y-125345180D02*
X89168200Y-124645180D01*
X88468200Y-128995180D02*
X89168200Y-129695180D01*
X88468200Y-125345180D02*
X88468200Y-128995180D01*
X112090300Y-68933720D02*
X113690300Y-68933720D01*
X113690300Y-68933720D02*
X113690300Y-72133720D01*
X113690300Y-72133720D02*
X112090300Y-72133720D01*
X112090300Y-72133720D02*
X112090300Y-68933720D01*
X115246760Y-54488180D02*
X115246760Y-56088180D01*
X115246760Y-56088180D02*
X112046760Y-56088180D01*
X112046760Y-56088180D02*
X112046760Y-54488180D01*
X112046760Y-54488180D02*
X115246760Y-54488180D01*
X111879120Y-58361680D02*
X115079120Y-58361680D01*
X111879120Y-59961680D02*
X111879120Y-58361680D01*
X115079120Y-59961680D02*
X111879120Y-59961680D01*
X115079120Y-58361680D02*
X115079120Y-59961680D01*
X163509300Y-52158800D02*
X160309300Y-52158800D01*
X163509300Y-50558800D02*
X163509300Y-52158800D01*
X160309300Y-50558800D02*
X163509300Y-50558800D01*
X160309300Y-52158800D02*
X160309300Y-50558800D01*
X152943360Y-66675100D02*
X152943360Y-68275100D01*
X152943360Y-68275100D02*
X149743360Y-68275100D01*
X149743360Y-68275100D02*
X149743360Y-66675100D01*
X149743360Y-66675100D02*
X152943360Y-66675100D01*
X167805360Y-60563780D02*
X167805360Y-66263780D01*
X167530360Y-60263780D02*
X161805360Y-60263780D01*
X167805360Y-60563780D02*
X167530360Y-60263780D01*
X161805360Y-60263780D02*
X161805360Y-66263780D01*
X161805360Y-66263780D02*
X167805360Y-66263780D01*
X177961480Y-124074200D02*
X177961480Y-129824200D01*
X163061480Y-129824200D02*
X177961480Y-129824200D01*
X163061480Y-124074200D02*
X177961480Y-124074200D01*
X163061480Y-124074200D02*
X163061480Y-129824200D01*
X98292640Y-69554280D02*
X92542640Y-69554280D01*
X92542640Y-54654280D02*
X92542640Y-69554280D01*
X98292640Y-54654280D02*
X98292640Y-69554280D01*
X98292640Y-54654280D02*
X92542640Y-54654280D01*
X140212530Y-126309200D02*
X140212530Y-128214200D01*
X140212530Y-128214200D02*
X124972530Y-128214200D01*
X124972530Y-128214200D02*
X124972530Y-125674200D01*
X124972530Y-125674200D02*
X139577530Y-125674200D01*
X139577530Y-125674200D02*
X140212530Y-126309200D01*
X173649640Y-57924700D02*
X173649640Y-65544700D01*
X176189640Y-57924700D02*
X173649640Y-57924700D01*
X176189640Y-65544700D02*
X173649640Y-65544700D01*
X176189640Y-57924700D02*
X176189640Y-65544700D01*
X117406520Y-68978980D02*
X119006520Y-68978980D01*
X119006520Y-68978980D02*
X119006520Y-72178980D01*
X119006520Y-72178980D02*
X117406520Y-72178980D01*
X117406520Y-72178980D02*
X117406520Y-68978980D01*
X94874000Y-89445000D02*
G75*
G03X94874000Y-89445000I-2000000J0D01*
G01*
X90374000Y-86945000D02*
X90374000Y-91945000D01*
X95374000Y-86945000D02*
X90374000Y-86945000D01*
X95374000Y-91945000D02*
X95374000Y-86945000D01*
X90374000Y-91945000D02*
X95374000Y-91945000D01*
X94374000Y-86945000D02*
X95374000Y-87945000D01*
X103869666Y-86945000D02*
X104869666Y-87945000D01*
X99869666Y-91945000D02*
X104869666Y-91945000D01*
X104869666Y-91945000D02*
X104869666Y-86945000D01*
X104869666Y-86945000D02*
X99869666Y-86945000D01*
X99869666Y-86945000D02*
X99869666Y-91945000D01*
X104369666Y-89445000D02*
G75*
G03X104369666Y-89445000I-2000000J0D01*
G01*
X113865332Y-89445000D02*
G75*
G03X113865332Y-89445000I-2000000J0D01*
G01*
X109365332Y-86945000D02*
X109365332Y-91945000D01*
X114365332Y-86945000D02*
X109365332Y-86945000D01*
X114365332Y-91945000D02*
X114365332Y-86945000D01*
X109365332Y-91945000D02*
X114365332Y-91945000D01*
X113365332Y-86945000D02*
X114365332Y-87945000D01*
X122861000Y-86945000D02*
X123861000Y-87945000D01*
X118861000Y-91945000D02*
X123861000Y-91945000D01*
X123861000Y-91945000D02*
X123861000Y-86945000D01*
X123861000Y-86945000D02*
X118861000Y-86945000D01*
X118861000Y-86945000D02*
X118861000Y-91945000D01*
X123361000Y-89445000D02*
G75*
G03X123361000Y-89445000I-2000000J0D01*
G01*
X95440500Y-73198000D02*
X92990500Y-73198000D01*
X96010500Y-73748000D02*
X96010500Y-74598000D01*
X95440500Y-73198000D02*
X96010500Y-73748000D01*
X96010500Y-74598000D02*
X92970500Y-74598000D01*
X92970500Y-73198000D02*
X92970500Y-74598000D01*
X183569500Y-86207400D02*
X178569500Y-86207400D01*
X182871204Y-92957400D02*
X182871204Y-86957400D01*
X183571204Y-93707400D02*
X183571204Y-86207400D01*
X178569500Y-93707400D02*
X178569500Y-86207400D01*
X183569500Y-93707400D02*
X178569500Y-93707400D01*
X178469500Y-91257400D02*
X178269500Y-91457400D01*
X178269500Y-91057400D02*
X178469500Y-91257400D01*
X178059500Y-91457400D02*
X178059500Y-91057400D01*
X178059500Y-91457400D02*
X178269500Y-91457400D01*
X178059500Y-91057400D02*
X178269500Y-91057400D01*
X163180900Y-90359400D02*
X160255900Y-90359400D01*
X160255900Y-90359400D02*
X160255900Y-85459400D01*
X160255900Y-85459400D02*
X164155900Y-85459400D01*
X164155900Y-85459400D02*
X164155900Y-89384400D01*
X164155900Y-89384400D02*
X163180900Y-90359400D01*
X177746781Y-96798161D02*
X174946781Y-96798161D01*
X174946781Y-96798161D02*
X174546781Y-97198161D01*
X174546781Y-97198161D02*
X174546781Y-98398161D01*
X174546781Y-98398161D02*
X177746781Y-98398161D01*
X177746781Y-98398161D02*
X177746781Y-96798161D01*
X174331781Y-101738161D02*
X174331781Y-100138161D01*
X174331781Y-100138161D02*
X177531781Y-100138161D01*
X177531781Y-100138161D02*
X177531781Y-101738161D01*
X177531781Y-101738161D02*
X174331781Y-101738161D01*
X156644540Y-94409160D02*
X156644540Y-92809160D01*
X156644540Y-92809160D02*
X159844540Y-92809160D01*
X159844540Y-92809160D02*
X159844540Y-94409160D01*
X159844540Y-94409160D02*
X156644540Y-94409160D01*
X141767460Y-84196120D02*
X141767460Y-87396120D01*
X140167460Y-84196120D02*
X141767460Y-84196120D01*
X140167460Y-87396120D02*
X140167460Y-84196120D01*
X141767460Y-87396120D02*
X140167460Y-87396120D01*
X149537900Y-89493620D02*
X148537900Y-90493620D01*
X149537900Y-89493620D02*
X149537900Y-83793620D01*
X148537900Y-90493620D02*
X145837900Y-90493620D01*
X149537900Y-83793620D02*
X145837900Y-83793620D01*
X145837900Y-90493620D02*
X145837900Y-83793620D01*
X155173580Y-84838340D02*
X153573580Y-84838340D01*
X153573580Y-84838340D02*
X153573580Y-81638340D01*
X153573580Y-81638340D02*
X155173580Y-81638340D01*
X155173580Y-81638340D02*
X155173580Y-84838340D01*
D11*
X167680079Y-95568920D02*
X167680079Y-96140348D01*
X167680079Y-95854634D02*
X166680079Y-95854634D01*
X166822937Y-95949872D01*
X166918175Y-96045110D01*
X166965794Y-96140348D01*
X166680079Y-94949872D02*
X166680079Y-94854634D01*
X166727699Y-94759396D01*
X166775318Y-94711777D01*
X166870556Y-94664158D01*
X167061032Y-94616539D01*
X167299127Y-94616539D01*
X167489603Y-94664158D01*
X167584841Y-94711777D01*
X167632460Y-94759396D01*
X167680079Y-94854634D01*
X167680079Y-94949872D01*
X167632460Y-95045110D01*
X167584841Y-95092729D01*
X167489603Y-95140348D01*
X167299127Y-95187967D01*
X167061032Y-95187967D01*
X166870556Y-95140348D01*
X166775318Y-95092729D01*
X166727699Y-95045110D01*
X166680079Y-94949872D01*
X166680079Y-93997491D02*
X166680079Y-93902253D01*
X166727699Y-93807015D01*
X166775318Y-93759396D01*
X166870556Y-93711777D01*
X167061032Y-93664158D01*
X167299127Y-93664158D01*
X167489603Y-93711777D01*
X167584841Y-93759396D01*
X167632460Y-93807015D01*
X167680079Y-93902253D01*
X167680079Y-93997491D01*
X167632460Y-94092729D01*
X167584841Y-94140348D01*
X167489603Y-94187967D01*
X167299127Y-94235586D01*
X167061032Y-94235586D01*
X166870556Y-94187967D01*
X166775318Y-94140348D01*
X166727699Y-94092729D01*
X166680079Y-93997491D01*
X167013413Y-93235586D02*
X167680079Y-93235586D01*
X167108651Y-93235586D02*
X167061032Y-93187967D01*
X167013413Y-93092729D01*
X167013413Y-92949872D01*
X167061032Y-92854634D01*
X167156270Y-92807015D01*
X167680079Y-92807015D01*
X167156270Y-91997491D02*
X167156270Y-92330824D01*
X167680079Y-92330824D02*
X166680079Y-92330824D01*
X166680079Y-91854634D01*
D12*
X169333413Y-94154634D02*
X169371508Y-94192729D01*
X169409603Y-94307015D01*
X169409603Y-94383205D01*
X169371508Y-94497491D01*
X169295318Y-94573681D01*
X169219127Y-94611777D01*
X169066746Y-94649872D01*
X168952460Y-94649872D01*
X168800079Y-94611777D01*
X168723889Y-94573681D01*
X168647699Y-94497491D01*
X168609603Y-94383205D01*
X168609603Y-94307015D01*
X168647699Y-94192729D01*
X168685794Y-94154634D01*
X168609603Y-93887967D02*
X168609603Y-93392729D01*
X168914365Y-93659396D01*
X168914365Y-93545110D01*
X168952460Y-93468920D01*
X168990556Y-93430824D01*
X169066746Y-93392729D01*
X169257222Y-93392729D01*
X169333413Y-93430824D01*
X169371508Y-93468920D01*
X169409603Y-93545110D01*
X169409603Y-93773681D01*
X169371508Y-93849872D01*
X169333413Y-93887967D01*
D11*
X99096771Y-138298751D02*
X99239628Y-138346370D01*
X99287247Y-138393989D01*
X99334866Y-138489227D01*
X99334866Y-138632084D01*
X99287247Y-138727322D01*
X99239628Y-138774941D01*
X99144390Y-138822560D01*
X98763438Y-138822560D01*
X98763438Y-137822560D01*
X99096771Y-137822560D01*
X99192009Y-137870180D01*
X99239628Y-137917799D01*
X99287247Y-138013037D01*
X99287247Y-138108275D01*
X99239628Y-138203513D01*
X99192009Y-138251132D01*
X99096771Y-138298751D01*
X98763438Y-138298751D01*
X100192009Y-138822560D02*
X100192009Y-138298751D01*
X100144390Y-138203513D01*
X100049152Y-138155894D01*
X99858676Y-138155894D01*
X99763438Y-138203513D01*
X100192009Y-138774941D02*
X100096771Y-138822560D01*
X99858676Y-138822560D01*
X99763438Y-138774941D01*
X99715819Y-138679703D01*
X99715819Y-138584465D01*
X99763438Y-138489227D01*
X99858676Y-138441608D01*
X100096771Y-138441608D01*
X100192009Y-138393989D01*
X100525342Y-138155894D02*
X100906295Y-138155894D01*
X100668200Y-137822560D02*
X100668200Y-138679703D01*
X100715819Y-138774941D01*
X100811057Y-138822560D01*
X100906295Y-138822560D01*
X101096771Y-138155894D02*
X101477723Y-138155894D01*
X101239628Y-137822560D02*
X101239628Y-138679703D01*
X101287247Y-138774941D01*
X101382485Y-138822560D01*
X101477723Y-138822560D01*
X102192009Y-138774941D02*
X102096771Y-138822560D01*
X101906295Y-138822560D01*
X101811057Y-138774941D01*
X101763438Y-138679703D01*
X101763438Y-138298751D01*
X101811057Y-138203513D01*
X101906295Y-138155894D01*
X102096771Y-138155894D01*
X102192009Y-138203513D01*
X102239628Y-138298751D01*
X102239628Y-138393989D01*
X101763438Y-138489227D01*
X102668200Y-138822560D02*
X102668200Y-138155894D01*
X102668200Y-138346370D02*
X102715819Y-138251132D01*
X102763438Y-138203513D01*
X102858676Y-138155894D01*
X102953914Y-138155894D01*
X103192009Y-138155894D02*
X103430104Y-138822560D01*
X103668200Y-138155894D02*
X103430104Y-138822560D01*
X103334866Y-139060656D01*
X103287247Y-139108275D01*
X103192009Y-139155894D01*
X100382485Y-127098751D02*
X100525342Y-127146370D01*
X100572961Y-127193989D01*
X100620580Y-127289227D01*
X100620580Y-127432084D01*
X100572961Y-127527322D01*
X100525342Y-127574941D01*
X100430104Y-127622560D01*
X100049152Y-127622560D01*
X100049152Y-126622560D01*
X100382485Y-126622560D01*
X100477723Y-126670180D01*
X100525342Y-126717799D01*
X100572961Y-126813037D01*
X100572961Y-126908275D01*
X100525342Y-127003513D01*
X100477723Y-127051132D01*
X100382485Y-127098751D01*
X100049152Y-127098751D01*
X100906295Y-126622560D02*
X101477723Y-126622560D01*
X101192009Y-127622560D02*
X101192009Y-126622560D01*
X102334866Y-127622560D02*
X101763438Y-127622560D01*
X102049152Y-127622560D02*
X102049152Y-126622560D01*
X101953914Y-126765418D01*
X101858676Y-126860656D01*
X101763438Y-126908275D01*
X111522680Y-71605148D02*
X111522680Y-72176577D01*
X111522680Y-71890862D02*
X110522680Y-71890862D01*
X110665538Y-71986100D01*
X110760776Y-72081339D01*
X110808395Y-72176577D01*
X110522680Y-70986100D02*
X110522680Y-70890862D01*
X110570300Y-70795624D01*
X110617919Y-70748005D01*
X110713157Y-70700386D01*
X110903633Y-70652767D01*
X111141728Y-70652767D01*
X111332204Y-70700386D01*
X111427442Y-70748005D01*
X111475061Y-70795624D01*
X111522680Y-70890862D01*
X111522680Y-70986100D01*
X111475061Y-71081339D01*
X111427442Y-71128958D01*
X111332204Y-71176577D01*
X111141728Y-71224196D01*
X110903633Y-71224196D01*
X110713157Y-71176577D01*
X110617919Y-71128958D01*
X110570300Y-71081339D01*
X110522680Y-70986100D01*
X110856014Y-69795624D02*
X111522680Y-69795624D01*
X110856014Y-70224196D02*
X111379823Y-70224196D01*
X111475061Y-70176577D01*
X111522680Y-70081339D01*
X111522680Y-69938481D01*
X111475061Y-69843243D01*
X111427442Y-69795624D01*
X110998871Y-68986100D02*
X110998871Y-69319434D01*
X111522680Y-69319434D02*
X110522680Y-69319434D01*
X110522680Y-68843243D01*
D12*
X113176014Y-70667053D02*
X113214109Y-70705148D01*
X113252204Y-70819434D01*
X113252204Y-70895624D01*
X113214109Y-71009910D01*
X113137919Y-71086100D01*
X113061728Y-71124196D01*
X112909347Y-71162291D01*
X112795061Y-71162291D01*
X112642680Y-71124196D01*
X112566490Y-71086100D01*
X112490300Y-71009910D01*
X112452204Y-70895624D01*
X112452204Y-70819434D01*
X112490300Y-70705148D01*
X112528395Y-70667053D01*
X113252204Y-69905148D02*
X113252204Y-70362291D01*
X113252204Y-70133720D02*
X112452204Y-70133720D01*
X112566490Y-70209910D01*
X112642680Y-70286100D01*
X112680776Y-70362291D01*
D11*
X112956283Y-53920560D02*
X112384855Y-53920560D01*
X112670569Y-53920560D02*
X112670569Y-52920560D01*
X112575331Y-53063418D01*
X112480093Y-53158656D01*
X112384855Y-53206275D01*
X113575331Y-52920560D02*
X113670569Y-52920560D01*
X113765807Y-52968180D01*
X113813426Y-53015799D01*
X113861045Y-53111037D01*
X113908664Y-53301513D01*
X113908664Y-53539608D01*
X113861045Y-53730084D01*
X113813426Y-53825322D01*
X113765807Y-53872941D01*
X113670569Y-53920560D01*
X113575331Y-53920560D01*
X113480093Y-53872941D01*
X113432474Y-53825322D01*
X113384855Y-53730084D01*
X113337236Y-53539608D01*
X113337236Y-53301513D01*
X113384855Y-53111037D01*
X113432474Y-53015799D01*
X113480093Y-52968180D01*
X113575331Y-52920560D01*
X114337236Y-53920560D02*
X114337236Y-52920560D01*
X114908664Y-53920560D02*
X114480093Y-53349132D01*
X114908664Y-52920560D02*
X114337236Y-53491989D01*
D12*
X113513426Y-55650084D02*
X113246760Y-55269132D01*
X113056283Y-55650084D02*
X113056283Y-54850084D01*
X113361045Y-54850084D01*
X113437236Y-54888180D01*
X113475331Y-54926275D01*
X113513426Y-55002465D01*
X113513426Y-55116751D01*
X113475331Y-55192941D01*
X113437236Y-55231037D01*
X113361045Y-55269132D01*
X113056283Y-55269132D01*
X114275331Y-55650084D02*
X113818188Y-55650084D01*
X114046760Y-55650084D02*
X114046760Y-54850084D01*
X113970569Y-54964370D01*
X113894379Y-55040560D01*
X113818188Y-55078656D01*
D11*
X112788643Y-57794060D02*
X112217215Y-57794060D01*
X112502929Y-57794060D02*
X112502929Y-56794060D01*
X112407691Y-56936918D01*
X112312453Y-57032156D01*
X112217215Y-57079775D01*
X113407691Y-56794060D02*
X113502929Y-56794060D01*
X113598167Y-56841680D01*
X113645786Y-56889299D01*
X113693405Y-56984537D01*
X113741024Y-57175013D01*
X113741024Y-57413108D01*
X113693405Y-57603584D01*
X113645786Y-57698822D01*
X113598167Y-57746441D01*
X113502929Y-57794060D01*
X113407691Y-57794060D01*
X113312453Y-57746441D01*
X113264834Y-57698822D01*
X113217215Y-57603584D01*
X113169596Y-57413108D01*
X113169596Y-57175013D01*
X113217215Y-56984537D01*
X113264834Y-56889299D01*
X113312453Y-56841680D01*
X113407691Y-56794060D01*
X114169596Y-57794060D02*
X114169596Y-56794060D01*
X114741024Y-57794060D02*
X114312453Y-57222632D01*
X114741024Y-56794060D02*
X114169596Y-57365489D01*
D12*
X113345786Y-59523584D02*
X113079120Y-59142632D01*
X112888643Y-59523584D02*
X112888643Y-58723584D01*
X113193405Y-58723584D01*
X113269596Y-58761680D01*
X113307691Y-58799775D01*
X113345786Y-58875965D01*
X113345786Y-58990251D01*
X113307691Y-59066441D01*
X113269596Y-59104537D01*
X113193405Y-59142632D01*
X112888643Y-59142632D01*
X113650548Y-58799775D02*
X113688643Y-58761680D01*
X113764834Y-58723584D01*
X113955310Y-58723584D01*
X114031500Y-58761680D01*
X114069596Y-58799775D01*
X114107691Y-58875965D01*
X114107691Y-58952156D01*
X114069596Y-59066441D01*
X113612453Y-59523584D01*
X114107691Y-59523584D01*
D11*
X161218823Y-53631180D02*
X160647395Y-53631180D01*
X160933109Y-53631180D02*
X160933109Y-52631180D01*
X160837871Y-52774038D01*
X160742633Y-52869276D01*
X160647395Y-52916895D01*
X161837871Y-52631180D02*
X161933109Y-52631180D01*
X162028347Y-52678800D01*
X162075966Y-52726419D01*
X162123585Y-52821657D01*
X162171204Y-53012133D01*
X162171204Y-53250228D01*
X162123585Y-53440704D01*
X162075966Y-53535942D01*
X162028347Y-53583561D01*
X161933109Y-53631180D01*
X161837871Y-53631180D01*
X161742633Y-53583561D01*
X161695014Y-53535942D01*
X161647395Y-53440704D01*
X161599776Y-53250228D01*
X161599776Y-53012133D01*
X161647395Y-52821657D01*
X161695014Y-52726419D01*
X161742633Y-52678800D01*
X161837871Y-52631180D01*
X162599776Y-53631180D02*
X162599776Y-52631180D01*
X163171204Y-53631180D02*
X162742633Y-53059752D01*
X163171204Y-52631180D02*
X162599776Y-53202609D01*
D12*
X161775966Y-51720704D02*
X161509300Y-51339752D01*
X161318823Y-51720704D02*
X161318823Y-50920704D01*
X161623585Y-50920704D01*
X161699776Y-50958800D01*
X161737871Y-50996895D01*
X161775966Y-51073085D01*
X161775966Y-51187371D01*
X161737871Y-51263561D01*
X161699776Y-51301657D01*
X161623585Y-51339752D01*
X161318823Y-51339752D01*
X162042633Y-50920704D02*
X162537871Y-50920704D01*
X162271204Y-51225466D01*
X162385490Y-51225466D01*
X162461680Y-51263561D01*
X162499776Y-51301657D01*
X162537871Y-51377847D01*
X162537871Y-51568323D01*
X162499776Y-51644514D01*
X162461680Y-51682609D01*
X162385490Y-51720704D01*
X162156919Y-51720704D01*
X162080728Y-51682609D01*
X162042633Y-51644514D01*
D11*
X150652883Y-66107480D02*
X150081455Y-66107480D01*
X150367169Y-66107480D02*
X150367169Y-65107480D01*
X150271931Y-65250338D01*
X150176693Y-65345576D01*
X150081455Y-65393195D01*
X151271931Y-65107480D02*
X151367169Y-65107480D01*
X151462407Y-65155100D01*
X151510026Y-65202719D01*
X151557645Y-65297957D01*
X151605264Y-65488433D01*
X151605264Y-65726528D01*
X151557645Y-65917004D01*
X151510026Y-66012242D01*
X151462407Y-66059861D01*
X151367169Y-66107480D01*
X151271931Y-66107480D01*
X151176693Y-66059861D01*
X151129074Y-66012242D01*
X151081455Y-65917004D01*
X151033836Y-65726528D01*
X151033836Y-65488433D01*
X151081455Y-65297957D01*
X151129074Y-65202719D01*
X151176693Y-65155100D01*
X151271931Y-65107480D01*
X152033836Y-66107480D02*
X152033836Y-65107480D01*
X152605264Y-66107480D02*
X152176693Y-65536052D01*
X152605264Y-65107480D02*
X152033836Y-65678909D01*
D12*
X151210026Y-67837004D02*
X150943360Y-67456052D01*
X150752883Y-67837004D02*
X150752883Y-67037004D01*
X151057645Y-67037004D01*
X151133836Y-67075100D01*
X151171931Y-67113195D01*
X151210026Y-67189385D01*
X151210026Y-67303671D01*
X151171931Y-67379861D01*
X151133836Y-67417957D01*
X151057645Y-67456052D01*
X150752883Y-67456052D01*
X151895740Y-67303671D02*
X151895740Y-67837004D01*
X151705264Y-66998909D02*
X151514788Y-67570338D01*
X152010026Y-67570338D01*
D11*
X159511074Y-68311399D02*
X160177740Y-68311399D01*
X159130121Y-68549494D02*
X159844407Y-68787589D01*
X159844407Y-68168541D01*
X159177740Y-67882827D02*
X159177740Y-67263780D01*
X159558693Y-67597113D01*
X159558693Y-67454256D01*
X159606312Y-67359018D01*
X159653931Y-67311399D01*
X159749169Y-67263780D01*
X159987264Y-67263780D01*
X160082502Y-67311399D01*
X160130121Y-67359018D01*
X160177740Y-67454256D01*
X160177740Y-67739970D01*
X160130121Y-67835208D01*
X160082502Y-67882827D01*
X159177740Y-66644732D02*
X159177740Y-66549494D01*
X159225360Y-66454256D01*
X159272979Y-66406637D01*
X159368217Y-66359018D01*
X159558693Y-66311399D01*
X159796788Y-66311399D01*
X159987264Y-66359018D01*
X160082502Y-66406637D01*
X160130121Y-66454256D01*
X160177740Y-66549494D01*
X160177740Y-66644732D01*
X160130121Y-66739970D01*
X160082502Y-66787589D01*
X159987264Y-66835208D01*
X159796788Y-66882827D01*
X159558693Y-66882827D01*
X159368217Y-66835208D01*
X159272979Y-66787589D01*
X159225360Y-66739970D01*
X159177740Y-66644732D01*
X160177740Y-65359018D02*
X160177740Y-65930446D01*
X160177740Y-65644732D02*
X159177740Y-65644732D01*
X159320598Y-65739970D01*
X159415836Y-65835208D01*
X159463455Y-65930446D01*
X159177740Y-64454256D02*
X159177740Y-64930446D01*
X159653931Y-64978065D01*
X159606312Y-64930446D01*
X159558693Y-64835208D01*
X159558693Y-64597113D01*
X159606312Y-64501875D01*
X159653931Y-64454256D01*
X159749169Y-64406637D01*
X159987264Y-64406637D01*
X160082502Y-64454256D01*
X160130121Y-64501875D01*
X160177740Y-64597113D01*
X160177740Y-64835208D01*
X160130121Y-64930446D01*
X160082502Y-64978065D01*
X159272979Y-64025684D02*
X159225360Y-63978065D01*
X159177740Y-63882827D01*
X159177740Y-63644732D01*
X159225360Y-63549494D01*
X159272979Y-63501875D01*
X159368217Y-63454256D01*
X159463455Y-63454256D01*
X159606312Y-63501875D01*
X160177740Y-64073303D01*
X160177740Y-63454256D01*
X159177740Y-62835208D02*
X159177740Y-62739970D01*
X159225360Y-62644732D01*
X159272979Y-62597113D01*
X159368217Y-62549494D01*
X159558693Y-62501875D01*
X159796788Y-62501875D01*
X159987264Y-62549494D01*
X160082502Y-62597113D01*
X160130121Y-62644732D01*
X160177740Y-62739970D01*
X160177740Y-62835208D01*
X160130121Y-62930446D01*
X160082502Y-62978065D01*
X159987264Y-63025684D01*
X159796788Y-63073303D01*
X159558693Y-63073303D01*
X159368217Y-63025684D01*
X159272979Y-62978065D01*
X159225360Y-62930446D01*
X159177740Y-62835208D01*
X159177740Y-62168541D02*
X159177740Y-61501875D01*
X160177740Y-61930446D01*
X159177740Y-60930446D02*
X159177740Y-60835208D01*
X159225360Y-60739970D01*
X159272979Y-60692351D01*
X159368217Y-60644732D01*
X159558693Y-60597113D01*
X159796788Y-60597113D01*
X159987264Y-60644732D01*
X160082502Y-60692351D01*
X160130121Y-60739970D01*
X160177740Y-60835208D01*
X160177740Y-60930446D01*
X160130121Y-61025684D01*
X160082502Y-61073303D01*
X159987264Y-61120922D01*
X159796788Y-61168541D01*
X159558693Y-61168541D01*
X159368217Y-61120922D01*
X159272979Y-61073303D01*
X159225360Y-61025684D01*
X159177740Y-60930446D01*
X159606312Y-60025684D02*
X159558693Y-60120922D01*
X159511074Y-60168541D01*
X159415836Y-60216160D01*
X159368217Y-60216160D01*
X159272979Y-60168541D01*
X159225360Y-60120922D01*
X159177740Y-60025684D01*
X159177740Y-59835208D01*
X159225360Y-59739970D01*
X159272979Y-59692351D01*
X159368217Y-59644732D01*
X159415836Y-59644732D01*
X159511074Y-59692351D01*
X159558693Y-59739970D01*
X159606312Y-59835208D01*
X159606312Y-60025684D01*
X159653931Y-60120922D01*
X159701550Y-60168541D01*
X159796788Y-60216160D01*
X159987264Y-60216160D01*
X160082502Y-60168541D01*
X160130121Y-60120922D01*
X160177740Y-60025684D01*
X160177740Y-59835208D01*
X160130121Y-59739970D01*
X160082502Y-59692351D01*
X159987264Y-59644732D01*
X159796788Y-59644732D01*
X159701550Y-59692351D01*
X159653931Y-59739970D01*
X159606312Y-59835208D01*
X159272979Y-59263780D02*
X159225360Y-59216160D01*
X159177740Y-59120922D01*
X159177740Y-58882827D01*
X159225360Y-58787589D01*
X159272979Y-58739970D01*
X159368217Y-58692351D01*
X159463455Y-58692351D01*
X159606312Y-58739970D01*
X160177740Y-59311399D01*
X160177740Y-58692351D01*
X159177740Y-57835208D02*
X159177740Y-58025684D01*
X159225360Y-58120922D01*
X159272979Y-58168541D01*
X159415836Y-58263780D01*
X159606312Y-58311399D01*
X159987264Y-58311399D01*
X160082502Y-58263780D01*
X160130121Y-58216160D01*
X160177740Y-58120922D01*
X160177740Y-57930446D01*
X160130121Y-57835208D01*
X160082502Y-57787589D01*
X159987264Y-57739970D01*
X159749169Y-57739970D01*
X159653931Y-57787589D01*
X159606312Y-57835208D01*
X159558693Y-57930446D01*
X159558693Y-58120922D01*
X159606312Y-58216160D01*
X159653931Y-58263780D01*
X159749169Y-58311399D01*
X165085121Y-63900684D02*
X165132740Y-63757827D01*
X165132740Y-63519732D01*
X165085121Y-63424494D01*
X165037502Y-63376875D01*
X164942264Y-63329256D01*
X164847026Y-63329256D01*
X164751788Y-63376875D01*
X164704169Y-63424494D01*
X164656550Y-63519732D01*
X164608931Y-63710208D01*
X164561312Y-63805446D01*
X164513693Y-63853065D01*
X164418455Y-63900684D01*
X164323217Y-63900684D01*
X164227979Y-63853065D01*
X164180360Y-63805446D01*
X164132740Y-63710208D01*
X164132740Y-63472113D01*
X164180360Y-63329256D01*
X165132740Y-62376875D02*
X165132740Y-62948303D01*
X165132740Y-62662589D02*
X164132740Y-62662589D01*
X164275598Y-62757827D01*
X164370836Y-62853065D01*
X164418455Y-62948303D01*
X162587670Y-131601580D02*
X162587670Y-130601580D01*
X162968622Y-130601580D01*
X163063860Y-130649200D01*
X163111480Y-130696819D01*
X163159099Y-130792057D01*
X163159099Y-130934914D01*
X163111480Y-131030152D01*
X163063860Y-131077771D01*
X162968622Y-131125390D01*
X162587670Y-131125390D01*
X163587670Y-131601580D02*
X163587670Y-130934914D01*
X163587670Y-131125390D02*
X163635289Y-131030152D01*
X163682908Y-130982533D01*
X163778146Y-130934914D01*
X163873384Y-130934914D01*
X164349575Y-131601580D02*
X164254337Y-131553961D01*
X164206718Y-131506342D01*
X164159099Y-131411104D01*
X164159099Y-131125390D01*
X164206718Y-131030152D01*
X164254337Y-130982533D01*
X164349575Y-130934914D01*
X164492432Y-130934914D01*
X164587670Y-130982533D01*
X164635289Y-131030152D01*
X164682908Y-131125390D01*
X164682908Y-131411104D01*
X164635289Y-131506342D01*
X164587670Y-131553961D01*
X164492432Y-131601580D01*
X164349575Y-131601580D01*
X165540051Y-130934914D02*
X165540051Y-131744438D01*
X165492432Y-131839676D01*
X165444813Y-131887295D01*
X165349575Y-131934914D01*
X165206718Y-131934914D01*
X165111480Y-131887295D01*
X165540051Y-131553961D02*
X165444813Y-131601580D01*
X165254337Y-131601580D01*
X165159099Y-131553961D01*
X165111480Y-131506342D01*
X165063860Y-131411104D01*
X165063860Y-131125390D01*
X165111480Y-131030152D01*
X165159099Y-130982533D01*
X165254337Y-130934914D01*
X165444813Y-130934914D01*
X165540051Y-130982533D01*
X166016241Y-131601580D02*
X166016241Y-130934914D01*
X166016241Y-131125390D02*
X166063860Y-131030152D01*
X166111480Y-130982533D01*
X166206718Y-130934914D01*
X166301956Y-130934914D01*
X167063860Y-131601580D02*
X167063860Y-131077771D01*
X167016241Y-130982533D01*
X166921003Y-130934914D01*
X166730527Y-130934914D01*
X166635289Y-130982533D01*
X167063860Y-131553961D02*
X166968622Y-131601580D01*
X166730527Y-131601580D01*
X166635289Y-131553961D01*
X166587670Y-131458723D01*
X166587670Y-131363485D01*
X166635289Y-131268247D01*
X166730527Y-131220628D01*
X166968622Y-131220628D01*
X167063860Y-131173009D01*
X167540051Y-131601580D02*
X167540051Y-130934914D01*
X167540051Y-131030152D02*
X167587670Y-130982533D01*
X167682908Y-130934914D01*
X167825765Y-130934914D01*
X167921003Y-130982533D01*
X167968622Y-131077771D01*
X167968622Y-131601580D01*
X167968622Y-131077771D02*
X168016241Y-130982533D01*
X168111480Y-130934914D01*
X168254337Y-130934914D01*
X168349575Y-130982533D01*
X168397194Y-131077771D01*
X168397194Y-131601580D01*
X168873384Y-131601580D02*
X168873384Y-130934914D01*
X168873384Y-131030152D02*
X168921003Y-130982533D01*
X169016241Y-130934914D01*
X169159099Y-130934914D01*
X169254337Y-130982533D01*
X169301956Y-131077771D01*
X169301956Y-131601580D01*
X169301956Y-131077771D02*
X169349575Y-130982533D01*
X169444813Y-130934914D01*
X169587670Y-130934914D01*
X169682908Y-130982533D01*
X169730527Y-131077771D01*
X169730527Y-131601580D01*
X170206718Y-131601580D02*
X170206718Y-130934914D01*
X170206718Y-130601580D02*
X170159099Y-130649200D01*
X170206718Y-130696819D01*
X170254337Y-130649200D01*
X170206718Y-130601580D01*
X170206718Y-130696819D01*
X170682908Y-130934914D02*
X170682908Y-131601580D01*
X170682908Y-131030152D02*
X170730527Y-130982533D01*
X170825765Y-130934914D01*
X170968622Y-130934914D01*
X171063860Y-130982533D01*
X171111479Y-131077771D01*
X171111479Y-131601580D01*
X172016241Y-130934914D02*
X172016241Y-131744438D01*
X171968622Y-131839676D01*
X171921003Y-131887295D01*
X171825765Y-131934914D01*
X171682908Y-131934914D01*
X171587670Y-131887295D01*
X172016241Y-131553961D02*
X171921003Y-131601580D01*
X171730527Y-131601580D01*
X171635289Y-131553961D01*
X171587670Y-131506342D01*
X171540051Y-131411104D01*
X171540051Y-131125390D01*
X171587670Y-131030152D01*
X171635289Y-130982533D01*
X171730527Y-130934914D01*
X171921003Y-130934914D01*
X172016241Y-130982533D01*
X173254337Y-131601580D02*
X173254337Y-130601580D01*
X173682908Y-131601580D02*
X173682908Y-131077771D01*
X173635289Y-130982533D01*
X173540051Y-130934914D01*
X173397194Y-130934914D01*
X173301956Y-130982533D01*
X173254337Y-131030152D01*
X174540051Y-131553961D02*
X174444813Y-131601580D01*
X174254337Y-131601580D01*
X174159099Y-131553961D01*
X174111479Y-131458723D01*
X174111479Y-131077771D01*
X174159099Y-130982533D01*
X174254337Y-130934914D01*
X174444813Y-130934914D01*
X174540051Y-130982533D01*
X174587670Y-131077771D01*
X174587670Y-131173009D01*
X174111479Y-131268247D01*
X175444813Y-131601580D02*
X175444813Y-131077771D01*
X175397194Y-130982533D01*
X175301956Y-130934914D01*
X175111479Y-130934914D01*
X175016241Y-130982533D01*
X175444813Y-131553961D02*
X175349575Y-131601580D01*
X175111479Y-131601580D01*
X175016241Y-131553961D01*
X174968622Y-131458723D01*
X174968622Y-131363485D01*
X175016241Y-131268247D01*
X175111479Y-131220628D01*
X175349575Y-131220628D01*
X175444813Y-131173009D01*
X176349575Y-131601580D02*
X176349575Y-130601580D01*
X176349575Y-131553961D02*
X176254337Y-131601580D01*
X176063860Y-131601580D01*
X175968622Y-131553961D01*
X175921003Y-131506342D01*
X175873384Y-131411104D01*
X175873384Y-131125390D01*
X175921003Y-131030152D01*
X175968622Y-130982533D01*
X176063860Y-130934914D01*
X176254337Y-130934914D01*
X176349575Y-130982533D01*
X177206718Y-131553961D02*
X177111479Y-131601580D01*
X176921003Y-131601580D01*
X176825765Y-131553961D01*
X176778146Y-131458723D01*
X176778146Y-131077771D01*
X176825765Y-130982533D01*
X176921003Y-130934914D01*
X177111479Y-130934914D01*
X177206718Y-130982533D01*
X177254337Y-131077771D01*
X177254337Y-131173009D01*
X176778146Y-131268247D01*
X177682908Y-131601580D02*
X177682908Y-130934914D01*
X177682908Y-131125390D02*
X177730527Y-131030152D01*
X177778146Y-130982533D01*
X177873384Y-130934914D01*
X177968622Y-130934914D01*
X178254337Y-131553961D02*
X178349575Y-131601580D01*
X178540051Y-131601580D01*
X178635289Y-131553961D01*
X178682908Y-131458723D01*
X178682908Y-131411104D01*
X178635289Y-131315866D01*
X178540051Y-131268247D01*
X178397194Y-131268247D01*
X178301956Y-131220628D01*
X178254337Y-131125390D01*
X178254337Y-131077771D01*
X178301956Y-130982533D01*
X178397194Y-130934914D01*
X178540051Y-130934914D01*
X178635289Y-130982533D01*
X170178146Y-126401580D02*
X170178146Y-127115866D01*
X170130527Y-127258723D01*
X170035289Y-127353961D01*
X169892432Y-127401580D01*
X169797194Y-127401580D01*
X171178146Y-127401580D02*
X170606718Y-127401580D01*
X170892432Y-127401580D02*
X170892432Y-126401580D01*
X170797194Y-126544438D01*
X170701956Y-126639676D01*
X170606718Y-126687295D01*
X91670020Y-66513803D02*
X91670020Y-66989994D01*
X90670020Y-66989994D01*
X91622401Y-65799518D02*
X91670020Y-65894756D01*
X91670020Y-66085232D01*
X91622401Y-66180470D01*
X91527163Y-66228089D01*
X91146211Y-66228089D01*
X91050973Y-66180470D01*
X91003354Y-66085232D01*
X91003354Y-65894756D01*
X91050973Y-65799518D01*
X91146211Y-65751899D01*
X91241449Y-65751899D01*
X91336687Y-66228089D01*
X91003354Y-65466184D02*
X91003354Y-65085232D01*
X91670020Y-65323327D02*
X90812878Y-65323327D01*
X90717640Y-65275708D01*
X90670020Y-65180470D01*
X90670020Y-65085232D01*
X91003354Y-64894756D02*
X91003354Y-64513803D01*
X90670020Y-64751899D02*
X91527163Y-64751899D01*
X91622401Y-64704280D01*
X91670020Y-64609041D01*
X91670020Y-64513803D01*
X91670020Y-63418565D02*
X90670020Y-63418565D01*
X91050973Y-63418565D02*
X91003354Y-63323327D01*
X91003354Y-63132851D01*
X91050973Y-63037613D01*
X91098592Y-62989994D01*
X91193830Y-62942375D01*
X91479544Y-62942375D01*
X91574782Y-62989994D01*
X91622401Y-63037613D01*
X91670020Y-63132851D01*
X91670020Y-63323327D01*
X91622401Y-63418565D01*
X91670020Y-62513803D02*
X91003354Y-62513803D01*
X91193830Y-62513803D02*
X91098592Y-62466184D01*
X91050973Y-62418565D01*
X91003354Y-62323327D01*
X91003354Y-62228089D01*
X91622401Y-61513803D02*
X91670020Y-61609041D01*
X91670020Y-61799518D01*
X91622401Y-61894756D01*
X91527163Y-61942375D01*
X91146211Y-61942375D01*
X91050973Y-61894756D01*
X91003354Y-61799518D01*
X91003354Y-61609041D01*
X91050973Y-61513803D01*
X91146211Y-61466184D01*
X91241449Y-61466184D01*
X91336687Y-61942375D01*
X91670020Y-60609041D02*
X91146211Y-60609041D01*
X91050973Y-60656660D01*
X91003354Y-60751899D01*
X91003354Y-60942375D01*
X91050973Y-61037613D01*
X91622401Y-60609041D02*
X91670020Y-60704280D01*
X91670020Y-60942375D01*
X91622401Y-61037613D01*
X91527163Y-61085232D01*
X91431925Y-61085232D01*
X91336687Y-61037613D01*
X91289068Y-60942375D01*
X91289068Y-60704280D01*
X91241449Y-60609041D01*
X91670020Y-60132851D02*
X90670020Y-60132851D01*
X91289068Y-60037613D02*
X91670020Y-59751899D01*
X91003354Y-59751899D02*
X91384306Y-60132851D01*
X91670020Y-59180470D02*
X91622401Y-59275708D01*
X91574782Y-59323327D01*
X91479544Y-59370946D01*
X91193830Y-59370946D01*
X91098592Y-59323327D01*
X91050973Y-59275708D01*
X91003354Y-59180470D01*
X91003354Y-59037613D01*
X91050973Y-58942375D01*
X91098592Y-58894756D01*
X91193830Y-58847137D01*
X91479544Y-58847137D01*
X91574782Y-58894756D01*
X91622401Y-58942375D01*
X91670020Y-59037613D01*
X91670020Y-59180470D01*
X91003354Y-57989994D02*
X91670020Y-57989994D01*
X91003354Y-58418565D02*
X91527163Y-58418565D01*
X91622401Y-58370946D01*
X91670020Y-58275708D01*
X91670020Y-58132851D01*
X91622401Y-58037613D01*
X91574782Y-57989994D01*
X91003354Y-57656660D02*
X91003354Y-57275708D01*
X90670020Y-57513803D02*
X91527163Y-57513803D01*
X91622401Y-57466184D01*
X91670020Y-57370946D01*
X91670020Y-57275708D01*
X94870020Y-62437613D02*
X95584306Y-62437613D01*
X95727163Y-62485232D01*
X95822401Y-62580470D01*
X95870020Y-62723327D01*
X95870020Y-62818565D01*
X94965259Y-62009041D02*
X94917640Y-61961422D01*
X94870020Y-61866184D01*
X94870020Y-61628089D01*
X94917640Y-61532851D01*
X94965259Y-61485232D01*
X95060497Y-61437613D01*
X95155735Y-61437613D01*
X95298592Y-61485232D01*
X95870020Y-62056660D01*
X95870020Y-61437613D01*
X123841101Y-132634676D02*
X123888720Y-132491819D01*
X123936339Y-132444200D01*
X124031577Y-132396580D01*
X124174434Y-132396580D01*
X124269672Y-132444200D01*
X124317291Y-132491819D01*
X124364910Y-132587057D01*
X124364910Y-132968009D01*
X123364910Y-132968009D01*
X123364910Y-132634676D01*
X123412530Y-132539438D01*
X123460149Y-132491819D01*
X123555387Y-132444200D01*
X123650625Y-132444200D01*
X123745863Y-132491819D01*
X123793482Y-132539438D01*
X123841101Y-132634676D01*
X123841101Y-132968009D01*
X124364910Y-131825152D02*
X124317291Y-131920390D01*
X124269672Y-131968009D01*
X124174434Y-132015628D01*
X123888720Y-132015628D01*
X123793482Y-131968009D01*
X123745863Y-131920390D01*
X123698244Y-131825152D01*
X123698244Y-131682295D01*
X123745863Y-131587057D01*
X123793482Y-131539438D01*
X123888720Y-131491819D01*
X124174434Y-131491819D01*
X124269672Y-131539438D01*
X124317291Y-131587057D01*
X124364910Y-131682295D01*
X124364910Y-131825152D01*
X123698244Y-131206104D02*
X123698244Y-130825152D01*
X123364910Y-131063247D02*
X124222053Y-131063247D01*
X124317291Y-131015628D01*
X124364910Y-130920390D01*
X124364910Y-130825152D01*
X123698244Y-130634676D02*
X123698244Y-130253723D01*
X123364910Y-130491819D02*
X124222053Y-130491819D01*
X124317291Y-130444200D01*
X124364910Y-130348961D01*
X124364910Y-130253723D01*
X124364910Y-129777533D02*
X124317291Y-129872771D01*
X124269672Y-129920390D01*
X124174434Y-129968009D01*
X123888720Y-129968009D01*
X123793482Y-129920390D01*
X123745863Y-129872771D01*
X123698244Y-129777533D01*
X123698244Y-129634676D01*
X123745863Y-129539438D01*
X123793482Y-129491819D01*
X123888720Y-129444200D01*
X124174434Y-129444200D01*
X124269672Y-129491819D01*
X124317291Y-129539438D01*
X124364910Y-129634676D01*
X124364910Y-129777533D01*
X124364910Y-129015628D02*
X123698244Y-129015628D01*
X123793482Y-129015628D02*
X123745863Y-128968009D01*
X123698244Y-128872771D01*
X123698244Y-128729914D01*
X123745863Y-128634676D01*
X123841101Y-128587057D01*
X124364910Y-128587057D01*
X123841101Y-128587057D02*
X123745863Y-128539438D01*
X123698244Y-128444200D01*
X123698244Y-128301342D01*
X123745863Y-128206104D01*
X123841101Y-128158485D01*
X124364910Y-128158485D01*
X124364910Y-126920390D02*
X123364910Y-126920390D01*
X123745863Y-126920390D02*
X123698244Y-126825152D01*
X123698244Y-126634676D01*
X123745863Y-126539438D01*
X123793482Y-126491819D01*
X123888720Y-126444200D01*
X124174434Y-126444200D01*
X124269672Y-126491819D01*
X124317291Y-126539438D01*
X124364910Y-126634676D01*
X124364910Y-126825152D01*
X124317291Y-126920390D01*
X124364910Y-126015628D02*
X123698244Y-126015628D01*
X123888720Y-126015628D02*
X123793482Y-125968009D01*
X123745863Y-125920390D01*
X123698244Y-125825152D01*
X123698244Y-125729914D01*
X124317291Y-125015628D02*
X124364910Y-125110866D01*
X124364910Y-125301342D01*
X124317291Y-125396580D01*
X124222053Y-125444200D01*
X123841101Y-125444200D01*
X123745863Y-125396580D01*
X123698244Y-125301342D01*
X123698244Y-125110866D01*
X123745863Y-125015628D01*
X123841101Y-124968009D01*
X123936339Y-124968009D01*
X124031577Y-125444200D01*
X124364910Y-124110866D02*
X123841101Y-124110866D01*
X123745863Y-124158485D01*
X123698244Y-124253723D01*
X123698244Y-124444200D01*
X123745863Y-124539438D01*
X124317291Y-124110866D02*
X124364910Y-124206104D01*
X124364910Y-124444200D01*
X124317291Y-124539438D01*
X124222053Y-124587057D01*
X124126815Y-124587057D01*
X124031577Y-124539438D01*
X123983958Y-124444200D01*
X123983958Y-124206104D01*
X123936339Y-124110866D01*
X124364910Y-123634676D02*
X123364910Y-123634676D01*
X123983958Y-123539438D02*
X124364910Y-123253723D01*
X123698244Y-123253723D02*
X124079196Y-123634676D01*
X124364910Y-122682295D02*
X124317291Y-122777533D01*
X124269672Y-122825152D01*
X124174434Y-122872771D01*
X123888720Y-122872771D01*
X123793482Y-122825152D01*
X123745863Y-122777533D01*
X123698244Y-122682295D01*
X123698244Y-122539438D01*
X123745863Y-122444200D01*
X123793482Y-122396580D01*
X123888720Y-122348961D01*
X124174434Y-122348961D01*
X124269672Y-122396580D01*
X124317291Y-122444200D01*
X124364910Y-122539438D01*
X124364910Y-122682295D01*
X123698244Y-121491819D02*
X124364910Y-121491819D01*
X123698244Y-121920390D02*
X124222053Y-121920390D01*
X124317291Y-121872771D01*
X124364910Y-121777533D01*
X124364910Y-121634676D01*
X124317291Y-121539438D01*
X124269672Y-121491819D01*
X123698244Y-121158485D02*
X123698244Y-120777533D01*
X123364910Y-121015628D02*
X124222053Y-121015628D01*
X124317291Y-120968009D01*
X124364910Y-120872771D01*
X124364910Y-120777533D01*
X132259196Y-126396580D02*
X132259196Y-127110866D01*
X132211577Y-127253723D01*
X132116339Y-127348961D01*
X131973482Y-127396580D01*
X131878244Y-127396580D01*
X132640149Y-126396580D02*
X133259196Y-126396580D01*
X132925863Y-126777533D01*
X133068720Y-126777533D01*
X133163958Y-126825152D01*
X133211577Y-126872771D01*
X133259196Y-126968009D01*
X133259196Y-127206104D01*
X133211577Y-127301342D01*
X133163958Y-127348961D01*
X133068720Y-127396580D01*
X132783006Y-127396580D01*
X132687768Y-127348961D01*
X132640149Y-127301342D01*
X172672020Y-66642795D02*
X172195830Y-66976128D01*
X172672020Y-67214223D02*
X171672020Y-67214223D01*
X171672020Y-66833271D01*
X171719640Y-66738033D01*
X171767259Y-66690414D01*
X171862497Y-66642795D01*
X172005354Y-66642795D01*
X172100592Y-66690414D01*
X172148211Y-66738033D01*
X172195830Y-66833271D01*
X172195830Y-67214223D01*
X172672020Y-66214223D02*
X172005354Y-66214223D01*
X171672020Y-66214223D02*
X171719640Y-66261842D01*
X171767259Y-66214223D01*
X171719640Y-66166604D01*
X171672020Y-66214223D01*
X171767259Y-66214223D01*
X172005354Y-65309461D02*
X172814878Y-65309461D01*
X172910116Y-65357080D01*
X172957735Y-65404700D01*
X173005354Y-65499938D01*
X173005354Y-65642795D01*
X172957735Y-65738033D01*
X172624401Y-65309461D02*
X172672020Y-65404700D01*
X172672020Y-65595176D01*
X172624401Y-65690414D01*
X172576782Y-65738033D01*
X172481544Y-65785652D01*
X172195830Y-65785652D01*
X172100592Y-65738033D01*
X172052973Y-65690414D01*
X172005354Y-65595176D01*
X172005354Y-65404700D01*
X172052973Y-65309461D01*
X172672020Y-64833271D02*
X171672020Y-64833271D01*
X172672020Y-64404700D02*
X172148211Y-64404700D01*
X172052973Y-64452319D01*
X172005354Y-64547557D01*
X172005354Y-64690414D01*
X172052973Y-64785652D01*
X172100592Y-64833271D01*
X172005354Y-64071366D02*
X172005354Y-63690414D01*
X171672020Y-63928509D02*
X172529163Y-63928509D01*
X172624401Y-63880890D01*
X172672020Y-63785652D01*
X172672020Y-63690414D01*
X172672020Y-62595176D02*
X171672020Y-62595176D01*
X172052973Y-62595176D02*
X172005354Y-62499938D01*
X172005354Y-62309461D01*
X172052973Y-62214223D01*
X172100592Y-62166604D01*
X172195830Y-62118985D01*
X172481544Y-62118985D01*
X172576782Y-62166604D01*
X172624401Y-62214223D01*
X172672020Y-62309461D01*
X172672020Y-62499938D01*
X172624401Y-62595176D01*
X172672020Y-61690414D02*
X172005354Y-61690414D01*
X172195830Y-61690414D02*
X172100592Y-61642795D01*
X172052973Y-61595176D01*
X172005354Y-61499938D01*
X172005354Y-61404700D01*
X172624401Y-60690414D02*
X172672020Y-60785652D01*
X172672020Y-60976128D01*
X172624401Y-61071366D01*
X172529163Y-61118985D01*
X172148211Y-61118985D01*
X172052973Y-61071366D01*
X172005354Y-60976128D01*
X172005354Y-60785652D01*
X172052973Y-60690414D01*
X172148211Y-60642795D01*
X172243449Y-60642795D01*
X172338687Y-61118985D01*
X172672020Y-59785652D02*
X172148211Y-59785652D01*
X172052973Y-59833271D01*
X172005354Y-59928509D01*
X172005354Y-60118985D01*
X172052973Y-60214223D01*
X172624401Y-59785652D02*
X172672020Y-59880890D01*
X172672020Y-60118985D01*
X172624401Y-60214223D01*
X172529163Y-60261842D01*
X172433925Y-60261842D01*
X172338687Y-60214223D01*
X172291068Y-60118985D01*
X172291068Y-59880890D01*
X172243449Y-59785652D01*
X172672020Y-59309461D02*
X171672020Y-59309461D01*
X172291068Y-59214223D02*
X172672020Y-58928509D01*
X172005354Y-58928509D02*
X172386306Y-59309461D01*
X172672020Y-58357080D02*
X172624401Y-58452319D01*
X172576782Y-58499938D01*
X172481544Y-58547557D01*
X172195830Y-58547557D01*
X172100592Y-58499938D01*
X172052973Y-58452319D01*
X172005354Y-58357080D01*
X172005354Y-58214223D01*
X172052973Y-58118985D01*
X172100592Y-58071366D01*
X172195830Y-58023747D01*
X172481544Y-58023747D01*
X172576782Y-58071366D01*
X172624401Y-58118985D01*
X172672020Y-58214223D01*
X172672020Y-58357080D01*
X172005354Y-57166604D02*
X172672020Y-57166604D01*
X172005354Y-57595176D02*
X172529163Y-57595176D01*
X172624401Y-57547557D01*
X172672020Y-57452319D01*
X172672020Y-57309461D01*
X172624401Y-57214223D01*
X172576782Y-57166604D01*
X172005354Y-56833271D02*
X172005354Y-56452319D01*
X171672020Y-56690414D02*
X172529163Y-56690414D01*
X172624401Y-56642795D01*
X172672020Y-56547557D01*
X172672020Y-56452319D01*
X116838900Y-72126599D02*
X116838900Y-72698027D01*
X116838900Y-72412313D02*
X115838900Y-72412313D01*
X115981758Y-72507551D01*
X116076996Y-72602789D01*
X116124615Y-72698027D01*
X115838900Y-71507551D02*
X115838900Y-71412313D01*
X115886520Y-71317075D01*
X115934139Y-71269456D01*
X116029377Y-71221837D01*
X116219853Y-71174218D01*
X116457948Y-71174218D01*
X116648424Y-71221837D01*
X116743662Y-71269456D01*
X116791281Y-71317075D01*
X116838900Y-71412313D01*
X116838900Y-71507551D01*
X116791281Y-71602789D01*
X116743662Y-71650408D01*
X116648424Y-71698027D01*
X116457948Y-71745646D01*
X116219853Y-71745646D01*
X116029377Y-71698027D01*
X115934139Y-71650408D01*
X115886520Y-71602789D01*
X115838900Y-71507551D01*
X115838900Y-70555170D02*
X115838900Y-70459932D01*
X115886520Y-70364694D01*
X115934139Y-70317075D01*
X116029377Y-70269456D01*
X116219853Y-70221837D01*
X116457948Y-70221837D01*
X116648424Y-70269456D01*
X116743662Y-70317075D01*
X116791281Y-70364694D01*
X116838900Y-70459932D01*
X116838900Y-70555170D01*
X116791281Y-70650408D01*
X116743662Y-70698027D01*
X116648424Y-70745646D01*
X116457948Y-70793265D01*
X116219853Y-70793265D01*
X116029377Y-70745646D01*
X115934139Y-70698027D01*
X115886520Y-70650408D01*
X115838900Y-70555170D01*
X116172234Y-69793265D02*
X116838900Y-69793265D01*
X116267472Y-69793265D02*
X116219853Y-69745646D01*
X116172234Y-69650408D01*
X116172234Y-69507551D01*
X116219853Y-69412313D01*
X116315091Y-69364694D01*
X116838900Y-69364694D01*
X116315091Y-68555170D02*
X116315091Y-68888503D01*
X116838900Y-68888503D02*
X115838900Y-68888503D01*
X115838900Y-68412313D01*
D12*
X118492234Y-70712313D02*
X118530329Y-70750408D01*
X118568424Y-70864694D01*
X118568424Y-70940884D01*
X118530329Y-71055170D01*
X118454139Y-71131360D01*
X118377948Y-71169456D01*
X118225567Y-71207551D01*
X118111281Y-71207551D01*
X117958900Y-71169456D01*
X117882710Y-71131360D01*
X117806520Y-71055170D01*
X117768424Y-70940884D01*
X117768424Y-70864694D01*
X117806520Y-70750408D01*
X117844615Y-70712313D01*
X117844615Y-70407551D02*
X117806520Y-70369456D01*
X117768424Y-70293265D01*
X117768424Y-70102789D01*
X117806520Y-70026599D01*
X117844615Y-69988503D01*
X117920805Y-69950408D01*
X117996996Y-69950408D01*
X118111281Y-69988503D01*
X118568424Y-70445646D01*
X118568424Y-69950408D01*
D11*
X96326380Y-92754523D02*
X97326380Y-92516428D01*
X96612095Y-92325952D01*
X97326380Y-92135476D01*
X96326380Y-91897380D01*
X97278761Y-91564047D02*
X97326380Y-91421190D01*
X97326380Y-91183095D01*
X97278761Y-91087857D01*
X97231142Y-91040238D01*
X97135904Y-90992619D01*
X97040666Y-90992619D01*
X96945428Y-91040238D01*
X96897809Y-91087857D01*
X96850190Y-91183095D01*
X96802571Y-91373571D01*
X96754952Y-91468809D01*
X96707333Y-91516428D01*
X96612095Y-91564047D01*
X96516857Y-91564047D01*
X96421619Y-91516428D01*
X96374000Y-91468809D01*
X96326380Y-91373571D01*
X96326380Y-91135476D01*
X96374000Y-90992619D01*
X96421619Y-90611666D02*
X96374000Y-90564047D01*
X96326380Y-90468809D01*
X96326380Y-90230714D01*
X96374000Y-90135476D01*
X96421619Y-90087857D01*
X96516857Y-90040238D01*
X96612095Y-90040238D01*
X96754952Y-90087857D01*
X97326380Y-90659285D01*
X97326380Y-90040238D01*
X96754952Y-89468809D02*
X96707333Y-89564047D01*
X96659714Y-89611666D01*
X96564476Y-89659285D01*
X96516857Y-89659285D01*
X96421619Y-89611666D01*
X96374000Y-89564047D01*
X96326380Y-89468809D01*
X96326380Y-89278333D01*
X96374000Y-89183095D01*
X96421619Y-89135476D01*
X96516857Y-89087857D01*
X96564476Y-89087857D01*
X96659714Y-89135476D01*
X96707333Y-89183095D01*
X96754952Y-89278333D01*
X96754952Y-89468809D01*
X96802571Y-89564047D01*
X96850190Y-89611666D01*
X96945428Y-89659285D01*
X97135904Y-89659285D01*
X97231142Y-89611666D01*
X97278761Y-89564047D01*
X97326380Y-89468809D01*
X97326380Y-89278333D01*
X97278761Y-89183095D01*
X97231142Y-89135476D01*
X97135904Y-89087857D01*
X96945428Y-89087857D01*
X96850190Y-89135476D01*
X96802571Y-89183095D01*
X96754952Y-89278333D01*
X97326380Y-88135476D02*
X97326380Y-88706904D01*
X97326380Y-88421190D02*
X96326380Y-88421190D01*
X96469238Y-88516428D01*
X96564476Y-88611666D01*
X96612095Y-88706904D01*
X96421619Y-87754523D02*
X96374000Y-87706904D01*
X96326380Y-87611666D01*
X96326380Y-87373571D01*
X96374000Y-87278333D01*
X96421619Y-87230714D01*
X96516857Y-87183095D01*
X96612095Y-87183095D01*
X96754952Y-87230714D01*
X97326380Y-87802142D01*
X97326380Y-87183095D01*
X96802571Y-86421190D02*
X96850190Y-86278333D01*
X96897809Y-86230714D01*
X96993047Y-86183095D01*
X97135904Y-86183095D01*
X97231142Y-86230714D01*
X97278761Y-86278333D01*
X97326380Y-86373571D01*
X97326380Y-86754523D01*
X96326380Y-86754523D01*
X96326380Y-86421190D01*
X96374000Y-86325952D01*
X96421619Y-86278333D01*
X96516857Y-86230714D01*
X96612095Y-86230714D01*
X96707333Y-86278333D01*
X96754952Y-86325952D01*
X96802571Y-86421190D01*
X96802571Y-86754523D01*
X93235904Y-90340238D02*
X93235904Y-90721190D01*
X92435904Y-90721190D01*
X92816857Y-90073571D02*
X92816857Y-89806904D01*
X93235904Y-89692619D02*
X93235904Y-90073571D01*
X92435904Y-90073571D01*
X92435904Y-89692619D01*
X93235904Y-89349761D02*
X92435904Y-89349761D01*
X92435904Y-89159285D01*
X92474000Y-89045000D01*
X92550190Y-88968809D01*
X92626380Y-88930714D01*
X92778761Y-88892619D01*
X92893047Y-88892619D01*
X93045428Y-88930714D01*
X93121619Y-88968809D01*
X93197809Y-89045000D01*
X93235904Y-89159285D01*
X93235904Y-89349761D01*
X93235904Y-88130714D02*
X93235904Y-88587857D01*
X93235904Y-88359285D02*
X92435904Y-88359285D01*
X92550190Y-88435476D01*
X92626380Y-88511666D01*
X92664476Y-88587857D01*
X105822046Y-92754523D02*
X106822046Y-92516428D01*
X106107761Y-92325952D01*
X106822046Y-92135476D01*
X105822046Y-91897380D01*
X106774427Y-91564047D02*
X106822046Y-91421190D01*
X106822046Y-91183095D01*
X106774427Y-91087857D01*
X106726808Y-91040238D01*
X106631570Y-90992619D01*
X106536332Y-90992619D01*
X106441094Y-91040238D01*
X106393475Y-91087857D01*
X106345856Y-91183095D01*
X106298237Y-91373571D01*
X106250618Y-91468809D01*
X106202999Y-91516428D01*
X106107761Y-91564047D01*
X106012523Y-91564047D01*
X105917285Y-91516428D01*
X105869666Y-91468809D01*
X105822046Y-91373571D01*
X105822046Y-91135476D01*
X105869666Y-90992619D01*
X105917285Y-90611666D02*
X105869666Y-90564047D01*
X105822046Y-90468809D01*
X105822046Y-90230714D01*
X105869666Y-90135476D01*
X105917285Y-90087857D01*
X106012523Y-90040238D01*
X106107761Y-90040238D01*
X106250618Y-90087857D01*
X106822046Y-90659285D01*
X106822046Y-90040238D01*
X106250618Y-89468809D02*
X106202999Y-89564047D01*
X106155380Y-89611666D01*
X106060142Y-89659285D01*
X106012523Y-89659285D01*
X105917285Y-89611666D01*
X105869666Y-89564047D01*
X105822046Y-89468809D01*
X105822046Y-89278333D01*
X105869666Y-89183095D01*
X105917285Y-89135476D01*
X106012523Y-89087857D01*
X106060142Y-89087857D01*
X106155380Y-89135476D01*
X106202999Y-89183095D01*
X106250618Y-89278333D01*
X106250618Y-89468809D01*
X106298237Y-89564047D01*
X106345856Y-89611666D01*
X106441094Y-89659285D01*
X106631570Y-89659285D01*
X106726808Y-89611666D01*
X106774427Y-89564047D01*
X106822046Y-89468809D01*
X106822046Y-89278333D01*
X106774427Y-89183095D01*
X106726808Y-89135476D01*
X106631570Y-89087857D01*
X106441094Y-89087857D01*
X106345856Y-89135476D01*
X106298237Y-89183095D01*
X106250618Y-89278333D01*
X106822046Y-88135476D02*
X106822046Y-88706904D01*
X106822046Y-88421190D02*
X105822046Y-88421190D01*
X105964904Y-88516428D01*
X106060142Y-88611666D01*
X106107761Y-88706904D01*
X105917285Y-87754523D02*
X105869666Y-87706904D01*
X105822046Y-87611666D01*
X105822046Y-87373571D01*
X105869666Y-87278333D01*
X105917285Y-87230714D01*
X106012523Y-87183095D01*
X106107761Y-87183095D01*
X106250618Y-87230714D01*
X106822046Y-87802142D01*
X106822046Y-87183095D01*
X106298237Y-86421190D02*
X106345856Y-86278333D01*
X106393475Y-86230714D01*
X106488713Y-86183095D01*
X106631570Y-86183095D01*
X106726808Y-86230714D01*
X106774427Y-86278333D01*
X106822046Y-86373571D01*
X106822046Y-86754523D01*
X105822046Y-86754523D01*
X105822046Y-86421190D01*
X105869666Y-86325952D01*
X105917285Y-86278333D01*
X106012523Y-86230714D01*
X106107761Y-86230714D01*
X106202999Y-86278333D01*
X106250618Y-86325952D01*
X106298237Y-86421190D01*
X106298237Y-86754523D01*
X102731570Y-90340238D02*
X102731570Y-90721190D01*
X101931570Y-90721190D01*
X102312523Y-90073571D02*
X102312523Y-89806904D01*
X102731570Y-89692619D02*
X102731570Y-90073571D01*
X101931570Y-90073571D01*
X101931570Y-89692619D01*
X102731570Y-89349761D02*
X101931570Y-89349761D01*
X101931570Y-89159285D01*
X101969666Y-89045000D01*
X102045856Y-88968809D01*
X102122046Y-88930714D01*
X102274427Y-88892619D01*
X102388713Y-88892619D01*
X102541094Y-88930714D01*
X102617285Y-88968809D01*
X102693475Y-89045000D01*
X102731570Y-89159285D01*
X102731570Y-89349761D01*
X102007761Y-88587857D02*
X101969666Y-88549761D01*
X101931570Y-88473571D01*
X101931570Y-88283095D01*
X101969666Y-88206904D01*
X102007761Y-88168809D01*
X102083951Y-88130714D01*
X102160142Y-88130714D01*
X102274427Y-88168809D01*
X102731570Y-88625952D01*
X102731570Y-88130714D01*
X115317712Y-92754523D02*
X116317712Y-92516428D01*
X115603427Y-92325952D01*
X116317712Y-92135476D01*
X115317712Y-91897380D01*
X116270093Y-91564047D02*
X116317712Y-91421190D01*
X116317712Y-91183095D01*
X116270093Y-91087857D01*
X116222474Y-91040238D01*
X116127236Y-90992619D01*
X116031998Y-90992619D01*
X115936760Y-91040238D01*
X115889141Y-91087857D01*
X115841522Y-91183095D01*
X115793903Y-91373571D01*
X115746284Y-91468809D01*
X115698665Y-91516428D01*
X115603427Y-91564047D01*
X115508189Y-91564047D01*
X115412951Y-91516428D01*
X115365332Y-91468809D01*
X115317712Y-91373571D01*
X115317712Y-91135476D01*
X115365332Y-90992619D01*
X115412951Y-90611666D02*
X115365332Y-90564047D01*
X115317712Y-90468809D01*
X115317712Y-90230714D01*
X115365332Y-90135476D01*
X115412951Y-90087857D01*
X115508189Y-90040238D01*
X115603427Y-90040238D01*
X115746284Y-90087857D01*
X116317712Y-90659285D01*
X116317712Y-90040238D01*
X115746284Y-89468809D02*
X115698665Y-89564047D01*
X115651046Y-89611666D01*
X115555808Y-89659285D01*
X115508189Y-89659285D01*
X115412951Y-89611666D01*
X115365332Y-89564047D01*
X115317712Y-89468809D01*
X115317712Y-89278333D01*
X115365332Y-89183095D01*
X115412951Y-89135476D01*
X115508189Y-89087857D01*
X115555808Y-89087857D01*
X115651046Y-89135476D01*
X115698665Y-89183095D01*
X115746284Y-89278333D01*
X115746284Y-89468809D01*
X115793903Y-89564047D01*
X115841522Y-89611666D01*
X115936760Y-89659285D01*
X116127236Y-89659285D01*
X116222474Y-89611666D01*
X116270093Y-89564047D01*
X116317712Y-89468809D01*
X116317712Y-89278333D01*
X116270093Y-89183095D01*
X116222474Y-89135476D01*
X116127236Y-89087857D01*
X115936760Y-89087857D01*
X115841522Y-89135476D01*
X115793903Y-89183095D01*
X115746284Y-89278333D01*
X116317712Y-88135476D02*
X116317712Y-88706904D01*
X116317712Y-88421190D02*
X115317712Y-88421190D01*
X115460570Y-88516428D01*
X115555808Y-88611666D01*
X115603427Y-88706904D01*
X115412951Y-87754523D02*
X115365332Y-87706904D01*
X115317712Y-87611666D01*
X115317712Y-87373571D01*
X115365332Y-87278333D01*
X115412951Y-87230714D01*
X115508189Y-87183095D01*
X115603427Y-87183095D01*
X115746284Y-87230714D01*
X116317712Y-87802142D01*
X116317712Y-87183095D01*
X115793903Y-86421190D02*
X115841522Y-86278333D01*
X115889141Y-86230714D01*
X115984379Y-86183095D01*
X116127236Y-86183095D01*
X116222474Y-86230714D01*
X116270093Y-86278333D01*
X116317712Y-86373571D01*
X116317712Y-86754523D01*
X115317712Y-86754523D01*
X115317712Y-86421190D01*
X115365332Y-86325952D01*
X115412951Y-86278333D01*
X115508189Y-86230714D01*
X115603427Y-86230714D01*
X115698665Y-86278333D01*
X115746284Y-86325952D01*
X115793903Y-86421190D01*
X115793903Y-86754523D01*
X112227236Y-90340238D02*
X112227236Y-90721190D01*
X111427236Y-90721190D01*
X111808189Y-90073571D02*
X111808189Y-89806904D01*
X112227236Y-89692619D02*
X112227236Y-90073571D01*
X111427236Y-90073571D01*
X111427236Y-89692619D01*
X112227236Y-89349761D02*
X111427236Y-89349761D01*
X111427236Y-89159285D01*
X111465332Y-89045000D01*
X111541522Y-88968809D01*
X111617712Y-88930714D01*
X111770093Y-88892619D01*
X111884379Y-88892619D01*
X112036760Y-88930714D01*
X112112951Y-88968809D01*
X112189141Y-89045000D01*
X112227236Y-89159285D01*
X112227236Y-89349761D01*
X111427236Y-88625952D02*
X111427236Y-88130714D01*
X111731998Y-88397380D01*
X111731998Y-88283095D01*
X111770093Y-88206904D01*
X111808189Y-88168809D01*
X111884379Y-88130714D01*
X112074855Y-88130714D01*
X112151046Y-88168809D01*
X112189141Y-88206904D01*
X112227236Y-88283095D01*
X112227236Y-88511666D01*
X112189141Y-88587857D01*
X112151046Y-88625952D01*
X124813380Y-92754523D02*
X125813380Y-92516428D01*
X125099095Y-92325952D01*
X125813380Y-92135476D01*
X124813380Y-91897380D01*
X125765761Y-91564047D02*
X125813380Y-91421190D01*
X125813380Y-91183095D01*
X125765761Y-91087857D01*
X125718142Y-91040238D01*
X125622904Y-90992619D01*
X125527666Y-90992619D01*
X125432428Y-91040238D01*
X125384809Y-91087857D01*
X125337190Y-91183095D01*
X125289571Y-91373571D01*
X125241952Y-91468809D01*
X125194333Y-91516428D01*
X125099095Y-91564047D01*
X125003857Y-91564047D01*
X124908619Y-91516428D01*
X124861000Y-91468809D01*
X124813380Y-91373571D01*
X124813380Y-91135476D01*
X124861000Y-90992619D01*
X124908619Y-90611666D02*
X124861000Y-90564047D01*
X124813380Y-90468809D01*
X124813380Y-90230714D01*
X124861000Y-90135476D01*
X124908619Y-90087857D01*
X125003857Y-90040238D01*
X125099095Y-90040238D01*
X125241952Y-90087857D01*
X125813380Y-90659285D01*
X125813380Y-90040238D01*
X125241952Y-89468809D02*
X125194333Y-89564047D01*
X125146714Y-89611666D01*
X125051476Y-89659285D01*
X125003857Y-89659285D01*
X124908619Y-89611666D01*
X124861000Y-89564047D01*
X124813380Y-89468809D01*
X124813380Y-89278333D01*
X124861000Y-89183095D01*
X124908619Y-89135476D01*
X125003857Y-89087857D01*
X125051476Y-89087857D01*
X125146714Y-89135476D01*
X125194333Y-89183095D01*
X125241952Y-89278333D01*
X125241952Y-89468809D01*
X125289571Y-89564047D01*
X125337190Y-89611666D01*
X125432428Y-89659285D01*
X125622904Y-89659285D01*
X125718142Y-89611666D01*
X125765761Y-89564047D01*
X125813380Y-89468809D01*
X125813380Y-89278333D01*
X125765761Y-89183095D01*
X125718142Y-89135476D01*
X125622904Y-89087857D01*
X125432428Y-89087857D01*
X125337190Y-89135476D01*
X125289571Y-89183095D01*
X125241952Y-89278333D01*
X125813380Y-88135476D02*
X125813380Y-88706904D01*
X125813380Y-88421190D02*
X124813380Y-88421190D01*
X124956238Y-88516428D01*
X125051476Y-88611666D01*
X125099095Y-88706904D01*
X124908619Y-87754523D02*
X124861000Y-87706904D01*
X124813380Y-87611666D01*
X124813380Y-87373571D01*
X124861000Y-87278333D01*
X124908619Y-87230714D01*
X125003857Y-87183095D01*
X125099095Y-87183095D01*
X125241952Y-87230714D01*
X125813380Y-87802142D01*
X125813380Y-87183095D01*
X125289571Y-86421190D02*
X125337190Y-86278333D01*
X125384809Y-86230714D01*
X125480047Y-86183095D01*
X125622904Y-86183095D01*
X125718142Y-86230714D01*
X125765761Y-86278333D01*
X125813380Y-86373571D01*
X125813380Y-86754523D01*
X124813380Y-86754523D01*
X124813380Y-86421190D01*
X124861000Y-86325952D01*
X124908619Y-86278333D01*
X125003857Y-86230714D01*
X125099095Y-86230714D01*
X125194333Y-86278333D01*
X125241952Y-86325952D01*
X125289571Y-86421190D01*
X125289571Y-86754523D01*
X121722904Y-90340238D02*
X121722904Y-90721190D01*
X120922904Y-90721190D01*
X121303857Y-90073571D02*
X121303857Y-89806904D01*
X121722904Y-89692619D02*
X121722904Y-90073571D01*
X120922904Y-90073571D01*
X120922904Y-89692619D01*
X121722904Y-89349761D02*
X120922904Y-89349761D01*
X120922904Y-89159285D01*
X120961000Y-89045000D01*
X121037190Y-88968809D01*
X121113380Y-88930714D01*
X121265761Y-88892619D01*
X121380047Y-88892619D01*
X121532428Y-88930714D01*
X121608619Y-88968809D01*
X121684809Y-89045000D01*
X121722904Y-89159285D01*
X121722904Y-89349761D01*
X121189571Y-88206904D02*
X121722904Y-88206904D01*
X120884809Y-88397380D02*
X121456238Y-88587857D01*
X121456238Y-88092619D01*
X91919071Y-76207523D02*
X91966690Y-76064666D01*
X92014309Y-76017047D01*
X92109547Y-75969428D01*
X92252404Y-75969428D01*
X92347642Y-76017047D01*
X92395261Y-76064666D01*
X92442880Y-76159904D01*
X92442880Y-76540857D01*
X91442880Y-76540857D01*
X91442880Y-76207523D01*
X91490500Y-76112285D01*
X91538119Y-76064666D01*
X91633357Y-76017047D01*
X91728595Y-76017047D01*
X91823833Y-76064666D01*
X91871452Y-76112285D01*
X91919071Y-76207523D01*
X91919071Y-76540857D01*
X92395261Y-75588476D02*
X92442880Y-75445619D01*
X92442880Y-75207523D01*
X92395261Y-75112285D01*
X92347642Y-75064666D01*
X92252404Y-75017047D01*
X92157166Y-75017047D01*
X92061928Y-75064666D01*
X92014309Y-75112285D01*
X91966690Y-75207523D01*
X91919071Y-75398000D01*
X91871452Y-75493238D01*
X91823833Y-75540857D01*
X91728595Y-75588476D01*
X91633357Y-75588476D01*
X91538119Y-75540857D01*
X91490500Y-75493238D01*
X91442880Y-75398000D01*
X91442880Y-75159904D01*
X91490500Y-75017047D01*
X92395261Y-74636095D02*
X92442880Y-74493238D01*
X92442880Y-74255142D01*
X92395261Y-74159904D01*
X92347642Y-74112285D01*
X92252404Y-74064666D01*
X92157166Y-74064666D01*
X92061928Y-74112285D01*
X92014309Y-74159904D01*
X91966690Y-74255142D01*
X91919071Y-74445619D01*
X91871452Y-74540857D01*
X91823833Y-74588476D01*
X91728595Y-74636095D01*
X91633357Y-74636095D01*
X91538119Y-74588476D01*
X91490500Y-74540857D01*
X91442880Y-74445619D01*
X91442880Y-74207523D01*
X91490500Y-74064666D01*
X92442880Y-73112285D02*
X92442880Y-73683714D01*
X92442880Y-73398000D02*
X91442880Y-73398000D01*
X91585738Y-73493238D01*
X91680976Y-73588476D01*
X91728595Y-73683714D01*
X91442880Y-72778952D02*
X91442880Y-72159904D01*
X91823833Y-72493238D01*
X91823833Y-72350380D01*
X91871452Y-72255142D01*
X91919071Y-72207523D01*
X92014309Y-72159904D01*
X92252404Y-72159904D01*
X92347642Y-72207523D01*
X92395261Y-72255142D01*
X92442880Y-72350380D01*
X92442880Y-72636095D01*
X92395261Y-72731333D01*
X92347642Y-72778952D01*
X91871452Y-71588476D02*
X91823833Y-71683714D01*
X91776214Y-71731333D01*
X91680976Y-71778952D01*
X91633357Y-71778952D01*
X91538119Y-71731333D01*
X91490500Y-71683714D01*
X91442880Y-71588476D01*
X91442880Y-71398000D01*
X91490500Y-71302761D01*
X91538119Y-71255142D01*
X91633357Y-71207523D01*
X91680976Y-71207523D01*
X91776214Y-71255142D01*
X91823833Y-71302761D01*
X91871452Y-71398000D01*
X91871452Y-71588476D01*
X91919071Y-71683714D01*
X91966690Y-71731333D01*
X92061928Y-71778952D01*
X92252404Y-71778952D01*
X92347642Y-71731333D01*
X92395261Y-71683714D01*
X92442880Y-71588476D01*
X92442880Y-71398000D01*
X92395261Y-71302761D01*
X92347642Y-71255142D01*
X92252404Y-71207523D01*
X92061928Y-71207523D01*
X91966690Y-71255142D01*
X91919071Y-71302761D01*
X91871452Y-71398000D01*
D13*
X94442880Y-74171809D02*
X94395261Y-74148000D01*
X94347642Y-74100380D01*
X94276214Y-74028952D01*
X94228595Y-74005142D01*
X94180976Y-74005142D01*
X94204785Y-74124190D02*
X94157166Y-74100380D01*
X94109547Y-74052761D01*
X94085738Y-73957523D01*
X94085738Y-73790857D01*
X94109547Y-73695619D01*
X94157166Y-73648000D01*
X94204785Y-73624190D01*
X94300023Y-73624190D01*
X94347642Y-73648000D01*
X94395261Y-73695619D01*
X94419071Y-73790857D01*
X94419071Y-73957523D01*
X94395261Y-74052761D01*
X94347642Y-74100380D01*
X94300023Y-74124190D01*
X94204785Y-74124190D01*
X94895261Y-74124190D02*
X94609547Y-74124190D01*
X94752404Y-74124190D02*
X94752404Y-73624190D01*
X94704785Y-73695619D01*
X94657166Y-73743238D01*
X94609547Y-73767047D01*
D11*
X183971880Y-94181209D02*
X184781404Y-94181209D01*
X184876642Y-94133590D01*
X184924261Y-94085971D01*
X184971880Y-93990733D01*
X184971880Y-93800257D01*
X184924261Y-93705019D01*
X184876642Y-93657400D01*
X184781404Y-93609780D01*
X183971880Y-93609780D01*
X184924261Y-93181209D02*
X184971880Y-93038352D01*
X184971880Y-92800257D01*
X184924261Y-92705019D01*
X184876642Y-92657400D01*
X184781404Y-92609780D01*
X184686166Y-92609780D01*
X184590928Y-92657400D01*
X184543309Y-92705019D01*
X184495690Y-92800257D01*
X184448071Y-92990733D01*
X184400452Y-93085971D01*
X184352833Y-93133590D01*
X184257595Y-93181209D01*
X184162357Y-93181209D01*
X184067119Y-93133590D01*
X184019500Y-93085971D01*
X183971880Y-92990733D01*
X183971880Y-92752638D01*
X184019500Y-92609780D01*
X184448071Y-91847876D02*
X184495690Y-91705019D01*
X184543309Y-91657400D01*
X184638547Y-91609780D01*
X184781404Y-91609780D01*
X184876642Y-91657400D01*
X184924261Y-91705019D01*
X184971880Y-91800257D01*
X184971880Y-92181209D01*
X183971880Y-92181209D01*
X183971880Y-91847876D01*
X184019500Y-91752638D01*
X184067119Y-91705019D01*
X184162357Y-91657400D01*
X184257595Y-91657400D01*
X184352833Y-91705019D01*
X184400452Y-91752638D01*
X184448071Y-91847876D01*
X184448071Y-92181209D01*
X185067119Y-91419304D02*
X185067119Y-90657400D01*
X184448071Y-90085971D02*
X184495690Y-89943114D01*
X184543309Y-89895495D01*
X184638547Y-89847876D01*
X184781404Y-89847876D01*
X184876642Y-89895495D01*
X184924261Y-89943114D01*
X184971880Y-90038352D01*
X184971880Y-90419304D01*
X183971880Y-90419304D01*
X183971880Y-90085971D01*
X184019500Y-89990733D01*
X184067119Y-89943114D01*
X184162357Y-89895495D01*
X184257595Y-89895495D01*
X184352833Y-89943114D01*
X184400452Y-89990733D01*
X184448071Y-90085971D01*
X184448071Y-90419304D01*
X185067119Y-89657400D02*
X185067119Y-88895495D01*
X184971880Y-88657400D02*
X183971880Y-88657400D01*
X184686166Y-88324066D01*
X183971880Y-87990733D01*
X184971880Y-87990733D01*
X184971880Y-87514542D02*
X184305214Y-87514542D01*
X183971880Y-87514542D02*
X184019500Y-87562161D01*
X184067119Y-87514542D01*
X184019500Y-87466923D01*
X183971880Y-87514542D01*
X184067119Y-87514542D01*
X184924261Y-86609780D02*
X184971880Y-86705019D01*
X184971880Y-86895495D01*
X184924261Y-86990733D01*
X184876642Y-87038352D01*
X184781404Y-87085971D01*
X184495690Y-87085971D01*
X184400452Y-87038352D01*
X184352833Y-86990733D01*
X184305214Y-86895495D01*
X184305214Y-86705019D01*
X184352833Y-86609780D01*
X184971880Y-86181209D02*
X184305214Y-86181209D01*
X184495690Y-86181209D02*
X184400452Y-86133590D01*
X184352833Y-86085971D01*
X184305214Y-85990733D01*
X184305214Y-85895495D01*
X184971880Y-85419304D02*
X184924261Y-85514542D01*
X184876642Y-85562161D01*
X184781404Y-85609780D01*
X184495690Y-85609780D01*
X184400452Y-85562161D01*
X184352833Y-85514542D01*
X184305214Y-85419304D01*
X184305214Y-85276447D01*
X184352833Y-85181209D01*
X184400452Y-85133590D01*
X184495690Y-85085971D01*
X184781404Y-85085971D01*
X184876642Y-85133590D01*
X184924261Y-85181209D01*
X184971880Y-85276447D01*
X184971880Y-85419304D01*
X180521880Y-90290733D02*
X181236166Y-90290733D01*
X181379023Y-90338352D01*
X181474261Y-90433590D01*
X181521880Y-90576447D01*
X181521880Y-90671685D01*
X180521880Y-89338352D02*
X180521880Y-89814542D01*
X180998071Y-89862161D01*
X180950452Y-89814542D01*
X180902833Y-89719304D01*
X180902833Y-89481209D01*
X180950452Y-89385971D01*
X180998071Y-89338352D01*
X181093309Y-89290733D01*
X181331404Y-89290733D01*
X181426642Y-89338352D01*
X181474261Y-89385971D01*
X181521880Y-89481209D01*
X181521880Y-89719304D01*
X181474261Y-89814542D01*
X181426642Y-89862161D01*
X160039233Y-84866542D02*
X159991614Y-84914161D01*
X159848757Y-84961780D01*
X159753519Y-84961780D01*
X159610661Y-84914161D01*
X159515423Y-84818923D01*
X159467804Y-84723685D01*
X159420185Y-84533209D01*
X159420185Y-84390352D01*
X159467804Y-84199876D01*
X159515423Y-84104638D01*
X159610661Y-84009400D01*
X159753519Y-83961780D01*
X159848757Y-83961780D01*
X159991614Y-84009400D01*
X160039233Y-84057019D01*
X160467804Y-84961780D02*
X160467804Y-83961780D01*
X160467804Y-84437971D02*
X161039233Y-84437971D01*
X161039233Y-84961780D02*
X161039233Y-83961780D01*
X161420185Y-83961780D02*
X162039233Y-83961780D01*
X161705900Y-84342733D01*
X161848757Y-84342733D01*
X161943995Y-84390352D01*
X161991614Y-84437971D01*
X162039233Y-84533209D01*
X162039233Y-84771304D01*
X161991614Y-84866542D01*
X161943995Y-84914161D01*
X161848757Y-84961780D01*
X161563042Y-84961780D01*
X161467804Y-84914161D01*
X161420185Y-84866542D01*
X162372566Y-83961780D02*
X162991614Y-83961780D01*
X162658280Y-84342733D01*
X162801138Y-84342733D01*
X162896376Y-84390352D01*
X162943995Y-84437971D01*
X162991614Y-84533209D01*
X162991614Y-84771304D01*
X162943995Y-84866542D01*
X162896376Y-84914161D01*
X162801138Y-84961780D01*
X162515423Y-84961780D01*
X162420185Y-84914161D01*
X162372566Y-84866542D01*
X163610661Y-83961780D02*
X163705900Y-83961780D01*
X163801138Y-84009400D01*
X163848757Y-84057019D01*
X163896376Y-84152257D01*
X163943995Y-84342733D01*
X163943995Y-84580828D01*
X163896376Y-84771304D01*
X163848757Y-84866542D01*
X163801138Y-84914161D01*
X163705900Y-84961780D01*
X163610661Y-84961780D01*
X163515423Y-84914161D01*
X163467804Y-84866542D01*
X163420185Y-84771304D01*
X163372566Y-84580828D01*
X163372566Y-84342733D01*
X163420185Y-84152257D01*
X163467804Y-84057019D01*
X163515423Y-84009400D01*
X163610661Y-83961780D01*
X164372566Y-84961780D02*
X164372566Y-83961780D01*
X164943995Y-84961780D01*
X164943995Y-83961780D01*
X161459233Y-87372733D02*
X161459233Y-88166066D01*
X161505900Y-88259400D01*
X161552566Y-88306066D01*
X161645900Y-88352733D01*
X161832566Y-88352733D01*
X161925900Y-88306066D01*
X161972566Y-88259400D01*
X162019233Y-88166066D01*
X162019233Y-87372733D01*
X162439233Y-87466066D02*
X162485900Y-87419400D01*
X162579233Y-87372733D01*
X162812566Y-87372733D01*
X162905900Y-87419400D01*
X162952566Y-87466066D01*
X162999233Y-87559400D01*
X162999233Y-87652733D01*
X162952566Y-87792733D01*
X162392566Y-88352733D01*
X162999233Y-88352733D01*
X172742019Y-98918161D02*
X172646781Y-98870541D01*
X172503923Y-98870541D01*
X172361066Y-98918161D01*
X172265828Y-99013399D01*
X172218209Y-99108637D01*
X172170590Y-99299113D01*
X172170590Y-99441970D01*
X172218209Y-99632446D01*
X172265828Y-99727684D01*
X172361066Y-99822922D01*
X172503923Y-99870541D01*
X172599161Y-99870541D01*
X172742019Y-99822922D01*
X172789638Y-99775303D01*
X172789638Y-99441970D01*
X172599161Y-99441970D01*
X173789638Y-99870541D02*
X173456304Y-99394351D01*
X173218209Y-99870541D02*
X173218209Y-98870541D01*
X173599161Y-98870541D01*
X173694400Y-98918161D01*
X173742019Y-98965780D01*
X173789638Y-99061018D01*
X173789638Y-99203875D01*
X173742019Y-99299113D01*
X173694400Y-99346732D01*
X173599161Y-99394351D01*
X173218209Y-99394351D01*
X174218209Y-99346732D02*
X174551542Y-99346732D01*
X174694400Y-99870541D02*
X174218209Y-99870541D01*
X174218209Y-98870541D01*
X174694400Y-98870541D01*
X175122971Y-99346732D02*
X175456304Y-99346732D01*
X175599161Y-99870541D02*
X175122971Y-99870541D01*
X175122971Y-98870541D01*
X175599161Y-98870541D01*
X176027733Y-99870541D02*
X176027733Y-98870541D01*
X176599161Y-99870541D01*
X176599161Y-98870541D01*
X178313447Y-99870541D02*
X177837257Y-99870541D01*
X177837257Y-98870541D01*
X178646781Y-99346732D02*
X178980114Y-99346732D01*
X179122971Y-99870541D02*
X178646781Y-99870541D01*
X178646781Y-98870541D01*
X179122971Y-98870541D01*
X179551542Y-99870541D02*
X179551542Y-98870541D01*
X179789638Y-98870541D01*
X179932495Y-98918161D01*
X180027733Y-99013399D01*
X180075352Y-99108637D01*
X180122971Y-99299113D01*
X180122971Y-99441970D01*
X180075352Y-99632446D01*
X180027733Y-99727684D01*
X179932495Y-99822922D01*
X179789638Y-99870541D01*
X179551542Y-99870541D01*
D12*
X175556304Y-97960065D02*
X175556304Y-97160065D01*
X175746781Y-97160065D01*
X175861066Y-97198161D01*
X175937257Y-97274351D01*
X175975352Y-97350541D01*
X176013447Y-97502922D01*
X176013447Y-97617208D01*
X175975352Y-97769589D01*
X175937257Y-97845780D01*
X175861066Y-97921970D01*
X175746781Y-97960065D01*
X175556304Y-97960065D01*
X176280114Y-97160065D02*
X176775352Y-97160065D01*
X176508685Y-97464827D01*
X176622971Y-97464827D01*
X176699161Y-97502922D01*
X176737257Y-97541018D01*
X176775352Y-97617208D01*
X176775352Y-97807684D01*
X176737257Y-97883875D01*
X176699161Y-97921970D01*
X176622971Y-97960065D01*
X176394400Y-97960065D01*
X176318209Y-97921970D01*
X176280114Y-97883875D01*
D11*
X176241304Y-103210541D02*
X175907971Y-102734351D01*
X175669876Y-103210541D02*
X175669876Y-102210541D01*
X176050828Y-102210541D01*
X176146066Y-102258161D01*
X176193685Y-102305780D01*
X176241304Y-102401018D01*
X176241304Y-102543875D01*
X176193685Y-102639113D01*
X176146066Y-102686732D01*
X176050828Y-102734351D01*
X175669876Y-102734351D01*
D12*
X175798447Y-101300065D02*
X175531781Y-100919113D01*
X175341304Y-101300065D02*
X175341304Y-100500065D01*
X175646066Y-100500065D01*
X175722257Y-100538161D01*
X175760352Y-100576256D01*
X175798447Y-100652446D01*
X175798447Y-100766732D01*
X175760352Y-100842922D01*
X175722257Y-100881018D01*
X175646066Y-100919113D01*
X175341304Y-100919113D01*
X176522257Y-100500065D02*
X176141304Y-100500065D01*
X176103209Y-100881018D01*
X176141304Y-100842922D01*
X176217495Y-100804827D01*
X176407971Y-100804827D01*
X176484161Y-100842922D01*
X176522257Y-100881018D01*
X176560352Y-100957208D01*
X176560352Y-101147684D01*
X176522257Y-101223875D01*
X176484161Y-101261970D01*
X176407971Y-101300065D01*
X176217495Y-101300065D01*
X176141304Y-101261970D01*
X176103209Y-101223875D01*
D11*
X156696920Y-95881540D02*
X156125492Y-95881540D01*
X156411206Y-95881540D02*
X156411206Y-94881540D01*
X156315968Y-95024398D01*
X156220730Y-95119636D01*
X156125492Y-95167255D01*
X157315968Y-94881540D02*
X157411206Y-94881540D01*
X157506444Y-94929160D01*
X157554063Y-94976779D01*
X157601682Y-95072017D01*
X157649301Y-95262493D01*
X157649301Y-95500588D01*
X157601682Y-95691064D01*
X157554063Y-95786302D01*
X157506444Y-95833921D01*
X157411206Y-95881540D01*
X157315968Y-95881540D01*
X157220730Y-95833921D01*
X157173111Y-95786302D01*
X157125492Y-95691064D01*
X157077873Y-95500588D01*
X157077873Y-95262493D01*
X157125492Y-95072017D01*
X157173111Y-94976779D01*
X157220730Y-94929160D01*
X157315968Y-94881540D01*
X158268349Y-94881540D02*
X158363587Y-94881540D01*
X158458825Y-94929160D01*
X158506444Y-94976779D01*
X158554063Y-95072017D01*
X158601682Y-95262493D01*
X158601682Y-95500588D01*
X158554063Y-95691064D01*
X158506444Y-95786302D01*
X158458825Y-95833921D01*
X158363587Y-95881540D01*
X158268349Y-95881540D01*
X158173111Y-95833921D01*
X158125492Y-95786302D01*
X158077873Y-95691064D01*
X158030254Y-95500588D01*
X158030254Y-95262493D01*
X158077873Y-95072017D01*
X158125492Y-94976779D01*
X158173111Y-94929160D01*
X158268349Y-94881540D01*
X159030254Y-95214874D02*
X159030254Y-95881540D01*
X159030254Y-95310112D02*
X159077873Y-95262493D01*
X159173111Y-95214874D01*
X159315968Y-95214874D01*
X159411206Y-95262493D01*
X159458825Y-95357731D01*
X159458825Y-95881540D01*
X160268349Y-95357731D02*
X159935016Y-95357731D01*
X159935016Y-95881540D02*
X159935016Y-94881540D01*
X160411206Y-94881540D01*
D12*
X158111206Y-93894874D02*
X158073111Y-93932969D01*
X157958825Y-93971064D01*
X157882635Y-93971064D01*
X157768349Y-93932969D01*
X157692159Y-93856779D01*
X157654063Y-93780588D01*
X157615968Y-93628207D01*
X157615968Y-93513921D01*
X157654063Y-93361540D01*
X157692159Y-93285350D01*
X157768349Y-93209160D01*
X157882635Y-93171064D01*
X157958825Y-93171064D01*
X158073111Y-93209160D01*
X158111206Y-93247255D01*
X158835016Y-93171064D02*
X158454063Y-93171064D01*
X158415968Y-93552017D01*
X158454063Y-93513921D01*
X158530254Y-93475826D01*
X158720730Y-93475826D01*
X158796920Y-93513921D01*
X158835016Y-93552017D01*
X158873111Y-93628207D01*
X158873111Y-93818683D01*
X158835016Y-93894874D01*
X158796920Y-93932969D01*
X158720730Y-93971064D01*
X158530254Y-93971064D01*
X158454063Y-93932969D01*
X158415968Y-93894874D01*
D11*
X143239840Y-86391358D02*
X143239840Y-86962786D01*
X143239840Y-86677072D02*
X142239840Y-86677072D01*
X142382698Y-86772310D01*
X142477936Y-86867548D01*
X142525555Y-86962786D01*
X142573174Y-85534215D02*
X143239840Y-85534215D01*
X142573174Y-85962786D02*
X143096983Y-85962786D01*
X143192221Y-85915167D01*
X143239840Y-85819929D01*
X143239840Y-85677072D01*
X143192221Y-85581834D01*
X143144602Y-85534215D01*
X142716031Y-84724691D02*
X142716031Y-85058024D01*
X143239840Y-85058024D02*
X142239840Y-85058024D01*
X142239840Y-84581834D01*
D12*
X141253174Y-85929453D02*
X141291269Y-85967548D01*
X141329364Y-86081834D01*
X141329364Y-86158024D01*
X141291269Y-86272310D01*
X141215079Y-86348500D01*
X141138888Y-86386596D01*
X140986507Y-86424691D01*
X140872221Y-86424691D01*
X140719840Y-86386596D01*
X140643650Y-86348500D01*
X140567460Y-86272310D01*
X140529364Y-86158024D01*
X140529364Y-86081834D01*
X140567460Y-85967548D01*
X140605555Y-85929453D01*
X140529364Y-85243739D02*
X140529364Y-85396120D01*
X140567460Y-85472310D01*
X140605555Y-85510405D01*
X140719840Y-85586596D01*
X140872221Y-85624691D01*
X141176983Y-85624691D01*
X141253174Y-85586596D01*
X141291269Y-85548500D01*
X141329364Y-85472310D01*
X141329364Y-85319929D01*
X141291269Y-85243739D01*
X141253174Y-85205643D01*
X141176983Y-85167548D01*
X140986507Y-85167548D01*
X140910317Y-85205643D01*
X140872221Y-85243739D01*
X140834126Y-85319929D01*
X140834126Y-85472310D01*
X140872221Y-85548500D01*
X140910317Y-85586596D01*
X140986507Y-85624691D01*
D11*
X143092661Y-82096000D02*
X143664090Y-82096000D01*
X143378376Y-83096000D02*
X143378376Y-82096000D01*
X144473614Y-83096000D02*
X143997423Y-83096000D01*
X143997423Y-82096000D01*
X144664090Y-82096000D02*
X144997423Y-83096000D01*
X145330757Y-82096000D01*
X146187900Y-83096000D02*
X145616471Y-83096000D01*
X145902185Y-83096000D02*
X145902185Y-82096000D01*
X145806947Y-82238858D01*
X145711709Y-82334096D01*
X145616471Y-82381715D01*
X147140280Y-83096000D02*
X146568852Y-83096000D01*
X146854566Y-83096000D02*
X146854566Y-82096000D01*
X146759328Y-82238858D01*
X146664090Y-82334096D01*
X146568852Y-82381715D01*
X148092661Y-83096000D02*
X147521233Y-83096000D01*
X147806947Y-83096000D02*
X147806947Y-82096000D01*
X147711709Y-82238858D01*
X147616471Y-82334096D01*
X147521233Y-82381715D01*
X148425995Y-82096000D02*
X149092661Y-82096000D01*
X148664090Y-83096000D01*
X149473614Y-82715048D02*
X150235519Y-82715048D01*
X150616471Y-82096000D02*
X151235519Y-82096000D01*
X150902185Y-82476953D01*
X151045042Y-82476953D01*
X151140280Y-82524572D01*
X151187900Y-82572191D01*
X151235519Y-82667429D01*
X151235519Y-82905524D01*
X151187900Y-83000762D01*
X151140280Y-83048381D01*
X151045042Y-83096000D01*
X150759328Y-83096000D01*
X150664090Y-83048381D01*
X150616471Y-83000762D01*
X151568852Y-82096000D02*
X152187900Y-82096000D01*
X151854566Y-82476953D01*
X151997423Y-82476953D01*
X152092661Y-82524572D01*
X152140280Y-82572191D01*
X152187900Y-82667429D01*
X152187900Y-82905524D01*
X152140280Y-83000762D01*
X152092661Y-83048381D01*
X151997423Y-83096000D01*
X151711709Y-83096000D01*
X151616471Y-83048381D01*
X151568852Y-83000762D01*
D12*
X147249804Y-87753143D02*
X147897423Y-87753143D01*
X147973614Y-87715048D01*
X148011709Y-87676953D01*
X148049804Y-87600762D01*
X148049804Y-87448381D01*
X148011709Y-87372191D01*
X147973614Y-87334096D01*
X147897423Y-87296000D01*
X147249804Y-87296000D01*
X147249804Y-86991239D02*
X147249804Y-86496000D01*
X147554566Y-86762667D01*
X147554566Y-86648381D01*
X147592661Y-86572191D01*
X147630757Y-86534096D01*
X147706947Y-86496000D01*
X147897423Y-86496000D01*
X147973614Y-86534096D01*
X148011709Y-86572191D01*
X148049804Y-86648381D01*
X148049804Y-86876953D01*
X148011709Y-86953143D01*
X147973614Y-86991239D01*
D11*
X156645960Y-83833578D02*
X156645960Y-84405006D01*
X156645960Y-84119292D02*
X155645960Y-84119292D01*
X155788818Y-84214530D01*
X155884056Y-84309768D01*
X155931675Y-84405006D01*
X155979294Y-82976435D02*
X156645960Y-82976435D01*
X155979294Y-83405006D02*
X156503103Y-83405006D01*
X156598341Y-83357387D01*
X156645960Y-83262149D01*
X156645960Y-83119292D01*
X156598341Y-83024054D01*
X156550722Y-82976435D01*
X156122151Y-82166911D02*
X156122151Y-82500244D01*
X156645960Y-82500244D02*
X155645960Y-82500244D01*
X155645960Y-82024054D01*
D12*
X154659294Y-83371673D02*
X154697389Y-83409768D01*
X154735484Y-83524054D01*
X154735484Y-83600244D01*
X154697389Y-83714530D01*
X154621199Y-83790720D01*
X154545008Y-83828816D01*
X154392627Y-83866911D01*
X154278341Y-83866911D01*
X154125960Y-83828816D01*
X154049770Y-83790720D01*
X153973580Y-83714530D01*
X153935484Y-83600244D01*
X153935484Y-83524054D01*
X153973580Y-83409768D01*
X154011675Y-83371673D01*
X154202151Y-82685959D02*
X154735484Y-82685959D01*
X153897389Y-82876435D02*
X154468818Y-83066911D01*
X154468818Y-82571673D01*
M02*
