G04 #@! TF.GenerationSoftware,KiCad,Pcbnew,(5.1.2)-1*
G04 #@! TF.CreationDate,2019-07-17T08:56:34-05:00*
G04 #@! TF.ProjectId,8266-dev,38323636-2d64-4657-962e-6b696361645f,rev?*
G04 #@! TF.SameCoordinates,Original*
G04 #@! TF.FileFunction,Soldermask,Top*
G04 #@! TF.FilePolarity,Negative*
%FSLAX46Y46*%
G04 Gerber Fmt 4.6, Leading zero omitted, Abs format (unit mm)*
G04 Created by KiCad (PCBNEW (5.1.2)-1) date 2019-07-17 08:56:34*
%MOMM*%
%LPD*%
G04 APERTURE LIST*
%ADD10R,8.400000X5.960000*%
%ADD11R,3.000000X5.960000*%
%ADD12C,0.100000*%
%ADD13C,1.650000*%
%ADD14R,1.800000X2.500000*%
%ADD15R,2.400000X1.600000*%
%ADD16R,1.500000X2.100000*%
%ADD17C,2.500000*%
%ADD18R,2.100000X2.100000*%
%ADD19O,2.100000X2.100000*%
G04 APERTURE END LIST*
D10*
X101168200Y-127170180D03*
D11*
X113073200Y-127170180D03*
X89263200Y-127170180D03*
D12*
G36*
X113667646Y-68310309D02*
G01*
X113699680Y-68315061D01*
X113731094Y-68322930D01*
X113761586Y-68333840D01*
X113790861Y-68347686D01*
X113818638Y-68364335D01*
X113844650Y-68383627D01*
X113868645Y-68405375D01*
X113890393Y-68429370D01*
X113909685Y-68455382D01*
X113926334Y-68483159D01*
X113940180Y-68512434D01*
X113951090Y-68542926D01*
X113958959Y-68574340D01*
X113963711Y-68606374D01*
X113965300Y-68638720D01*
X113965300Y-69628720D01*
X113963711Y-69661066D01*
X113958959Y-69693100D01*
X113951090Y-69724514D01*
X113940180Y-69755006D01*
X113926334Y-69784281D01*
X113909685Y-69812058D01*
X113890393Y-69838070D01*
X113868645Y-69862065D01*
X113844650Y-69883813D01*
X113818638Y-69903105D01*
X113790861Y-69919754D01*
X113761586Y-69933600D01*
X113731094Y-69944510D01*
X113699680Y-69952379D01*
X113667646Y-69957131D01*
X113635300Y-69958720D01*
X112145300Y-69958720D01*
X112112954Y-69957131D01*
X112080920Y-69952379D01*
X112049506Y-69944510D01*
X112019014Y-69933600D01*
X111989739Y-69919754D01*
X111961962Y-69903105D01*
X111935950Y-69883813D01*
X111911955Y-69862065D01*
X111890207Y-69838070D01*
X111870915Y-69812058D01*
X111854266Y-69784281D01*
X111840420Y-69755006D01*
X111829510Y-69724514D01*
X111821641Y-69693100D01*
X111816889Y-69661066D01*
X111815300Y-69628720D01*
X111815300Y-68638720D01*
X111816889Y-68606374D01*
X111821641Y-68574340D01*
X111829510Y-68542926D01*
X111840420Y-68512434D01*
X111854266Y-68483159D01*
X111870915Y-68455382D01*
X111890207Y-68429370D01*
X111911955Y-68405375D01*
X111935950Y-68383627D01*
X111961962Y-68364335D01*
X111989739Y-68347686D01*
X112019014Y-68333840D01*
X112049506Y-68322930D01*
X112080920Y-68315061D01*
X112112954Y-68310309D01*
X112145300Y-68308720D01*
X113635300Y-68308720D01*
X113667646Y-68310309D01*
X113667646Y-68310309D01*
G37*
D13*
X112890300Y-69133720D03*
D12*
G36*
X113667646Y-71110309D02*
G01*
X113699680Y-71115061D01*
X113731094Y-71122930D01*
X113761586Y-71133840D01*
X113790861Y-71147686D01*
X113818638Y-71164335D01*
X113844650Y-71183627D01*
X113868645Y-71205375D01*
X113890393Y-71229370D01*
X113909685Y-71255382D01*
X113926334Y-71283159D01*
X113940180Y-71312434D01*
X113951090Y-71342926D01*
X113958959Y-71374340D01*
X113963711Y-71406374D01*
X113965300Y-71438720D01*
X113965300Y-72428720D01*
X113963711Y-72461066D01*
X113958959Y-72493100D01*
X113951090Y-72524514D01*
X113940180Y-72555006D01*
X113926334Y-72584281D01*
X113909685Y-72612058D01*
X113890393Y-72638070D01*
X113868645Y-72662065D01*
X113844650Y-72683813D01*
X113818638Y-72703105D01*
X113790861Y-72719754D01*
X113761586Y-72733600D01*
X113731094Y-72744510D01*
X113699680Y-72752379D01*
X113667646Y-72757131D01*
X113635300Y-72758720D01*
X112145300Y-72758720D01*
X112112954Y-72757131D01*
X112080920Y-72752379D01*
X112049506Y-72744510D01*
X112019014Y-72733600D01*
X111989739Y-72719754D01*
X111961962Y-72703105D01*
X111935950Y-72683813D01*
X111911955Y-72662065D01*
X111890207Y-72638070D01*
X111870915Y-72612058D01*
X111854266Y-72584281D01*
X111840420Y-72555006D01*
X111829510Y-72524514D01*
X111821641Y-72493100D01*
X111816889Y-72461066D01*
X111815300Y-72428720D01*
X111815300Y-71438720D01*
X111816889Y-71406374D01*
X111821641Y-71374340D01*
X111829510Y-71342926D01*
X111840420Y-71312434D01*
X111854266Y-71283159D01*
X111870915Y-71255382D01*
X111890207Y-71229370D01*
X111911955Y-71205375D01*
X111935950Y-71183627D01*
X111961962Y-71164335D01*
X111989739Y-71147686D01*
X112019014Y-71133840D01*
X112049506Y-71122930D01*
X112080920Y-71115061D01*
X112112954Y-71110309D01*
X112145300Y-71108720D01*
X113635300Y-71108720D01*
X113667646Y-71110309D01*
X113667646Y-71110309D01*
G37*
D13*
X112890300Y-71933720D03*
D12*
G36*
X115574106Y-54214769D02*
G01*
X115606140Y-54219521D01*
X115637554Y-54227390D01*
X115668046Y-54238300D01*
X115697321Y-54252146D01*
X115725098Y-54268795D01*
X115751110Y-54288087D01*
X115775105Y-54309835D01*
X115796853Y-54333830D01*
X115816145Y-54359842D01*
X115832794Y-54387619D01*
X115846640Y-54416894D01*
X115857550Y-54447386D01*
X115865419Y-54478800D01*
X115870171Y-54510834D01*
X115871760Y-54543180D01*
X115871760Y-56033180D01*
X115870171Y-56065526D01*
X115865419Y-56097560D01*
X115857550Y-56128974D01*
X115846640Y-56159466D01*
X115832794Y-56188741D01*
X115816145Y-56216518D01*
X115796853Y-56242530D01*
X115775105Y-56266525D01*
X115751110Y-56288273D01*
X115725098Y-56307565D01*
X115697321Y-56324214D01*
X115668046Y-56338060D01*
X115637554Y-56348970D01*
X115606140Y-56356839D01*
X115574106Y-56361591D01*
X115541760Y-56363180D01*
X114551760Y-56363180D01*
X114519414Y-56361591D01*
X114487380Y-56356839D01*
X114455966Y-56348970D01*
X114425474Y-56338060D01*
X114396199Y-56324214D01*
X114368422Y-56307565D01*
X114342410Y-56288273D01*
X114318415Y-56266525D01*
X114296667Y-56242530D01*
X114277375Y-56216518D01*
X114260726Y-56188741D01*
X114246880Y-56159466D01*
X114235970Y-56128974D01*
X114228101Y-56097560D01*
X114223349Y-56065526D01*
X114221760Y-56033180D01*
X114221760Y-54543180D01*
X114223349Y-54510834D01*
X114228101Y-54478800D01*
X114235970Y-54447386D01*
X114246880Y-54416894D01*
X114260726Y-54387619D01*
X114277375Y-54359842D01*
X114296667Y-54333830D01*
X114318415Y-54309835D01*
X114342410Y-54288087D01*
X114368422Y-54268795D01*
X114396199Y-54252146D01*
X114425474Y-54238300D01*
X114455966Y-54227390D01*
X114487380Y-54219521D01*
X114519414Y-54214769D01*
X114551760Y-54213180D01*
X115541760Y-54213180D01*
X115574106Y-54214769D01*
X115574106Y-54214769D01*
G37*
D13*
X115046760Y-55288180D03*
D12*
G36*
X112774106Y-54214769D02*
G01*
X112806140Y-54219521D01*
X112837554Y-54227390D01*
X112868046Y-54238300D01*
X112897321Y-54252146D01*
X112925098Y-54268795D01*
X112951110Y-54288087D01*
X112975105Y-54309835D01*
X112996853Y-54333830D01*
X113016145Y-54359842D01*
X113032794Y-54387619D01*
X113046640Y-54416894D01*
X113057550Y-54447386D01*
X113065419Y-54478800D01*
X113070171Y-54510834D01*
X113071760Y-54543180D01*
X113071760Y-56033180D01*
X113070171Y-56065526D01*
X113065419Y-56097560D01*
X113057550Y-56128974D01*
X113046640Y-56159466D01*
X113032794Y-56188741D01*
X113016145Y-56216518D01*
X112996853Y-56242530D01*
X112975105Y-56266525D01*
X112951110Y-56288273D01*
X112925098Y-56307565D01*
X112897321Y-56324214D01*
X112868046Y-56338060D01*
X112837554Y-56348970D01*
X112806140Y-56356839D01*
X112774106Y-56361591D01*
X112741760Y-56363180D01*
X111751760Y-56363180D01*
X111719414Y-56361591D01*
X111687380Y-56356839D01*
X111655966Y-56348970D01*
X111625474Y-56338060D01*
X111596199Y-56324214D01*
X111568422Y-56307565D01*
X111542410Y-56288273D01*
X111518415Y-56266525D01*
X111496667Y-56242530D01*
X111477375Y-56216518D01*
X111460726Y-56188741D01*
X111446880Y-56159466D01*
X111435970Y-56128974D01*
X111428101Y-56097560D01*
X111423349Y-56065526D01*
X111421760Y-56033180D01*
X111421760Y-54543180D01*
X111423349Y-54510834D01*
X111428101Y-54478800D01*
X111435970Y-54447386D01*
X111446880Y-54416894D01*
X111460726Y-54387619D01*
X111477375Y-54359842D01*
X111496667Y-54333830D01*
X111518415Y-54309835D01*
X111542410Y-54288087D01*
X111568422Y-54268795D01*
X111596199Y-54252146D01*
X111625474Y-54238300D01*
X111655966Y-54227390D01*
X111687380Y-54219521D01*
X111719414Y-54214769D01*
X111751760Y-54213180D01*
X112741760Y-54213180D01*
X112774106Y-54214769D01*
X112774106Y-54214769D01*
G37*
D13*
X112246760Y-55288180D03*
D12*
G36*
X112606466Y-58088269D02*
G01*
X112638500Y-58093021D01*
X112669914Y-58100890D01*
X112700406Y-58111800D01*
X112729681Y-58125646D01*
X112757458Y-58142295D01*
X112783470Y-58161587D01*
X112807465Y-58183335D01*
X112829213Y-58207330D01*
X112848505Y-58233342D01*
X112865154Y-58261119D01*
X112879000Y-58290394D01*
X112889910Y-58320886D01*
X112897779Y-58352300D01*
X112902531Y-58384334D01*
X112904120Y-58416680D01*
X112904120Y-59906680D01*
X112902531Y-59939026D01*
X112897779Y-59971060D01*
X112889910Y-60002474D01*
X112879000Y-60032966D01*
X112865154Y-60062241D01*
X112848505Y-60090018D01*
X112829213Y-60116030D01*
X112807465Y-60140025D01*
X112783470Y-60161773D01*
X112757458Y-60181065D01*
X112729681Y-60197714D01*
X112700406Y-60211560D01*
X112669914Y-60222470D01*
X112638500Y-60230339D01*
X112606466Y-60235091D01*
X112574120Y-60236680D01*
X111584120Y-60236680D01*
X111551774Y-60235091D01*
X111519740Y-60230339D01*
X111488326Y-60222470D01*
X111457834Y-60211560D01*
X111428559Y-60197714D01*
X111400782Y-60181065D01*
X111374770Y-60161773D01*
X111350775Y-60140025D01*
X111329027Y-60116030D01*
X111309735Y-60090018D01*
X111293086Y-60062241D01*
X111279240Y-60032966D01*
X111268330Y-60002474D01*
X111260461Y-59971060D01*
X111255709Y-59939026D01*
X111254120Y-59906680D01*
X111254120Y-58416680D01*
X111255709Y-58384334D01*
X111260461Y-58352300D01*
X111268330Y-58320886D01*
X111279240Y-58290394D01*
X111293086Y-58261119D01*
X111309735Y-58233342D01*
X111329027Y-58207330D01*
X111350775Y-58183335D01*
X111374770Y-58161587D01*
X111400782Y-58142295D01*
X111428559Y-58125646D01*
X111457834Y-58111800D01*
X111488326Y-58100890D01*
X111519740Y-58093021D01*
X111551774Y-58088269D01*
X111584120Y-58086680D01*
X112574120Y-58086680D01*
X112606466Y-58088269D01*
X112606466Y-58088269D01*
G37*
D13*
X112079120Y-59161680D03*
D12*
G36*
X115406466Y-58088269D02*
G01*
X115438500Y-58093021D01*
X115469914Y-58100890D01*
X115500406Y-58111800D01*
X115529681Y-58125646D01*
X115557458Y-58142295D01*
X115583470Y-58161587D01*
X115607465Y-58183335D01*
X115629213Y-58207330D01*
X115648505Y-58233342D01*
X115665154Y-58261119D01*
X115679000Y-58290394D01*
X115689910Y-58320886D01*
X115697779Y-58352300D01*
X115702531Y-58384334D01*
X115704120Y-58416680D01*
X115704120Y-59906680D01*
X115702531Y-59939026D01*
X115697779Y-59971060D01*
X115689910Y-60002474D01*
X115679000Y-60032966D01*
X115665154Y-60062241D01*
X115648505Y-60090018D01*
X115629213Y-60116030D01*
X115607465Y-60140025D01*
X115583470Y-60161773D01*
X115557458Y-60181065D01*
X115529681Y-60197714D01*
X115500406Y-60211560D01*
X115469914Y-60222470D01*
X115438500Y-60230339D01*
X115406466Y-60235091D01*
X115374120Y-60236680D01*
X114384120Y-60236680D01*
X114351774Y-60235091D01*
X114319740Y-60230339D01*
X114288326Y-60222470D01*
X114257834Y-60211560D01*
X114228559Y-60197714D01*
X114200782Y-60181065D01*
X114174770Y-60161773D01*
X114150775Y-60140025D01*
X114129027Y-60116030D01*
X114109735Y-60090018D01*
X114093086Y-60062241D01*
X114079240Y-60032966D01*
X114068330Y-60002474D01*
X114060461Y-59971060D01*
X114055709Y-59939026D01*
X114054120Y-59906680D01*
X114054120Y-58416680D01*
X114055709Y-58384334D01*
X114060461Y-58352300D01*
X114068330Y-58320886D01*
X114079240Y-58290394D01*
X114093086Y-58261119D01*
X114109735Y-58233342D01*
X114129027Y-58207330D01*
X114150775Y-58183335D01*
X114174770Y-58161587D01*
X114200782Y-58142295D01*
X114228559Y-58125646D01*
X114257834Y-58111800D01*
X114288326Y-58100890D01*
X114319740Y-58093021D01*
X114351774Y-58088269D01*
X114384120Y-58086680D01*
X115374120Y-58086680D01*
X115406466Y-58088269D01*
X115406466Y-58088269D01*
G37*
D13*
X114879120Y-59161680D03*
D12*
G36*
X163836646Y-50285389D02*
G01*
X163868680Y-50290141D01*
X163900094Y-50298010D01*
X163930586Y-50308920D01*
X163959861Y-50322766D01*
X163987638Y-50339415D01*
X164013650Y-50358707D01*
X164037645Y-50380455D01*
X164059393Y-50404450D01*
X164078685Y-50430462D01*
X164095334Y-50458239D01*
X164109180Y-50487514D01*
X164120090Y-50518006D01*
X164127959Y-50549420D01*
X164132711Y-50581454D01*
X164134300Y-50613800D01*
X164134300Y-52103800D01*
X164132711Y-52136146D01*
X164127959Y-52168180D01*
X164120090Y-52199594D01*
X164109180Y-52230086D01*
X164095334Y-52259361D01*
X164078685Y-52287138D01*
X164059393Y-52313150D01*
X164037645Y-52337145D01*
X164013650Y-52358893D01*
X163987638Y-52378185D01*
X163959861Y-52394834D01*
X163930586Y-52408680D01*
X163900094Y-52419590D01*
X163868680Y-52427459D01*
X163836646Y-52432211D01*
X163804300Y-52433800D01*
X162814300Y-52433800D01*
X162781954Y-52432211D01*
X162749920Y-52427459D01*
X162718506Y-52419590D01*
X162688014Y-52408680D01*
X162658739Y-52394834D01*
X162630962Y-52378185D01*
X162604950Y-52358893D01*
X162580955Y-52337145D01*
X162559207Y-52313150D01*
X162539915Y-52287138D01*
X162523266Y-52259361D01*
X162509420Y-52230086D01*
X162498510Y-52199594D01*
X162490641Y-52168180D01*
X162485889Y-52136146D01*
X162484300Y-52103800D01*
X162484300Y-50613800D01*
X162485889Y-50581454D01*
X162490641Y-50549420D01*
X162498510Y-50518006D01*
X162509420Y-50487514D01*
X162523266Y-50458239D01*
X162539915Y-50430462D01*
X162559207Y-50404450D01*
X162580955Y-50380455D01*
X162604950Y-50358707D01*
X162630962Y-50339415D01*
X162658739Y-50322766D01*
X162688014Y-50308920D01*
X162718506Y-50298010D01*
X162749920Y-50290141D01*
X162781954Y-50285389D01*
X162814300Y-50283800D01*
X163804300Y-50283800D01*
X163836646Y-50285389D01*
X163836646Y-50285389D01*
G37*
D13*
X163309300Y-51358800D03*
D12*
G36*
X161036646Y-50285389D02*
G01*
X161068680Y-50290141D01*
X161100094Y-50298010D01*
X161130586Y-50308920D01*
X161159861Y-50322766D01*
X161187638Y-50339415D01*
X161213650Y-50358707D01*
X161237645Y-50380455D01*
X161259393Y-50404450D01*
X161278685Y-50430462D01*
X161295334Y-50458239D01*
X161309180Y-50487514D01*
X161320090Y-50518006D01*
X161327959Y-50549420D01*
X161332711Y-50581454D01*
X161334300Y-50613800D01*
X161334300Y-52103800D01*
X161332711Y-52136146D01*
X161327959Y-52168180D01*
X161320090Y-52199594D01*
X161309180Y-52230086D01*
X161295334Y-52259361D01*
X161278685Y-52287138D01*
X161259393Y-52313150D01*
X161237645Y-52337145D01*
X161213650Y-52358893D01*
X161187638Y-52378185D01*
X161159861Y-52394834D01*
X161130586Y-52408680D01*
X161100094Y-52419590D01*
X161068680Y-52427459D01*
X161036646Y-52432211D01*
X161004300Y-52433800D01*
X160014300Y-52433800D01*
X159981954Y-52432211D01*
X159949920Y-52427459D01*
X159918506Y-52419590D01*
X159888014Y-52408680D01*
X159858739Y-52394834D01*
X159830962Y-52378185D01*
X159804950Y-52358893D01*
X159780955Y-52337145D01*
X159759207Y-52313150D01*
X159739915Y-52287138D01*
X159723266Y-52259361D01*
X159709420Y-52230086D01*
X159698510Y-52199594D01*
X159690641Y-52168180D01*
X159685889Y-52136146D01*
X159684300Y-52103800D01*
X159684300Y-50613800D01*
X159685889Y-50581454D01*
X159690641Y-50549420D01*
X159698510Y-50518006D01*
X159709420Y-50487514D01*
X159723266Y-50458239D01*
X159739915Y-50430462D01*
X159759207Y-50404450D01*
X159780955Y-50380455D01*
X159804950Y-50358707D01*
X159830962Y-50339415D01*
X159858739Y-50322766D01*
X159888014Y-50308920D01*
X159918506Y-50298010D01*
X159949920Y-50290141D01*
X159981954Y-50285389D01*
X160014300Y-50283800D01*
X161004300Y-50283800D01*
X161036646Y-50285389D01*
X161036646Y-50285389D01*
G37*
D13*
X160509300Y-51358800D03*
D12*
G36*
X153270706Y-66401689D02*
G01*
X153302740Y-66406441D01*
X153334154Y-66414310D01*
X153364646Y-66425220D01*
X153393921Y-66439066D01*
X153421698Y-66455715D01*
X153447710Y-66475007D01*
X153471705Y-66496755D01*
X153493453Y-66520750D01*
X153512745Y-66546762D01*
X153529394Y-66574539D01*
X153543240Y-66603814D01*
X153554150Y-66634306D01*
X153562019Y-66665720D01*
X153566771Y-66697754D01*
X153568360Y-66730100D01*
X153568360Y-68220100D01*
X153566771Y-68252446D01*
X153562019Y-68284480D01*
X153554150Y-68315894D01*
X153543240Y-68346386D01*
X153529394Y-68375661D01*
X153512745Y-68403438D01*
X153493453Y-68429450D01*
X153471705Y-68453445D01*
X153447710Y-68475193D01*
X153421698Y-68494485D01*
X153393921Y-68511134D01*
X153364646Y-68524980D01*
X153334154Y-68535890D01*
X153302740Y-68543759D01*
X153270706Y-68548511D01*
X153238360Y-68550100D01*
X152248360Y-68550100D01*
X152216014Y-68548511D01*
X152183980Y-68543759D01*
X152152566Y-68535890D01*
X152122074Y-68524980D01*
X152092799Y-68511134D01*
X152065022Y-68494485D01*
X152039010Y-68475193D01*
X152015015Y-68453445D01*
X151993267Y-68429450D01*
X151973975Y-68403438D01*
X151957326Y-68375661D01*
X151943480Y-68346386D01*
X151932570Y-68315894D01*
X151924701Y-68284480D01*
X151919949Y-68252446D01*
X151918360Y-68220100D01*
X151918360Y-66730100D01*
X151919949Y-66697754D01*
X151924701Y-66665720D01*
X151932570Y-66634306D01*
X151943480Y-66603814D01*
X151957326Y-66574539D01*
X151973975Y-66546762D01*
X151993267Y-66520750D01*
X152015015Y-66496755D01*
X152039010Y-66475007D01*
X152065022Y-66455715D01*
X152092799Y-66439066D01*
X152122074Y-66425220D01*
X152152566Y-66414310D01*
X152183980Y-66406441D01*
X152216014Y-66401689D01*
X152248360Y-66400100D01*
X153238360Y-66400100D01*
X153270706Y-66401689D01*
X153270706Y-66401689D01*
G37*
D13*
X152743360Y-67475100D03*
D12*
G36*
X150470706Y-66401689D02*
G01*
X150502740Y-66406441D01*
X150534154Y-66414310D01*
X150564646Y-66425220D01*
X150593921Y-66439066D01*
X150621698Y-66455715D01*
X150647710Y-66475007D01*
X150671705Y-66496755D01*
X150693453Y-66520750D01*
X150712745Y-66546762D01*
X150729394Y-66574539D01*
X150743240Y-66603814D01*
X150754150Y-66634306D01*
X150762019Y-66665720D01*
X150766771Y-66697754D01*
X150768360Y-66730100D01*
X150768360Y-68220100D01*
X150766771Y-68252446D01*
X150762019Y-68284480D01*
X150754150Y-68315894D01*
X150743240Y-68346386D01*
X150729394Y-68375661D01*
X150712745Y-68403438D01*
X150693453Y-68429450D01*
X150671705Y-68453445D01*
X150647710Y-68475193D01*
X150621698Y-68494485D01*
X150593921Y-68511134D01*
X150564646Y-68524980D01*
X150534154Y-68535890D01*
X150502740Y-68543759D01*
X150470706Y-68548511D01*
X150438360Y-68550100D01*
X149448360Y-68550100D01*
X149416014Y-68548511D01*
X149383980Y-68543759D01*
X149352566Y-68535890D01*
X149322074Y-68524980D01*
X149292799Y-68511134D01*
X149265022Y-68494485D01*
X149239010Y-68475193D01*
X149215015Y-68453445D01*
X149193267Y-68429450D01*
X149173975Y-68403438D01*
X149157326Y-68375661D01*
X149143480Y-68346386D01*
X149132570Y-68315894D01*
X149124701Y-68284480D01*
X149119949Y-68252446D01*
X149118360Y-68220100D01*
X149118360Y-66730100D01*
X149119949Y-66697754D01*
X149124701Y-66665720D01*
X149132570Y-66634306D01*
X149143480Y-66603814D01*
X149157326Y-66574539D01*
X149173975Y-66546762D01*
X149193267Y-66520750D01*
X149215015Y-66496755D01*
X149239010Y-66475007D01*
X149265022Y-66455715D01*
X149292799Y-66439066D01*
X149322074Y-66425220D01*
X149352566Y-66414310D01*
X149383980Y-66406441D01*
X149416014Y-66401689D01*
X149448360Y-66400100D01*
X150438360Y-66400100D01*
X150470706Y-66401689D01*
X150470706Y-66401689D01*
G37*
D13*
X149943360Y-67475100D03*
D14*
X167055360Y-67813780D03*
X162555360Y-67813780D03*
X162555360Y-58713780D03*
X167055360Y-58713780D03*
D15*
X125486780Y-55171580D03*
X125486780Y-57171580D03*
X125486780Y-59171580D03*
X125486780Y-61171580D03*
X125486780Y-63171580D03*
X125486780Y-65171580D03*
X125486780Y-67171580D03*
X125486780Y-69171580D03*
X140486780Y-69171580D03*
X140486780Y-67171580D03*
X140486780Y-65171580D03*
X140486780Y-63171580D03*
X140486780Y-61171580D03*
X140486780Y-59171580D03*
X140486780Y-57171580D03*
X140486780Y-55171580D03*
D16*
X127986780Y-70671580D03*
X129986780Y-70671580D03*
X131986780Y-70671580D03*
X133986780Y-70671580D03*
X135986780Y-70671580D03*
X137986780Y-70671580D03*
D17*
X165511480Y-126949200D03*
X168011480Y-126949200D03*
X170511480Y-126949200D03*
X173011480Y-126949200D03*
X175511480Y-126949200D03*
X95417640Y-57104280D03*
X95417640Y-59604280D03*
X95417640Y-62104280D03*
X95417640Y-64604280D03*
X95417640Y-67104280D03*
D18*
X153324560Y-127050800D03*
D19*
X150784560Y-127050800D03*
X148244560Y-127050800D03*
X145704560Y-127050800D03*
X143164560Y-127050800D03*
X140624560Y-127050800D03*
D17*
X174919640Y-59194700D03*
X174919640Y-61734700D03*
X174919640Y-64274700D03*
D12*
G36*
X118983866Y-68355569D02*
G01*
X119015900Y-68360321D01*
X119047314Y-68368190D01*
X119077806Y-68379100D01*
X119107081Y-68392946D01*
X119134858Y-68409595D01*
X119160870Y-68428887D01*
X119184865Y-68450635D01*
X119206613Y-68474630D01*
X119225905Y-68500642D01*
X119242554Y-68528419D01*
X119256400Y-68557694D01*
X119267310Y-68588186D01*
X119275179Y-68619600D01*
X119279931Y-68651634D01*
X119281520Y-68683980D01*
X119281520Y-69673980D01*
X119279931Y-69706326D01*
X119275179Y-69738360D01*
X119267310Y-69769774D01*
X119256400Y-69800266D01*
X119242554Y-69829541D01*
X119225905Y-69857318D01*
X119206613Y-69883330D01*
X119184865Y-69907325D01*
X119160870Y-69929073D01*
X119134858Y-69948365D01*
X119107081Y-69965014D01*
X119077806Y-69978860D01*
X119047314Y-69989770D01*
X119015900Y-69997639D01*
X118983866Y-70002391D01*
X118951520Y-70003980D01*
X117461520Y-70003980D01*
X117429174Y-70002391D01*
X117397140Y-69997639D01*
X117365726Y-69989770D01*
X117335234Y-69978860D01*
X117305959Y-69965014D01*
X117278182Y-69948365D01*
X117252170Y-69929073D01*
X117228175Y-69907325D01*
X117206427Y-69883330D01*
X117187135Y-69857318D01*
X117170486Y-69829541D01*
X117156640Y-69800266D01*
X117145730Y-69769774D01*
X117137861Y-69738360D01*
X117133109Y-69706326D01*
X117131520Y-69673980D01*
X117131520Y-68683980D01*
X117133109Y-68651634D01*
X117137861Y-68619600D01*
X117145730Y-68588186D01*
X117156640Y-68557694D01*
X117170486Y-68528419D01*
X117187135Y-68500642D01*
X117206427Y-68474630D01*
X117228175Y-68450635D01*
X117252170Y-68428887D01*
X117278182Y-68409595D01*
X117305959Y-68392946D01*
X117335234Y-68379100D01*
X117365726Y-68368190D01*
X117397140Y-68360321D01*
X117429174Y-68355569D01*
X117461520Y-68353980D01*
X118951520Y-68353980D01*
X118983866Y-68355569D01*
X118983866Y-68355569D01*
G37*
D13*
X118206520Y-69178980D03*
D12*
G36*
X118983866Y-71155569D02*
G01*
X119015900Y-71160321D01*
X119047314Y-71168190D01*
X119077806Y-71179100D01*
X119107081Y-71192946D01*
X119134858Y-71209595D01*
X119160870Y-71228887D01*
X119184865Y-71250635D01*
X119206613Y-71274630D01*
X119225905Y-71300642D01*
X119242554Y-71328419D01*
X119256400Y-71357694D01*
X119267310Y-71388186D01*
X119275179Y-71419600D01*
X119279931Y-71451634D01*
X119281520Y-71483980D01*
X119281520Y-72473980D01*
X119279931Y-72506326D01*
X119275179Y-72538360D01*
X119267310Y-72569774D01*
X119256400Y-72600266D01*
X119242554Y-72629541D01*
X119225905Y-72657318D01*
X119206613Y-72683330D01*
X119184865Y-72707325D01*
X119160870Y-72729073D01*
X119134858Y-72748365D01*
X119107081Y-72765014D01*
X119077806Y-72778860D01*
X119047314Y-72789770D01*
X119015900Y-72797639D01*
X118983866Y-72802391D01*
X118951520Y-72803980D01*
X117461520Y-72803980D01*
X117429174Y-72802391D01*
X117397140Y-72797639D01*
X117365726Y-72789770D01*
X117335234Y-72778860D01*
X117305959Y-72765014D01*
X117278182Y-72748365D01*
X117252170Y-72729073D01*
X117228175Y-72707325D01*
X117206427Y-72683330D01*
X117187135Y-72657318D01*
X117170486Y-72629541D01*
X117156640Y-72600266D01*
X117145730Y-72569774D01*
X117137861Y-72538360D01*
X117133109Y-72506326D01*
X117131520Y-72473980D01*
X117131520Y-71483980D01*
X117133109Y-71451634D01*
X117137861Y-71419600D01*
X117145730Y-71388186D01*
X117156640Y-71357694D01*
X117170486Y-71328419D01*
X117187135Y-71300642D01*
X117206427Y-71274630D01*
X117228175Y-71250635D01*
X117252170Y-71228887D01*
X117278182Y-71209595D01*
X117305959Y-71192946D01*
X117335234Y-71179100D01*
X117365726Y-71168190D01*
X117397140Y-71160321D01*
X117429174Y-71155569D01*
X117461520Y-71153980D01*
X118951520Y-71153980D01*
X118983866Y-71155569D01*
X118983866Y-71155569D01*
G37*
D13*
X118206520Y-71978980D03*
M02*
