G04 #@! TF.GenerationSoftware,KiCad,Pcbnew,(5.1.2)-1*
G04 #@! TF.CreationDate,2019-07-16T22:17:39-05:00*
G04 #@! TF.ProjectId,8266-dev,38323636-2d64-4657-962e-6b696361645f,rev?*
G04 #@! TF.SameCoordinates,Original*
G04 #@! TF.FileFunction,Copper,L2,Bot*
G04 #@! TF.FilePolarity,Positive*
%FSLAX46Y46*%
G04 Gerber Fmt 4.6, Leading zero omitted, Abs format (unit mm)*
G04 Created by KiCad (PCBNEW (5.1.2)-1) date 2019-07-16 22:17:39*
%MOMM*%
%LPD*%
G04 APERTURE LIST*
%ADD10C,2.100000*%
%ADD11R,1.700000X1.700000*%
%ADD12O,1.700000X1.700000*%
%ADD13C,0.600000*%
%ADD14C,0.250000*%
%ADD15C,0.254000*%
G04 APERTURE END LIST*
D10*
X31993840Y-35046920D03*
X34493840Y-35046920D03*
X36993840Y-35046920D03*
X39493840Y-35046920D03*
X41993840Y-35046920D03*
X-38100000Y34798000D03*
X-38100000Y32298000D03*
X-38100000Y29798000D03*
X-38100000Y27298000D03*
X-38100000Y24798000D03*
D11*
X19806920Y-35148520D03*
D12*
X17266920Y-35148520D03*
X14726920Y-35148520D03*
X12186920Y-35148520D03*
X9646920Y-35148520D03*
X7106920Y-35148520D03*
D10*
X41402000Y32707580D03*
X41402000Y30167580D03*
X41402000Y27627580D03*
D13*
X-17764760Y-35186620D03*
X-23152100Y22778720D03*
X29778960Y42839640D03*
X-23947120Y36624260D03*
X-23888700Y32796480D03*
X-47104300Y-35181540D03*
X19207480Y36748720D03*
X22308820Y34721800D03*
X37495480Y32689800D03*
X25392380Y32732980D03*
X37619940Y30162500D03*
X25349200Y30162500D03*
D14*
X39493840Y-33561996D02*
X19199860Y-13268016D01*
X39493840Y-35046920D02*
X39493840Y-33561996D01*
X19199860Y-13268016D02*
X19199860Y36741100D01*
X19199860Y36741100D02*
X19207480Y36748720D01*
X41993840Y-33561996D02*
X22308820Y-13876976D01*
X41993840Y-35046920D02*
X41993840Y-33561996D01*
X22308820Y-13876976D02*
X22308820Y34721800D01*
X37495480Y32689800D02*
X25435560Y32689800D01*
X25435560Y32689800D02*
X25392380Y32732980D01*
X37619940Y30162500D02*
X37195676Y30162500D01*
X37195676Y30162500D02*
X25349200Y30162500D01*
D15*
G36*
X-19279380Y48486683D02*
G01*
X-18167920Y48486672D01*
X-17032957Y48486654D01*
X-15874359Y48486629D01*
X-14691988Y48486597D01*
X-13485714Y48486559D01*
X-12255397Y48486514D01*
X-11000905Y48486462D01*
X-9722102Y48486404D01*
X-8418856Y48486339D01*
X-7091029Y48486267D01*
X-5738487Y48486189D01*
X-4361098Y48486104D01*
X-2958723Y48486012D01*
X-1531230Y48485914D01*
X-78485Y48485810D01*
X50790Y48485800D01*
X48166942Y48482252D01*
X48212305Y48465104D01*
X48298536Y48421621D01*
X48366901Y48366352D01*
X48422081Y48297832D01*
X48465085Y48212352D01*
X48482250Y48166946D01*
X48482250Y-48166945D01*
X48465101Y-48212307D01*
X48421620Y-48298536D01*
X48366351Y-48366901D01*
X48297831Y-48422081D01*
X48212354Y-48465084D01*
X48166942Y-48482251D01*
X31744Y-48484365D01*
X-1371765Y-48484425D01*
X-2750064Y-48484481D01*
X-4103343Y-48484532D01*
X-5431790Y-48484578D01*
X-6735598Y-48484620D01*
X-8014957Y-48484657D01*
X-9270054Y-48484690D01*
X-10501082Y-48484718D01*
X-11708230Y-48484741D01*
X-12891687Y-48484759D01*
X-14051644Y-48484772D01*
X-15188291Y-48484780D01*
X-16301818Y-48484783D01*
X-17392413Y-48484781D01*
X-18460268Y-48484774D01*
X-19505574Y-48484762D01*
X-20528518Y-48484745D01*
X-21529293Y-48484722D01*
X-22508087Y-48484694D01*
X-23465091Y-48484661D01*
X-24400492Y-48484622D01*
X-25314486Y-48484578D01*
X-26207256Y-48484528D01*
X-27078998Y-48484472D01*
X-27929898Y-48484411D01*
X-28760148Y-48484344D01*
X-29569936Y-48484272D01*
X-30359454Y-48484194D01*
X-31128892Y-48484109D01*
X-31878438Y-48484019D01*
X-32608285Y-48483923D01*
X-33318619Y-48483822D01*
X-34009633Y-48483714D01*
X-34681517Y-48483599D01*
X-35334460Y-48483479D01*
X-35968651Y-48483353D01*
X-36584280Y-48483220D01*
X-37181540Y-48483081D01*
X-37760618Y-48482936D01*
X-38321705Y-48482784D01*
X-38864991Y-48482625D01*
X-39390665Y-48482461D01*
X-39898919Y-48482289D01*
X-40389942Y-48482111D01*
X-40863922Y-48481927D01*
X-41321052Y-48481736D01*
X-41761520Y-48481537D01*
X-42185516Y-48481333D01*
X-42593231Y-48481121D01*
X-42984854Y-48480902D01*
X-43360576Y-48480676D01*
X-43720586Y-48480444D01*
X-44065074Y-48480204D01*
X-44394230Y-48479957D01*
X-44708244Y-48479703D01*
X-45007306Y-48479442D01*
X-45291606Y-48479173D01*
X-45561333Y-48478897D01*
X-45816677Y-48478614D01*
X-46057829Y-48478323D01*
X-46284978Y-48478025D01*
X-46498312Y-48477719D01*
X-46698024Y-48477405D01*
X-46884301Y-48477084D01*
X-47057332Y-48476756D01*
X-47217309Y-48476419D01*
X-47364418Y-48476075D01*
X-47498891Y-48475723D01*
X-47498891Y-48475724D01*
X-47620788Y-48475364D01*
X-47730424Y-48474996D01*
X-47827942Y-48474620D01*
X-47913628Y-48474236D01*
X-47987488Y-48473845D01*
X-48049579Y-48473446D01*
X-48100565Y-48473039D01*
X-48140090Y-48472626D01*
X-48168131Y-48472215D01*
X-48173665Y-48472083D01*
X-48252405Y-48446018D01*
X-48324671Y-48403266D01*
X-48385203Y-48346926D01*
X-48432740Y-48278375D01*
X-48466999Y-48195652D01*
X-48475112Y-48161677D01*
X-48475124Y-48161231D01*
X-48475497Y-48122741D01*
X-48475877Y-48058343D01*
X-48476252Y-47969596D01*
X-48476622Y-47856783D01*
X-48476621Y-47856783D01*
X-48476987Y-47720059D01*
X-48477347Y-47560013D01*
X-48477702Y-47376914D01*
X-48478051Y-47171105D01*
X-48478396Y-46942922D01*
X-48478735Y-46692710D01*
X-48479069Y-46420804D01*
X-48479397Y-46127543D01*
X-48479721Y-45813263D01*
X-48480039Y-45478305D01*
X-48480352Y-45123005D01*
X-48480660Y-44747700D01*
X-48480962Y-44352728D01*
X-48481260Y-43938426D01*
X-48481552Y-43505132D01*
X-48481839Y-43053183D01*
X-48482120Y-42582917D01*
X-48482397Y-42094670D01*
X-48482668Y-41588780D01*
X-48482934Y-41065585D01*
X-48483194Y-40525422D01*
X-48483450Y-39968628D01*
X-48483700Y-39395540D01*
X-48483945Y-38806495D01*
X-48484185Y-38201832D01*
X-48484419Y-37581887D01*
X-48484649Y-36946997D01*
X-48484873Y-36297500D01*
X-48485091Y-35633734D01*
X-48485244Y-35148520D01*
X5614735Y-35148520D01*
X5643407Y-35439631D01*
X5728321Y-35719554D01*
X5866214Y-35977534D01*
X6051786Y-36203654D01*
X6277906Y-36389226D01*
X6535886Y-36527119D01*
X6815809Y-36612033D01*
X7033970Y-36633520D01*
X7179870Y-36633520D01*
X7398031Y-36612033D01*
X7677954Y-36527119D01*
X7935934Y-36389226D01*
X8162054Y-36203654D01*
X8347626Y-35977534D01*
X8376920Y-35922729D01*
X8406214Y-35977534D01*
X8591786Y-36203654D01*
X8817906Y-36389226D01*
X9075886Y-36527119D01*
X9355809Y-36612033D01*
X9573970Y-36633520D01*
X9719870Y-36633520D01*
X9938031Y-36612033D01*
X10217954Y-36527119D01*
X10475934Y-36389226D01*
X10702054Y-36203654D01*
X10887626Y-35977534D01*
X10916920Y-35922729D01*
X10946214Y-35977534D01*
X11131786Y-36203654D01*
X11357906Y-36389226D01*
X11615886Y-36527119D01*
X11895809Y-36612033D01*
X12113970Y-36633520D01*
X12259870Y-36633520D01*
X12478031Y-36612033D01*
X12757954Y-36527119D01*
X13015934Y-36389226D01*
X13242054Y-36203654D01*
X13427626Y-35977534D01*
X13456920Y-35922729D01*
X13486214Y-35977534D01*
X13671786Y-36203654D01*
X13897906Y-36389226D01*
X14155886Y-36527119D01*
X14435809Y-36612033D01*
X14653970Y-36633520D01*
X14799870Y-36633520D01*
X15018031Y-36612033D01*
X15297954Y-36527119D01*
X15555934Y-36389226D01*
X15782054Y-36203654D01*
X15967626Y-35977534D01*
X15996920Y-35922729D01*
X16026214Y-35977534D01*
X16211786Y-36203654D01*
X16437906Y-36389226D01*
X16695886Y-36527119D01*
X16975809Y-36612033D01*
X17193970Y-36633520D01*
X17339870Y-36633520D01*
X17558031Y-36612033D01*
X17837954Y-36527119D01*
X18095934Y-36389226D01*
X18322054Y-36203654D01*
X18346527Y-36173833D01*
X18367418Y-36242700D01*
X18426383Y-36353014D01*
X18505735Y-36449705D01*
X18602426Y-36529057D01*
X18712740Y-36588022D01*
X18832438Y-36624332D01*
X18956920Y-36636592D01*
X20656920Y-36636592D01*
X20781402Y-36624332D01*
X20901100Y-36588022D01*
X21011414Y-36529057D01*
X21108105Y-36449705D01*
X21187457Y-36353014D01*
X21246422Y-36242700D01*
X21282732Y-36123002D01*
X21294992Y-35998520D01*
X21294992Y-34880962D01*
X30308840Y-34880962D01*
X30308840Y-35212878D01*
X30373594Y-35538416D01*
X30500612Y-35845067D01*
X30685015Y-36121045D01*
X30919715Y-36355745D01*
X31195693Y-36540148D01*
X31502344Y-36667166D01*
X31827882Y-36731920D01*
X32159798Y-36731920D01*
X32485336Y-36667166D01*
X32791987Y-36540148D01*
X33067965Y-36355745D01*
X33243840Y-36179870D01*
X33419715Y-36355745D01*
X33695693Y-36540148D01*
X34002344Y-36667166D01*
X34327882Y-36731920D01*
X34659798Y-36731920D01*
X34985336Y-36667166D01*
X35291987Y-36540148D01*
X35567965Y-36355745D01*
X35705724Y-36217986D01*
X36002379Y-36217986D01*
X36104179Y-36487499D01*
X36402317Y-36633383D01*
X36723186Y-36718300D01*
X37054457Y-36738986D01*
X37383397Y-36694648D01*
X37697367Y-36586989D01*
X37883501Y-36487499D01*
X37985301Y-36217986D01*
X36993840Y-35226525D01*
X36002379Y-36217986D01*
X35705724Y-36217986D01*
X35802665Y-36121045D01*
X35928631Y-35932524D01*
X36814235Y-35046920D01*
X35928631Y-34161316D01*
X35802665Y-33972795D01*
X35705724Y-33875854D01*
X36002379Y-33875854D01*
X36993840Y-34867315D01*
X37985301Y-33875854D01*
X37883501Y-33606341D01*
X37585363Y-33460457D01*
X37264494Y-33375540D01*
X36933223Y-33354854D01*
X36604283Y-33399192D01*
X36290313Y-33506851D01*
X36104179Y-33606341D01*
X36002379Y-33875854D01*
X35705724Y-33875854D01*
X35567965Y-33738095D01*
X35291987Y-33553692D01*
X34985336Y-33426674D01*
X34659798Y-33361920D01*
X34327882Y-33361920D01*
X34002344Y-33426674D01*
X33695693Y-33553692D01*
X33419715Y-33738095D01*
X33243840Y-33913970D01*
X33067965Y-33738095D01*
X32791987Y-33553692D01*
X32485336Y-33426674D01*
X32159798Y-33361920D01*
X31827882Y-33361920D01*
X31502344Y-33426674D01*
X31195693Y-33553692D01*
X30919715Y-33738095D01*
X30685015Y-33972795D01*
X30500612Y-34248773D01*
X30373594Y-34555424D01*
X30308840Y-34880962D01*
X21294992Y-34880962D01*
X21294992Y-34298520D01*
X21282732Y-34174038D01*
X21246422Y-34054340D01*
X21187457Y-33944026D01*
X21108105Y-33847335D01*
X21011414Y-33767983D01*
X20901100Y-33709018D01*
X20781402Y-33672708D01*
X20656920Y-33660448D01*
X18956920Y-33660448D01*
X18832438Y-33672708D01*
X18712740Y-33709018D01*
X18602426Y-33767983D01*
X18505735Y-33847335D01*
X18426383Y-33944026D01*
X18367418Y-34054340D01*
X18346527Y-34123207D01*
X18322054Y-34093386D01*
X18095934Y-33907814D01*
X17837954Y-33769921D01*
X17558031Y-33685007D01*
X17339870Y-33663520D01*
X17193970Y-33663520D01*
X16975809Y-33685007D01*
X16695886Y-33769921D01*
X16437906Y-33907814D01*
X16211786Y-34093386D01*
X16026214Y-34319506D01*
X15996920Y-34374311D01*
X15967626Y-34319506D01*
X15782054Y-34093386D01*
X15555934Y-33907814D01*
X15297954Y-33769921D01*
X15018031Y-33685007D01*
X14799870Y-33663520D01*
X14653970Y-33663520D01*
X14435809Y-33685007D01*
X14155886Y-33769921D01*
X13897906Y-33907814D01*
X13671786Y-34093386D01*
X13486214Y-34319506D01*
X13456920Y-34374311D01*
X13427626Y-34319506D01*
X13242054Y-34093386D01*
X13015934Y-33907814D01*
X12757954Y-33769921D01*
X12478031Y-33685007D01*
X12259870Y-33663520D01*
X12113970Y-33663520D01*
X11895809Y-33685007D01*
X11615886Y-33769921D01*
X11357906Y-33907814D01*
X11131786Y-34093386D01*
X10946214Y-34319506D01*
X10916920Y-34374311D01*
X10887626Y-34319506D01*
X10702054Y-34093386D01*
X10475934Y-33907814D01*
X10217954Y-33769921D01*
X9938031Y-33685007D01*
X9719870Y-33663520D01*
X9573970Y-33663520D01*
X9355809Y-33685007D01*
X9075886Y-33769921D01*
X8817906Y-33907814D01*
X8591786Y-34093386D01*
X8406214Y-34319506D01*
X8376920Y-34374311D01*
X8347626Y-34319506D01*
X8162054Y-34093386D01*
X7935934Y-33907814D01*
X7677954Y-33769921D01*
X7398031Y-33685007D01*
X7179870Y-33663520D01*
X7033970Y-33663520D01*
X6815809Y-33685007D01*
X6535886Y-33769921D01*
X6277906Y-33907814D01*
X6051786Y-34093386D01*
X5866214Y-34319506D01*
X5728321Y-34577486D01*
X5643407Y-34857409D01*
X5614735Y-35148520D01*
X-48485244Y-35148520D01*
X-48485305Y-34956035D01*
X-48485513Y-34264741D01*
X-48485716Y-33560188D01*
X-48485914Y-32842716D01*
X-48486107Y-32112659D01*
X-48486294Y-31370357D01*
X-48486476Y-30616145D01*
X-48486653Y-29850363D01*
X-48486825Y-29073346D01*
X-48486992Y-28285431D01*
X-48487153Y-27486957D01*
X-48487309Y-26678262D01*
X-48487460Y-25859681D01*
X-48487605Y-25031552D01*
X-48487745Y-24194212D01*
X-48487880Y-23347998D01*
X-48488010Y-22493250D01*
X-48488135Y-21630301D01*
X-48488254Y-20759493D01*
X-48488368Y-19881159D01*
X-48488477Y-18995639D01*
X-48488581Y-18103268D01*
X-48488679Y-17204388D01*
X-48488773Y-16299330D01*
X-48488861Y-15388436D01*
X-48488943Y-14472040D01*
X-48489021Y-13550482D01*
X-48489093Y-12624097D01*
X-48489160Y-11693225D01*
X-48489222Y-10758201D01*
X-48489278Y-9819363D01*
X-48489330Y-8877047D01*
X-48489376Y-7931594D01*
X-48489417Y-6983336D01*
X-48489452Y-6032615D01*
X-48489483Y-5079765D01*
X-48489508Y-4125127D01*
X-48489528Y-3169033D01*
X-48489543Y-2211825D01*
X-48489552Y-1253838D01*
X-48489556Y-295410D01*
X-48489555Y663121D01*
X-48489549Y1621420D01*
X-48489538Y2579148D01*
X-48489521Y3535969D01*
X-48489499Y4491543D01*
X-48489472Y5445536D01*
X-48489439Y6397609D01*
X-48489402Y7347425D01*
X-48489359Y8294647D01*
X-48489311Y9238937D01*
X-48489257Y10179957D01*
X-48489199Y11117373D01*
X-48489135Y12050844D01*
X-48489066Y12980036D01*
X-48488992Y13904607D01*
X-48488912Y14824226D01*
X-48488827Y15738549D01*
X-48488737Y16647245D01*
X-48488642Y17549973D01*
X-48488542Y18446397D01*
X-48488436Y19336178D01*
X-48488325Y20218982D01*
X-48488209Y21094468D01*
X-48488088Y21962301D01*
X-48487961Y22822144D01*
X-48487829Y23673657D01*
X-48487692Y24516507D01*
X-48487550Y25350352D01*
X-48487402Y26174859D01*
X-48487250Y26989688D01*
X-48487092Y27794502D01*
X-48486928Y28588965D01*
X-48486760Y29372738D01*
X-48486586Y30145485D01*
X-48486407Y30906869D01*
X-48486223Y31656551D01*
X-48486034Y32394196D01*
X-48485839Y33119465D01*
X-48485639Y33832021D01*
X-48485434Y34531527D01*
X-48485302Y34963958D01*
X-39785000Y34963958D01*
X-39785000Y34632042D01*
X-39720246Y34306504D01*
X-39593228Y33999853D01*
X-39408825Y33723875D01*
X-39232950Y33548000D01*
X-39408825Y33372125D01*
X-39593228Y33096147D01*
X-39720246Y32789496D01*
X-39785000Y32463958D01*
X-39785000Y32132042D01*
X-39720246Y31806504D01*
X-39593228Y31499853D01*
X-39408825Y31223875D01*
X-39232950Y31048000D01*
X-39408825Y30872125D01*
X-39593228Y30596147D01*
X-39720246Y30289496D01*
X-39785000Y29963958D01*
X-39785000Y29632042D01*
X-39720246Y29306504D01*
X-39593228Y28999853D01*
X-39408825Y28723875D01*
X-39232950Y28548000D01*
X-39408825Y28372125D01*
X-39593228Y28096147D01*
X-39720246Y27789496D01*
X-39785000Y27463958D01*
X-39785000Y27132042D01*
X-39720246Y26806504D01*
X-39593228Y26499853D01*
X-39408825Y26223875D01*
X-39232950Y26048000D01*
X-39408825Y25872125D01*
X-39593228Y25596147D01*
X-39720246Y25289496D01*
X-39785000Y24963958D01*
X-39785000Y24632042D01*
X-39720246Y24306504D01*
X-39593228Y23999853D01*
X-39408825Y23723875D01*
X-39174125Y23489175D01*
X-38898147Y23304772D01*
X-38591496Y23177754D01*
X-38265958Y23113000D01*
X-37934042Y23113000D01*
X-37608504Y23177754D01*
X-37301853Y23304772D01*
X-37025875Y23489175D01*
X-36791175Y23723875D01*
X-36606772Y23999853D01*
X-36479754Y24306504D01*
X-36415000Y24632042D01*
X-36415000Y24963958D01*
X-36479754Y25289496D01*
X-36606772Y25596147D01*
X-36791175Y25872125D01*
X-36967050Y26048000D01*
X-36791175Y26223875D01*
X-36606772Y26499853D01*
X-36479754Y26806504D01*
X-36415000Y27132042D01*
X-36415000Y27463958D01*
X-36479754Y27789496D01*
X-36606772Y28096147D01*
X-36791175Y28372125D01*
X-36967050Y28548000D01*
X-36791175Y28723875D01*
X-36606772Y28999853D01*
X-36479754Y29306504D01*
X-36415000Y29632042D01*
X-36415000Y29963958D01*
X-36479754Y30289496D01*
X-36606772Y30596147D01*
X-36791175Y30872125D01*
X-36967050Y31048000D01*
X-36791175Y31223875D01*
X-36606772Y31499853D01*
X-36479754Y31806504D01*
X-36415000Y32132042D01*
X-36415000Y32463958D01*
X-36479754Y32789496D01*
X-36606772Y33096147D01*
X-36791175Y33372125D01*
X-36967050Y33548000D01*
X-36791175Y33723875D01*
X-36606772Y33999853D01*
X-36479754Y34306504D01*
X-36415000Y34632042D01*
X-36415000Y34963958D01*
X-36479754Y35289496D01*
X-36606772Y35596147D01*
X-36791175Y35872125D01*
X-37025875Y36106825D01*
X-37301853Y36291228D01*
X-37608504Y36418246D01*
X-37934042Y36483000D01*
X-38265958Y36483000D01*
X-38591496Y36418246D01*
X-38898147Y36291228D01*
X-39174125Y36106825D01*
X-39408825Y35872125D01*
X-39593228Y35596147D01*
X-39720246Y35289496D01*
X-39785000Y34963958D01*
X-48485302Y34963958D01*
X-48485224Y35217645D01*
X-48485008Y35890039D01*
X-48484787Y36548371D01*
X-48484685Y36840809D01*
X18272480Y36840809D01*
X18272480Y36656631D01*
X18308412Y36475991D01*
X18378894Y36305831D01*
X18439861Y36214587D01*
X18439860Y-13230694D01*
X18436184Y-13268016D01*
X18439860Y-13305338D01*
X18439860Y-13305348D01*
X18450857Y-13417001D01*
X18494314Y-13560262D01*
X18564886Y-13692292D01*
X18594184Y-13727991D01*
X18659859Y-13808017D01*
X18688863Y-13831820D01*
X38524873Y-33667831D01*
X38419715Y-33738095D01*
X38185015Y-33972795D01*
X38059049Y-34161316D01*
X37173445Y-35046920D01*
X38059049Y-35932524D01*
X38185015Y-36121045D01*
X38419715Y-36355745D01*
X38695693Y-36540148D01*
X39002344Y-36667166D01*
X39327882Y-36731920D01*
X39659798Y-36731920D01*
X39985336Y-36667166D01*
X40291987Y-36540148D01*
X40567965Y-36355745D01*
X40743840Y-36179870D01*
X40919715Y-36355745D01*
X41195693Y-36540148D01*
X41502344Y-36667166D01*
X41827882Y-36731920D01*
X42159798Y-36731920D01*
X42485336Y-36667166D01*
X42791987Y-36540148D01*
X43067965Y-36355745D01*
X43302665Y-36121045D01*
X43487068Y-35845067D01*
X43614086Y-35538416D01*
X43678840Y-35212878D01*
X43678840Y-34880962D01*
X43614086Y-34555424D01*
X43487068Y-34248773D01*
X43302665Y-33972795D01*
X43067965Y-33738095D01*
X42791987Y-33553692D01*
X42755197Y-33538453D01*
X42753840Y-33524672D01*
X42753840Y-33524663D01*
X42742843Y-33413010D01*
X42699386Y-33269749D01*
X42628814Y-33137720D01*
X42533841Y-33021995D01*
X42504843Y-32998197D01*
X23068820Y-13562175D01*
X23068820Y30254589D01*
X24414200Y30254589D01*
X24414200Y30070411D01*
X24450132Y29889771D01*
X24520614Y29719611D01*
X24622938Y29566472D01*
X24753172Y29436238D01*
X24906311Y29333914D01*
X25076471Y29263432D01*
X25257111Y29227500D01*
X25441289Y29227500D01*
X25621929Y29263432D01*
X25792089Y29333914D01*
X25894735Y29402500D01*
X37074405Y29402500D01*
X37177051Y29333914D01*
X37347211Y29263432D01*
X37527851Y29227500D01*
X37712029Y29227500D01*
X37892669Y29263432D01*
X38062829Y29333914D01*
X38215968Y29436238D01*
X38346202Y29566472D01*
X38448526Y29719611D01*
X38519008Y29889771D01*
X38554940Y30070411D01*
X38554940Y30254589D01*
X38519008Y30435229D01*
X38448526Y30605389D01*
X38346202Y30758528D01*
X38215968Y30888762D01*
X38062829Y30991086D01*
X37892669Y31061568D01*
X37712029Y31097500D01*
X37527851Y31097500D01*
X37347211Y31061568D01*
X37177051Y30991086D01*
X37074405Y30922500D01*
X25894735Y30922500D01*
X25792089Y30991086D01*
X25621929Y31061568D01*
X25441289Y31097500D01*
X25257111Y31097500D01*
X25076471Y31061568D01*
X24906311Y30991086D01*
X24753172Y30888762D01*
X24622938Y30758528D01*
X24520614Y30605389D01*
X24450132Y30435229D01*
X24414200Y30254589D01*
X23068820Y30254589D01*
X23068820Y32825069D01*
X24457380Y32825069D01*
X24457380Y32640891D01*
X24493312Y32460251D01*
X24563794Y32290091D01*
X24666118Y32136952D01*
X24796352Y32006718D01*
X24949491Y31904394D01*
X25119651Y31833912D01*
X25300291Y31797980D01*
X25484469Y31797980D01*
X25665109Y31833912D01*
X25835269Y31904394D01*
X25873292Y31929800D01*
X36949945Y31929800D01*
X37052591Y31861214D01*
X37222751Y31790732D01*
X37403391Y31754800D01*
X37587569Y31754800D01*
X37768209Y31790732D01*
X37938369Y31861214D01*
X38091508Y31963538D01*
X38221742Y32093772D01*
X38324066Y32246911D01*
X38394548Y32417071D01*
X38430480Y32597711D01*
X38430480Y32781889D01*
X38412250Y32873538D01*
X39717000Y32873538D01*
X39717000Y32541622D01*
X39781754Y32216084D01*
X39908772Y31909433D01*
X40093175Y31633455D01*
X40289050Y31437580D01*
X40093175Y31241705D01*
X39908772Y30965727D01*
X39781754Y30659076D01*
X39717000Y30333538D01*
X39717000Y30001622D01*
X39781754Y29676084D01*
X39908772Y29369433D01*
X40093175Y29093455D01*
X40289050Y28897580D01*
X40093175Y28701705D01*
X39908772Y28425727D01*
X39781754Y28119076D01*
X39717000Y27793538D01*
X39717000Y27461622D01*
X39781754Y27136084D01*
X39908772Y26829433D01*
X40093175Y26553455D01*
X40327875Y26318755D01*
X40603853Y26134352D01*
X40910504Y26007334D01*
X41236042Y25942580D01*
X41567958Y25942580D01*
X41893496Y26007334D01*
X42200147Y26134352D01*
X42476125Y26318755D01*
X42710825Y26553455D01*
X42895228Y26829433D01*
X43022246Y27136084D01*
X43087000Y27461622D01*
X43087000Y27793538D01*
X43022246Y28119076D01*
X42895228Y28425727D01*
X42710825Y28701705D01*
X42514950Y28897580D01*
X42710825Y29093455D01*
X42895228Y29369433D01*
X43022246Y29676084D01*
X43087000Y30001622D01*
X43087000Y30333538D01*
X43022246Y30659076D01*
X42895228Y30965727D01*
X42710825Y31241705D01*
X42514950Y31437580D01*
X42710825Y31633455D01*
X42895228Y31909433D01*
X43022246Y32216084D01*
X43087000Y32541622D01*
X43087000Y32873538D01*
X43022246Y33199076D01*
X42895228Y33505727D01*
X42710825Y33781705D01*
X42476125Y34016405D01*
X42200147Y34200808D01*
X41893496Y34327826D01*
X41567958Y34392580D01*
X41236042Y34392580D01*
X40910504Y34327826D01*
X40603853Y34200808D01*
X40327875Y34016405D01*
X40093175Y33781705D01*
X39908772Y33505727D01*
X39781754Y33199076D01*
X39717000Y32873538D01*
X38412250Y32873538D01*
X38394548Y32962529D01*
X38324066Y33132689D01*
X38221742Y33285828D01*
X38091508Y33416062D01*
X37938369Y33518386D01*
X37768209Y33588868D01*
X37587569Y33624800D01*
X37403391Y33624800D01*
X37222751Y33588868D01*
X37052591Y33518386D01*
X36949945Y33449800D01*
X25997850Y33449800D01*
X25988408Y33459242D01*
X25835269Y33561566D01*
X25665109Y33632048D01*
X25484469Y33667980D01*
X25300291Y33667980D01*
X25119651Y33632048D01*
X24949491Y33561566D01*
X24796352Y33459242D01*
X24666118Y33329008D01*
X24563794Y33175869D01*
X24493312Y33005709D01*
X24457380Y32825069D01*
X23068820Y32825069D01*
X23068820Y34176265D01*
X23137406Y34278911D01*
X23207888Y34449071D01*
X23243820Y34629711D01*
X23243820Y34813889D01*
X23207888Y34994529D01*
X23137406Y35164689D01*
X23035082Y35317828D01*
X22904848Y35448062D01*
X22751709Y35550386D01*
X22581549Y35620868D01*
X22400909Y35656800D01*
X22216731Y35656800D01*
X22036091Y35620868D01*
X21865931Y35550386D01*
X21712792Y35448062D01*
X21582558Y35317828D01*
X21480234Y35164689D01*
X21409752Y34994529D01*
X21373820Y34813889D01*
X21373820Y34629711D01*
X21409752Y34449071D01*
X21480234Y34278911D01*
X21548821Y34176263D01*
X21548820Y-13839654D01*
X21545144Y-13876976D01*
X21548820Y-13914298D01*
X21548820Y-13914308D01*
X21559817Y-14025961D01*
X21603274Y-14169222D01*
X21673846Y-14301252D01*
X21713691Y-14349802D01*
X21768819Y-14416977D01*
X21797823Y-14440780D01*
X41024873Y-33667831D01*
X40919715Y-33738095D01*
X40743840Y-33913970D01*
X40567965Y-33738095D01*
X40291987Y-33553692D01*
X40255197Y-33538453D01*
X40253840Y-33524671D01*
X40253840Y-33524663D01*
X40242843Y-33413010D01*
X40199386Y-33269749D01*
X40128814Y-33137720D01*
X40033841Y-33021995D01*
X40004843Y-32998197D01*
X19959860Y-12953215D01*
X19959860Y36191780D01*
X20036066Y36305831D01*
X20106548Y36475991D01*
X20142480Y36656631D01*
X20142480Y36840809D01*
X20106548Y37021449D01*
X20036066Y37191609D01*
X19933742Y37344748D01*
X19803508Y37474982D01*
X19650369Y37577306D01*
X19480209Y37647788D01*
X19299569Y37683720D01*
X19115391Y37683720D01*
X18934751Y37647788D01*
X18764591Y37577306D01*
X18611452Y37474982D01*
X18481218Y37344748D01*
X18378894Y37191609D01*
X18308412Y37021449D01*
X18272480Y36840809D01*
X-48484685Y36840809D01*
X-48484561Y37192304D01*
X-48484330Y37821501D01*
X-48484093Y38435624D01*
X-48483852Y39034334D01*
X-48483605Y39617297D01*
X-48483352Y40184175D01*
X-48483095Y40734628D01*
X-48482832Y41268322D01*
X-48482564Y41784919D01*
X-48482291Y42284080D01*
X-48482013Y42765468D01*
X-48481729Y43228747D01*
X-48481440Y43673580D01*
X-48481146Y44099629D01*
X-48480847Y44506554D01*
X-48480542Y44894022D01*
X-48480233Y45261692D01*
X-48479918Y45609228D01*
X-48479597Y45936294D01*
X-48479272Y46242550D01*
X-48478941Y46527658D01*
X-48478605Y46791283D01*
X-48478264Y47033084D01*
X-48477918Y47252722D01*
X-48477566Y47449861D01*
X-48477209Y47624157D01*
X-48476847Y47775330D01*
X-48476848Y47775330D01*
X-48476481Y47902844D01*
X-48476109Y48006520D01*
X-48476108Y48006520D01*
X-48475730Y48086163D01*
X-48475352Y48140574D01*
X-48475120Y48158704D01*
X-48450956Y48241232D01*
X-48410710Y48315323D01*
X-48356986Y48377118D01*
X-48290665Y48426085D01*
X-48210402Y48461910D01*
X-48152989Y48475982D01*
X-48131893Y48476311D01*
X-48090156Y48476706D01*
X-48031575Y48477098D01*
X-47956843Y48477482D01*
X-47865289Y48477858D01*
X-47757193Y48478227D01*
X-47632363Y48478587D01*
X-47632363Y48478586D01*
X-47490516Y48478938D01*
X-47331674Y48479282D01*
X-47155658Y48479617D01*
X-46962332Y48479945D01*
X-46751565Y48480264D01*
X-46523220Y48480575D01*
X-46277167Y48480878D01*
X-46013268Y48481173D01*
X-45731391Y48481459D01*
X-45431400Y48481738D01*
X-45113162Y48482009D01*
X-44776542Y48482272D01*
X-44421405Y48482527D01*
X-44047616Y48482774D01*
X-43655042Y48483013D01*
X-43243545Y48483245D01*
X-42812995Y48483468D01*
X-42363254Y48483684D01*
X-41894188Y48483892D01*
X-41405663Y48484092D01*
X-40897543Y48484285D01*
X-40369694Y48484470D01*
X-39821982Y48484647D01*
X-39254271Y48484817D01*
X-38666428Y48484979D01*
X-38058316Y48485133D01*
X-37429801Y48485280D01*
X-36780750Y48485420D01*
X-36111026Y48485552D01*
X-35420496Y48485677D01*
X-34709024Y48485794D01*
X-33976476Y48485904D01*
X-33222717Y48486007D01*
X-32447611Y48486102D01*
X-31651026Y48486190D01*
X-30832826Y48486270D01*
X-29992874Y48486344D01*
X-29131039Y48486410D01*
X-28247184Y48486469D01*
X-27341175Y48486521D01*
X-26412877Y48486566D01*
X-25462155Y48486604D01*
X-24488874Y48486634D01*
X-23492900Y48486658D01*
X-22474100Y48486675D01*
X-21432336Y48486684D01*
X-20367474Y48486687D01*
X-19279380Y48486683D01*
X-19279380Y48486683D01*
G37*
X-19279380Y48486683D02*
X-18167920Y48486672D01*
X-17032957Y48486654D01*
X-15874359Y48486629D01*
X-14691988Y48486597D01*
X-13485714Y48486559D01*
X-12255397Y48486514D01*
X-11000905Y48486462D01*
X-9722102Y48486404D01*
X-8418856Y48486339D01*
X-7091029Y48486267D01*
X-5738487Y48486189D01*
X-4361098Y48486104D01*
X-2958723Y48486012D01*
X-1531230Y48485914D01*
X-78485Y48485810D01*
X50790Y48485800D01*
X48166942Y48482252D01*
X48212305Y48465104D01*
X48298536Y48421621D01*
X48366901Y48366352D01*
X48422081Y48297832D01*
X48465085Y48212352D01*
X48482250Y48166946D01*
X48482250Y-48166945D01*
X48465101Y-48212307D01*
X48421620Y-48298536D01*
X48366351Y-48366901D01*
X48297831Y-48422081D01*
X48212354Y-48465084D01*
X48166942Y-48482251D01*
X31744Y-48484365D01*
X-1371765Y-48484425D01*
X-2750064Y-48484481D01*
X-4103343Y-48484532D01*
X-5431790Y-48484578D01*
X-6735598Y-48484620D01*
X-8014957Y-48484657D01*
X-9270054Y-48484690D01*
X-10501082Y-48484718D01*
X-11708230Y-48484741D01*
X-12891687Y-48484759D01*
X-14051644Y-48484772D01*
X-15188291Y-48484780D01*
X-16301818Y-48484783D01*
X-17392413Y-48484781D01*
X-18460268Y-48484774D01*
X-19505574Y-48484762D01*
X-20528518Y-48484745D01*
X-21529293Y-48484722D01*
X-22508087Y-48484694D01*
X-23465091Y-48484661D01*
X-24400492Y-48484622D01*
X-25314486Y-48484578D01*
X-26207256Y-48484528D01*
X-27078998Y-48484472D01*
X-27929898Y-48484411D01*
X-28760148Y-48484344D01*
X-29569936Y-48484272D01*
X-30359454Y-48484194D01*
X-31128892Y-48484109D01*
X-31878438Y-48484019D01*
X-32608285Y-48483923D01*
X-33318619Y-48483822D01*
X-34009633Y-48483714D01*
X-34681517Y-48483599D01*
X-35334460Y-48483479D01*
X-35968651Y-48483353D01*
X-36584280Y-48483220D01*
X-37181540Y-48483081D01*
X-37760618Y-48482936D01*
X-38321705Y-48482784D01*
X-38864991Y-48482625D01*
X-39390665Y-48482461D01*
X-39898919Y-48482289D01*
X-40389942Y-48482111D01*
X-40863922Y-48481927D01*
X-41321052Y-48481736D01*
X-41761520Y-48481537D01*
X-42185516Y-48481333D01*
X-42593231Y-48481121D01*
X-42984854Y-48480902D01*
X-43360576Y-48480676D01*
X-43720586Y-48480444D01*
X-44065074Y-48480204D01*
X-44394230Y-48479957D01*
X-44708244Y-48479703D01*
X-45007306Y-48479442D01*
X-45291606Y-48479173D01*
X-45561333Y-48478897D01*
X-45816677Y-48478614D01*
X-46057829Y-48478323D01*
X-46284978Y-48478025D01*
X-46498312Y-48477719D01*
X-46698024Y-48477405D01*
X-46884301Y-48477084D01*
X-47057332Y-48476756D01*
X-47217309Y-48476419D01*
X-47364418Y-48476075D01*
X-47498891Y-48475723D01*
X-47498891Y-48475724D01*
X-47620788Y-48475364D01*
X-47730424Y-48474996D01*
X-47827942Y-48474620D01*
X-47913628Y-48474236D01*
X-47987488Y-48473845D01*
X-48049579Y-48473446D01*
X-48100565Y-48473039D01*
X-48140090Y-48472626D01*
X-48168131Y-48472215D01*
X-48173665Y-48472083D01*
X-48252405Y-48446018D01*
X-48324671Y-48403266D01*
X-48385203Y-48346926D01*
X-48432740Y-48278375D01*
X-48466999Y-48195652D01*
X-48475112Y-48161677D01*
X-48475124Y-48161231D01*
X-48475497Y-48122741D01*
X-48475877Y-48058343D01*
X-48476252Y-47969596D01*
X-48476622Y-47856783D01*
X-48476621Y-47856783D01*
X-48476987Y-47720059D01*
X-48477347Y-47560013D01*
X-48477702Y-47376914D01*
X-48478051Y-47171105D01*
X-48478396Y-46942922D01*
X-48478735Y-46692710D01*
X-48479069Y-46420804D01*
X-48479397Y-46127543D01*
X-48479721Y-45813263D01*
X-48480039Y-45478305D01*
X-48480352Y-45123005D01*
X-48480660Y-44747700D01*
X-48480962Y-44352728D01*
X-48481260Y-43938426D01*
X-48481552Y-43505132D01*
X-48481839Y-43053183D01*
X-48482120Y-42582917D01*
X-48482397Y-42094670D01*
X-48482668Y-41588780D01*
X-48482934Y-41065585D01*
X-48483194Y-40525422D01*
X-48483450Y-39968628D01*
X-48483700Y-39395540D01*
X-48483945Y-38806495D01*
X-48484185Y-38201832D01*
X-48484419Y-37581887D01*
X-48484649Y-36946997D01*
X-48484873Y-36297500D01*
X-48485091Y-35633734D01*
X-48485244Y-35148520D01*
X5614735Y-35148520D01*
X5643407Y-35439631D01*
X5728321Y-35719554D01*
X5866214Y-35977534D01*
X6051786Y-36203654D01*
X6277906Y-36389226D01*
X6535886Y-36527119D01*
X6815809Y-36612033D01*
X7033970Y-36633520D01*
X7179870Y-36633520D01*
X7398031Y-36612033D01*
X7677954Y-36527119D01*
X7935934Y-36389226D01*
X8162054Y-36203654D01*
X8347626Y-35977534D01*
X8376920Y-35922729D01*
X8406214Y-35977534D01*
X8591786Y-36203654D01*
X8817906Y-36389226D01*
X9075886Y-36527119D01*
X9355809Y-36612033D01*
X9573970Y-36633520D01*
X9719870Y-36633520D01*
X9938031Y-36612033D01*
X10217954Y-36527119D01*
X10475934Y-36389226D01*
X10702054Y-36203654D01*
X10887626Y-35977534D01*
X10916920Y-35922729D01*
X10946214Y-35977534D01*
X11131786Y-36203654D01*
X11357906Y-36389226D01*
X11615886Y-36527119D01*
X11895809Y-36612033D01*
X12113970Y-36633520D01*
X12259870Y-36633520D01*
X12478031Y-36612033D01*
X12757954Y-36527119D01*
X13015934Y-36389226D01*
X13242054Y-36203654D01*
X13427626Y-35977534D01*
X13456920Y-35922729D01*
X13486214Y-35977534D01*
X13671786Y-36203654D01*
X13897906Y-36389226D01*
X14155886Y-36527119D01*
X14435809Y-36612033D01*
X14653970Y-36633520D01*
X14799870Y-36633520D01*
X15018031Y-36612033D01*
X15297954Y-36527119D01*
X15555934Y-36389226D01*
X15782054Y-36203654D01*
X15967626Y-35977534D01*
X15996920Y-35922729D01*
X16026214Y-35977534D01*
X16211786Y-36203654D01*
X16437906Y-36389226D01*
X16695886Y-36527119D01*
X16975809Y-36612033D01*
X17193970Y-36633520D01*
X17339870Y-36633520D01*
X17558031Y-36612033D01*
X17837954Y-36527119D01*
X18095934Y-36389226D01*
X18322054Y-36203654D01*
X18346527Y-36173833D01*
X18367418Y-36242700D01*
X18426383Y-36353014D01*
X18505735Y-36449705D01*
X18602426Y-36529057D01*
X18712740Y-36588022D01*
X18832438Y-36624332D01*
X18956920Y-36636592D01*
X20656920Y-36636592D01*
X20781402Y-36624332D01*
X20901100Y-36588022D01*
X21011414Y-36529057D01*
X21108105Y-36449705D01*
X21187457Y-36353014D01*
X21246422Y-36242700D01*
X21282732Y-36123002D01*
X21294992Y-35998520D01*
X21294992Y-34880962D01*
X30308840Y-34880962D01*
X30308840Y-35212878D01*
X30373594Y-35538416D01*
X30500612Y-35845067D01*
X30685015Y-36121045D01*
X30919715Y-36355745D01*
X31195693Y-36540148D01*
X31502344Y-36667166D01*
X31827882Y-36731920D01*
X32159798Y-36731920D01*
X32485336Y-36667166D01*
X32791987Y-36540148D01*
X33067965Y-36355745D01*
X33243840Y-36179870D01*
X33419715Y-36355745D01*
X33695693Y-36540148D01*
X34002344Y-36667166D01*
X34327882Y-36731920D01*
X34659798Y-36731920D01*
X34985336Y-36667166D01*
X35291987Y-36540148D01*
X35567965Y-36355745D01*
X35705724Y-36217986D01*
X36002379Y-36217986D01*
X36104179Y-36487499D01*
X36402317Y-36633383D01*
X36723186Y-36718300D01*
X37054457Y-36738986D01*
X37383397Y-36694648D01*
X37697367Y-36586989D01*
X37883501Y-36487499D01*
X37985301Y-36217986D01*
X36993840Y-35226525D01*
X36002379Y-36217986D01*
X35705724Y-36217986D01*
X35802665Y-36121045D01*
X35928631Y-35932524D01*
X36814235Y-35046920D01*
X35928631Y-34161316D01*
X35802665Y-33972795D01*
X35705724Y-33875854D01*
X36002379Y-33875854D01*
X36993840Y-34867315D01*
X37985301Y-33875854D01*
X37883501Y-33606341D01*
X37585363Y-33460457D01*
X37264494Y-33375540D01*
X36933223Y-33354854D01*
X36604283Y-33399192D01*
X36290313Y-33506851D01*
X36104179Y-33606341D01*
X36002379Y-33875854D01*
X35705724Y-33875854D01*
X35567965Y-33738095D01*
X35291987Y-33553692D01*
X34985336Y-33426674D01*
X34659798Y-33361920D01*
X34327882Y-33361920D01*
X34002344Y-33426674D01*
X33695693Y-33553692D01*
X33419715Y-33738095D01*
X33243840Y-33913970D01*
X33067965Y-33738095D01*
X32791987Y-33553692D01*
X32485336Y-33426674D01*
X32159798Y-33361920D01*
X31827882Y-33361920D01*
X31502344Y-33426674D01*
X31195693Y-33553692D01*
X30919715Y-33738095D01*
X30685015Y-33972795D01*
X30500612Y-34248773D01*
X30373594Y-34555424D01*
X30308840Y-34880962D01*
X21294992Y-34880962D01*
X21294992Y-34298520D01*
X21282732Y-34174038D01*
X21246422Y-34054340D01*
X21187457Y-33944026D01*
X21108105Y-33847335D01*
X21011414Y-33767983D01*
X20901100Y-33709018D01*
X20781402Y-33672708D01*
X20656920Y-33660448D01*
X18956920Y-33660448D01*
X18832438Y-33672708D01*
X18712740Y-33709018D01*
X18602426Y-33767983D01*
X18505735Y-33847335D01*
X18426383Y-33944026D01*
X18367418Y-34054340D01*
X18346527Y-34123207D01*
X18322054Y-34093386D01*
X18095934Y-33907814D01*
X17837954Y-33769921D01*
X17558031Y-33685007D01*
X17339870Y-33663520D01*
X17193970Y-33663520D01*
X16975809Y-33685007D01*
X16695886Y-33769921D01*
X16437906Y-33907814D01*
X16211786Y-34093386D01*
X16026214Y-34319506D01*
X15996920Y-34374311D01*
X15967626Y-34319506D01*
X15782054Y-34093386D01*
X15555934Y-33907814D01*
X15297954Y-33769921D01*
X15018031Y-33685007D01*
X14799870Y-33663520D01*
X14653970Y-33663520D01*
X14435809Y-33685007D01*
X14155886Y-33769921D01*
X13897906Y-33907814D01*
X13671786Y-34093386D01*
X13486214Y-34319506D01*
X13456920Y-34374311D01*
X13427626Y-34319506D01*
X13242054Y-34093386D01*
X13015934Y-33907814D01*
X12757954Y-33769921D01*
X12478031Y-33685007D01*
X12259870Y-33663520D01*
X12113970Y-33663520D01*
X11895809Y-33685007D01*
X11615886Y-33769921D01*
X11357906Y-33907814D01*
X11131786Y-34093386D01*
X10946214Y-34319506D01*
X10916920Y-34374311D01*
X10887626Y-34319506D01*
X10702054Y-34093386D01*
X10475934Y-33907814D01*
X10217954Y-33769921D01*
X9938031Y-33685007D01*
X9719870Y-33663520D01*
X9573970Y-33663520D01*
X9355809Y-33685007D01*
X9075886Y-33769921D01*
X8817906Y-33907814D01*
X8591786Y-34093386D01*
X8406214Y-34319506D01*
X8376920Y-34374311D01*
X8347626Y-34319506D01*
X8162054Y-34093386D01*
X7935934Y-33907814D01*
X7677954Y-33769921D01*
X7398031Y-33685007D01*
X7179870Y-33663520D01*
X7033970Y-33663520D01*
X6815809Y-33685007D01*
X6535886Y-33769921D01*
X6277906Y-33907814D01*
X6051786Y-34093386D01*
X5866214Y-34319506D01*
X5728321Y-34577486D01*
X5643407Y-34857409D01*
X5614735Y-35148520D01*
X-48485244Y-35148520D01*
X-48485305Y-34956035D01*
X-48485513Y-34264741D01*
X-48485716Y-33560188D01*
X-48485914Y-32842716D01*
X-48486107Y-32112659D01*
X-48486294Y-31370357D01*
X-48486476Y-30616145D01*
X-48486653Y-29850363D01*
X-48486825Y-29073346D01*
X-48486992Y-28285431D01*
X-48487153Y-27486957D01*
X-48487309Y-26678262D01*
X-48487460Y-25859681D01*
X-48487605Y-25031552D01*
X-48487745Y-24194212D01*
X-48487880Y-23347998D01*
X-48488010Y-22493250D01*
X-48488135Y-21630301D01*
X-48488254Y-20759493D01*
X-48488368Y-19881159D01*
X-48488477Y-18995639D01*
X-48488581Y-18103268D01*
X-48488679Y-17204388D01*
X-48488773Y-16299330D01*
X-48488861Y-15388436D01*
X-48488943Y-14472040D01*
X-48489021Y-13550482D01*
X-48489093Y-12624097D01*
X-48489160Y-11693225D01*
X-48489222Y-10758201D01*
X-48489278Y-9819363D01*
X-48489330Y-8877047D01*
X-48489376Y-7931594D01*
X-48489417Y-6983336D01*
X-48489452Y-6032615D01*
X-48489483Y-5079765D01*
X-48489508Y-4125127D01*
X-48489528Y-3169033D01*
X-48489543Y-2211825D01*
X-48489552Y-1253838D01*
X-48489556Y-295410D01*
X-48489555Y663121D01*
X-48489549Y1621420D01*
X-48489538Y2579148D01*
X-48489521Y3535969D01*
X-48489499Y4491543D01*
X-48489472Y5445536D01*
X-48489439Y6397609D01*
X-48489402Y7347425D01*
X-48489359Y8294647D01*
X-48489311Y9238937D01*
X-48489257Y10179957D01*
X-48489199Y11117373D01*
X-48489135Y12050844D01*
X-48489066Y12980036D01*
X-48488992Y13904607D01*
X-48488912Y14824226D01*
X-48488827Y15738549D01*
X-48488737Y16647245D01*
X-48488642Y17549973D01*
X-48488542Y18446397D01*
X-48488436Y19336178D01*
X-48488325Y20218982D01*
X-48488209Y21094468D01*
X-48488088Y21962301D01*
X-48487961Y22822144D01*
X-48487829Y23673657D01*
X-48487692Y24516507D01*
X-48487550Y25350352D01*
X-48487402Y26174859D01*
X-48487250Y26989688D01*
X-48487092Y27794502D01*
X-48486928Y28588965D01*
X-48486760Y29372738D01*
X-48486586Y30145485D01*
X-48486407Y30906869D01*
X-48486223Y31656551D01*
X-48486034Y32394196D01*
X-48485839Y33119465D01*
X-48485639Y33832021D01*
X-48485434Y34531527D01*
X-48485302Y34963958D01*
X-39785000Y34963958D01*
X-39785000Y34632042D01*
X-39720246Y34306504D01*
X-39593228Y33999853D01*
X-39408825Y33723875D01*
X-39232950Y33548000D01*
X-39408825Y33372125D01*
X-39593228Y33096147D01*
X-39720246Y32789496D01*
X-39785000Y32463958D01*
X-39785000Y32132042D01*
X-39720246Y31806504D01*
X-39593228Y31499853D01*
X-39408825Y31223875D01*
X-39232950Y31048000D01*
X-39408825Y30872125D01*
X-39593228Y30596147D01*
X-39720246Y30289496D01*
X-39785000Y29963958D01*
X-39785000Y29632042D01*
X-39720246Y29306504D01*
X-39593228Y28999853D01*
X-39408825Y28723875D01*
X-39232950Y28548000D01*
X-39408825Y28372125D01*
X-39593228Y28096147D01*
X-39720246Y27789496D01*
X-39785000Y27463958D01*
X-39785000Y27132042D01*
X-39720246Y26806504D01*
X-39593228Y26499853D01*
X-39408825Y26223875D01*
X-39232950Y26048000D01*
X-39408825Y25872125D01*
X-39593228Y25596147D01*
X-39720246Y25289496D01*
X-39785000Y24963958D01*
X-39785000Y24632042D01*
X-39720246Y24306504D01*
X-39593228Y23999853D01*
X-39408825Y23723875D01*
X-39174125Y23489175D01*
X-38898147Y23304772D01*
X-38591496Y23177754D01*
X-38265958Y23113000D01*
X-37934042Y23113000D01*
X-37608504Y23177754D01*
X-37301853Y23304772D01*
X-37025875Y23489175D01*
X-36791175Y23723875D01*
X-36606772Y23999853D01*
X-36479754Y24306504D01*
X-36415000Y24632042D01*
X-36415000Y24963958D01*
X-36479754Y25289496D01*
X-36606772Y25596147D01*
X-36791175Y25872125D01*
X-36967050Y26048000D01*
X-36791175Y26223875D01*
X-36606772Y26499853D01*
X-36479754Y26806504D01*
X-36415000Y27132042D01*
X-36415000Y27463958D01*
X-36479754Y27789496D01*
X-36606772Y28096147D01*
X-36791175Y28372125D01*
X-36967050Y28548000D01*
X-36791175Y28723875D01*
X-36606772Y28999853D01*
X-36479754Y29306504D01*
X-36415000Y29632042D01*
X-36415000Y29963958D01*
X-36479754Y30289496D01*
X-36606772Y30596147D01*
X-36791175Y30872125D01*
X-36967050Y31048000D01*
X-36791175Y31223875D01*
X-36606772Y31499853D01*
X-36479754Y31806504D01*
X-36415000Y32132042D01*
X-36415000Y32463958D01*
X-36479754Y32789496D01*
X-36606772Y33096147D01*
X-36791175Y33372125D01*
X-36967050Y33548000D01*
X-36791175Y33723875D01*
X-36606772Y33999853D01*
X-36479754Y34306504D01*
X-36415000Y34632042D01*
X-36415000Y34963958D01*
X-36479754Y35289496D01*
X-36606772Y35596147D01*
X-36791175Y35872125D01*
X-37025875Y36106825D01*
X-37301853Y36291228D01*
X-37608504Y36418246D01*
X-37934042Y36483000D01*
X-38265958Y36483000D01*
X-38591496Y36418246D01*
X-38898147Y36291228D01*
X-39174125Y36106825D01*
X-39408825Y35872125D01*
X-39593228Y35596147D01*
X-39720246Y35289496D01*
X-39785000Y34963958D01*
X-48485302Y34963958D01*
X-48485224Y35217645D01*
X-48485008Y35890039D01*
X-48484787Y36548371D01*
X-48484685Y36840809D01*
X18272480Y36840809D01*
X18272480Y36656631D01*
X18308412Y36475991D01*
X18378894Y36305831D01*
X18439861Y36214587D01*
X18439860Y-13230694D01*
X18436184Y-13268016D01*
X18439860Y-13305338D01*
X18439860Y-13305348D01*
X18450857Y-13417001D01*
X18494314Y-13560262D01*
X18564886Y-13692292D01*
X18594184Y-13727991D01*
X18659859Y-13808017D01*
X18688863Y-13831820D01*
X38524873Y-33667831D01*
X38419715Y-33738095D01*
X38185015Y-33972795D01*
X38059049Y-34161316D01*
X37173445Y-35046920D01*
X38059049Y-35932524D01*
X38185015Y-36121045D01*
X38419715Y-36355745D01*
X38695693Y-36540148D01*
X39002344Y-36667166D01*
X39327882Y-36731920D01*
X39659798Y-36731920D01*
X39985336Y-36667166D01*
X40291987Y-36540148D01*
X40567965Y-36355745D01*
X40743840Y-36179870D01*
X40919715Y-36355745D01*
X41195693Y-36540148D01*
X41502344Y-36667166D01*
X41827882Y-36731920D01*
X42159798Y-36731920D01*
X42485336Y-36667166D01*
X42791987Y-36540148D01*
X43067965Y-36355745D01*
X43302665Y-36121045D01*
X43487068Y-35845067D01*
X43614086Y-35538416D01*
X43678840Y-35212878D01*
X43678840Y-34880962D01*
X43614086Y-34555424D01*
X43487068Y-34248773D01*
X43302665Y-33972795D01*
X43067965Y-33738095D01*
X42791987Y-33553692D01*
X42755197Y-33538453D01*
X42753840Y-33524672D01*
X42753840Y-33524663D01*
X42742843Y-33413010D01*
X42699386Y-33269749D01*
X42628814Y-33137720D01*
X42533841Y-33021995D01*
X42504843Y-32998197D01*
X23068820Y-13562175D01*
X23068820Y30254589D01*
X24414200Y30254589D01*
X24414200Y30070411D01*
X24450132Y29889771D01*
X24520614Y29719611D01*
X24622938Y29566472D01*
X24753172Y29436238D01*
X24906311Y29333914D01*
X25076471Y29263432D01*
X25257111Y29227500D01*
X25441289Y29227500D01*
X25621929Y29263432D01*
X25792089Y29333914D01*
X25894735Y29402500D01*
X37074405Y29402500D01*
X37177051Y29333914D01*
X37347211Y29263432D01*
X37527851Y29227500D01*
X37712029Y29227500D01*
X37892669Y29263432D01*
X38062829Y29333914D01*
X38215968Y29436238D01*
X38346202Y29566472D01*
X38448526Y29719611D01*
X38519008Y29889771D01*
X38554940Y30070411D01*
X38554940Y30254589D01*
X38519008Y30435229D01*
X38448526Y30605389D01*
X38346202Y30758528D01*
X38215968Y30888762D01*
X38062829Y30991086D01*
X37892669Y31061568D01*
X37712029Y31097500D01*
X37527851Y31097500D01*
X37347211Y31061568D01*
X37177051Y30991086D01*
X37074405Y30922500D01*
X25894735Y30922500D01*
X25792089Y30991086D01*
X25621929Y31061568D01*
X25441289Y31097500D01*
X25257111Y31097500D01*
X25076471Y31061568D01*
X24906311Y30991086D01*
X24753172Y30888762D01*
X24622938Y30758528D01*
X24520614Y30605389D01*
X24450132Y30435229D01*
X24414200Y30254589D01*
X23068820Y30254589D01*
X23068820Y32825069D01*
X24457380Y32825069D01*
X24457380Y32640891D01*
X24493312Y32460251D01*
X24563794Y32290091D01*
X24666118Y32136952D01*
X24796352Y32006718D01*
X24949491Y31904394D01*
X25119651Y31833912D01*
X25300291Y31797980D01*
X25484469Y31797980D01*
X25665109Y31833912D01*
X25835269Y31904394D01*
X25873292Y31929800D01*
X36949945Y31929800D01*
X37052591Y31861214D01*
X37222751Y31790732D01*
X37403391Y31754800D01*
X37587569Y31754800D01*
X37768209Y31790732D01*
X37938369Y31861214D01*
X38091508Y31963538D01*
X38221742Y32093772D01*
X38324066Y32246911D01*
X38394548Y32417071D01*
X38430480Y32597711D01*
X38430480Y32781889D01*
X38412250Y32873538D01*
X39717000Y32873538D01*
X39717000Y32541622D01*
X39781754Y32216084D01*
X39908772Y31909433D01*
X40093175Y31633455D01*
X40289050Y31437580D01*
X40093175Y31241705D01*
X39908772Y30965727D01*
X39781754Y30659076D01*
X39717000Y30333538D01*
X39717000Y30001622D01*
X39781754Y29676084D01*
X39908772Y29369433D01*
X40093175Y29093455D01*
X40289050Y28897580D01*
X40093175Y28701705D01*
X39908772Y28425727D01*
X39781754Y28119076D01*
X39717000Y27793538D01*
X39717000Y27461622D01*
X39781754Y27136084D01*
X39908772Y26829433D01*
X40093175Y26553455D01*
X40327875Y26318755D01*
X40603853Y26134352D01*
X40910504Y26007334D01*
X41236042Y25942580D01*
X41567958Y25942580D01*
X41893496Y26007334D01*
X42200147Y26134352D01*
X42476125Y26318755D01*
X42710825Y26553455D01*
X42895228Y26829433D01*
X43022246Y27136084D01*
X43087000Y27461622D01*
X43087000Y27793538D01*
X43022246Y28119076D01*
X42895228Y28425727D01*
X42710825Y28701705D01*
X42514950Y28897580D01*
X42710825Y29093455D01*
X42895228Y29369433D01*
X43022246Y29676084D01*
X43087000Y30001622D01*
X43087000Y30333538D01*
X43022246Y30659076D01*
X42895228Y30965727D01*
X42710825Y31241705D01*
X42514950Y31437580D01*
X42710825Y31633455D01*
X42895228Y31909433D01*
X43022246Y32216084D01*
X43087000Y32541622D01*
X43087000Y32873538D01*
X43022246Y33199076D01*
X42895228Y33505727D01*
X42710825Y33781705D01*
X42476125Y34016405D01*
X42200147Y34200808D01*
X41893496Y34327826D01*
X41567958Y34392580D01*
X41236042Y34392580D01*
X40910504Y34327826D01*
X40603853Y34200808D01*
X40327875Y34016405D01*
X40093175Y33781705D01*
X39908772Y33505727D01*
X39781754Y33199076D01*
X39717000Y32873538D01*
X38412250Y32873538D01*
X38394548Y32962529D01*
X38324066Y33132689D01*
X38221742Y33285828D01*
X38091508Y33416062D01*
X37938369Y33518386D01*
X37768209Y33588868D01*
X37587569Y33624800D01*
X37403391Y33624800D01*
X37222751Y33588868D01*
X37052591Y33518386D01*
X36949945Y33449800D01*
X25997850Y33449800D01*
X25988408Y33459242D01*
X25835269Y33561566D01*
X25665109Y33632048D01*
X25484469Y33667980D01*
X25300291Y33667980D01*
X25119651Y33632048D01*
X24949491Y33561566D01*
X24796352Y33459242D01*
X24666118Y33329008D01*
X24563794Y33175869D01*
X24493312Y33005709D01*
X24457380Y32825069D01*
X23068820Y32825069D01*
X23068820Y34176265D01*
X23137406Y34278911D01*
X23207888Y34449071D01*
X23243820Y34629711D01*
X23243820Y34813889D01*
X23207888Y34994529D01*
X23137406Y35164689D01*
X23035082Y35317828D01*
X22904848Y35448062D01*
X22751709Y35550386D01*
X22581549Y35620868D01*
X22400909Y35656800D01*
X22216731Y35656800D01*
X22036091Y35620868D01*
X21865931Y35550386D01*
X21712792Y35448062D01*
X21582558Y35317828D01*
X21480234Y35164689D01*
X21409752Y34994529D01*
X21373820Y34813889D01*
X21373820Y34629711D01*
X21409752Y34449071D01*
X21480234Y34278911D01*
X21548821Y34176263D01*
X21548820Y-13839654D01*
X21545144Y-13876976D01*
X21548820Y-13914298D01*
X21548820Y-13914308D01*
X21559817Y-14025961D01*
X21603274Y-14169222D01*
X21673846Y-14301252D01*
X21713691Y-14349802D01*
X21768819Y-14416977D01*
X21797823Y-14440780D01*
X41024873Y-33667831D01*
X40919715Y-33738095D01*
X40743840Y-33913970D01*
X40567965Y-33738095D01*
X40291987Y-33553692D01*
X40255197Y-33538453D01*
X40253840Y-33524671D01*
X40253840Y-33524663D01*
X40242843Y-33413010D01*
X40199386Y-33269749D01*
X40128814Y-33137720D01*
X40033841Y-33021995D01*
X40004843Y-32998197D01*
X19959860Y-12953215D01*
X19959860Y36191780D01*
X20036066Y36305831D01*
X20106548Y36475991D01*
X20142480Y36656631D01*
X20142480Y36840809D01*
X20106548Y37021449D01*
X20036066Y37191609D01*
X19933742Y37344748D01*
X19803508Y37474982D01*
X19650369Y37577306D01*
X19480209Y37647788D01*
X19299569Y37683720D01*
X19115391Y37683720D01*
X18934751Y37647788D01*
X18764591Y37577306D01*
X18611452Y37474982D01*
X18481218Y37344748D01*
X18378894Y37191609D01*
X18308412Y37021449D01*
X18272480Y36840809D01*
X-48484685Y36840809D01*
X-48484561Y37192304D01*
X-48484330Y37821501D01*
X-48484093Y38435624D01*
X-48483852Y39034334D01*
X-48483605Y39617297D01*
X-48483352Y40184175D01*
X-48483095Y40734628D01*
X-48482832Y41268322D01*
X-48482564Y41784919D01*
X-48482291Y42284080D01*
X-48482013Y42765468D01*
X-48481729Y43228747D01*
X-48481440Y43673580D01*
X-48481146Y44099629D01*
X-48480847Y44506554D01*
X-48480542Y44894022D01*
X-48480233Y45261692D01*
X-48479918Y45609228D01*
X-48479597Y45936294D01*
X-48479272Y46242550D01*
X-48478941Y46527658D01*
X-48478605Y46791283D01*
X-48478264Y47033084D01*
X-48477918Y47252722D01*
X-48477566Y47449861D01*
X-48477209Y47624157D01*
X-48476847Y47775330D01*
X-48476848Y47775330D01*
X-48476481Y47902844D01*
X-48476109Y48006520D01*
X-48476108Y48006520D01*
X-48475730Y48086163D01*
X-48475352Y48140574D01*
X-48475120Y48158704D01*
X-48450956Y48241232D01*
X-48410710Y48315323D01*
X-48356986Y48377118D01*
X-48290665Y48426085D01*
X-48210402Y48461910D01*
X-48152989Y48475982D01*
X-48131893Y48476311D01*
X-48090156Y48476706D01*
X-48031575Y48477098D01*
X-47956843Y48477482D01*
X-47865289Y48477858D01*
X-47757193Y48478227D01*
X-47632363Y48478587D01*
X-47632363Y48478586D01*
X-47490516Y48478938D01*
X-47331674Y48479282D01*
X-47155658Y48479617D01*
X-46962332Y48479945D01*
X-46751565Y48480264D01*
X-46523220Y48480575D01*
X-46277167Y48480878D01*
X-46013268Y48481173D01*
X-45731391Y48481459D01*
X-45431400Y48481738D01*
X-45113162Y48482009D01*
X-44776542Y48482272D01*
X-44421405Y48482527D01*
X-44047616Y48482774D01*
X-43655042Y48483013D01*
X-43243545Y48483245D01*
X-42812995Y48483468D01*
X-42363254Y48483684D01*
X-41894188Y48483892D01*
X-41405663Y48484092D01*
X-40897543Y48484285D01*
X-40369694Y48484470D01*
X-39821982Y48484647D01*
X-39254271Y48484817D01*
X-38666428Y48484979D01*
X-38058316Y48485133D01*
X-37429801Y48485280D01*
X-36780750Y48485420D01*
X-36111026Y48485552D01*
X-35420496Y48485677D01*
X-34709024Y48485794D01*
X-33976476Y48485904D01*
X-33222717Y48486007D01*
X-32447611Y48486102D01*
X-31651026Y48486190D01*
X-30832826Y48486270D01*
X-29992874Y48486344D01*
X-29131039Y48486410D01*
X-28247184Y48486469D01*
X-27341175Y48486521D01*
X-26412877Y48486566D01*
X-25462155Y48486604D01*
X-24488874Y48486634D01*
X-23492900Y48486658D01*
X-22474100Y48486675D01*
X-21432336Y48486684D01*
X-20367474Y48486687D01*
X-19279380Y48486683D01*
M02*
