G04 #@! TF.GenerationSoftware,KiCad,Pcbnew,(5.1.2)-1*
G04 #@! TF.CreationDate,2019-07-17T08:56:34-05:00*
G04 #@! TF.ProjectId,8266-dev,38323636-2d64-4657-962e-6b696361645f,rev?*
G04 #@! TF.SameCoordinates,Original*
G04 #@! TF.FileFunction,Copper,L1,Top*
G04 #@! TF.FilePolarity,Positive*
%FSLAX46Y46*%
G04 Gerber Fmt 4.6, Leading zero omitted, Abs format (unit mm)*
G04 Created by KiCad (PCBNEW (5.1.2)-1) date 2019-07-17 08:56:34*
%MOMM*%
%LPD*%
G04 APERTURE LIST*
%ADD10R,8.000000X5.560000*%
%ADD11R,2.600000X5.560000*%
%ADD12C,0.100000*%
%ADD13C,1.250000*%
%ADD14R,1.400000X2.100000*%
%ADD15R,2.000000X1.200000*%
%ADD16R,1.100000X1.700000*%
%ADD17C,2.100000*%
%ADD18R,1.700000X1.700000*%
%ADD19O,1.700000X1.700000*%
%ADD20C,0.600000*%
%ADD21C,0.250000*%
%ADD22C,0.254000*%
G04 APERTURE END LIST*
D10*
X101168200Y-127170180D03*
D11*
X113073200Y-127170180D03*
X89263200Y-127170180D03*
D12*
G36*
X113539804Y-68509924D02*
G01*
X113564073Y-68513524D01*
X113587871Y-68519485D01*
X113610971Y-68527750D01*
X113633149Y-68538240D01*
X113654193Y-68550853D01*
X113673898Y-68565467D01*
X113692077Y-68581943D01*
X113708553Y-68600122D01*
X113723167Y-68619827D01*
X113735780Y-68640871D01*
X113746270Y-68663049D01*
X113754535Y-68686149D01*
X113760496Y-68709947D01*
X113764096Y-68734216D01*
X113765300Y-68758720D01*
X113765300Y-69508720D01*
X113764096Y-69533224D01*
X113760496Y-69557493D01*
X113754535Y-69581291D01*
X113746270Y-69604391D01*
X113735780Y-69626569D01*
X113723167Y-69647613D01*
X113708553Y-69667318D01*
X113692077Y-69685497D01*
X113673898Y-69701973D01*
X113654193Y-69716587D01*
X113633149Y-69729200D01*
X113610971Y-69739690D01*
X113587871Y-69747955D01*
X113564073Y-69753916D01*
X113539804Y-69757516D01*
X113515300Y-69758720D01*
X112265300Y-69758720D01*
X112240796Y-69757516D01*
X112216527Y-69753916D01*
X112192729Y-69747955D01*
X112169629Y-69739690D01*
X112147451Y-69729200D01*
X112126407Y-69716587D01*
X112106702Y-69701973D01*
X112088523Y-69685497D01*
X112072047Y-69667318D01*
X112057433Y-69647613D01*
X112044820Y-69626569D01*
X112034330Y-69604391D01*
X112026065Y-69581291D01*
X112020104Y-69557493D01*
X112016504Y-69533224D01*
X112015300Y-69508720D01*
X112015300Y-68758720D01*
X112016504Y-68734216D01*
X112020104Y-68709947D01*
X112026065Y-68686149D01*
X112034330Y-68663049D01*
X112044820Y-68640871D01*
X112057433Y-68619827D01*
X112072047Y-68600122D01*
X112088523Y-68581943D01*
X112106702Y-68565467D01*
X112126407Y-68550853D01*
X112147451Y-68538240D01*
X112169629Y-68527750D01*
X112192729Y-68519485D01*
X112216527Y-68513524D01*
X112240796Y-68509924D01*
X112265300Y-68508720D01*
X113515300Y-68508720D01*
X113539804Y-68509924D01*
X113539804Y-68509924D01*
G37*
D13*
X112890300Y-69133720D03*
D12*
G36*
X113539804Y-71309924D02*
G01*
X113564073Y-71313524D01*
X113587871Y-71319485D01*
X113610971Y-71327750D01*
X113633149Y-71338240D01*
X113654193Y-71350853D01*
X113673898Y-71365467D01*
X113692077Y-71381943D01*
X113708553Y-71400122D01*
X113723167Y-71419827D01*
X113735780Y-71440871D01*
X113746270Y-71463049D01*
X113754535Y-71486149D01*
X113760496Y-71509947D01*
X113764096Y-71534216D01*
X113765300Y-71558720D01*
X113765300Y-72308720D01*
X113764096Y-72333224D01*
X113760496Y-72357493D01*
X113754535Y-72381291D01*
X113746270Y-72404391D01*
X113735780Y-72426569D01*
X113723167Y-72447613D01*
X113708553Y-72467318D01*
X113692077Y-72485497D01*
X113673898Y-72501973D01*
X113654193Y-72516587D01*
X113633149Y-72529200D01*
X113610971Y-72539690D01*
X113587871Y-72547955D01*
X113564073Y-72553916D01*
X113539804Y-72557516D01*
X113515300Y-72558720D01*
X112265300Y-72558720D01*
X112240796Y-72557516D01*
X112216527Y-72553916D01*
X112192729Y-72547955D01*
X112169629Y-72539690D01*
X112147451Y-72529200D01*
X112126407Y-72516587D01*
X112106702Y-72501973D01*
X112088523Y-72485497D01*
X112072047Y-72467318D01*
X112057433Y-72447613D01*
X112044820Y-72426569D01*
X112034330Y-72404391D01*
X112026065Y-72381291D01*
X112020104Y-72357493D01*
X112016504Y-72333224D01*
X112015300Y-72308720D01*
X112015300Y-71558720D01*
X112016504Y-71534216D01*
X112020104Y-71509947D01*
X112026065Y-71486149D01*
X112034330Y-71463049D01*
X112044820Y-71440871D01*
X112057433Y-71419827D01*
X112072047Y-71400122D01*
X112088523Y-71381943D01*
X112106702Y-71365467D01*
X112126407Y-71350853D01*
X112147451Y-71338240D01*
X112169629Y-71327750D01*
X112192729Y-71319485D01*
X112216527Y-71313524D01*
X112240796Y-71309924D01*
X112265300Y-71308720D01*
X113515300Y-71308720D01*
X113539804Y-71309924D01*
X113539804Y-71309924D01*
G37*
D13*
X112890300Y-71933720D03*
D12*
G36*
X115446264Y-54414384D02*
G01*
X115470533Y-54417984D01*
X115494331Y-54423945D01*
X115517431Y-54432210D01*
X115539609Y-54442700D01*
X115560653Y-54455313D01*
X115580358Y-54469927D01*
X115598537Y-54486403D01*
X115615013Y-54504582D01*
X115629627Y-54524287D01*
X115642240Y-54545331D01*
X115652730Y-54567509D01*
X115660995Y-54590609D01*
X115666956Y-54614407D01*
X115670556Y-54638676D01*
X115671760Y-54663180D01*
X115671760Y-55913180D01*
X115670556Y-55937684D01*
X115666956Y-55961953D01*
X115660995Y-55985751D01*
X115652730Y-56008851D01*
X115642240Y-56031029D01*
X115629627Y-56052073D01*
X115615013Y-56071778D01*
X115598537Y-56089957D01*
X115580358Y-56106433D01*
X115560653Y-56121047D01*
X115539609Y-56133660D01*
X115517431Y-56144150D01*
X115494331Y-56152415D01*
X115470533Y-56158376D01*
X115446264Y-56161976D01*
X115421760Y-56163180D01*
X114671760Y-56163180D01*
X114647256Y-56161976D01*
X114622987Y-56158376D01*
X114599189Y-56152415D01*
X114576089Y-56144150D01*
X114553911Y-56133660D01*
X114532867Y-56121047D01*
X114513162Y-56106433D01*
X114494983Y-56089957D01*
X114478507Y-56071778D01*
X114463893Y-56052073D01*
X114451280Y-56031029D01*
X114440790Y-56008851D01*
X114432525Y-55985751D01*
X114426564Y-55961953D01*
X114422964Y-55937684D01*
X114421760Y-55913180D01*
X114421760Y-54663180D01*
X114422964Y-54638676D01*
X114426564Y-54614407D01*
X114432525Y-54590609D01*
X114440790Y-54567509D01*
X114451280Y-54545331D01*
X114463893Y-54524287D01*
X114478507Y-54504582D01*
X114494983Y-54486403D01*
X114513162Y-54469927D01*
X114532867Y-54455313D01*
X114553911Y-54442700D01*
X114576089Y-54432210D01*
X114599189Y-54423945D01*
X114622987Y-54417984D01*
X114647256Y-54414384D01*
X114671760Y-54413180D01*
X115421760Y-54413180D01*
X115446264Y-54414384D01*
X115446264Y-54414384D01*
G37*
D13*
X115046760Y-55288180D03*
D12*
G36*
X112646264Y-54414384D02*
G01*
X112670533Y-54417984D01*
X112694331Y-54423945D01*
X112717431Y-54432210D01*
X112739609Y-54442700D01*
X112760653Y-54455313D01*
X112780358Y-54469927D01*
X112798537Y-54486403D01*
X112815013Y-54504582D01*
X112829627Y-54524287D01*
X112842240Y-54545331D01*
X112852730Y-54567509D01*
X112860995Y-54590609D01*
X112866956Y-54614407D01*
X112870556Y-54638676D01*
X112871760Y-54663180D01*
X112871760Y-55913180D01*
X112870556Y-55937684D01*
X112866956Y-55961953D01*
X112860995Y-55985751D01*
X112852730Y-56008851D01*
X112842240Y-56031029D01*
X112829627Y-56052073D01*
X112815013Y-56071778D01*
X112798537Y-56089957D01*
X112780358Y-56106433D01*
X112760653Y-56121047D01*
X112739609Y-56133660D01*
X112717431Y-56144150D01*
X112694331Y-56152415D01*
X112670533Y-56158376D01*
X112646264Y-56161976D01*
X112621760Y-56163180D01*
X111871760Y-56163180D01*
X111847256Y-56161976D01*
X111822987Y-56158376D01*
X111799189Y-56152415D01*
X111776089Y-56144150D01*
X111753911Y-56133660D01*
X111732867Y-56121047D01*
X111713162Y-56106433D01*
X111694983Y-56089957D01*
X111678507Y-56071778D01*
X111663893Y-56052073D01*
X111651280Y-56031029D01*
X111640790Y-56008851D01*
X111632525Y-55985751D01*
X111626564Y-55961953D01*
X111622964Y-55937684D01*
X111621760Y-55913180D01*
X111621760Y-54663180D01*
X111622964Y-54638676D01*
X111626564Y-54614407D01*
X111632525Y-54590609D01*
X111640790Y-54567509D01*
X111651280Y-54545331D01*
X111663893Y-54524287D01*
X111678507Y-54504582D01*
X111694983Y-54486403D01*
X111713162Y-54469927D01*
X111732867Y-54455313D01*
X111753911Y-54442700D01*
X111776089Y-54432210D01*
X111799189Y-54423945D01*
X111822987Y-54417984D01*
X111847256Y-54414384D01*
X111871760Y-54413180D01*
X112621760Y-54413180D01*
X112646264Y-54414384D01*
X112646264Y-54414384D01*
G37*
D13*
X112246760Y-55288180D03*
D12*
G36*
X112478624Y-58287884D02*
G01*
X112502893Y-58291484D01*
X112526691Y-58297445D01*
X112549791Y-58305710D01*
X112571969Y-58316200D01*
X112593013Y-58328813D01*
X112612718Y-58343427D01*
X112630897Y-58359903D01*
X112647373Y-58378082D01*
X112661987Y-58397787D01*
X112674600Y-58418831D01*
X112685090Y-58441009D01*
X112693355Y-58464109D01*
X112699316Y-58487907D01*
X112702916Y-58512176D01*
X112704120Y-58536680D01*
X112704120Y-59786680D01*
X112702916Y-59811184D01*
X112699316Y-59835453D01*
X112693355Y-59859251D01*
X112685090Y-59882351D01*
X112674600Y-59904529D01*
X112661987Y-59925573D01*
X112647373Y-59945278D01*
X112630897Y-59963457D01*
X112612718Y-59979933D01*
X112593013Y-59994547D01*
X112571969Y-60007160D01*
X112549791Y-60017650D01*
X112526691Y-60025915D01*
X112502893Y-60031876D01*
X112478624Y-60035476D01*
X112454120Y-60036680D01*
X111704120Y-60036680D01*
X111679616Y-60035476D01*
X111655347Y-60031876D01*
X111631549Y-60025915D01*
X111608449Y-60017650D01*
X111586271Y-60007160D01*
X111565227Y-59994547D01*
X111545522Y-59979933D01*
X111527343Y-59963457D01*
X111510867Y-59945278D01*
X111496253Y-59925573D01*
X111483640Y-59904529D01*
X111473150Y-59882351D01*
X111464885Y-59859251D01*
X111458924Y-59835453D01*
X111455324Y-59811184D01*
X111454120Y-59786680D01*
X111454120Y-58536680D01*
X111455324Y-58512176D01*
X111458924Y-58487907D01*
X111464885Y-58464109D01*
X111473150Y-58441009D01*
X111483640Y-58418831D01*
X111496253Y-58397787D01*
X111510867Y-58378082D01*
X111527343Y-58359903D01*
X111545522Y-58343427D01*
X111565227Y-58328813D01*
X111586271Y-58316200D01*
X111608449Y-58305710D01*
X111631549Y-58297445D01*
X111655347Y-58291484D01*
X111679616Y-58287884D01*
X111704120Y-58286680D01*
X112454120Y-58286680D01*
X112478624Y-58287884D01*
X112478624Y-58287884D01*
G37*
D13*
X112079120Y-59161680D03*
D12*
G36*
X115278624Y-58287884D02*
G01*
X115302893Y-58291484D01*
X115326691Y-58297445D01*
X115349791Y-58305710D01*
X115371969Y-58316200D01*
X115393013Y-58328813D01*
X115412718Y-58343427D01*
X115430897Y-58359903D01*
X115447373Y-58378082D01*
X115461987Y-58397787D01*
X115474600Y-58418831D01*
X115485090Y-58441009D01*
X115493355Y-58464109D01*
X115499316Y-58487907D01*
X115502916Y-58512176D01*
X115504120Y-58536680D01*
X115504120Y-59786680D01*
X115502916Y-59811184D01*
X115499316Y-59835453D01*
X115493355Y-59859251D01*
X115485090Y-59882351D01*
X115474600Y-59904529D01*
X115461987Y-59925573D01*
X115447373Y-59945278D01*
X115430897Y-59963457D01*
X115412718Y-59979933D01*
X115393013Y-59994547D01*
X115371969Y-60007160D01*
X115349791Y-60017650D01*
X115326691Y-60025915D01*
X115302893Y-60031876D01*
X115278624Y-60035476D01*
X115254120Y-60036680D01*
X114504120Y-60036680D01*
X114479616Y-60035476D01*
X114455347Y-60031876D01*
X114431549Y-60025915D01*
X114408449Y-60017650D01*
X114386271Y-60007160D01*
X114365227Y-59994547D01*
X114345522Y-59979933D01*
X114327343Y-59963457D01*
X114310867Y-59945278D01*
X114296253Y-59925573D01*
X114283640Y-59904529D01*
X114273150Y-59882351D01*
X114264885Y-59859251D01*
X114258924Y-59835453D01*
X114255324Y-59811184D01*
X114254120Y-59786680D01*
X114254120Y-58536680D01*
X114255324Y-58512176D01*
X114258924Y-58487907D01*
X114264885Y-58464109D01*
X114273150Y-58441009D01*
X114283640Y-58418831D01*
X114296253Y-58397787D01*
X114310867Y-58378082D01*
X114327343Y-58359903D01*
X114345522Y-58343427D01*
X114365227Y-58328813D01*
X114386271Y-58316200D01*
X114408449Y-58305710D01*
X114431549Y-58297445D01*
X114455347Y-58291484D01*
X114479616Y-58287884D01*
X114504120Y-58286680D01*
X115254120Y-58286680D01*
X115278624Y-58287884D01*
X115278624Y-58287884D01*
G37*
D13*
X114879120Y-59161680D03*
D12*
G36*
X163708804Y-50485004D02*
G01*
X163733073Y-50488604D01*
X163756871Y-50494565D01*
X163779971Y-50502830D01*
X163802149Y-50513320D01*
X163823193Y-50525933D01*
X163842898Y-50540547D01*
X163861077Y-50557023D01*
X163877553Y-50575202D01*
X163892167Y-50594907D01*
X163904780Y-50615951D01*
X163915270Y-50638129D01*
X163923535Y-50661229D01*
X163929496Y-50685027D01*
X163933096Y-50709296D01*
X163934300Y-50733800D01*
X163934300Y-51983800D01*
X163933096Y-52008304D01*
X163929496Y-52032573D01*
X163923535Y-52056371D01*
X163915270Y-52079471D01*
X163904780Y-52101649D01*
X163892167Y-52122693D01*
X163877553Y-52142398D01*
X163861077Y-52160577D01*
X163842898Y-52177053D01*
X163823193Y-52191667D01*
X163802149Y-52204280D01*
X163779971Y-52214770D01*
X163756871Y-52223035D01*
X163733073Y-52228996D01*
X163708804Y-52232596D01*
X163684300Y-52233800D01*
X162934300Y-52233800D01*
X162909796Y-52232596D01*
X162885527Y-52228996D01*
X162861729Y-52223035D01*
X162838629Y-52214770D01*
X162816451Y-52204280D01*
X162795407Y-52191667D01*
X162775702Y-52177053D01*
X162757523Y-52160577D01*
X162741047Y-52142398D01*
X162726433Y-52122693D01*
X162713820Y-52101649D01*
X162703330Y-52079471D01*
X162695065Y-52056371D01*
X162689104Y-52032573D01*
X162685504Y-52008304D01*
X162684300Y-51983800D01*
X162684300Y-50733800D01*
X162685504Y-50709296D01*
X162689104Y-50685027D01*
X162695065Y-50661229D01*
X162703330Y-50638129D01*
X162713820Y-50615951D01*
X162726433Y-50594907D01*
X162741047Y-50575202D01*
X162757523Y-50557023D01*
X162775702Y-50540547D01*
X162795407Y-50525933D01*
X162816451Y-50513320D01*
X162838629Y-50502830D01*
X162861729Y-50494565D01*
X162885527Y-50488604D01*
X162909796Y-50485004D01*
X162934300Y-50483800D01*
X163684300Y-50483800D01*
X163708804Y-50485004D01*
X163708804Y-50485004D01*
G37*
D13*
X163309300Y-51358800D03*
D12*
G36*
X160908804Y-50485004D02*
G01*
X160933073Y-50488604D01*
X160956871Y-50494565D01*
X160979971Y-50502830D01*
X161002149Y-50513320D01*
X161023193Y-50525933D01*
X161042898Y-50540547D01*
X161061077Y-50557023D01*
X161077553Y-50575202D01*
X161092167Y-50594907D01*
X161104780Y-50615951D01*
X161115270Y-50638129D01*
X161123535Y-50661229D01*
X161129496Y-50685027D01*
X161133096Y-50709296D01*
X161134300Y-50733800D01*
X161134300Y-51983800D01*
X161133096Y-52008304D01*
X161129496Y-52032573D01*
X161123535Y-52056371D01*
X161115270Y-52079471D01*
X161104780Y-52101649D01*
X161092167Y-52122693D01*
X161077553Y-52142398D01*
X161061077Y-52160577D01*
X161042898Y-52177053D01*
X161023193Y-52191667D01*
X161002149Y-52204280D01*
X160979971Y-52214770D01*
X160956871Y-52223035D01*
X160933073Y-52228996D01*
X160908804Y-52232596D01*
X160884300Y-52233800D01*
X160134300Y-52233800D01*
X160109796Y-52232596D01*
X160085527Y-52228996D01*
X160061729Y-52223035D01*
X160038629Y-52214770D01*
X160016451Y-52204280D01*
X159995407Y-52191667D01*
X159975702Y-52177053D01*
X159957523Y-52160577D01*
X159941047Y-52142398D01*
X159926433Y-52122693D01*
X159913820Y-52101649D01*
X159903330Y-52079471D01*
X159895065Y-52056371D01*
X159889104Y-52032573D01*
X159885504Y-52008304D01*
X159884300Y-51983800D01*
X159884300Y-50733800D01*
X159885504Y-50709296D01*
X159889104Y-50685027D01*
X159895065Y-50661229D01*
X159903330Y-50638129D01*
X159913820Y-50615951D01*
X159926433Y-50594907D01*
X159941047Y-50575202D01*
X159957523Y-50557023D01*
X159975702Y-50540547D01*
X159995407Y-50525933D01*
X160016451Y-50513320D01*
X160038629Y-50502830D01*
X160061729Y-50494565D01*
X160085527Y-50488604D01*
X160109796Y-50485004D01*
X160134300Y-50483800D01*
X160884300Y-50483800D01*
X160908804Y-50485004D01*
X160908804Y-50485004D01*
G37*
D13*
X160509300Y-51358800D03*
D12*
G36*
X153142864Y-66601304D02*
G01*
X153167133Y-66604904D01*
X153190931Y-66610865D01*
X153214031Y-66619130D01*
X153236209Y-66629620D01*
X153257253Y-66642233D01*
X153276958Y-66656847D01*
X153295137Y-66673323D01*
X153311613Y-66691502D01*
X153326227Y-66711207D01*
X153338840Y-66732251D01*
X153349330Y-66754429D01*
X153357595Y-66777529D01*
X153363556Y-66801327D01*
X153367156Y-66825596D01*
X153368360Y-66850100D01*
X153368360Y-68100100D01*
X153367156Y-68124604D01*
X153363556Y-68148873D01*
X153357595Y-68172671D01*
X153349330Y-68195771D01*
X153338840Y-68217949D01*
X153326227Y-68238993D01*
X153311613Y-68258698D01*
X153295137Y-68276877D01*
X153276958Y-68293353D01*
X153257253Y-68307967D01*
X153236209Y-68320580D01*
X153214031Y-68331070D01*
X153190931Y-68339335D01*
X153167133Y-68345296D01*
X153142864Y-68348896D01*
X153118360Y-68350100D01*
X152368360Y-68350100D01*
X152343856Y-68348896D01*
X152319587Y-68345296D01*
X152295789Y-68339335D01*
X152272689Y-68331070D01*
X152250511Y-68320580D01*
X152229467Y-68307967D01*
X152209762Y-68293353D01*
X152191583Y-68276877D01*
X152175107Y-68258698D01*
X152160493Y-68238993D01*
X152147880Y-68217949D01*
X152137390Y-68195771D01*
X152129125Y-68172671D01*
X152123164Y-68148873D01*
X152119564Y-68124604D01*
X152118360Y-68100100D01*
X152118360Y-66850100D01*
X152119564Y-66825596D01*
X152123164Y-66801327D01*
X152129125Y-66777529D01*
X152137390Y-66754429D01*
X152147880Y-66732251D01*
X152160493Y-66711207D01*
X152175107Y-66691502D01*
X152191583Y-66673323D01*
X152209762Y-66656847D01*
X152229467Y-66642233D01*
X152250511Y-66629620D01*
X152272689Y-66619130D01*
X152295789Y-66610865D01*
X152319587Y-66604904D01*
X152343856Y-66601304D01*
X152368360Y-66600100D01*
X153118360Y-66600100D01*
X153142864Y-66601304D01*
X153142864Y-66601304D01*
G37*
D13*
X152743360Y-67475100D03*
D12*
G36*
X150342864Y-66601304D02*
G01*
X150367133Y-66604904D01*
X150390931Y-66610865D01*
X150414031Y-66619130D01*
X150436209Y-66629620D01*
X150457253Y-66642233D01*
X150476958Y-66656847D01*
X150495137Y-66673323D01*
X150511613Y-66691502D01*
X150526227Y-66711207D01*
X150538840Y-66732251D01*
X150549330Y-66754429D01*
X150557595Y-66777529D01*
X150563556Y-66801327D01*
X150567156Y-66825596D01*
X150568360Y-66850100D01*
X150568360Y-68100100D01*
X150567156Y-68124604D01*
X150563556Y-68148873D01*
X150557595Y-68172671D01*
X150549330Y-68195771D01*
X150538840Y-68217949D01*
X150526227Y-68238993D01*
X150511613Y-68258698D01*
X150495137Y-68276877D01*
X150476958Y-68293353D01*
X150457253Y-68307967D01*
X150436209Y-68320580D01*
X150414031Y-68331070D01*
X150390931Y-68339335D01*
X150367133Y-68345296D01*
X150342864Y-68348896D01*
X150318360Y-68350100D01*
X149568360Y-68350100D01*
X149543856Y-68348896D01*
X149519587Y-68345296D01*
X149495789Y-68339335D01*
X149472689Y-68331070D01*
X149450511Y-68320580D01*
X149429467Y-68307967D01*
X149409762Y-68293353D01*
X149391583Y-68276877D01*
X149375107Y-68258698D01*
X149360493Y-68238993D01*
X149347880Y-68217949D01*
X149337390Y-68195771D01*
X149329125Y-68172671D01*
X149323164Y-68148873D01*
X149319564Y-68124604D01*
X149318360Y-68100100D01*
X149318360Y-66850100D01*
X149319564Y-66825596D01*
X149323164Y-66801327D01*
X149329125Y-66777529D01*
X149337390Y-66754429D01*
X149347880Y-66732251D01*
X149360493Y-66711207D01*
X149375107Y-66691502D01*
X149391583Y-66673323D01*
X149409762Y-66656847D01*
X149429467Y-66642233D01*
X149450511Y-66629620D01*
X149472689Y-66619130D01*
X149495789Y-66610865D01*
X149519587Y-66604904D01*
X149543856Y-66601304D01*
X149568360Y-66600100D01*
X150318360Y-66600100D01*
X150342864Y-66601304D01*
X150342864Y-66601304D01*
G37*
D13*
X149943360Y-67475100D03*
D14*
X167055360Y-67813780D03*
X162555360Y-67813780D03*
X162555360Y-58713780D03*
X167055360Y-58713780D03*
D15*
X125486780Y-55171580D03*
X125486780Y-57171580D03*
X125486780Y-59171580D03*
X125486780Y-61171580D03*
X125486780Y-63171580D03*
X125486780Y-65171580D03*
X125486780Y-67171580D03*
X125486780Y-69171580D03*
X140486780Y-69171580D03*
X140486780Y-67171580D03*
X140486780Y-65171580D03*
X140486780Y-63171580D03*
X140486780Y-61171580D03*
X140486780Y-59171580D03*
X140486780Y-57171580D03*
X140486780Y-55171580D03*
D16*
X127986780Y-70671580D03*
X129986780Y-70671580D03*
X131986780Y-70671580D03*
X133986780Y-70671580D03*
X135986780Y-70671580D03*
X137986780Y-70671580D03*
D17*
X165511480Y-126949200D03*
X168011480Y-126949200D03*
X170511480Y-126949200D03*
X173011480Y-126949200D03*
X175511480Y-126949200D03*
X95417640Y-57104280D03*
X95417640Y-59604280D03*
X95417640Y-62104280D03*
X95417640Y-64604280D03*
X95417640Y-67104280D03*
D18*
X153324560Y-127050800D03*
D19*
X150784560Y-127050800D03*
X148244560Y-127050800D03*
X145704560Y-127050800D03*
X143164560Y-127050800D03*
X140624560Y-127050800D03*
D17*
X174919640Y-59194700D03*
X174919640Y-61734700D03*
X174919640Y-64274700D03*
D12*
G36*
X118856024Y-68555184D02*
G01*
X118880293Y-68558784D01*
X118904091Y-68564745D01*
X118927191Y-68573010D01*
X118949369Y-68583500D01*
X118970413Y-68596113D01*
X118990118Y-68610727D01*
X119008297Y-68627203D01*
X119024773Y-68645382D01*
X119039387Y-68665087D01*
X119052000Y-68686131D01*
X119062490Y-68708309D01*
X119070755Y-68731409D01*
X119076716Y-68755207D01*
X119080316Y-68779476D01*
X119081520Y-68803980D01*
X119081520Y-69553980D01*
X119080316Y-69578484D01*
X119076716Y-69602753D01*
X119070755Y-69626551D01*
X119062490Y-69649651D01*
X119052000Y-69671829D01*
X119039387Y-69692873D01*
X119024773Y-69712578D01*
X119008297Y-69730757D01*
X118990118Y-69747233D01*
X118970413Y-69761847D01*
X118949369Y-69774460D01*
X118927191Y-69784950D01*
X118904091Y-69793215D01*
X118880293Y-69799176D01*
X118856024Y-69802776D01*
X118831520Y-69803980D01*
X117581520Y-69803980D01*
X117557016Y-69802776D01*
X117532747Y-69799176D01*
X117508949Y-69793215D01*
X117485849Y-69784950D01*
X117463671Y-69774460D01*
X117442627Y-69761847D01*
X117422922Y-69747233D01*
X117404743Y-69730757D01*
X117388267Y-69712578D01*
X117373653Y-69692873D01*
X117361040Y-69671829D01*
X117350550Y-69649651D01*
X117342285Y-69626551D01*
X117336324Y-69602753D01*
X117332724Y-69578484D01*
X117331520Y-69553980D01*
X117331520Y-68803980D01*
X117332724Y-68779476D01*
X117336324Y-68755207D01*
X117342285Y-68731409D01*
X117350550Y-68708309D01*
X117361040Y-68686131D01*
X117373653Y-68665087D01*
X117388267Y-68645382D01*
X117404743Y-68627203D01*
X117422922Y-68610727D01*
X117442627Y-68596113D01*
X117463671Y-68583500D01*
X117485849Y-68573010D01*
X117508949Y-68564745D01*
X117532747Y-68558784D01*
X117557016Y-68555184D01*
X117581520Y-68553980D01*
X118831520Y-68553980D01*
X118856024Y-68555184D01*
X118856024Y-68555184D01*
G37*
D13*
X118206520Y-69178980D03*
D12*
G36*
X118856024Y-71355184D02*
G01*
X118880293Y-71358784D01*
X118904091Y-71364745D01*
X118927191Y-71373010D01*
X118949369Y-71383500D01*
X118970413Y-71396113D01*
X118990118Y-71410727D01*
X119008297Y-71427203D01*
X119024773Y-71445382D01*
X119039387Y-71465087D01*
X119052000Y-71486131D01*
X119062490Y-71508309D01*
X119070755Y-71531409D01*
X119076716Y-71555207D01*
X119080316Y-71579476D01*
X119081520Y-71603980D01*
X119081520Y-72353980D01*
X119080316Y-72378484D01*
X119076716Y-72402753D01*
X119070755Y-72426551D01*
X119062490Y-72449651D01*
X119052000Y-72471829D01*
X119039387Y-72492873D01*
X119024773Y-72512578D01*
X119008297Y-72530757D01*
X118990118Y-72547233D01*
X118970413Y-72561847D01*
X118949369Y-72574460D01*
X118927191Y-72584950D01*
X118904091Y-72593215D01*
X118880293Y-72599176D01*
X118856024Y-72602776D01*
X118831520Y-72603980D01*
X117581520Y-72603980D01*
X117557016Y-72602776D01*
X117532747Y-72599176D01*
X117508949Y-72593215D01*
X117485849Y-72584950D01*
X117463671Y-72574460D01*
X117442627Y-72561847D01*
X117422922Y-72547233D01*
X117404743Y-72530757D01*
X117388267Y-72512578D01*
X117373653Y-72492873D01*
X117361040Y-72471829D01*
X117350550Y-72449651D01*
X117342285Y-72426551D01*
X117336324Y-72402753D01*
X117332724Y-72378484D01*
X117331520Y-72353980D01*
X117331520Y-71603980D01*
X117332724Y-71579476D01*
X117336324Y-71555207D01*
X117342285Y-71531409D01*
X117350550Y-71508309D01*
X117361040Y-71486131D01*
X117373653Y-71465087D01*
X117388267Y-71445382D01*
X117404743Y-71427203D01*
X117422922Y-71410727D01*
X117442627Y-71396113D01*
X117463671Y-71383500D01*
X117485849Y-71373010D01*
X117508949Y-71364745D01*
X117532747Y-71358784D01*
X117557016Y-71355184D01*
X117581520Y-71353980D01*
X118831520Y-71353980D01*
X118856024Y-71355184D01*
X118856024Y-71355184D01*
G37*
D13*
X118206520Y-71978980D03*
D20*
X115752880Y-127088900D03*
X110365540Y-69123560D03*
X163296600Y-49062640D03*
X109570520Y-55278020D03*
X109628940Y-59105800D03*
X86413340Y-127083820D03*
X152725120Y-55153560D03*
X155826460Y-57180480D03*
X171013120Y-59212480D03*
X158910020Y-59169300D03*
X171137580Y-61739780D03*
X158866840Y-61739780D03*
D21*
X113073200Y-127170180D02*
X115671600Y-127170180D01*
X115671600Y-127170180D02*
X115752880Y-127088900D01*
X119146460Y-69171580D02*
X119143780Y-69174260D01*
X112930840Y-69174260D02*
X112890300Y-69133720D01*
X110375700Y-69133720D02*
X110365540Y-69123560D01*
X163309300Y-51358800D02*
X163309300Y-49075340D01*
X163309300Y-49075340D02*
X163296600Y-49062640D01*
X111521760Y-55288180D02*
X111503980Y-55305960D01*
X112246760Y-55288180D02*
X111521760Y-55288180D01*
X111503980Y-55305960D02*
X109598460Y-55305960D01*
X109598460Y-55305960D02*
X109570520Y-55278020D01*
X112079120Y-59161680D02*
X109684820Y-59161680D01*
X109684820Y-59161680D02*
X109628940Y-59105800D01*
X89263200Y-127170180D02*
X86499700Y-127170180D01*
X86499700Y-127170180D02*
X86413340Y-127083820D01*
X112880140Y-69123560D02*
X112890300Y-69133720D01*
X110365540Y-69123560D02*
X112880140Y-69123560D01*
X118161260Y-69133720D02*
X118206520Y-69178980D01*
X112890300Y-69133720D02*
X118161260Y-69133720D01*
X125479380Y-69178980D02*
X125486780Y-69171580D01*
X118206520Y-69178980D02*
X125479380Y-69178980D01*
X125370180Y-55288180D02*
X125486780Y-55171580D01*
X115046760Y-55288180D02*
X125370180Y-55288180D01*
X125476880Y-59161680D02*
X125486780Y-59171580D01*
X114879120Y-59161680D02*
X125476880Y-59161680D01*
X161605360Y-58713780D02*
X162555360Y-58713780D01*
X160509300Y-57617720D02*
X161605360Y-58713780D01*
X160509300Y-51358800D02*
X160509300Y-57617720D01*
X149639840Y-67171580D02*
X149943360Y-67475100D01*
X140486780Y-67171580D02*
X149639840Y-67171580D01*
X141736780Y-63171580D02*
X140486780Y-63171580D01*
X161647560Y-63171580D02*
X141736780Y-63171580D01*
X166105360Y-58713780D02*
X161647560Y-63171580D01*
X167055360Y-58713780D02*
X166105360Y-58713780D01*
X140504800Y-55153560D02*
X140486780Y-55171580D01*
X152725120Y-55153560D02*
X140504800Y-55153560D01*
X140495680Y-57180480D02*
X140486780Y-57171580D01*
X155826460Y-57180480D02*
X140495680Y-57180480D01*
X125345820Y-57030620D02*
X125486780Y-57171580D01*
X95484940Y-57171580D02*
X95417640Y-57104280D01*
X125486780Y-57171580D02*
X95484940Y-57171580D01*
X107612940Y-61171580D02*
X125486780Y-61171580D01*
X98469864Y-61171580D02*
X107612940Y-61171580D01*
X96902564Y-59604280D02*
X98469864Y-61171580D01*
X95417640Y-59604280D02*
X96902564Y-59604280D01*
X106818940Y-63171580D02*
X125486780Y-63171580D01*
X97969864Y-63171580D02*
X106818940Y-63171580D01*
X96902564Y-62104280D02*
X97969864Y-63171580D01*
X95417640Y-62104280D02*
X96902564Y-62104280D01*
X106158260Y-65171580D02*
X125486780Y-65171580D01*
X97469864Y-65171580D02*
X106158260Y-65171580D01*
X96902564Y-64604280D02*
X97469864Y-65171580D01*
X95417640Y-64604280D02*
X96902564Y-64604280D01*
X125345820Y-67030620D02*
X125486780Y-67171580D01*
X125419480Y-67104280D02*
X125486780Y-67171580D01*
X95417640Y-67104280D02*
X125419480Y-67104280D01*
X137986780Y-71771580D02*
X138089640Y-71874440D01*
X137986780Y-70671580D02*
X137986780Y-71771580D01*
X138089640Y-71874440D02*
X138089640Y-74122280D01*
X153324560Y-89357200D02*
X153324560Y-127050800D01*
X138089640Y-74122280D02*
X153324560Y-89357200D01*
X135986780Y-71771580D02*
X136057640Y-71842440D01*
X135986780Y-70671580D02*
X135986780Y-71771580D01*
X136057640Y-71842440D02*
X136057640Y-74122280D01*
X150784560Y-88849200D02*
X150784560Y-127050800D01*
X136057640Y-74122280D02*
X150784560Y-88849200D01*
X133986780Y-71771580D02*
X134025640Y-71810440D01*
X133986780Y-70671580D02*
X133986780Y-71771580D01*
X134025640Y-71810440D02*
X134025640Y-74122280D01*
X148244560Y-88341200D02*
X148244560Y-127050800D01*
X134025640Y-74122280D02*
X148244560Y-88341200D01*
X131986780Y-71771580D02*
X131993640Y-71778440D01*
X131986780Y-70671580D02*
X131986780Y-71771580D01*
X131993640Y-71778440D02*
X131993640Y-74122280D01*
X145704560Y-87833200D02*
X145704560Y-127050800D01*
X131993640Y-74122280D02*
X145704560Y-87833200D01*
X129986780Y-70671580D02*
X129986780Y-74097140D01*
X143164560Y-87274920D02*
X143164560Y-127050800D01*
X129986780Y-74097140D02*
X143164560Y-87274920D01*
X127986780Y-71771580D02*
X127929640Y-71828720D01*
X127986780Y-70671580D02*
X127986780Y-71771580D01*
X127929640Y-71828720D02*
X127929640Y-74122280D01*
X127929640Y-74122280D02*
X140629640Y-86822280D01*
X140624560Y-86827360D02*
X140624560Y-127050800D01*
X140629640Y-86822280D02*
X140624560Y-86827360D01*
X174919640Y-59194700D02*
X171030900Y-59194700D01*
X171030900Y-59194700D02*
X171013120Y-59212480D01*
X140489060Y-59169300D02*
X140486780Y-59171580D01*
X158910020Y-59169300D02*
X140489060Y-59169300D01*
X174919640Y-61734700D02*
X171142660Y-61734700D01*
X171142660Y-61734700D02*
X171137580Y-61739780D01*
X141054980Y-61739780D02*
X140486780Y-61171580D01*
X158866840Y-61739780D02*
X141054980Y-61739780D01*
X174919640Y-64274700D02*
X147007580Y-64274700D01*
X146110700Y-65171580D02*
X140486780Y-65171580D01*
X147007580Y-64274700D02*
X146110700Y-65171580D01*
D22*
G36*
X181999890Y-140069225D02*
G01*
X181982741Y-140114587D01*
X181939260Y-140200816D01*
X181891413Y-140260000D01*
X85144034Y-140260000D01*
X85132437Y-140249206D01*
X85084900Y-140180655D01*
X85050641Y-140097932D01*
X85042528Y-140063957D01*
X85042516Y-140063511D01*
X85042143Y-140025021D01*
X85041763Y-139960623D01*
X85041388Y-139871876D01*
X85041018Y-139759063D01*
X85041019Y-139759063D01*
X85040653Y-139622339D01*
X85040293Y-139462293D01*
X85039938Y-139279194D01*
X85039589Y-139073385D01*
X85039244Y-138845202D01*
X85038905Y-138594990D01*
X85038571Y-138323084D01*
X85038243Y-138029823D01*
X85037919Y-137715543D01*
X85037601Y-137380585D01*
X85037288Y-137025285D01*
X85036980Y-136649980D01*
X85036678Y-136255008D01*
X85036380Y-135840706D01*
X85036088Y-135407412D01*
X85035801Y-134955463D01*
X85035520Y-134485197D01*
X85035243Y-133996950D01*
X85034972Y-133491060D01*
X85034706Y-132967865D01*
X85034446Y-132427702D01*
X85034190Y-131870908D01*
X85033940Y-131297820D01*
X85033695Y-130708775D01*
X85033455Y-130104112D01*
X85033221Y-129484167D01*
X85032991Y-128849277D01*
X85032767Y-128199780D01*
X85032549Y-127536014D01*
X85032378Y-126991731D01*
X85478340Y-126991731D01*
X85478340Y-127175909D01*
X85514272Y-127356549D01*
X85584754Y-127526709D01*
X85687078Y-127679848D01*
X85817312Y-127810082D01*
X85970451Y-127912406D01*
X86140611Y-127982888D01*
X86321251Y-128018820D01*
X86505429Y-128018820D01*
X86686069Y-127982888D01*
X86813318Y-127930180D01*
X87325128Y-127930180D01*
X87325128Y-129950180D01*
X87337388Y-130074662D01*
X87373698Y-130194360D01*
X87432663Y-130304674D01*
X87512015Y-130401365D01*
X87608706Y-130480717D01*
X87719020Y-130539682D01*
X87838718Y-130575992D01*
X87963200Y-130588252D01*
X90563200Y-130588252D01*
X90687682Y-130575992D01*
X90807380Y-130539682D01*
X90917694Y-130480717D01*
X91014385Y-130401365D01*
X91093737Y-130304674D01*
X91152702Y-130194360D01*
X91189012Y-130074662D01*
X91201272Y-129950180D01*
X96530128Y-129950180D01*
X96542388Y-130074662D01*
X96578698Y-130194360D01*
X96637663Y-130304674D01*
X96717015Y-130401365D01*
X96813706Y-130480717D01*
X96924020Y-130539682D01*
X97043718Y-130575992D01*
X97168200Y-130588252D01*
X100882450Y-130585180D01*
X101041200Y-130426430D01*
X101041200Y-127297180D01*
X101295200Y-127297180D01*
X101295200Y-130426430D01*
X101453950Y-130585180D01*
X105168200Y-130588252D01*
X105292682Y-130575992D01*
X105412380Y-130539682D01*
X105522694Y-130480717D01*
X105619385Y-130401365D01*
X105698737Y-130304674D01*
X105757702Y-130194360D01*
X105794012Y-130074662D01*
X105806272Y-129950180D01*
X105803200Y-127455930D01*
X105644450Y-127297180D01*
X101295200Y-127297180D01*
X101041200Y-127297180D01*
X96691950Y-127297180D01*
X96533200Y-127455930D01*
X96530128Y-129950180D01*
X91201272Y-129950180D01*
X91201272Y-124390180D01*
X96530128Y-124390180D01*
X96533200Y-126884430D01*
X96691950Y-127043180D01*
X101041200Y-127043180D01*
X101041200Y-123913930D01*
X101295200Y-123913930D01*
X101295200Y-127043180D01*
X105644450Y-127043180D01*
X105803200Y-126884430D01*
X105806272Y-124390180D01*
X111135128Y-124390180D01*
X111135128Y-129950180D01*
X111147388Y-130074662D01*
X111183698Y-130194360D01*
X111242663Y-130304674D01*
X111322015Y-130401365D01*
X111418706Y-130480717D01*
X111529020Y-130539682D01*
X111648718Y-130575992D01*
X111773200Y-130588252D01*
X114373200Y-130588252D01*
X114497682Y-130575992D01*
X114617380Y-130539682D01*
X114727694Y-130480717D01*
X114824385Y-130401365D01*
X114903737Y-130304674D01*
X114962702Y-130194360D01*
X114999012Y-130074662D01*
X115011272Y-129950180D01*
X115011272Y-127930180D01*
X115340637Y-127930180D01*
X115480151Y-127987968D01*
X115660791Y-128023900D01*
X115844969Y-128023900D01*
X116025609Y-127987968D01*
X116195769Y-127917486D01*
X116348908Y-127815162D01*
X116479142Y-127684928D01*
X116581466Y-127531789D01*
X116651948Y-127361629D01*
X116687880Y-127180989D01*
X116687880Y-126996811D01*
X116651948Y-126816171D01*
X116581466Y-126646011D01*
X116479142Y-126492872D01*
X116348908Y-126362638D01*
X116195769Y-126260314D01*
X116025609Y-126189832D01*
X115844969Y-126153900D01*
X115660791Y-126153900D01*
X115480151Y-126189832D01*
X115309991Y-126260314D01*
X115156852Y-126362638D01*
X115109310Y-126410180D01*
X115011272Y-126410180D01*
X115011272Y-124390180D01*
X114999012Y-124265698D01*
X114962702Y-124146000D01*
X114903737Y-124035686D01*
X114824385Y-123938995D01*
X114727694Y-123859643D01*
X114617380Y-123800678D01*
X114497682Y-123764368D01*
X114373200Y-123752108D01*
X111773200Y-123752108D01*
X111648718Y-123764368D01*
X111529020Y-123800678D01*
X111418706Y-123859643D01*
X111322015Y-123938995D01*
X111242663Y-124035686D01*
X111183698Y-124146000D01*
X111147388Y-124265698D01*
X111135128Y-124390180D01*
X105806272Y-124390180D01*
X105794012Y-124265698D01*
X105757702Y-124146000D01*
X105698737Y-124035686D01*
X105619385Y-123938995D01*
X105522694Y-123859643D01*
X105412380Y-123800678D01*
X105292682Y-123764368D01*
X105168200Y-123752108D01*
X101453950Y-123755180D01*
X101295200Y-123913930D01*
X101041200Y-123913930D01*
X100882450Y-123755180D01*
X97168200Y-123752108D01*
X97043718Y-123764368D01*
X96924020Y-123800678D01*
X96813706Y-123859643D01*
X96717015Y-123938995D01*
X96637663Y-124035686D01*
X96578698Y-124146000D01*
X96542388Y-124265698D01*
X96530128Y-124390180D01*
X91201272Y-124390180D01*
X91189012Y-124265698D01*
X91152702Y-124146000D01*
X91093737Y-124035686D01*
X91014385Y-123938995D01*
X90917694Y-123859643D01*
X90807380Y-123800678D01*
X90687682Y-123764368D01*
X90563200Y-123752108D01*
X87963200Y-123752108D01*
X87838718Y-123764368D01*
X87719020Y-123800678D01*
X87608706Y-123859643D01*
X87512015Y-123938995D01*
X87432663Y-124035686D01*
X87373698Y-124146000D01*
X87337388Y-124265698D01*
X87325128Y-124390180D01*
X87325128Y-126410180D01*
X87061990Y-126410180D01*
X87009368Y-126357558D01*
X86856229Y-126255234D01*
X86686069Y-126184752D01*
X86505429Y-126148820D01*
X86321251Y-126148820D01*
X86140611Y-126184752D01*
X85970451Y-126255234D01*
X85817312Y-126357558D01*
X85687078Y-126487792D01*
X85584754Y-126640931D01*
X85514272Y-126811091D01*
X85478340Y-126991731D01*
X85032378Y-126991731D01*
X85032335Y-126858315D01*
X85032127Y-126167021D01*
X85031924Y-125462468D01*
X85031726Y-124744996D01*
X85031533Y-124014939D01*
X85031346Y-123272637D01*
X85031164Y-122518425D01*
X85030987Y-121752643D01*
X85030815Y-120975626D01*
X85030648Y-120187711D01*
X85030487Y-119389237D01*
X85030331Y-118580542D01*
X85030180Y-117761961D01*
X85030035Y-116933832D01*
X85029895Y-116096492D01*
X85029760Y-115250278D01*
X85029630Y-114395530D01*
X85029505Y-113532581D01*
X85029386Y-112661773D01*
X85029272Y-111783439D01*
X85029163Y-110897919D01*
X85029059Y-110005548D01*
X85028961Y-109106668D01*
X85028867Y-108201610D01*
X85028779Y-107290716D01*
X85028697Y-106374320D01*
X85028619Y-105452762D01*
X85028547Y-104526377D01*
X85028480Y-103595505D01*
X85028418Y-102660481D01*
X85028362Y-101721643D01*
X85028310Y-100779327D01*
X85028264Y-99833874D01*
X85028223Y-98885616D01*
X85028188Y-97934895D01*
X85028157Y-96982045D01*
X85028132Y-96027407D01*
X85028112Y-95071313D01*
X85028097Y-94114105D01*
X85028088Y-93156118D01*
X85028084Y-92197690D01*
X85028085Y-91239159D01*
X85028091Y-90280860D01*
X85028102Y-89323132D01*
X85028119Y-88366311D01*
X85028141Y-87410737D01*
X85028168Y-86456744D01*
X85028201Y-85504671D01*
X85028238Y-84554855D01*
X85028281Y-83607633D01*
X85028329Y-82663343D01*
X85028383Y-81722323D01*
X85028441Y-80784907D01*
X85028505Y-79851436D01*
X85028574Y-78922244D01*
X85028648Y-77997673D01*
X85028728Y-77078054D01*
X85028813Y-76163731D01*
X85028903Y-75255035D01*
X85028998Y-74352307D01*
X85029098Y-73455883D01*
X85029204Y-72566102D01*
X85029204Y-72558720D01*
X111377228Y-72558720D01*
X111389488Y-72683202D01*
X111425798Y-72802900D01*
X111484763Y-72913214D01*
X111564115Y-73009905D01*
X111660806Y-73089257D01*
X111771120Y-73148222D01*
X111890818Y-73184532D01*
X112015300Y-73196792D01*
X112604550Y-73193720D01*
X112763300Y-73034970D01*
X112763300Y-72060720D01*
X113017300Y-72060720D01*
X113017300Y-73034970D01*
X113176050Y-73193720D01*
X113765300Y-73196792D01*
X113889782Y-73184532D01*
X114009480Y-73148222D01*
X114119794Y-73089257D01*
X114216485Y-73009905D01*
X114295837Y-72913214D01*
X114354802Y-72802900D01*
X114391112Y-72683202D01*
X114398914Y-72603980D01*
X116693448Y-72603980D01*
X116705708Y-72728462D01*
X116742018Y-72848160D01*
X116800983Y-72958474D01*
X116880335Y-73055165D01*
X116977026Y-73134517D01*
X117087340Y-73193482D01*
X117207038Y-73229792D01*
X117331520Y-73242052D01*
X117920770Y-73238980D01*
X118079520Y-73080230D01*
X118079520Y-72105980D01*
X118333520Y-72105980D01*
X118333520Y-73080230D01*
X118492270Y-73238980D01*
X119081520Y-73242052D01*
X119206002Y-73229792D01*
X119325700Y-73193482D01*
X119436014Y-73134517D01*
X119532705Y-73055165D01*
X119612057Y-72958474D01*
X119671022Y-72848160D01*
X119707332Y-72728462D01*
X119719592Y-72603980D01*
X119716520Y-72264730D01*
X119557770Y-72105980D01*
X118333520Y-72105980D01*
X118079520Y-72105980D01*
X116855270Y-72105980D01*
X116696520Y-72264730D01*
X116693448Y-72603980D01*
X114398914Y-72603980D01*
X114403372Y-72558720D01*
X114400300Y-72219470D01*
X114241550Y-72060720D01*
X113017300Y-72060720D01*
X112763300Y-72060720D01*
X111539050Y-72060720D01*
X111380300Y-72219470D01*
X111377228Y-72558720D01*
X85029204Y-72558720D01*
X85029315Y-71683298D01*
X85029364Y-71308720D01*
X111377228Y-71308720D01*
X111380300Y-71647970D01*
X111539050Y-71806720D01*
X112763300Y-71806720D01*
X112763300Y-70832470D01*
X113017300Y-70832470D01*
X113017300Y-71806720D01*
X114241550Y-71806720D01*
X114400300Y-71647970D01*
X114402962Y-71353980D01*
X116693448Y-71353980D01*
X116696520Y-71693230D01*
X116855270Y-71851980D01*
X118079520Y-71851980D01*
X118079520Y-70877730D01*
X118333520Y-70877730D01*
X118333520Y-71851980D01*
X119557770Y-71851980D01*
X119716520Y-71693230D01*
X119719592Y-71353980D01*
X119707332Y-71229498D01*
X119671022Y-71109800D01*
X119612057Y-70999486D01*
X119532705Y-70902795D01*
X119436014Y-70823443D01*
X119325700Y-70764478D01*
X119206002Y-70728168D01*
X119081520Y-70715908D01*
X118492270Y-70718980D01*
X118333520Y-70877730D01*
X118079520Y-70877730D01*
X117920770Y-70718980D01*
X117331520Y-70715908D01*
X117207038Y-70728168D01*
X117087340Y-70764478D01*
X116977026Y-70823443D01*
X116880335Y-70902795D01*
X116800983Y-70999486D01*
X116742018Y-71109800D01*
X116705708Y-71229498D01*
X116693448Y-71353980D01*
X114402962Y-71353980D01*
X114403372Y-71308720D01*
X114391112Y-71184238D01*
X114354802Y-71064540D01*
X114295837Y-70954226D01*
X114216485Y-70857535D01*
X114119794Y-70778183D01*
X114009480Y-70719218D01*
X113889782Y-70682908D01*
X113765300Y-70670648D01*
X113176050Y-70673720D01*
X113017300Y-70832470D01*
X112763300Y-70832470D01*
X112604550Y-70673720D01*
X112015300Y-70670648D01*
X111890818Y-70682908D01*
X111771120Y-70719218D01*
X111660806Y-70778183D01*
X111564115Y-70857535D01*
X111484763Y-70954226D01*
X111425798Y-71064540D01*
X111389488Y-71184238D01*
X111377228Y-71308720D01*
X85029364Y-71308720D01*
X85029431Y-70807812D01*
X85029552Y-69939979D01*
X85029679Y-69080136D01*
X85029811Y-68228623D01*
X85029948Y-67385773D01*
X85030090Y-66551928D01*
X85030238Y-65727421D01*
X85030390Y-64912592D01*
X85030548Y-64107778D01*
X85030712Y-63313315D01*
X85030880Y-62529542D01*
X85031054Y-61756795D01*
X85031233Y-60995411D01*
X85031417Y-60245729D01*
X85031606Y-59508084D01*
X85031801Y-58782815D01*
X85032001Y-58070259D01*
X85032206Y-57370753D01*
X85032338Y-56938322D01*
X93732640Y-56938322D01*
X93732640Y-57270238D01*
X93797394Y-57595776D01*
X93924412Y-57902427D01*
X94108815Y-58178405D01*
X94284690Y-58354280D01*
X94108815Y-58530155D01*
X93924412Y-58806133D01*
X93797394Y-59112784D01*
X93732640Y-59438322D01*
X93732640Y-59770238D01*
X93797394Y-60095776D01*
X93924412Y-60402427D01*
X94108815Y-60678405D01*
X94284690Y-60854280D01*
X94108815Y-61030155D01*
X93924412Y-61306133D01*
X93797394Y-61612784D01*
X93732640Y-61938322D01*
X93732640Y-62270238D01*
X93797394Y-62595776D01*
X93924412Y-62902427D01*
X94108815Y-63178405D01*
X94284690Y-63354280D01*
X94108815Y-63530155D01*
X93924412Y-63806133D01*
X93797394Y-64112784D01*
X93732640Y-64438322D01*
X93732640Y-64770238D01*
X93797394Y-65095776D01*
X93924412Y-65402427D01*
X94108815Y-65678405D01*
X94284690Y-65854280D01*
X94108815Y-66030155D01*
X93924412Y-66306133D01*
X93797394Y-66612784D01*
X93732640Y-66938322D01*
X93732640Y-67270238D01*
X93797394Y-67595776D01*
X93924412Y-67902427D01*
X94108815Y-68178405D01*
X94343515Y-68413105D01*
X94619493Y-68597508D01*
X94926144Y-68724526D01*
X95251682Y-68789280D01*
X95583598Y-68789280D01*
X95909136Y-68724526D01*
X96215787Y-68597508D01*
X96491765Y-68413105D01*
X96726465Y-68178405D01*
X96910868Y-67902427D01*
X96926669Y-67864280D01*
X123857838Y-67864280D01*
X123860968Y-67896062D01*
X123897278Y-68015760D01*
X123956243Y-68126074D01*
X123993589Y-68171580D01*
X123956243Y-68217086D01*
X123897278Y-68327400D01*
X123869498Y-68418980D01*
X119627859Y-68418980D01*
X119569925Y-68310594D01*
X119459482Y-68176018D01*
X119324906Y-68065575D01*
X119171370Y-67983508D01*
X119004774Y-67932972D01*
X118831520Y-67915908D01*
X117581520Y-67915908D01*
X117408266Y-67932972D01*
X117241670Y-67983508D01*
X117088134Y-68065575D01*
X116953558Y-68176018D01*
X116843115Y-68310594D01*
X116809373Y-68373720D01*
X114311639Y-68373720D01*
X114253705Y-68265334D01*
X114143262Y-68130758D01*
X114008686Y-68020315D01*
X113855150Y-67938248D01*
X113688554Y-67887712D01*
X113515300Y-67870648D01*
X112265300Y-67870648D01*
X112092046Y-67887712D01*
X111925450Y-67938248D01*
X111771914Y-68020315D01*
X111637338Y-68130758D01*
X111526895Y-68265334D01*
X111474392Y-68363560D01*
X110911075Y-68363560D01*
X110808429Y-68294974D01*
X110638269Y-68224492D01*
X110457629Y-68188560D01*
X110273451Y-68188560D01*
X110092811Y-68224492D01*
X109922651Y-68294974D01*
X109769512Y-68397298D01*
X109639278Y-68527532D01*
X109536954Y-68680671D01*
X109466472Y-68850831D01*
X109430540Y-69031471D01*
X109430540Y-69215649D01*
X109466472Y-69396289D01*
X109536954Y-69566449D01*
X109639278Y-69719588D01*
X109769512Y-69849822D01*
X109922651Y-69952146D01*
X110092811Y-70022628D01*
X110273451Y-70058560D01*
X110457629Y-70058560D01*
X110638269Y-70022628D01*
X110808429Y-69952146D01*
X110911075Y-69883560D01*
X111463531Y-69883560D01*
X111526895Y-70002106D01*
X111637338Y-70136682D01*
X111771914Y-70247125D01*
X111925450Y-70329192D01*
X112092046Y-70379728D01*
X112265300Y-70396792D01*
X113515300Y-70396792D01*
X113688554Y-70379728D01*
X113855150Y-70329192D01*
X114008686Y-70247125D01*
X114143262Y-70136682D01*
X114253705Y-70002106D01*
X114311639Y-69893720D01*
X116761015Y-69893720D01*
X116761048Y-69893830D01*
X116843115Y-70047366D01*
X116953558Y-70181942D01*
X117088134Y-70292385D01*
X117241670Y-70374452D01*
X117408266Y-70424988D01*
X117581520Y-70442052D01*
X118831520Y-70442052D01*
X119004774Y-70424988D01*
X119171370Y-70374452D01*
X119324906Y-70292385D01*
X119459482Y-70181942D01*
X119569925Y-70047366D01*
X119627859Y-69938980D01*
X123873987Y-69938980D01*
X123897278Y-70015760D01*
X123956243Y-70126074D01*
X124035595Y-70222765D01*
X124132286Y-70302117D01*
X124242600Y-70361082D01*
X124362298Y-70397392D01*
X124486780Y-70409652D01*
X126486780Y-70409652D01*
X126611262Y-70397392D01*
X126730960Y-70361082D01*
X126798708Y-70324869D01*
X126798708Y-71521580D01*
X126810968Y-71646062D01*
X126847278Y-71765760D01*
X126906243Y-71876074D01*
X126985595Y-71972765D01*
X127082286Y-72052117D01*
X127169640Y-72098809D01*
X127169641Y-74084948D01*
X127165964Y-74122280D01*
X127180638Y-74271265D01*
X127224094Y-74414526D01*
X127294666Y-74546556D01*
X127345209Y-74608142D01*
X127389640Y-74662281D01*
X127418638Y-74686079D01*
X139864560Y-87132002D01*
X139864561Y-125773205D01*
X139795546Y-125810094D01*
X139569426Y-125995666D01*
X139383854Y-126221786D01*
X139245961Y-126479766D01*
X139161047Y-126759689D01*
X139132375Y-127050800D01*
X139161047Y-127341911D01*
X139245961Y-127621834D01*
X139383854Y-127879814D01*
X139569426Y-128105934D01*
X139795546Y-128291506D01*
X140053526Y-128429399D01*
X140333449Y-128514313D01*
X140551610Y-128535800D01*
X140697510Y-128535800D01*
X140915671Y-128514313D01*
X141195594Y-128429399D01*
X141453574Y-128291506D01*
X141679694Y-128105934D01*
X141865266Y-127879814D01*
X141894560Y-127825009D01*
X141923854Y-127879814D01*
X142109426Y-128105934D01*
X142335546Y-128291506D01*
X142593526Y-128429399D01*
X142873449Y-128514313D01*
X143091610Y-128535800D01*
X143237510Y-128535800D01*
X143455671Y-128514313D01*
X143735594Y-128429399D01*
X143993574Y-128291506D01*
X144219694Y-128105934D01*
X144405266Y-127879814D01*
X144434560Y-127825009D01*
X144463854Y-127879814D01*
X144649426Y-128105934D01*
X144875546Y-128291506D01*
X145133526Y-128429399D01*
X145413449Y-128514313D01*
X145631610Y-128535800D01*
X145777510Y-128535800D01*
X145995671Y-128514313D01*
X146275594Y-128429399D01*
X146533574Y-128291506D01*
X146759694Y-128105934D01*
X146945266Y-127879814D01*
X146974560Y-127825009D01*
X147003854Y-127879814D01*
X147189426Y-128105934D01*
X147415546Y-128291506D01*
X147673526Y-128429399D01*
X147953449Y-128514313D01*
X148171610Y-128535800D01*
X148317510Y-128535800D01*
X148535671Y-128514313D01*
X148815594Y-128429399D01*
X149073574Y-128291506D01*
X149299694Y-128105934D01*
X149485266Y-127879814D01*
X149514560Y-127825009D01*
X149543854Y-127879814D01*
X149729426Y-128105934D01*
X149955546Y-128291506D01*
X150213526Y-128429399D01*
X150493449Y-128514313D01*
X150711610Y-128535800D01*
X150857510Y-128535800D01*
X151075671Y-128514313D01*
X151355594Y-128429399D01*
X151613574Y-128291506D01*
X151839694Y-128105934D01*
X151864167Y-128076113D01*
X151885058Y-128144980D01*
X151944023Y-128255294D01*
X152023375Y-128351985D01*
X152120066Y-128431337D01*
X152230380Y-128490302D01*
X152350078Y-128526612D01*
X152474560Y-128538872D01*
X154174560Y-128538872D01*
X154299042Y-128526612D01*
X154418740Y-128490302D01*
X154529054Y-128431337D01*
X154625745Y-128351985D01*
X154705097Y-128255294D01*
X154764062Y-128144980D01*
X154771558Y-128120266D01*
X164520019Y-128120266D01*
X164621819Y-128389779D01*
X164919957Y-128535663D01*
X165240826Y-128620580D01*
X165572097Y-128641266D01*
X165901037Y-128596928D01*
X166215007Y-128489269D01*
X166401141Y-128389779D01*
X166502941Y-128120266D01*
X165511480Y-127128805D01*
X164520019Y-128120266D01*
X154771558Y-128120266D01*
X154800372Y-128025282D01*
X154812632Y-127900800D01*
X154812632Y-127009817D01*
X163819414Y-127009817D01*
X163863752Y-127338757D01*
X163971411Y-127652727D01*
X164070901Y-127838861D01*
X164340414Y-127940661D01*
X165331875Y-126949200D01*
X165691085Y-126949200D01*
X166576689Y-127834804D01*
X166702655Y-128023325D01*
X166937355Y-128258025D01*
X167213333Y-128442428D01*
X167519984Y-128569446D01*
X167845522Y-128634200D01*
X168177438Y-128634200D01*
X168502976Y-128569446D01*
X168809627Y-128442428D01*
X169085605Y-128258025D01*
X169261480Y-128082150D01*
X169437355Y-128258025D01*
X169713333Y-128442428D01*
X170019984Y-128569446D01*
X170345522Y-128634200D01*
X170677438Y-128634200D01*
X171002976Y-128569446D01*
X171309627Y-128442428D01*
X171585605Y-128258025D01*
X171761480Y-128082150D01*
X171937355Y-128258025D01*
X172213333Y-128442428D01*
X172519984Y-128569446D01*
X172845522Y-128634200D01*
X173177438Y-128634200D01*
X173502976Y-128569446D01*
X173809627Y-128442428D01*
X174085605Y-128258025D01*
X174261480Y-128082150D01*
X174437355Y-128258025D01*
X174713333Y-128442428D01*
X175019984Y-128569446D01*
X175345522Y-128634200D01*
X175677438Y-128634200D01*
X176002976Y-128569446D01*
X176309627Y-128442428D01*
X176585605Y-128258025D01*
X176820305Y-128023325D01*
X177004708Y-127747347D01*
X177131726Y-127440696D01*
X177196480Y-127115158D01*
X177196480Y-126783242D01*
X177131726Y-126457704D01*
X177004708Y-126151053D01*
X176820305Y-125875075D01*
X176585605Y-125640375D01*
X176309627Y-125455972D01*
X176002976Y-125328954D01*
X175677438Y-125264200D01*
X175345522Y-125264200D01*
X175019984Y-125328954D01*
X174713333Y-125455972D01*
X174437355Y-125640375D01*
X174261480Y-125816250D01*
X174085605Y-125640375D01*
X173809627Y-125455972D01*
X173502976Y-125328954D01*
X173177438Y-125264200D01*
X172845522Y-125264200D01*
X172519984Y-125328954D01*
X172213333Y-125455972D01*
X171937355Y-125640375D01*
X171761480Y-125816250D01*
X171585605Y-125640375D01*
X171309627Y-125455972D01*
X171002976Y-125328954D01*
X170677438Y-125264200D01*
X170345522Y-125264200D01*
X170019984Y-125328954D01*
X169713333Y-125455972D01*
X169437355Y-125640375D01*
X169261480Y-125816250D01*
X169085605Y-125640375D01*
X168809627Y-125455972D01*
X168502976Y-125328954D01*
X168177438Y-125264200D01*
X167845522Y-125264200D01*
X167519984Y-125328954D01*
X167213333Y-125455972D01*
X166937355Y-125640375D01*
X166702655Y-125875075D01*
X166576689Y-126063596D01*
X165691085Y-126949200D01*
X165331875Y-126949200D01*
X164340414Y-125957739D01*
X164070901Y-126059539D01*
X163925017Y-126357677D01*
X163840100Y-126678546D01*
X163819414Y-127009817D01*
X154812632Y-127009817D01*
X154812632Y-126200800D01*
X154800372Y-126076318D01*
X154764062Y-125956620D01*
X154705097Y-125846306D01*
X154649150Y-125778134D01*
X164520019Y-125778134D01*
X165511480Y-126769595D01*
X166502941Y-125778134D01*
X166401141Y-125508621D01*
X166103003Y-125362737D01*
X165782134Y-125277820D01*
X165450863Y-125257134D01*
X165121923Y-125301472D01*
X164807953Y-125409131D01*
X164621819Y-125508621D01*
X164520019Y-125778134D01*
X154649150Y-125778134D01*
X154625745Y-125749615D01*
X154529054Y-125670263D01*
X154418740Y-125611298D01*
X154299042Y-125574988D01*
X154174560Y-125562728D01*
X154084560Y-125562728D01*
X154084560Y-89394522D01*
X154088236Y-89357199D01*
X154084560Y-89319876D01*
X154084560Y-89319867D01*
X154073563Y-89208214D01*
X154030106Y-89064953D01*
X153959534Y-88932924D01*
X153890824Y-88849200D01*
X153888359Y-88846196D01*
X153888355Y-88846192D01*
X153864561Y-88817199D01*
X153835570Y-88793407D01*
X138849640Y-73807479D01*
X138849640Y-72074371D01*
X138891274Y-72052117D01*
X138987965Y-71972765D01*
X139067317Y-71876074D01*
X139126282Y-71765760D01*
X139162592Y-71646062D01*
X139174852Y-71521580D01*
X139174852Y-70324869D01*
X139242600Y-70361082D01*
X139362298Y-70397392D01*
X139486780Y-70409652D01*
X140201030Y-70406580D01*
X140359780Y-70247830D01*
X140359780Y-69298580D01*
X140613780Y-69298580D01*
X140613780Y-70247830D01*
X140772530Y-70406580D01*
X141486780Y-70409652D01*
X141611262Y-70397392D01*
X141730960Y-70361082D01*
X141841274Y-70302117D01*
X141937965Y-70222765D01*
X142017317Y-70126074D01*
X142076282Y-70015760D01*
X142112592Y-69896062D01*
X142124852Y-69771580D01*
X142121780Y-69457330D01*
X141963030Y-69298580D01*
X140613780Y-69298580D01*
X140359780Y-69298580D01*
X139010530Y-69298580D01*
X138960915Y-69348195D01*
X138891274Y-69291043D01*
X138780960Y-69232078D01*
X138661262Y-69195768D01*
X138536780Y-69183508D01*
X137436780Y-69183508D01*
X137312298Y-69195768D01*
X137192600Y-69232078D01*
X137082286Y-69291043D01*
X136986780Y-69369422D01*
X136891274Y-69291043D01*
X136780960Y-69232078D01*
X136661262Y-69195768D01*
X136536780Y-69183508D01*
X135436780Y-69183508D01*
X135312298Y-69195768D01*
X135192600Y-69232078D01*
X135082286Y-69291043D01*
X134986780Y-69369422D01*
X134891274Y-69291043D01*
X134780960Y-69232078D01*
X134661262Y-69195768D01*
X134536780Y-69183508D01*
X133436780Y-69183508D01*
X133312298Y-69195768D01*
X133192600Y-69232078D01*
X133082286Y-69291043D01*
X132986780Y-69369422D01*
X132891274Y-69291043D01*
X132780960Y-69232078D01*
X132661262Y-69195768D01*
X132536780Y-69183508D01*
X131436780Y-69183508D01*
X131312298Y-69195768D01*
X131192600Y-69232078D01*
X131082286Y-69291043D01*
X130986780Y-69369422D01*
X130891274Y-69291043D01*
X130780960Y-69232078D01*
X130661262Y-69195768D01*
X130536780Y-69183508D01*
X129436780Y-69183508D01*
X129312298Y-69195768D01*
X129192600Y-69232078D01*
X129082286Y-69291043D01*
X128986780Y-69369422D01*
X128891274Y-69291043D01*
X128780960Y-69232078D01*
X128661262Y-69195768D01*
X128536780Y-69183508D01*
X127436780Y-69183508D01*
X127312298Y-69195768D01*
X127192600Y-69232078D01*
X127124852Y-69268291D01*
X127124852Y-68571580D01*
X127112592Y-68447098D01*
X127076282Y-68327400D01*
X127017317Y-68217086D01*
X126979971Y-68171580D01*
X127017317Y-68126074D01*
X127076282Y-68015760D01*
X127112592Y-67896062D01*
X127124852Y-67771580D01*
X127124852Y-66571580D01*
X127112592Y-66447098D01*
X127076282Y-66327400D01*
X127017317Y-66217086D01*
X126979971Y-66171580D01*
X127017317Y-66126074D01*
X127076282Y-66015760D01*
X127112592Y-65896062D01*
X127124852Y-65771580D01*
X127124852Y-64571580D01*
X127112592Y-64447098D01*
X127076282Y-64327400D01*
X127017317Y-64217086D01*
X126979971Y-64171580D01*
X127017317Y-64126074D01*
X127076282Y-64015760D01*
X127112592Y-63896062D01*
X127124852Y-63771580D01*
X127124852Y-62571580D01*
X127112592Y-62447098D01*
X127076282Y-62327400D01*
X127017317Y-62217086D01*
X126979971Y-62171580D01*
X127017317Y-62126074D01*
X127076282Y-62015760D01*
X127112592Y-61896062D01*
X127124852Y-61771580D01*
X127124852Y-60571580D01*
X127112592Y-60447098D01*
X127076282Y-60327400D01*
X127017317Y-60217086D01*
X126979971Y-60171580D01*
X127017317Y-60126074D01*
X127076282Y-60015760D01*
X127112592Y-59896062D01*
X127124852Y-59771580D01*
X127124852Y-58571580D01*
X127112592Y-58447098D01*
X127076282Y-58327400D01*
X127017317Y-58217086D01*
X126979971Y-58171580D01*
X127017317Y-58126074D01*
X127076282Y-58015760D01*
X127112592Y-57896062D01*
X127124852Y-57771580D01*
X127124852Y-56571580D01*
X127112592Y-56447098D01*
X127076282Y-56327400D01*
X127017317Y-56217086D01*
X126979971Y-56171580D01*
X127017317Y-56126074D01*
X127076282Y-56015760D01*
X127112592Y-55896062D01*
X127124852Y-55771580D01*
X127124852Y-54571580D01*
X138848708Y-54571580D01*
X138848708Y-55771580D01*
X138860968Y-55896062D01*
X138897278Y-56015760D01*
X138956243Y-56126074D01*
X138993589Y-56171580D01*
X138956243Y-56217086D01*
X138897278Y-56327400D01*
X138860968Y-56447098D01*
X138848708Y-56571580D01*
X138848708Y-57771580D01*
X138860968Y-57896062D01*
X138897278Y-58015760D01*
X138956243Y-58126074D01*
X138993589Y-58171580D01*
X138956243Y-58217086D01*
X138897278Y-58327400D01*
X138860968Y-58447098D01*
X138848708Y-58571580D01*
X138848708Y-59771580D01*
X138860968Y-59896062D01*
X138897278Y-60015760D01*
X138956243Y-60126074D01*
X138993589Y-60171580D01*
X138956243Y-60217086D01*
X138897278Y-60327400D01*
X138860968Y-60447098D01*
X138848708Y-60571580D01*
X138848708Y-61771580D01*
X138860968Y-61896062D01*
X138897278Y-62015760D01*
X138956243Y-62126074D01*
X138993589Y-62171580D01*
X138956243Y-62217086D01*
X138897278Y-62327400D01*
X138860968Y-62447098D01*
X138848708Y-62571580D01*
X138848708Y-63771580D01*
X138860968Y-63896062D01*
X138897278Y-64015760D01*
X138956243Y-64126074D01*
X138993589Y-64171580D01*
X138956243Y-64217086D01*
X138897278Y-64327400D01*
X138860968Y-64447098D01*
X138848708Y-64571580D01*
X138848708Y-65771580D01*
X138860968Y-65896062D01*
X138897278Y-66015760D01*
X138956243Y-66126074D01*
X138993589Y-66171580D01*
X138956243Y-66217086D01*
X138897278Y-66327400D01*
X138860968Y-66447098D01*
X138848708Y-66571580D01*
X138848708Y-67771580D01*
X138860968Y-67896062D01*
X138897278Y-68015760D01*
X138956243Y-68126074D01*
X138993589Y-68171580D01*
X138956243Y-68217086D01*
X138897278Y-68327400D01*
X138860968Y-68447098D01*
X138848708Y-68571580D01*
X138851780Y-68885830D01*
X139010530Y-69044580D01*
X140359780Y-69044580D01*
X140359780Y-69024580D01*
X140613780Y-69024580D01*
X140613780Y-69044580D01*
X141963030Y-69044580D01*
X142121780Y-68885830D01*
X142124852Y-68571580D01*
X142112592Y-68447098D01*
X142076282Y-68327400D01*
X142017317Y-68217086D01*
X141979971Y-68171580D01*
X142017317Y-68126074D01*
X142076282Y-68015760D01*
X142101818Y-67931580D01*
X148680288Y-67931580D01*
X148680288Y-68100100D01*
X148697352Y-68273354D01*
X148747888Y-68439950D01*
X148829955Y-68593486D01*
X148940398Y-68728062D01*
X149074974Y-68838505D01*
X149228510Y-68920572D01*
X149395106Y-68971108D01*
X149568360Y-68988172D01*
X150318360Y-68988172D01*
X150491614Y-68971108D01*
X150658210Y-68920572D01*
X150811746Y-68838505D01*
X150946322Y-68728062D01*
X151056765Y-68593486D01*
X151138832Y-68439950D01*
X151166087Y-68350100D01*
X151480288Y-68350100D01*
X151492548Y-68474582D01*
X151528858Y-68594280D01*
X151587823Y-68704594D01*
X151667175Y-68801285D01*
X151763866Y-68880637D01*
X151874180Y-68939602D01*
X151993878Y-68975912D01*
X152118360Y-68988172D01*
X152457610Y-68985100D01*
X152616360Y-68826350D01*
X152616360Y-67602100D01*
X152870360Y-67602100D01*
X152870360Y-68826350D01*
X153029110Y-68985100D01*
X153368360Y-68988172D01*
X153492842Y-68975912D01*
X153612540Y-68939602D01*
X153722854Y-68880637D01*
X153819545Y-68801285D01*
X153898897Y-68704594D01*
X153957862Y-68594280D01*
X153994172Y-68474582D01*
X154006432Y-68350100D01*
X154003360Y-67760850D01*
X153844610Y-67602100D01*
X152870360Y-67602100D01*
X152616360Y-67602100D01*
X151642110Y-67602100D01*
X151483360Y-67760850D01*
X151480288Y-68350100D01*
X151166087Y-68350100D01*
X151189368Y-68273354D01*
X151206432Y-68100100D01*
X151206432Y-66850100D01*
X151189368Y-66676846D01*
X151166088Y-66600100D01*
X151480288Y-66600100D01*
X151483360Y-67189350D01*
X151642110Y-67348100D01*
X152616360Y-67348100D01*
X152616360Y-66123850D01*
X152870360Y-66123850D01*
X152870360Y-67348100D01*
X153844610Y-67348100D01*
X154003360Y-67189350D01*
X154005578Y-66763780D01*
X161217288Y-66763780D01*
X161217288Y-68863780D01*
X161229548Y-68988262D01*
X161265858Y-69107960D01*
X161324823Y-69218274D01*
X161404175Y-69314965D01*
X161500866Y-69394317D01*
X161611180Y-69453282D01*
X161730878Y-69489592D01*
X161855360Y-69501852D01*
X163255360Y-69501852D01*
X163379842Y-69489592D01*
X163499540Y-69453282D01*
X163609854Y-69394317D01*
X163706545Y-69314965D01*
X163785897Y-69218274D01*
X163844862Y-69107960D01*
X163881172Y-68988262D01*
X163893432Y-68863780D01*
X165717288Y-68863780D01*
X165729548Y-68988262D01*
X165765858Y-69107960D01*
X165824823Y-69218274D01*
X165904175Y-69314965D01*
X166000866Y-69394317D01*
X166111180Y-69453282D01*
X166230878Y-69489592D01*
X166355360Y-69501852D01*
X166769610Y-69498780D01*
X166928360Y-69340030D01*
X166928360Y-67940780D01*
X167182360Y-67940780D01*
X167182360Y-69340030D01*
X167341110Y-69498780D01*
X167755360Y-69501852D01*
X167879842Y-69489592D01*
X167999540Y-69453282D01*
X168109854Y-69394317D01*
X168206545Y-69314965D01*
X168285897Y-69218274D01*
X168344862Y-69107960D01*
X168381172Y-68988262D01*
X168393432Y-68863780D01*
X168390360Y-68099530D01*
X168231610Y-67940780D01*
X167182360Y-67940780D01*
X166928360Y-67940780D01*
X165879110Y-67940780D01*
X165720360Y-68099530D01*
X165717288Y-68863780D01*
X163893432Y-68863780D01*
X163893432Y-66763780D01*
X165717288Y-66763780D01*
X165720360Y-67528030D01*
X165879110Y-67686780D01*
X166928360Y-67686780D01*
X166928360Y-66287530D01*
X167182360Y-66287530D01*
X167182360Y-67686780D01*
X168231610Y-67686780D01*
X168390360Y-67528030D01*
X168393432Y-66763780D01*
X168381172Y-66639298D01*
X168344862Y-66519600D01*
X168285897Y-66409286D01*
X168206545Y-66312595D01*
X168109854Y-66233243D01*
X167999540Y-66174278D01*
X167879842Y-66137968D01*
X167755360Y-66125708D01*
X167341110Y-66128780D01*
X167182360Y-66287530D01*
X166928360Y-66287530D01*
X166769610Y-66128780D01*
X166355360Y-66125708D01*
X166230878Y-66137968D01*
X166111180Y-66174278D01*
X166000866Y-66233243D01*
X165904175Y-66312595D01*
X165824823Y-66409286D01*
X165765858Y-66519600D01*
X165729548Y-66639298D01*
X165717288Y-66763780D01*
X163893432Y-66763780D01*
X163881172Y-66639298D01*
X163844862Y-66519600D01*
X163785897Y-66409286D01*
X163706545Y-66312595D01*
X163609854Y-66233243D01*
X163499540Y-66174278D01*
X163379842Y-66137968D01*
X163255360Y-66125708D01*
X161855360Y-66125708D01*
X161730878Y-66137968D01*
X161611180Y-66174278D01*
X161500866Y-66233243D01*
X161404175Y-66312595D01*
X161324823Y-66409286D01*
X161265858Y-66519600D01*
X161229548Y-66639298D01*
X161217288Y-66763780D01*
X154005578Y-66763780D01*
X154006432Y-66600100D01*
X153994172Y-66475618D01*
X153957862Y-66355920D01*
X153898897Y-66245606D01*
X153819545Y-66148915D01*
X153722854Y-66069563D01*
X153612540Y-66010598D01*
X153492842Y-65974288D01*
X153368360Y-65962028D01*
X153029110Y-65965100D01*
X152870360Y-66123850D01*
X152616360Y-66123850D01*
X152457610Y-65965100D01*
X152118360Y-65962028D01*
X151993878Y-65974288D01*
X151874180Y-66010598D01*
X151763866Y-66069563D01*
X151667175Y-66148915D01*
X151587823Y-66245606D01*
X151528858Y-66355920D01*
X151492548Y-66475618D01*
X151480288Y-66600100D01*
X151166088Y-66600100D01*
X151138832Y-66510250D01*
X151056765Y-66356714D01*
X150946322Y-66222138D01*
X150811746Y-66111695D01*
X150658210Y-66029628D01*
X150491614Y-65979092D01*
X150318360Y-65962028D01*
X149568360Y-65962028D01*
X149395106Y-65979092D01*
X149228510Y-66029628D01*
X149074974Y-66111695D01*
X148940398Y-66222138D01*
X148829955Y-66356714D01*
X148800628Y-66411580D01*
X142101818Y-66411580D01*
X142076282Y-66327400D01*
X142017317Y-66217086D01*
X141979971Y-66171580D01*
X142017317Y-66126074D01*
X142076282Y-66015760D01*
X142101818Y-65931580D01*
X146073378Y-65931580D01*
X146110700Y-65935256D01*
X146148022Y-65931580D01*
X146148033Y-65931580D01*
X146259686Y-65920583D01*
X146402947Y-65877126D01*
X146534976Y-65806554D01*
X146650701Y-65711581D01*
X146674503Y-65682578D01*
X147322382Y-65034700D01*
X173410611Y-65034700D01*
X173426412Y-65072847D01*
X173610815Y-65348825D01*
X173845515Y-65583525D01*
X174121493Y-65767928D01*
X174428144Y-65894946D01*
X174753682Y-65959700D01*
X175085598Y-65959700D01*
X175411136Y-65894946D01*
X175717787Y-65767928D01*
X175993765Y-65583525D01*
X176228465Y-65348825D01*
X176412868Y-65072847D01*
X176539886Y-64766196D01*
X176604640Y-64440658D01*
X176604640Y-64108742D01*
X176539886Y-63783204D01*
X176412868Y-63476553D01*
X176228465Y-63200575D01*
X176032590Y-63004700D01*
X176228465Y-62808825D01*
X176412868Y-62532847D01*
X176539886Y-62226196D01*
X176604640Y-61900658D01*
X176604640Y-61568742D01*
X176539886Y-61243204D01*
X176412868Y-60936553D01*
X176228465Y-60660575D01*
X176032590Y-60464700D01*
X176228465Y-60268825D01*
X176412868Y-59992847D01*
X176539886Y-59686196D01*
X176604640Y-59360658D01*
X176604640Y-59028742D01*
X176539886Y-58703204D01*
X176412868Y-58396553D01*
X176228465Y-58120575D01*
X175993765Y-57885875D01*
X175717787Y-57701472D01*
X175411136Y-57574454D01*
X175085598Y-57509700D01*
X174753682Y-57509700D01*
X174428144Y-57574454D01*
X174121493Y-57701472D01*
X173845515Y-57885875D01*
X173610815Y-58120575D01*
X173426412Y-58396553D01*
X173410611Y-58434700D01*
X171532046Y-58434700D01*
X171456009Y-58383894D01*
X171285849Y-58313412D01*
X171105209Y-58277480D01*
X170921031Y-58277480D01*
X170740391Y-58313412D01*
X170570231Y-58383894D01*
X170417092Y-58486218D01*
X170286858Y-58616452D01*
X170184534Y-58769591D01*
X170114052Y-58939751D01*
X170078120Y-59120391D01*
X170078120Y-59304569D01*
X170114052Y-59485209D01*
X170184534Y-59655369D01*
X170286858Y-59808508D01*
X170417092Y-59938742D01*
X170570231Y-60041066D01*
X170740391Y-60111548D01*
X170921031Y-60147480D01*
X171105209Y-60147480D01*
X171285849Y-60111548D01*
X171456009Y-60041066D01*
X171585265Y-59954700D01*
X173410611Y-59954700D01*
X173426412Y-59992847D01*
X173610815Y-60268825D01*
X173806690Y-60464700D01*
X173610815Y-60660575D01*
X173426412Y-60936553D01*
X173410611Y-60974700D01*
X171675513Y-60974700D01*
X171580469Y-60911194D01*
X171410309Y-60840712D01*
X171229669Y-60804780D01*
X171045491Y-60804780D01*
X170864851Y-60840712D01*
X170694691Y-60911194D01*
X170541552Y-61013518D01*
X170411318Y-61143752D01*
X170308994Y-61296891D01*
X170238512Y-61467051D01*
X170202580Y-61647691D01*
X170202580Y-61831869D01*
X170238512Y-62012509D01*
X170308994Y-62182669D01*
X170411318Y-62335808D01*
X170541552Y-62466042D01*
X170694691Y-62568366D01*
X170864851Y-62638848D01*
X171045491Y-62674780D01*
X171229669Y-62674780D01*
X171410309Y-62638848D01*
X171580469Y-62568366D01*
X171690718Y-62494700D01*
X173410611Y-62494700D01*
X173426412Y-62532847D01*
X173610815Y-62808825D01*
X173806690Y-63004700D01*
X173610815Y-63200575D01*
X173426412Y-63476553D01*
X173410611Y-63514700D01*
X162379241Y-63514700D01*
X165807701Y-60086241D01*
X165824823Y-60118274D01*
X165904175Y-60214965D01*
X166000866Y-60294317D01*
X166111180Y-60353282D01*
X166230878Y-60389592D01*
X166355360Y-60401852D01*
X167755360Y-60401852D01*
X167879842Y-60389592D01*
X167999540Y-60353282D01*
X168109854Y-60294317D01*
X168206545Y-60214965D01*
X168285897Y-60118274D01*
X168344862Y-60007960D01*
X168381172Y-59888262D01*
X168393432Y-59763780D01*
X168393432Y-57663780D01*
X168381172Y-57539298D01*
X168344862Y-57419600D01*
X168285897Y-57309286D01*
X168206545Y-57212595D01*
X168109854Y-57133243D01*
X167999540Y-57074278D01*
X167879842Y-57037968D01*
X167755360Y-57025708D01*
X166355360Y-57025708D01*
X166230878Y-57037968D01*
X166111180Y-57074278D01*
X166000866Y-57133243D01*
X165904175Y-57212595D01*
X165824823Y-57309286D01*
X165765858Y-57419600D01*
X165729548Y-57539298D01*
X165717288Y-57663780D01*
X165717288Y-58059454D01*
X165681084Y-58078806D01*
X165565359Y-58173779D01*
X165541561Y-58202777D01*
X163883914Y-59860425D01*
X163893432Y-59763780D01*
X163893432Y-57663780D01*
X163881172Y-57539298D01*
X163844862Y-57419600D01*
X163785897Y-57309286D01*
X163706545Y-57212595D01*
X163609854Y-57133243D01*
X163499540Y-57074278D01*
X163379842Y-57037968D01*
X163255360Y-57025708D01*
X161855360Y-57025708D01*
X161730878Y-57037968D01*
X161611180Y-57074278D01*
X161500866Y-57133243D01*
X161404175Y-57212595D01*
X161324823Y-57309286D01*
X161307701Y-57341319D01*
X161269300Y-57302919D01*
X161269300Y-52780139D01*
X161377686Y-52722205D01*
X161512262Y-52611762D01*
X161622705Y-52477186D01*
X161704772Y-52323650D01*
X161755308Y-52157054D01*
X161772372Y-51983800D01*
X161772372Y-50733800D01*
X162046228Y-50733800D01*
X162046228Y-51983800D01*
X162063292Y-52157054D01*
X162113828Y-52323650D01*
X162195895Y-52477186D01*
X162306338Y-52611762D01*
X162440914Y-52722205D01*
X162594450Y-52804272D01*
X162761046Y-52854808D01*
X162934300Y-52871872D01*
X163684300Y-52871872D01*
X163857554Y-52854808D01*
X164024150Y-52804272D01*
X164177686Y-52722205D01*
X164312262Y-52611762D01*
X164422705Y-52477186D01*
X164504772Y-52323650D01*
X164555308Y-52157054D01*
X164572372Y-51983800D01*
X164572372Y-50733800D01*
X164555308Y-50560546D01*
X164504772Y-50393950D01*
X164422705Y-50240414D01*
X164312262Y-50105838D01*
X164177686Y-49995395D01*
X164069300Y-49937461D01*
X164069300Y-49589168D01*
X164125186Y-49505529D01*
X164195668Y-49335369D01*
X164231600Y-49154729D01*
X164231600Y-48970551D01*
X164195668Y-48789911D01*
X164125186Y-48619751D01*
X164022862Y-48466612D01*
X163892628Y-48336378D01*
X163739489Y-48234054D01*
X163569329Y-48163572D01*
X163388689Y-48127640D01*
X163204511Y-48127640D01*
X163023871Y-48163572D01*
X162853711Y-48234054D01*
X162700572Y-48336378D01*
X162570338Y-48466612D01*
X162468014Y-48619751D01*
X162397532Y-48789911D01*
X162361600Y-48970551D01*
X162361600Y-49154729D01*
X162397532Y-49335369D01*
X162468014Y-49505529D01*
X162549301Y-49627183D01*
X162549301Y-49937461D01*
X162440914Y-49995395D01*
X162306338Y-50105838D01*
X162195895Y-50240414D01*
X162113828Y-50393950D01*
X162063292Y-50560546D01*
X162046228Y-50733800D01*
X161772372Y-50733800D01*
X161755308Y-50560546D01*
X161704772Y-50393950D01*
X161622705Y-50240414D01*
X161512262Y-50105838D01*
X161377686Y-49995395D01*
X161224150Y-49913328D01*
X161057554Y-49862792D01*
X160884300Y-49845728D01*
X160134300Y-49845728D01*
X159961046Y-49862792D01*
X159794450Y-49913328D01*
X159640914Y-49995395D01*
X159506338Y-50105838D01*
X159395895Y-50240414D01*
X159313828Y-50393950D01*
X159263292Y-50560546D01*
X159246228Y-50733800D01*
X159246228Y-51983800D01*
X159263292Y-52157054D01*
X159313828Y-52323650D01*
X159395895Y-52477186D01*
X159506338Y-52611762D01*
X159640914Y-52722205D01*
X159749300Y-52780139D01*
X159749301Y-57580388D01*
X159745624Y-57617720D01*
X159749301Y-57655053D01*
X159760298Y-57766706D01*
X159769874Y-57798275D01*
X159803754Y-57909966D01*
X159874326Y-58041996D01*
X159938667Y-58120395D01*
X159969300Y-58157721D01*
X159998298Y-58181519D01*
X161041561Y-59224783D01*
X161065359Y-59253781D01*
X161094357Y-59277579D01*
X161181083Y-59348754D01*
X161217288Y-59368106D01*
X161217288Y-59763780D01*
X161229548Y-59888262D01*
X161265858Y-60007960D01*
X161324823Y-60118274D01*
X161404175Y-60214965D01*
X161500866Y-60294317D01*
X161611180Y-60353282D01*
X161730878Y-60389592D01*
X161855360Y-60401852D01*
X163255360Y-60401852D01*
X163352005Y-60392334D01*
X161332759Y-62411580D01*
X159517330Y-62411580D01*
X159593102Y-62335808D01*
X159695426Y-62182669D01*
X159765908Y-62012509D01*
X159801840Y-61831869D01*
X159801840Y-61647691D01*
X159765908Y-61467051D01*
X159695426Y-61296891D01*
X159593102Y-61143752D01*
X159462868Y-61013518D01*
X159309729Y-60911194D01*
X159139569Y-60840712D01*
X158958929Y-60804780D01*
X158774751Y-60804780D01*
X158594111Y-60840712D01*
X158423951Y-60911194D01*
X158321305Y-60979780D01*
X142124852Y-60979780D01*
X142124852Y-60571580D01*
X142112592Y-60447098D01*
X142076282Y-60327400D01*
X142017317Y-60217086D01*
X141979971Y-60171580D01*
X142017317Y-60126074D01*
X142076282Y-60015760D01*
X142102509Y-59929300D01*
X158364485Y-59929300D01*
X158467131Y-59997886D01*
X158637291Y-60068368D01*
X158817931Y-60104300D01*
X159002109Y-60104300D01*
X159182749Y-60068368D01*
X159352909Y-59997886D01*
X159506048Y-59895562D01*
X159636282Y-59765328D01*
X159738606Y-59612189D01*
X159809088Y-59442029D01*
X159845020Y-59261389D01*
X159845020Y-59077211D01*
X159809088Y-58896571D01*
X159738606Y-58726411D01*
X159636282Y-58573272D01*
X159506048Y-58443038D01*
X159352909Y-58340714D01*
X159182749Y-58270232D01*
X159002109Y-58234300D01*
X158817931Y-58234300D01*
X158637291Y-58270232D01*
X158467131Y-58340714D01*
X158364485Y-58409300D01*
X142101126Y-58409300D01*
X142076282Y-58327400D01*
X142017317Y-58217086D01*
X141979971Y-58171580D01*
X142017317Y-58126074D01*
X142076282Y-58015760D01*
X142099118Y-57940480D01*
X155280925Y-57940480D01*
X155383571Y-58009066D01*
X155553731Y-58079548D01*
X155734371Y-58115480D01*
X155918549Y-58115480D01*
X156099189Y-58079548D01*
X156269349Y-58009066D01*
X156422488Y-57906742D01*
X156552722Y-57776508D01*
X156655046Y-57623369D01*
X156725528Y-57453209D01*
X156761460Y-57272569D01*
X156761460Y-57088391D01*
X156725528Y-56907751D01*
X156655046Y-56737591D01*
X156552722Y-56584452D01*
X156422488Y-56454218D01*
X156269349Y-56351894D01*
X156099189Y-56281412D01*
X155918549Y-56245480D01*
X155734371Y-56245480D01*
X155553731Y-56281412D01*
X155383571Y-56351894D01*
X155280925Y-56420480D01*
X142104518Y-56420480D01*
X142076282Y-56327400D01*
X142017317Y-56217086D01*
X141979971Y-56171580D01*
X142017317Y-56126074D01*
X142076282Y-56015760D01*
X142107284Y-55913560D01*
X152179585Y-55913560D01*
X152282231Y-55982146D01*
X152452391Y-56052628D01*
X152633031Y-56088560D01*
X152817209Y-56088560D01*
X152997849Y-56052628D01*
X153168009Y-55982146D01*
X153321148Y-55879822D01*
X153451382Y-55749588D01*
X153553706Y-55596449D01*
X153624188Y-55426289D01*
X153660120Y-55245649D01*
X153660120Y-55061471D01*
X153624188Y-54880831D01*
X153553706Y-54710671D01*
X153451382Y-54557532D01*
X153321148Y-54427298D01*
X153168009Y-54324974D01*
X152997849Y-54254492D01*
X152817209Y-54218560D01*
X152633031Y-54218560D01*
X152452391Y-54254492D01*
X152282231Y-54324974D01*
X152179585Y-54393560D01*
X142096351Y-54393560D01*
X142076282Y-54327400D01*
X142017317Y-54217086D01*
X141937965Y-54120395D01*
X141841274Y-54041043D01*
X141730960Y-53982078D01*
X141611262Y-53945768D01*
X141486780Y-53933508D01*
X139486780Y-53933508D01*
X139362298Y-53945768D01*
X139242600Y-53982078D01*
X139132286Y-54041043D01*
X139035595Y-54120395D01*
X138956243Y-54217086D01*
X138897278Y-54327400D01*
X138860968Y-54447098D01*
X138848708Y-54571580D01*
X127124852Y-54571580D01*
X127112592Y-54447098D01*
X127076282Y-54327400D01*
X127017317Y-54217086D01*
X126937965Y-54120395D01*
X126841274Y-54041043D01*
X126730960Y-53982078D01*
X126611262Y-53945768D01*
X126486780Y-53933508D01*
X124486780Y-53933508D01*
X124362298Y-53945768D01*
X124242600Y-53982078D01*
X124132286Y-54041043D01*
X124035595Y-54120395D01*
X123956243Y-54217086D01*
X123897278Y-54327400D01*
X123860968Y-54447098D01*
X123852982Y-54528180D01*
X116296536Y-54528180D01*
X116292768Y-54489926D01*
X116242232Y-54323330D01*
X116160165Y-54169794D01*
X116049722Y-54035218D01*
X115915146Y-53924775D01*
X115761610Y-53842708D01*
X115595014Y-53792172D01*
X115421760Y-53775108D01*
X114671760Y-53775108D01*
X114498506Y-53792172D01*
X114331910Y-53842708D01*
X114178374Y-53924775D01*
X114043798Y-54035218D01*
X113933355Y-54169794D01*
X113851288Y-54323330D01*
X113800752Y-54489926D01*
X113783688Y-54663180D01*
X113783688Y-55913180D01*
X113800752Y-56086434D01*
X113851288Y-56253030D01*
X113933355Y-56406566D01*
X113937470Y-56411580D01*
X113356050Y-56411580D01*
X113360165Y-56406566D01*
X113442232Y-56253030D01*
X113492768Y-56086434D01*
X113509832Y-55913180D01*
X113509832Y-54663180D01*
X113492768Y-54489926D01*
X113442232Y-54323330D01*
X113360165Y-54169794D01*
X113249722Y-54035218D01*
X113115146Y-53924775D01*
X112961610Y-53842708D01*
X112795014Y-53792172D01*
X112621760Y-53775108D01*
X111871760Y-53775108D01*
X111698506Y-53792172D01*
X111531910Y-53842708D01*
X111378374Y-53924775D01*
X111243798Y-54035218D01*
X111133355Y-54169794D01*
X111051288Y-54323330D01*
X111000752Y-54489926D01*
X110995233Y-54545960D01*
X110157871Y-54545960D01*
X110013409Y-54449434D01*
X109843249Y-54378952D01*
X109662609Y-54343020D01*
X109478431Y-54343020D01*
X109297791Y-54378952D01*
X109127631Y-54449434D01*
X108974492Y-54551758D01*
X108844258Y-54681992D01*
X108741934Y-54835131D01*
X108671452Y-55005291D01*
X108635520Y-55185931D01*
X108635520Y-55370109D01*
X108671452Y-55550749D01*
X108741934Y-55720909D01*
X108844258Y-55874048D01*
X108974492Y-56004282D01*
X109127631Y-56106606D01*
X109297791Y-56177088D01*
X109478431Y-56213020D01*
X109662609Y-56213020D01*
X109843249Y-56177088D01*
X110013409Y-56106606D01*
X110074240Y-56065960D01*
X110998735Y-56065960D01*
X111000752Y-56086434D01*
X111051288Y-56253030D01*
X111133355Y-56406566D01*
X111137470Y-56411580D01*
X96954545Y-56411580D01*
X96910868Y-56306133D01*
X96726465Y-56030155D01*
X96491765Y-55795455D01*
X96215787Y-55611052D01*
X95909136Y-55484034D01*
X95583598Y-55419280D01*
X95251682Y-55419280D01*
X94926144Y-55484034D01*
X94619493Y-55611052D01*
X94343515Y-55795455D01*
X94108815Y-56030155D01*
X93924412Y-56306133D01*
X93797394Y-56612784D01*
X93732640Y-56938322D01*
X85032338Y-56938322D01*
X85032416Y-56684635D01*
X85032632Y-56012241D01*
X85032853Y-55353909D01*
X85033079Y-54709976D01*
X85033310Y-54080779D01*
X85033547Y-53466656D01*
X85033788Y-52867946D01*
X85034035Y-52284983D01*
X85034288Y-51718105D01*
X85034545Y-51167652D01*
X85034808Y-50633958D01*
X85035076Y-50117361D01*
X85035349Y-49618200D01*
X85035627Y-49136812D01*
X85035911Y-48673533D01*
X85036200Y-48228700D01*
X85036494Y-47802651D01*
X85036793Y-47395726D01*
X85037098Y-47008258D01*
X85037407Y-46640588D01*
X85037722Y-46293052D01*
X85038043Y-45965986D01*
X85038368Y-45659730D01*
X85038699Y-45374622D01*
X85039035Y-45110997D01*
X85039376Y-44869196D01*
X85039722Y-44649558D01*
X85040074Y-44452419D01*
X85040431Y-44278123D01*
X85040793Y-44126950D01*
X85040792Y-44126950D01*
X85041159Y-43999436D01*
X85041531Y-43895760D01*
X85041532Y-43895760D01*
X85041559Y-43890000D01*
X181999890Y-43890000D01*
X181999890Y-140069225D01*
X181999890Y-140069225D01*
G37*
X181999890Y-140069225D02*
X181982741Y-140114587D01*
X181939260Y-140200816D01*
X181891413Y-140260000D01*
X85144034Y-140260000D01*
X85132437Y-140249206D01*
X85084900Y-140180655D01*
X85050641Y-140097932D01*
X85042528Y-140063957D01*
X85042516Y-140063511D01*
X85042143Y-140025021D01*
X85041763Y-139960623D01*
X85041388Y-139871876D01*
X85041018Y-139759063D01*
X85041019Y-139759063D01*
X85040653Y-139622339D01*
X85040293Y-139462293D01*
X85039938Y-139279194D01*
X85039589Y-139073385D01*
X85039244Y-138845202D01*
X85038905Y-138594990D01*
X85038571Y-138323084D01*
X85038243Y-138029823D01*
X85037919Y-137715543D01*
X85037601Y-137380585D01*
X85037288Y-137025285D01*
X85036980Y-136649980D01*
X85036678Y-136255008D01*
X85036380Y-135840706D01*
X85036088Y-135407412D01*
X85035801Y-134955463D01*
X85035520Y-134485197D01*
X85035243Y-133996950D01*
X85034972Y-133491060D01*
X85034706Y-132967865D01*
X85034446Y-132427702D01*
X85034190Y-131870908D01*
X85033940Y-131297820D01*
X85033695Y-130708775D01*
X85033455Y-130104112D01*
X85033221Y-129484167D01*
X85032991Y-128849277D01*
X85032767Y-128199780D01*
X85032549Y-127536014D01*
X85032378Y-126991731D01*
X85478340Y-126991731D01*
X85478340Y-127175909D01*
X85514272Y-127356549D01*
X85584754Y-127526709D01*
X85687078Y-127679848D01*
X85817312Y-127810082D01*
X85970451Y-127912406D01*
X86140611Y-127982888D01*
X86321251Y-128018820D01*
X86505429Y-128018820D01*
X86686069Y-127982888D01*
X86813318Y-127930180D01*
X87325128Y-127930180D01*
X87325128Y-129950180D01*
X87337388Y-130074662D01*
X87373698Y-130194360D01*
X87432663Y-130304674D01*
X87512015Y-130401365D01*
X87608706Y-130480717D01*
X87719020Y-130539682D01*
X87838718Y-130575992D01*
X87963200Y-130588252D01*
X90563200Y-130588252D01*
X90687682Y-130575992D01*
X90807380Y-130539682D01*
X90917694Y-130480717D01*
X91014385Y-130401365D01*
X91093737Y-130304674D01*
X91152702Y-130194360D01*
X91189012Y-130074662D01*
X91201272Y-129950180D01*
X96530128Y-129950180D01*
X96542388Y-130074662D01*
X96578698Y-130194360D01*
X96637663Y-130304674D01*
X96717015Y-130401365D01*
X96813706Y-130480717D01*
X96924020Y-130539682D01*
X97043718Y-130575992D01*
X97168200Y-130588252D01*
X100882450Y-130585180D01*
X101041200Y-130426430D01*
X101041200Y-127297180D01*
X101295200Y-127297180D01*
X101295200Y-130426430D01*
X101453950Y-130585180D01*
X105168200Y-130588252D01*
X105292682Y-130575992D01*
X105412380Y-130539682D01*
X105522694Y-130480717D01*
X105619385Y-130401365D01*
X105698737Y-130304674D01*
X105757702Y-130194360D01*
X105794012Y-130074662D01*
X105806272Y-129950180D01*
X105803200Y-127455930D01*
X105644450Y-127297180D01*
X101295200Y-127297180D01*
X101041200Y-127297180D01*
X96691950Y-127297180D01*
X96533200Y-127455930D01*
X96530128Y-129950180D01*
X91201272Y-129950180D01*
X91201272Y-124390180D01*
X96530128Y-124390180D01*
X96533200Y-126884430D01*
X96691950Y-127043180D01*
X101041200Y-127043180D01*
X101041200Y-123913930D01*
X101295200Y-123913930D01*
X101295200Y-127043180D01*
X105644450Y-127043180D01*
X105803200Y-126884430D01*
X105806272Y-124390180D01*
X111135128Y-124390180D01*
X111135128Y-129950180D01*
X111147388Y-130074662D01*
X111183698Y-130194360D01*
X111242663Y-130304674D01*
X111322015Y-130401365D01*
X111418706Y-130480717D01*
X111529020Y-130539682D01*
X111648718Y-130575992D01*
X111773200Y-130588252D01*
X114373200Y-130588252D01*
X114497682Y-130575992D01*
X114617380Y-130539682D01*
X114727694Y-130480717D01*
X114824385Y-130401365D01*
X114903737Y-130304674D01*
X114962702Y-130194360D01*
X114999012Y-130074662D01*
X115011272Y-129950180D01*
X115011272Y-127930180D01*
X115340637Y-127930180D01*
X115480151Y-127987968D01*
X115660791Y-128023900D01*
X115844969Y-128023900D01*
X116025609Y-127987968D01*
X116195769Y-127917486D01*
X116348908Y-127815162D01*
X116479142Y-127684928D01*
X116581466Y-127531789D01*
X116651948Y-127361629D01*
X116687880Y-127180989D01*
X116687880Y-126996811D01*
X116651948Y-126816171D01*
X116581466Y-126646011D01*
X116479142Y-126492872D01*
X116348908Y-126362638D01*
X116195769Y-126260314D01*
X116025609Y-126189832D01*
X115844969Y-126153900D01*
X115660791Y-126153900D01*
X115480151Y-126189832D01*
X115309991Y-126260314D01*
X115156852Y-126362638D01*
X115109310Y-126410180D01*
X115011272Y-126410180D01*
X115011272Y-124390180D01*
X114999012Y-124265698D01*
X114962702Y-124146000D01*
X114903737Y-124035686D01*
X114824385Y-123938995D01*
X114727694Y-123859643D01*
X114617380Y-123800678D01*
X114497682Y-123764368D01*
X114373200Y-123752108D01*
X111773200Y-123752108D01*
X111648718Y-123764368D01*
X111529020Y-123800678D01*
X111418706Y-123859643D01*
X111322015Y-123938995D01*
X111242663Y-124035686D01*
X111183698Y-124146000D01*
X111147388Y-124265698D01*
X111135128Y-124390180D01*
X105806272Y-124390180D01*
X105794012Y-124265698D01*
X105757702Y-124146000D01*
X105698737Y-124035686D01*
X105619385Y-123938995D01*
X105522694Y-123859643D01*
X105412380Y-123800678D01*
X105292682Y-123764368D01*
X105168200Y-123752108D01*
X101453950Y-123755180D01*
X101295200Y-123913930D01*
X101041200Y-123913930D01*
X100882450Y-123755180D01*
X97168200Y-123752108D01*
X97043718Y-123764368D01*
X96924020Y-123800678D01*
X96813706Y-123859643D01*
X96717015Y-123938995D01*
X96637663Y-124035686D01*
X96578698Y-124146000D01*
X96542388Y-124265698D01*
X96530128Y-124390180D01*
X91201272Y-124390180D01*
X91189012Y-124265698D01*
X91152702Y-124146000D01*
X91093737Y-124035686D01*
X91014385Y-123938995D01*
X90917694Y-123859643D01*
X90807380Y-123800678D01*
X90687682Y-123764368D01*
X90563200Y-123752108D01*
X87963200Y-123752108D01*
X87838718Y-123764368D01*
X87719020Y-123800678D01*
X87608706Y-123859643D01*
X87512015Y-123938995D01*
X87432663Y-124035686D01*
X87373698Y-124146000D01*
X87337388Y-124265698D01*
X87325128Y-124390180D01*
X87325128Y-126410180D01*
X87061990Y-126410180D01*
X87009368Y-126357558D01*
X86856229Y-126255234D01*
X86686069Y-126184752D01*
X86505429Y-126148820D01*
X86321251Y-126148820D01*
X86140611Y-126184752D01*
X85970451Y-126255234D01*
X85817312Y-126357558D01*
X85687078Y-126487792D01*
X85584754Y-126640931D01*
X85514272Y-126811091D01*
X85478340Y-126991731D01*
X85032378Y-126991731D01*
X85032335Y-126858315D01*
X85032127Y-126167021D01*
X85031924Y-125462468D01*
X85031726Y-124744996D01*
X85031533Y-124014939D01*
X85031346Y-123272637D01*
X85031164Y-122518425D01*
X85030987Y-121752643D01*
X85030815Y-120975626D01*
X85030648Y-120187711D01*
X85030487Y-119389237D01*
X85030331Y-118580542D01*
X85030180Y-117761961D01*
X85030035Y-116933832D01*
X85029895Y-116096492D01*
X85029760Y-115250278D01*
X85029630Y-114395530D01*
X85029505Y-113532581D01*
X85029386Y-112661773D01*
X85029272Y-111783439D01*
X85029163Y-110897919D01*
X85029059Y-110005548D01*
X85028961Y-109106668D01*
X85028867Y-108201610D01*
X85028779Y-107290716D01*
X85028697Y-106374320D01*
X85028619Y-105452762D01*
X85028547Y-104526377D01*
X85028480Y-103595505D01*
X85028418Y-102660481D01*
X85028362Y-101721643D01*
X85028310Y-100779327D01*
X85028264Y-99833874D01*
X85028223Y-98885616D01*
X85028188Y-97934895D01*
X85028157Y-96982045D01*
X85028132Y-96027407D01*
X85028112Y-95071313D01*
X85028097Y-94114105D01*
X85028088Y-93156118D01*
X85028084Y-92197690D01*
X85028085Y-91239159D01*
X85028091Y-90280860D01*
X85028102Y-89323132D01*
X85028119Y-88366311D01*
X85028141Y-87410737D01*
X85028168Y-86456744D01*
X85028201Y-85504671D01*
X85028238Y-84554855D01*
X85028281Y-83607633D01*
X85028329Y-82663343D01*
X85028383Y-81722323D01*
X85028441Y-80784907D01*
X85028505Y-79851436D01*
X85028574Y-78922244D01*
X85028648Y-77997673D01*
X85028728Y-77078054D01*
X85028813Y-76163731D01*
X85028903Y-75255035D01*
X85028998Y-74352307D01*
X85029098Y-73455883D01*
X85029204Y-72566102D01*
X85029204Y-72558720D01*
X111377228Y-72558720D01*
X111389488Y-72683202D01*
X111425798Y-72802900D01*
X111484763Y-72913214D01*
X111564115Y-73009905D01*
X111660806Y-73089257D01*
X111771120Y-73148222D01*
X111890818Y-73184532D01*
X112015300Y-73196792D01*
X112604550Y-73193720D01*
X112763300Y-73034970D01*
X112763300Y-72060720D01*
X113017300Y-72060720D01*
X113017300Y-73034970D01*
X113176050Y-73193720D01*
X113765300Y-73196792D01*
X113889782Y-73184532D01*
X114009480Y-73148222D01*
X114119794Y-73089257D01*
X114216485Y-73009905D01*
X114295837Y-72913214D01*
X114354802Y-72802900D01*
X114391112Y-72683202D01*
X114398914Y-72603980D01*
X116693448Y-72603980D01*
X116705708Y-72728462D01*
X116742018Y-72848160D01*
X116800983Y-72958474D01*
X116880335Y-73055165D01*
X116977026Y-73134517D01*
X117087340Y-73193482D01*
X117207038Y-73229792D01*
X117331520Y-73242052D01*
X117920770Y-73238980D01*
X118079520Y-73080230D01*
X118079520Y-72105980D01*
X118333520Y-72105980D01*
X118333520Y-73080230D01*
X118492270Y-73238980D01*
X119081520Y-73242052D01*
X119206002Y-73229792D01*
X119325700Y-73193482D01*
X119436014Y-73134517D01*
X119532705Y-73055165D01*
X119612057Y-72958474D01*
X119671022Y-72848160D01*
X119707332Y-72728462D01*
X119719592Y-72603980D01*
X119716520Y-72264730D01*
X119557770Y-72105980D01*
X118333520Y-72105980D01*
X118079520Y-72105980D01*
X116855270Y-72105980D01*
X116696520Y-72264730D01*
X116693448Y-72603980D01*
X114398914Y-72603980D01*
X114403372Y-72558720D01*
X114400300Y-72219470D01*
X114241550Y-72060720D01*
X113017300Y-72060720D01*
X112763300Y-72060720D01*
X111539050Y-72060720D01*
X111380300Y-72219470D01*
X111377228Y-72558720D01*
X85029204Y-72558720D01*
X85029315Y-71683298D01*
X85029364Y-71308720D01*
X111377228Y-71308720D01*
X111380300Y-71647970D01*
X111539050Y-71806720D01*
X112763300Y-71806720D01*
X112763300Y-70832470D01*
X113017300Y-70832470D01*
X113017300Y-71806720D01*
X114241550Y-71806720D01*
X114400300Y-71647970D01*
X114402962Y-71353980D01*
X116693448Y-71353980D01*
X116696520Y-71693230D01*
X116855270Y-71851980D01*
X118079520Y-71851980D01*
X118079520Y-70877730D01*
X118333520Y-70877730D01*
X118333520Y-71851980D01*
X119557770Y-71851980D01*
X119716520Y-71693230D01*
X119719592Y-71353980D01*
X119707332Y-71229498D01*
X119671022Y-71109800D01*
X119612057Y-70999486D01*
X119532705Y-70902795D01*
X119436014Y-70823443D01*
X119325700Y-70764478D01*
X119206002Y-70728168D01*
X119081520Y-70715908D01*
X118492270Y-70718980D01*
X118333520Y-70877730D01*
X118079520Y-70877730D01*
X117920770Y-70718980D01*
X117331520Y-70715908D01*
X117207038Y-70728168D01*
X117087340Y-70764478D01*
X116977026Y-70823443D01*
X116880335Y-70902795D01*
X116800983Y-70999486D01*
X116742018Y-71109800D01*
X116705708Y-71229498D01*
X116693448Y-71353980D01*
X114402962Y-71353980D01*
X114403372Y-71308720D01*
X114391112Y-71184238D01*
X114354802Y-71064540D01*
X114295837Y-70954226D01*
X114216485Y-70857535D01*
X114119794Y-70778183D01*
X114009480Y-70719218D01*
X113889782Y-70682908D01*
X113765300Y-70670648D01*
X113176050Y-70673720D01*
X113017300Y-70832470D01*
X112763300Y-70832470D01*
X112604550Y-70673720D01*
X112015300Y-70670648D01*
X111890818Y-70682908D01*
X111771120Y-70719218D01*
X111660806Y-70778183D01*
X111564115Y-70857535D01*
X111484763Y-70954226D01*
X111425798Y-71064540D01*
X111389488Y-71184238D01*
X111377228Y-71308720D01*
X85029364Y-71308720D01*
X85029431Y-70807812D01*
X85029552Y-69939979D01*
X85029679Y-69080136D01*
X85029811Y-68228623D01*
X85029948Y-67385773D01*
X85030090Y-66551928D01*
X85030238Y-65727421D01*
X85030390Y-64912592D01*
X85030548Y-64107778D01*
X85030712Y-63313315D01*
X85030880Y-62529542D01*
X85031054Y-61756795D01*
X85031233Y-60995411D01*
X85031417Y-60245729D01*
X85031606Y-59508084D01*
X85031801Y-58782815D01*
X85032001Y-58070259D01*
X85032206Y-57370753D01*
X85032338Y-56938322D01*
X93732640Y-56938322D01*
X93732640Y-57270238D01*
X93797394Y-57595776D01*
X93924412Y-57902427D01*
X94108815Y-58178405D01*
X94284690Y-58354280D01*
X94108815Y-58530155D01*
X93924412Y-58806133D01*
X93797394Y-59112784D01*
X93732640Y-59438322D01*
X93732640Y-59770238D01*
X93797394Y-60095776D01*
X93924412Y-60402427D01*
X94108815Y-60678405D01*
X94284690Y-60854280D01*
X94108815Y-61030155D01*
X93924412Y-61306133D01*
X93797394Y-61612784D01*
X93732640Y-61938322D01*
X93732640Y-62270238D01*
X93797394Y-62595776D01*
X93924412Y-62902427D01*
X94108815Y-63178405D01*
X94284690Y-63354280D01*
X94108815Y-63530155D01*
X93924412Y-63806133D01*
X93797394Y-64112784D01*
X93732640Y-64438322D01*
X93732640Y-64770238D01*
X93797394Y-65095776D01*
X93924412Y-65402427D01*
X94108815Y-65678405D01*
X94284690Y-65854280D01*
X94108815Y-66030155D01*
X93924412Y-66306133D01*
X93797394Y-66612784D01*
X93732640Y-66938322D01*
X93732640Y-67270238D01*
X93797394Y-67595776D01*
X93924412Y-67902427D01*
X94108815Y-68178405D01*
X94343515Y-68413105D01*
X94619493Y-68597508D01*
X94926144Y-68724526D01*
X95251682Y-68789280D01*
X95583598Y-68789280D01*
X95909136Y-68724526D01*
X96215787Y-68597508D01*
X96491765Y-68413105D01*
X96726465Y-68178405D01*
X96910868Y-67902427D01*
X96926669Y-67864280D01*
X123857838Y-67864280D01*
X123860968Y-67896062D01*
X123897278Y-68015760D01*
X123956243Y-68126074D01*
X123993589Y-68171580D01*
X123956243Y-68217086D01*
X123897278Y-68327400D01*
X123869498Y-68418980D01*
X119627859Y-68418980D01*
X119569925Y-68310594D01*
X119459482Y-68176018D01*
X119324906Y-68065575D01*
X119171370Y-67983508D01*
X119004774Y-67932972D01*
X118831520Y-67915908D01*
X117581520Y-67915908D01*
X117408266Y-67932972D01*
X117241670Y-67983508D01*
X117088134Y-68065575D01*
X116953558Y-68176018D01*
X116843115Y-68310594D01*
X116809373Y-68373720D01*
X114311639Y-68373720D01*
X114253705Y-68265334D01*
X114143262Y-68130758D01*
X114008686Y-68020315D01*
X113855150Y-67938248D01*
X113688554Y-67887712D01*
X113515300Y-67870648D01*
X112265300Y-67870648D01*
X112092046Y-67887712D01*
X111925450Y-67938248D01*
X111771914Y-68020315D01*
X111637338Y-68130758D01*
X111526895Y-68265334D01*
X111474392Y-68363560D01*
X110911075Y-68363560D01*
X110808429Y-68294974D01*
X110638269Y-68224492D01*
X110457629Y-68188560D01*
X110273451Y-68188560D01*
X110092811Y-68224492D01*
X109922651Y-68294974D01*
X109769512Y-68397298D01*
X109639278Y-68527532D01*
X109536954Y-68680671D01*
X109466472Y-68850831D01*
X109430540Y-69031471D01*
X109430540Y-69215649D01*
X109466472Y-69396289D01*
X109536954Y-69566449D01*
X109639278Y-69719588D01*
X109769512Y-69849822D01*
X109922651Y-69952146D01*
X110092811Y-70022628D01*
X110273451Y-70058560D01*
X110457629Y-70058560D01*
X110638269Y-70022628D01*
X110808429Y-69952146D01*
X110911075Y-69883560D01*
X111463531Y-69883560D01*
X111526895Y-70002106D01*
X111637338Y-70136682D01*
X111771914Y-70247125D01*
X111925450Y-70329192D01*
X112092046Y-70379728D01*
X112265300Y-70396792D01*
X113515300Y-70396792D01*
X113688554Y-70379728D01*
X113855150Y-70329192D01*
X114008686Y-70247125D01*
X114143262Y-70136682D01*
X114253705Y-70002106D01*
X114311639Y-69893720D01*
X116761015Y-69893720D01*
X116761048Y-69893830D01*
X116843115Y-70047366D01*
X116953558Y-70181942D01*
X117088134Y-70292385D01*
X117241670Y-70374452D01*
X117408266Y-70424988D01*
X117581520Y-70442052D01*
X118831520Y-70442052D01*
X119004774Y-70424988D01*
X119171370Y-70374452D01*
X119324906Y-70292385D01*
X119459482Y-70181942D01*
X119569925Y-70047366D01*
X119627859Y-69938980D01*
X123873987Y-69938980D01*
X123897278Y-70015760D01*
X123956243Y-70126074D01*
X124035595Y-70222765D01*
X124132286Y-70302117D01*
X124242600Y-70361082D01*
X124362298Y-70397392D01*
X124486780Y-70409652D01*
X126486780Y-70409652D01*
X126611262Y-70397392D01*
X126730960Y-70361082D01*
X126798708Y-70324869D01*
X126798708Y-71521580D01*
X126810968Y-71646062D01*
X126847278Y-71765760D01*
X126906243Y-71876074D01*
X126985595Y-71972765D01*
X127082286Y-72052117D01*
X127169640Y-72098809D01*
X127169641Y-74084948D01*
X127165964Y-74122280D01*
X127180638Y-74271265D01*
X127224094Y-74414526D01*
X127294666Y-74546556D01*
X127345209Y-74608142D01*
X127389640Y-74662281D01*
X127418638Y-74686079D01*
X139864560Y-87132002D01*
X139864561Y-125773205D01*
X139795546Y-125810094D01*
X139569426Y-125995666D01*
X139383854Y-126221786D01*
X139245961Y-126479766D01*
X139161047Y-126759689D01*
X139132375Y-127050800D01*
X139161047Y-127341911D01*
X139245961Y-127621834D01*
X139383854Y-127879814D01*
X139569426Y-128105934D01*
X139795546Y-128291506D01*
X140053526Y-128429399D01*
X140333449Y-128514313D01*
X140551610Y-128535800D01*
X140697510Y-128535800D01*
X140915671Y-128514313D01*
X141195594Y-128429399D01*
X141453574Y-128291506D01*
X141679694Y-128105934D01*
X141865266Y-127879814D01*
X141894560Y-127825009D01*
X141923854Y-127879814D01*
X142109426Y-128105934D01*
X142335546Y-128291506D01*
X142593526Y-128429399D01*
X142873449Y-128514313D01*
X143091610Y-128535800D01*
X143237510Y-128535800D01*
X143455671Y-128514313D01*
X143735594Y-128429399D01*
X143993574Y-128291506D01*
X144219694Y-128105934D01*
X144405266Y-127879814D01*
X144434560Y-127825009D01*
X144463854Y-127879814D01*
X144649426Y-128105934D01*
X144875546Y-128291506D01*
X145133526Y-128429399D01*
X145413449Y-128514313D01*
X145631610Y-128535800D01*
X145777510Y-128535800D01*
X145995671Y-128514313D01*
X146275594Y-128429399D01*
X146533574Y-128291506D01*
X146759694Y-128105934D01*
X146945266Y-127879814D01*
X146974560Y-127825009D01*
X147003854Y-127879814D01*
X147189426Y-128105934D01*
X147415546Y-128291506D01*
X147673526Y-128429399D01*
X147953449Y-128514313D01*
X148171610Y-128535800D01*
X148317510Y-128535800D01*
X148535671Y-128514313D01*
X148815594Y-128429399D01*
X149073574Y-128291506D01*
X149299694Y-128105934D01*
X149485266Y-127879814D01*
X149514560Y-127825009D01*
X149543854Y-127879814D01*
X149729426Y-128105934D01*
X149955546Y-128291506D01*
X150213526Y-128429399D01*
X150493449Y-128514313D01*
X150711610Y-128535800D01*
X150857510Y-128535800D01*
X151075671Y-128514313D01*
X151355594Y-128429399D01*
X151613574Y-128291506D01*
X151839694Y-128105934D01*
X151864167Y-128076113D01*
X151885058Y-128144980D01*
X151944023Y-128255294D01*
X152023375Y-128351985D01*
X152120066Y-128431337D01*
X152230380Y-128490302D01*
X152350078Y-128526612D01*
X152474560Y-128538872D01*
X154174560Y-128538872D01*
X154299042Y-128526612D01*
X154418740Y-128490302D01*
X154529054Y-128431337D01*
X154625745Y-128351985D01*
X154705097Y-128255294D01*
X154764062Y-128144980D01*
X154771558Y-128120266D01*
X164520019Y-128120266D01*
X164621819Y-128389779D01*
X164919957Y-128535663D01*
X165240826Y-128620580D01*
X165572097Y-128641266D01*
X165901037Y-128596928D01*
X166215007Y-128489269D01*
X166401141Y-128389779D01*
X166502941Y-128120266D01*
X165511480Y-127128805D01*
X164520019Y-128120266D01*
X154771558Y-128120266D01*
X154800372Y-128025282D01*
X154812632Y-127900800D01*
X154812632Y-127009817D01*
X163819414Y-127009817D01*
X163863752Y-127338757D01*
X163971411Y-127652727D01*
X164070901Y-127838861D01*
X164340414Y-127940661D01*
X165331875Y-126949200D01*
X165691085Y-126949200D01*
X166576689Y-127834804D01*
X166702655Y-128023325D01*
X166937355Y-128258025D01*
X167213333Y-128442428D01*
X167519984Y-128569446D01*
X167845522Y-128634200D01*
X168177438Y-128634200D01*
X168502976Y-128569446D01*
X168809627Y-128442428D01*
X169085605Y-128258025D01*
X169261480Y-128082150D01*
X169437355Y-128258025D01*
X169713333Y-128442428D01*
X170019984Y-128569446D01*
X170345522Y-128634200D01*
X170677438Y-128634200D01*
X171002976Y-128569446D01*
X171309627Y-128442428D01*
X171585605Y-128258025D01*
X171761480Y-128082150D01*
X171937355Y-128258025D01*
X172213333Y-128442428D01*
X172519984Y-128569446D01*
X172845522Y-128634200D01*
X173177438Y-128634200D01*
X173502976Y-128569446D01*
X173809627Y-128442428D01*
X174085605Y-128258025D01*
X174261480Y-128082150D01*
X174437355Y-128258025D01*
X174713333Y-128442428D01*
X175019984Y-128569446D01*
X175345522Y-128634200D01*
X175677438Y-128634200D01*
X176002976Y-128569446D01*
X176309627Y-128442428D01*
X176585605Y-128258025D01*
X176820305Y-128023325D01*
X177004708Y-127747347D01*
X177131726Y-127440696D01*
X177196480Y-127115158D01*
X177196480Y-126783242D01*
X177131726Y-126457704D01*
X177004708Y-126151053D01*
X176820305Y-125875075D01*
X176585605Y-125640375D01*
X176309627Y-125455972D01*
X176002976Y-125328954D01*
X175677438Y-125264200D01*
X175345522Y-125264200D01*
X175019984Y-125328954D01*
X174713333Y-125455972D01*
X174437355Y-125640375D01*
X174261480Y-125816250D01*
X174085605Y-125640375D01*
X173809627Y-125455972D01*
X173502976Y-125328954D01*
X173177438Y-125264200D01*
X172845522Y-125264200D01*
X172519984Y-125328954D01*
X172213333Y-125455972D01*
X171937355Y-125640375D01*
X171761480Y-125816250D01*
X171585605Y-125640375D01*
X171309627Y-125455972D01*
X171002976Y-125328954D01*
X170677438Y-125264200D01*
X170345522Y-125264200D01*
X170019984Y-125328954D01*
X169713333Y-125455972D01*
X169437355Y-125640375D01*
X169261480Y-125816250D01*
X169085605Y-125640375D01*
X168809627Y-125455972D01*
X168502976Y-125328954D01*
X168177438Y-125264200D01*
X167845522Y-125264200D01*
X167519984Y-125328954D01*
X167213333Y-125455972D01*
X166937355Y-125640375D01*
X166702655Y-125875075D01*
X166576689Y-126063596D01*
X165691085Y-126949200D01*
X165331875Y-126949200D01*
X164340414Y-125957739D01*
X164070901Y-126059539D01*
X163925017Y-126357677D01*
X163840100Y-126678546D01*
X163819414Y-127009817D01*
X154812632Y-127009817D01*
X154812632Y-126200800D01*
X154800372Y-126076318D01*
X154764062Y-125956620D01*
X154705097Y-125846306D01*
X154649150Y-125778134D01*
X164520019Y-125778134D01*
X165511480Y-126769595D01*
X166502941Y-125778134D01*
X166401141Y-125508621D01*
X166103003Y-125362737D01*
X165782134Y-125277820D01*
X165450863Y-125257134D01*
X165121923Y-125301472D01*
X164807953Y-125409131D01*
X164621819Y-125508621D01*
X164520019Y-125778134D01*
X154649150Y-125778134D01*
X154625745Y-125749615D01*
X154529054Y-125670263D01*
X154418740Y-125611298D01*
X154299042Y-125574988D01*
X154174560Y-125562728D01*
X154084560Y-125562728D01*
X154084560Y-89394522D01*
X154088236Y-89357199D01*
X154084560Y-89319876D01*
X154084560Y-89319867D01*
X154073563Y-89208214D01*
X154030106Y-89064953D01*
X153959534Y-88932924D01*
X153890824Y-88849200D01*
X153888359Y-88846196D01*
X153888355Y-88846192D01*
X153864561Y-88817199D01*
X153835570Y-88793407D01*
X138849640Y-73807479D01*
X138849640Y-72074371D01*
X138891274Y-72052117D01*
X138987965Y-71972765D01*
X139067317Y-71876074D01*
X139126282Y-71765760D01*
X139162592Y-71646062D01*
X139174852Y-71521580D01*
X139174852Y-70324869D01*
X139242600Y-70361082D01*
X139362298Y-70397392D01*
X139486780Y-70409652D01*
X140201030Y-70406580D01*
X140359780Y-70247830D01*
X140359780Y-69298580D01*
X140613780Y-69298580D01*
X140613780Y-70247830D01*
X140772530Y-70406580D01*
X141486780Y-70409652D01*
X141611262Y-70397392D01*
X141730960Y-70361082D01*
X141841274Y-70302117D01*
X141937965Y-70222765D01*
X142017317Y-70126074D01*
X142076282Y-70015760D01*
X142112592Y-69896062D01*
X142124852Y-69771580D01*
X142121780Y-69457330D01*
X141963030Y-69298580D01*
X140613780Y-69298580D01*
X140359780Y-69298580D01*
X139010530Y-69298580D01*
X138960915Y-69348195D01*
X138891274Y-69291043D01*
X138780960Y-69232078D01*
X138661262Y-69195768D01*
X138536780Y-69183508D01*
X137436780Y-69183508D01*
X137312298Y-69195768D01*
X137192600Y-69232078D01*
X137082286Y-69291043D01*
X136986780Y-69369422D01*
X136891274Y-69291043D01*
X136780960Y-69232078D01*
X136661262Y-69195768D01*
X136536780Y-69183508D01*
X135436780Y-69183508D01*
X135312298Y-69195768D01*
X135192600Y-69232078D01*
X135082286Y-69291043D01*
X134986780Y-69369422D01*
X134891274Y-69291043D01*
X134780960Y-69232078D01*
X134661262Y-69195768D01*
X134536780Y-69183508D01*
X133436780Y-69183508D01*
X133312298Y-69195768D01*
X133192600Y-69232078D01*
X133082286Y-69291043D01*
X132986780Y-69369422D01*
X132891274Y-69291043D01*
X132780960Y-69232078D01*
X132661262Y-69195768D01*
X132536780Y-69183508D01*
X131436780Y-69183508D01*
X131312298Y-69195768D01*
X131192600Y-69232078D01*
X131082286Y-69291043D01*
X130986780Y-69369422D01*
X130891274Y-69291043D01*
X130780960Y-69232078D01*
X130661262Y-69195768D01*
X130536780Y-69183508D01*
X129436780Y-69183508D01*
X129312298Y-69195768D01*
X129192600Y-69232078D01*
X129082286Y-69291043D01*
X128986780Y-69369422D01*
X128891274Y-69291043D01*
X128780960Y-69232078D01*
X128661262Y-69195768D01*
X128536780Y-69183508D01*
X127436780Y-69183508D01*
X127312298Y-69195768D01*
X127192600Y-69232078D01*
X127124852Y-69268291D01*
X127124852Y-68571580D01*
X127112592Y-68447098D01*
X127076282Y-68327400D01*
X127017317Y-68217086D01*
X126979971Y-68171580D01*
X127017317Y-68126074D01*
X127076282Y-68015760D01*
X127112592Y-67896062D01*
X127124852Y-67771580D01*
X127124852Y-66571580D01*
X127112592Y-66447098D01*
X127076282Y-66327400D01*
X127017317Y-66217086D01*
X126979971Y-66171580D01*
X127017317Y-66126074D01*
X127076282Y-66015760D01*
X127112592Y-65896062D01*
X127124852Y-65771580D01*
X127124852Y-64571580D01*
X127112592Y-64447098D01*
X127076282Y-64327400D01*
X127017317Y-64217086D01*
X126979971Y-64171580D01*
X127017317Y-64126074D01*
X127076282Y-64015760D01*
X127112592Y-63896062D01*
X127124852Y-63771580D01*
X127124852Y-62571580D01*
X127112592Y-62447098D01*
X127076282Y-62327400D01*
X127017317Y-62217086D01*
X126979971Y-62171580D01*
X127017317Y-62126074D01*
X127076282Y-62015760D01*
X127112592Y-61896062D01*
X127124852Y-61771580D01*
X127124852Y-60571580D01*
X127112592Y-60447098D01*
X127076282Y-60327400D01*
X127017317Y-60217086D01*
X126979971Y-60171580D01*
X127017317Y-60126074D01*
X127076282Y-60015760D01*
X127112592Y-59896062D01*
X127124852Y-59771580D01*
X127124852Y-58571580D01*
X127112592Y-58447098D01*
X127076282Y-58327400D01*
X127017317Y-58217086D01*
X126979971Y-58171580D01*
X127017317Y-58126074D01*
X127076282Y-58015760D01*
X127112592Y-57896062D01*
X127124852Y-57771580D01*
X127124852Y-56571580D01*
X127112592Y-56447098D01*
X127076282Y-56327400D01*
X127017317Y-56217086D01*
X126979971Y-56171580D01*
X127017317Y-56126074D01*
X127076282Y-56015760D01*
X127112592Y-55896062D01*
X127124852Y-55771580D01*
X127124852Y-54571580D01*
X138848708Y-54571580D01*
X138848708Y-55771580D01*
X138860968Y-55896062D01*
X138897278Y-56015760D01*
X138956243Y-56126074D01*
X138993589Y-56171580D01*
X138956243Y-56217086D01*
X138897278Y-56327400D01*
X138860968Y-56447098D01*
X138848708Y-56571580D01*
X138848708Y-57771580D01*
X138860968Y-57896062D01*
X138897278Y-58015760D01*
X138956243Y-58126074D01*
X138993589Y-58171580D01*
X138956243Y-58217086D01*
X138897278Y-58327400D01*
X138860968Y-58447098D01*
X138848708Y-58571580D01*
X138848708Y-59771580D01*
X138860968Y-59896062D01*
X138897278Y-60015760D01*
X138956243Y-60126074D01*
X138993589Y-60171580D01*
X138956243Y-60217086D01*
X138897278Y-60327400D01*
X138860968Y-60447098D01*
X138848708Y-60571580D01*
X138848708Y-61771580D01*
X138860968Y-61896062D01*
X138897278Y-62015760D01*
X138956243Y-62126074D01*
X138993589Y-62171580D01*
X138956243Y-62217086D01*
X138897278Y-62327400D01*
X138860968Y-62447098D01*
X138848708Y-62571580D01*
X138848708Y-63771580D01*
X138860968Y-63896062D01*
X138897278Y-64015760D01*
X138956243Y-64126074D01*
X138993589Y-64171580D01*
X138956243Y-64217086D01*
X138897278Y-64327400D01*
X138860968Y-64447098D01*
X138848708Y-64571580D01*
X138848708Y-65771580D01*
X138860968Y-65896062D01*
X138897278Y-66015760D01*
X138956243Y-66126074D01*
X138993589Y-66171580D01*
X138956243Y-66217086D01*
X138897278Y-66327400D01*
X138860968Y-66447098D01*
X138848708Y-66571580D01*
X138848708Y-67771580D01*
X138860968Y-67896062D01*
X138897278Y-68015760D01*
X138956243Y-68126074D01*
X138993589Y-68171580D01*
X138956243Y-68217086D01*
X138897278Y-68327400D01*
X138860968Y-68447098D01*
X138848708Y-68571580D01*
X138851780Y-68885830D01*
X139010530Y-69044580D01*
X140359780Y-69044580D01*
X140359780Y-69024580D01*
X140613780Y-69024580D01*
X140613780Y-69044580D01*
X141963030Y-69044580D01*
X142121780Y-68885830D01*
X142124852Y-68571580D01*
X142112592Y-68447098D01*
X142076282Y-68327400D01*
X142017317Y-68217086D01*
X141979971Y-68171580D01*
X142017317Y-68126074D01*
X142076282Y-68015760D01*
X142101818Y-67931580D01*
X148680288Y-67931580D01*
X148680288Y-68100100D01*
X148697352Y-68273354D01*
X148747888Y-68439950D01*
X148829955Y-68593486D01*
X148940398Y-68728062D01*
X149074974Y-68838505D01*
X149228510Y-68920572D01*
X149395106Y-68971108D01*
X149568360Y-68988172D01*
X150318360Y-68988172D01*
X150491614Y-68971108D01*
X150658210Y-68920572D01*
X150811746Y-68838505D01*
X150946322Y-68728062D01*
X151056765Y-68593486D01*
X151138832Y-68439950D01*
X151166087Y-68350100D01*
X151480288Y-68350100D01*
X151492548Y-68474582D01*
X151528858Y-68594280D01*
X151587823Y-68704594D01*
X151667175Y-68801285D01*
X151763866Y-68880637D01*
X151874180Y-68939602D01*
X151993878Y-68975912D01*
X152118360Y-68988172D01*
X152457610Y-68985100D01*
X152616360Y-68826350D01*
X152616360Y-67602100D01*
X152870360Y-67602100D01*
X152870360Y-68826350D01*
X153029110Y-68985100D01*
X153368360Y-68988172D01*
X153492842Y-68975912D01*
X153612540Y-68939602D01*
X153722854Y-68880637D01*
X153819545Y-68801285D01*
X153898897Y-68704594D01*
X153957862Y-68594280D01*
X153994172Y-68474582D01*
X154006432Y-68350100D01*
X154003360Y-67760850D01*
X153844610Y-67602100D01*
X152870360Y-67602100D01*
X152616360Y-67602100D01*
X151642110Y-67602100D01*
X151483360Y-67760850D01*
X151480288Y-68350100D01*
X151166087Y-68350100D01*
X151189368Y-68273354D01*
X151206432Y-68100100D01*
X151206432Y-66850100D01*
X151189368Y-66676846D01*
X151166088Y-66600100D01*
X151480288Y-66600100D01*
X151483360Y-67189350D01*
X151642110Y-67348100D01*
X152616360Y-67348100D01*
X152616360Y-66123850D01*
X152870360Y-66123850D01*
X152870360Y-67348100D01*
X153844610Y-67348100D01*
X154003360Y-67189350D01*
X154005578Y-66763780D01*
X161217288Y-66763780D01*
X161217288Y-68863780D01*
X161229548Y-68988262D01*
X161265858Y-69107960D01*
X161324823Y-69218274D01*
X161404175Y-69314965D01*
X161500866Y-69394317D01*
X161611180Y-69453282D01*
X161730878Y-69489592D01*
X161855360Y-69501852D01*
X163255360Y-69501852D01*
X163379842Y-69489592D01*
X163499540Y-69453282D01*
X163609854Y-69394317D01*
X163706545Y-69314965D01*
X163785897Y-69218274D01*
X163844862Y-69107960D01*
X163881172Y-68988262D01*
X163893432Y-68863780D01*
X165717288Y-68863780D01*
X165729548Y-68988262D01*
X165765858Y-69107960D01*
X165824823Y-69218274D01*
X165904175Y-69314965D01*
X166000866Y-69394317D01*
X166111180Y-69453282D01*
X166230878Y-69489592D01*
X166355360Y-69501852D01*
X166769610Y-69498780D01*
X166928360Y-69340030D01*
X166928360Y-67940780D01*
X167182360Y-67940780D01*
X167182360Y-69340030D01*
X167341110Y-69498780D01*
X167755360Y-69501852D01*
X167879842Y-69489592D01*
X167999540Y-69453282D01*
X168109854Y-69394317D01*
X168206545Y-69314965D01*
X168285897Y-69218274D01*
X168344862Y-69107960D01*
X168381172Y-68988262D01*
X168393432Y-68863780D01*
X168390360Y-68099530D01*
X168231610Y-67940780D01*
X167182360Y-67940780D01*
X166928360Y-67940780D01*
X165879110Y-67940780D01*
X165720360Y-68099530D01*
X165717288Y-68863780D01*
X163893432Y-68863780D01*
X163893432Y-66763780D01*
X165717288Y-66763780D01*
X165720360Y-67528030D01*
X165879110Y-67686780D01*
X166928360Y-67686780D01*
X166928360Y-66287530D01*
X167182360Y-66287530D01*
X167182360Y-67686780D01*
X168231610Y-67686780D01*
X168390360Y-67528030D01*
X168393432Y-66763780D01*
X168381172Y-66639298D01*
X168344862Y-66519600D01*
X168285897Y-66409286D01*
X168206545Y-66312595D01*
X168109854Y-66233243D01*
X167999540Y-66174278D01*
X167879842Y-66137968D01*
X167755360Y-66125708D01*
X167341110Y-66128780D01*
X167182360Y-66287530D01*
X166928360Y-66287530D01*
X166769610Y-66128780D01*
X166355360Y-66125708D01*
X166230878Y-66137968D01*
X166111180Y-66174278D01*
X166000866Y-66233243D01*
X165904175Y-66312595D01*
X165824823Y-66409286D01*
X165765858Y-66519600D01*
X165729548Y-66639298D01*
X165717288Y-66763780D01*
X163893432Y-66763780D01*
X163881172Y-66639298D01*
X163844862Y-66519600D01*
X163785897Y-66409286D01*
X163706545Y-66312595D01*
X163609854Y-66233243D01*
X163499540Y-66174278D01*
X163379842Y-66137968D01*
X163255360Y-66125708D01*
X161855360Y-66125708D01*
X161730878Y-66137968D01*
X161611180Y-66174278D01*
X161500866Y-66233243D01*
X161404175Y-66312595D01*
X161324823Y-66409286D01*
X161265858Y-66519600D01*
X161229548Y-66639298D01*
X161217288Y-66763780D01*
X154005578Y-66763780D01*
X154006432Y-66600100D01*
X153994172Y-66475618D01*
X153957862Y-66355920D01*
X153898897Y-66245606D01*
X153819545Y-66148915D01*
X153722854Y-66069563D01*
X153612540Y-66010598D01*
X153492842Y-65974288D01*
X153368360Y-65962028D01*
X153029110Y-65965100D01*
X152870360Y-66123850D01*
X152616360Y-66123850D01*
X152457610Y-65965100D01*
X152118360Y-65962028D01*
X151993878Y-65974288D01*
X151874180Y-66010598D01*
X151763866Y-66069563D01*
X151667175Y-66148915D01*
X151587823Y-66245606D01*
X151528858Y-66355920D01*
X151492548Y-66475618D01*
X151480288Y-66600100D01*
X151166088Y-66600100D01*
X151138832Y-66510250D01*
X151056765Y-66356714D01*
X150946322Y-66222138D01*
X150811746Y-66111695D01*
X150658210Y-66029628D01*
X150491614Y-65979092D01*
X150318360Y-65962028D01*
X149568360Y-65962028D01*
X149395106Y-65979092D01*
X149228510Y-66029628D01*
X149074974Y-66111695D01*
X148940398Y-66222138D01*
X148829955Y-66356714D01*
X148800628Y-66411580D01*
X142101818Y-66411580D01*
X142076282Y-66327400D01*
X142017317Y-66217086D01*
X141979971Y-66171580D01*
X142017317Y-66126074D01*
X142076282Y-66015760D01*
X142101818Y-65931580D01*
X146073378Y-65931580D01*
X146110700Y-65935256D01*
X146148022Y-65931580D01*
X146148033Y-65931580D01*
X146259686Y-65920583D01*
X146402947Y-65877126D01*
X146534976Y-65806554D01*
X146650701Y-65711581D01*
X146674503Y-65682578D01*
X147322382Y-65034700D01*
X173410611Y-65034700D01*
X173426412Y-65072847D01*
X173610815Y-65348825D01*
X173845515Y-65583525D01*
X174121493Y-65767928D01*
X174428144Y-65894946D01*
X174753682Y-65959700D01*
X175085598Y-65959700D01*
X175411136Y-65894946D01*
X175717787Y-65767928D01*
X175993765Y-65583525D01*
X176228465Y-65348825D01*
X176412868Y-65072847D01*
X176539886Y-64766196D01*
X176604640Y-64440658D01*
X176604640Y-64108742D01*
X176539886Y-63783204D01*
X176412868Y-63476553D01*
X176228465Y-63200575D01*
X176032590Y-63004700D01*
X176228465Y-62808825D01*
X176412868Y-62532847D01*
X176539886Y-62226196D01*
X176604640Y-61900658D01*
X176604640Y-61568742D01*
X176539886Y-61243204D01*
X176412868Y-60936553D01*
X176228465Y-60660575D01*
X176032590Y-60464700D01*
X176228465Y-60268825D01*
X176412868Y-59992847D01*
X176539886Y-59686196D01*
X176604640Y-59360658D01*
X176604640Y-59028742D01*
X176539886Y-58703204D01*
X176412868Y-58396553D01*
X176228465Y-58120575D01*
X175993765Y-57885875D01*
X175717787Y-57701472D01*
X175411136Y-57574454D01*
X175085598Y-57509700D01*
X174753682Y-57509700D01*
X174428144Y-57574454D01*
X174121493Y-57701472D01*
X173845515Y-57885875D01*
X173610815Y-58120575D01*
X173426412Y-58396553D01*
X173410611Y-58434700D01*
X171532046Y-58434700D01*
X171456009Y-58383894D01*
X171285849Y-58313412D01*
X171105209Y-58277480D01*
X170921031Y-58277480D01*
X170740391Y-58313412D01*
X170570231Y-58383894D01*
X170417092Y-58486218D01*
X170286858Y-58616452D01*
X170184534Y-58769591D01*
X170114052Y-58939751D01*
X170078120Y-59120391D01*
X170078120Y-59304569D01*
X170114052Y-59485209D01*
X170184534Y-59655369D01*
X170286858Y-59808508D01*
X170417092Y-59938742D01*
X170570231Y-60041066D01*
X170740391Y-60111548D01*
X170921031Y-60147480D01*
X171105209Y-60147480D01*
X171285849Y-60111548D01*
X171456009Y-60041066D01*
X171585265Y-59954700D01*
X173410611Y-59954700D01*
X173426412Y-59992847D01*
X173610815Y-60268825D01*
X173806690Y-60464700D01*
X173610815Y-60660575D01*
X173426412Y-60936553D01*
X173410611Y-60974700D01*
X171675513Y-60974700D01*
X171580469Y-60911194D01*
X171410309Y-60840712D01*
X171229669Y-60804780D01*
X171045491Y-60804780D01*
X170864851Y-60840712D01*
X170694691Y-60911194D01*
X170541552Y-61013518D01*
X170411318Y-61143752D01*
X170308994Y-61296891D01*
X170238512Y-61467051D01*
X170202580Y-61647691D01*
X170202580Y-61831869D01*
X170238512Y-62012509D01*
X170308994Y-62182669D01*
X170411318Y-62335808D01*
X170541552Y-62466042D01*
X170694691Y-62568366D01*
X170864851Y-62638848D01*
X171045491Y-62674780D01*
X171229669Y-62674780D01*
X171410309Y-62638848D01*
X171580469Y-62568366D01*
X171690718Y-62494700D01*
X173410611Y-62494700D01*
X173426412Y-62532847D01*
X173610815Y-62808825D01*
X173806690Y-63004700D01*
X173610815Y-63200575D01*
X173426412Y-63476553D01*
X173410611Y-63514700D01*
X162379241Y-63514700D01*
X165807701Y-60086241D01*
X165824823Y-60118274D01*
X165904175Y-60214965D01*
X166000866Y-60294317D01*
X166111180Y-60353282D01*
X166230878Y-60389592D01*
X166355360Y-60401852D01*
X167755360Y-60401852D01*
X167879842Y-60389592D01*
X167999540Y-60353282D01*
X168109854Y-60294317D01*
X168206545Y-60214965D01*
X168285897Y-60118274D01*
X168344862Y-60007960D01*
X168381172Y-59888262D01*
X168393432Y-59763780D01*
X168393432Y-57663780D01*
X168381172Y-57539298D01*
X168344862Y-57419600D01*
X168285897Y-57309286D01*
X168206545Y-57212595D01*
X168109854Y-57133243D01*
X167999540Y-57074278D01*
X167879842Y-57037968D01*
X167755360Y-57025708D01*
X166355360Y-57025708D01*
X166230878Y-57037968D01*
X166111180Y-57074278D01*
X166000866Y-57133243D01*
X165904175Y-57212595D01*
X165824823Y-57309286D01*
X165765858Y-57419600D01*
X165729548Y-57539298D01*
X165717288Y-57663780D01*
X165717288Y-58059454D01*
X165681084Y-58078806D01*
X165565359Y-58173779D01*
X165541561Y-58202777D01*
X163883914Y-59860425D01*
X163893432Y-59763780D01*
X163893432Y-57663780D01*
X163881172Y-57539298D01*
X163844862Y-57419600D01*
X163785897Y-57309286D01*
X163706545Y-57212595D01*
X163609854Y-57133243D01*
X163499540Y-57074278D01*
X163379842Y-57037968D01*
X163255360Y-57025708D01*
X161855360Y-57025708D01*
X161730878Y-57037968D01*
X161611180Y-57074278D01*
X161500866Y-57133243D01*
X161404175Y-57212595D01*
X161324823Y-57309286D01*
X161307701Y-57341319D01*
X161269300Y-57302919D01*
X161269300Y-52780139D01*
X161377686Y-52722205D01*
X161512262Y-52611762D01*
X161622705Y-52477186D01*
X161704772Y-52323650D01*
X161755308Y-52157054D01*
X161772372Y-51983800D01*
X161772372Y-50733800D01*
X162046228Y-50733800D01*
X162046228Y-51983800D01*
X162063292Y-52157054D01*
X162113828Y-52323650D01*
X162195895Y-52477186D01*
X162306338Y-52611762D01*
X162440914Y-52722205D01*
X162594450Y-52804272D01*
X162761046Y-52854808D01*
X162934300Y-52871872D01*
X163684300Y-52871872D01*
X163857554Y-52854808D01*
X164024150Y-52804272D01*
X164177686Y-52722205D01*
X164312262Y-52611762D01*
X164422705Y-52477186D01*
X164504772Y-52323650D01*
X164555308Y-52157054D01*
X164572372Y-51983800D01*
X164572372Y-50733800D01*
X164555308Y-50560546D01*
X164504772Y-50393950D01*
X164422705Y-50240414D01*
X164312262Y-50105838D01*
X164177686Y-49995395D01*
X164069300Y-49937461D01*
X164069300Y-49589168D01*
X164125186Y-49505529D01*
X164195668Y-49335369D01*
X164231600Y-49154729D01*
X164231600Y-48970551D01*
X164195668Y-48789911D01*
X164125186Y-48619751D01*
X164022862Y-48466612D01*
X163892628Y-48336378D01*
X163739489Y-48234054D01*
X163569329Y-48163572D01*
X163388689Y-48127640D01*
X163204511Y-48127640D01*
X163023871Y-48163572D01*
X162853711Y-48234054D01*
X162700572Y-48336378D01*
X162570338Y-48466612D01*
X162468014Y-48619751D01*
X162397532Y-48789911D01*
X162361600Y-48970551D01*
X162361600Y-49154729D01*
X162397532Y-49335369D01*
X162468014Y-49505529D01*
X162549301Y-49627183D01*
X162549301Y-49937461D01*
X162440914Y-49995395D01*
X162306338Y-50105838D01*
X162195895Y-50240414D01*
X162113828Y-50393950D01*
X162063292Y-50560546D01*
X162046228Y-50733800D01*
X161772372Y-50733800D01*
X161755308Y-50560546D01*
X161704772Y-50393950D01*
X161622705Y-50240414D01*
X161512262Y-50105838D01*
X161377686Y-49995395D01*
X161224150Y-49913328D01*
X161057554Y-49862792D01*
X160884300Y-49845728D01*
X160134300Y-49845728D01*
X159961046Y-49862792D01*
X159794450Y-49913328D01*
X159640914Y-49995395D01*
X159506338Y-50105838D01*
X159395895Y-50240414D01*
X159313828Y-50393950D01*
X159263292Y-50560546D01*
X159246228Y-50733800D01*
X159246228Y-51983800D01*
X159263292Y-52157054D01*
X159313828Y-52323650D01*
X159395895Y-52477186D01*
X159506338Y-52611762D01*
X159640914Y-52722205D01*
X159749300Y-52780139D01*
X159749301Y-57580388D01*
X159745624Y-57617720D01*
X159749301Y-57655053D01*
X159760298Y-57766706D01*
X159769874Y-57798275D01*
X159803754Y-57909966D01*
X159874326Y-58041996D01*
X159938667Y-58120395D01*
X159969300Y-58157721D01*
X159998298Y-58181519D01*
X161041561Y-59224783D01*
X161065359Y-59253781D01*
X161094357Y-59277579D01*
X161181083Y-59348754D01*
X161217288Y-59368106D01*
X161217288Y-59763780D01*
X161229548Y-59888262D01*
X161265858Y-60007960D01*
X161324823Y-60118274D01*
X161404175Y-60214965D01*
X161500866Y-60294317D01*
X161611180Y-60353282D01*
X161730878Y-60389592D01*
X161855360Y-60401852D01*
X163255360Y-60401852D01*
X163352005Y-60392334D01*
X161332759Y-62411580D01*
X159517330Y-62411580D01*
X159593102Y-62335808D01*
X159695426Y-62182669D01*
X159765908Y-62012509D01*
X159801840Y-61831869D01*
X159801840Y-61647691D01*
X159765908Y-61467051D01*
X159695426Y-61296891D01*
X159593102Y-61143752D01*
X159462868Y-61013518D01*
X159309729Y-60911194D01*
X159139569Y-60840712D01*
X158958929Y-60804780D01*
X158774751Y-60804780D01*
X158594111Y-60840712D01*
X158423951Y-60911194D01*
X158321305Y-60979780D01*
X142124852Y-60979780D01*
X142124852Y-60571580D01*
X142112592Y-60447098D01*
X142076282Y-60327400D01*
X142017317Y-60217086D01*
X141979971Y-60171580D01*
X142017317Y-60126074D01*
X142076282Y-60015760D01*
X142102509Y-59929300D01*
X158364485Y-59929300D01*
X158467131Y-59997886D01*
X158637291Y-60068368D01*
X158817931Y-60104300D01*
X159002109Y-60104300D01*
X159182749Y-60068368D01*
X159352909Y-59997886D01*
X159506048Y-59895562D01*
X159636282Y-59765328D01*
X159738606Y-59612189D01*
X159809088Y-59442029D01*
X159845020Y-59261389D01*
X159845020Y-59077211D01*
X159809088Y-58896571D01*
X159738606Y-58726411D01*
X159636282Y-58573272D01*
X159506048Y-58443038D01*
X159352909Y-58340714D01*
X159182749Y-58270232D01*
X159002109Y-58234300D01*
X158817931Y-58234300D01*
X158637291Y-58270232D01*
X158467131Y-58340714D01*
X158364485Y-58409300D01*
X142101126Y-58409300D01*
X142076282Y-58327400D01*
X142017317Y-58217086D01*
X141979971Y-58171580D01*
X142017317Y-58126074D01*
X142076282Y-58015760D01*
X142099118Y-57940480D01*
X155280925Y-57940480D01*
X155383571Y-58009066D01*
X155553731Y-58079548D01*
X155734371Y-58115480D01*
X155918549Y-58115480D01*
X156099189Y-58079548D01*
X156269349Y-58009066D01*
X156422488Y-57906742D01*
X156552722Y-57776508D01*
X156655046Y-57623369D01*
X156725528Y-57453209D01*
X156761460Y-57272569D01*
X156761460Y-57088391D01*
X156725528Y-56907751D01*
X156655046Y-56737591D01*
X156552722Y-56584452D01*
X156422488Y-56454218D01*
X156269349Y-56351894D01*
X156099189Y-56281412D01*
X155918549Y-56245480D01*
X155734371Y-56245480D01*
X155553731Y-56281412D01*
X155383571Y-56351894D01*
X155280925Y-56420480D01*
X142104518Y-56420480D01*
X142076282Y-56327400D01*
X142017317Y-56217086D01*
X141979971Y-56171580D01*
X142017317Y-56126074D01*
X142076282Y-56015760D01*
X142107284Y-55913560D01*
X152179585Y-55913560D01*
X152282231Y-55982146D01*
X152452391Y-56052628D01*
X152633031Y-56088560D01*
X152817209Y-56088560D01*
X152997849Y-56052628D01*
X153168009Y-55982146D01*
X153321148Y-55879822D01*
X153451382Y-55749588D01*
X153553706Y-55596449D01*
X153624188Y-55426289D01*
X153660120Y-55245649D01*
X153660120Y-55061471D01*
X153624188Y-54880831D01*
X153553706Y-54710671D01*
X153451382Y-54557532D01*
X153321148Y-54427298D01*
X153168009Y-54324974D01*
X152997849Y-54254492D01*
X152817209Y-54218560D01*
X152633031Y-54218560D01*
X152452391Y-54254492D01*
X152282231Y-54324974D01*
X152179585Y-54393560D01*
X142096351Y-54393560D01*
X142076282Y-54327400D01*
X142017317Y-54217086D01*
X141937965Y-54120395D01*
X141841274Y-54041043D01*
X141730960Y-53982078D01*
X141611262Y-53945768D01*
X141486780Y-53933508D01*
X139486780Y-53933508D01*
X139362298Y-53945768D01*
X139242600Y-53982078D01*
X139132286Y-54041043D01*
X139035595Y-54120395D01*
X138956243Y-54217086D01*
X138897278Y-54327400D01*
X138860968Y-54447098D01*
X138848708Y-54571580D01*
X127124852Y-54571580D01*
X127112592Y-54447098D01*
X127076282Y-54327400D01*
X127017317Y-54217086D01*
X126937965Y-54120395D01*
X126841274Y-54041043D01*
X126730960Y-53982078D01*
X126611262Y-53945768D01*
X126486780Y-53933508D01*
X124486780Y-53933508D01*
X124362298Y-53945768D01*
X124242600Y-53982078D01*
X124132286Y-54041043D01*
X124035595Y-54120395D01*
X123956243Y-54217086D01*
X123897278Y-54327400D01*
X123860968Y-54447098D01*
X123852982Y-54528180D01*
X116296536Y-54528180D01*
X116292768Y-54489926D01*
X116242232Y-54323330D01*
X116160165Y-54169794D01*
X116049722Y-54035218D01*
X115915146Y-53924775D01*
X115761610Y-53842708D01*
X115595014Y-53792172D01*
X115421760Y-53775108D01*
X114671760Y-53775108D01*
X114498506Y-53792172D01*
X114331910Y-53842708D01*
X114178374Y-53924775D01*
X114043798Y-54035218D01*
X113933355Y-54169794D01*
X113851288Y-54323330D01*
X113800752Y-54489926D01*
X113783688Y-54663180D01*
X113783688Y-55913180D01*
X113800752Y-56086434D01*
X113851288Y-56253030D01*
X113933355Y-56406566D01*
X113937470Y-56411580D01*
X113356050Y-56411580D01*
X113360165Y-56406566D01*
X113442232Y-56253030D01*
X113492768Y-56086434D01*
X113509832Y-55913180D01*
X113509832Y-54663180D01*
X113492768Y-54489926D01*
X113442232Y-54323330D01*
X113360165Y-54169794D01*
X113249722Y-54035218D01*
X113115146Y-53924775D01*
X112961610Y-53842708D01*
X112795014Y-53792172D01*
X112621760Y-53775108D01*
X111871760Y-53775108D01*
X111698506Y-53792172D01*
X111531910Y-53842708D01*
X111378374Y-53924775D01*
X111243798Y-54035218D01*
X111133355Y-54169794D01*
X111051288Y-54323330D01*
X111000752Y-54489926D01*
X110995233Y-54545960D01*
X110157871Y-54545960D01*
X110013409Y-54449434D01*
X109843249Y-54378952D01*
X109662609Y-54343020D01*
X109478431Y-54343020D01*
X109297791Y-54378952D01*
X109127631Y-54449434D01*
X108974492Y-54551758D01*
X108844258Y-54681992D01*
X108741934Y-54835131D01*
X108671452Y-55005291D01*
X108635520Y-55185931D01*
X108635520Y-55370109D01*
X108671452Y-55550749D01*
X108741934Y-55720909D01*
X108844258Y-55874048D01*
X108974492Y-56004282D01*
X109127631Y-56106606D01*
X109297791Y-56177088D01*
X109478431Y-56213020D01*
X109662609Y-56213020D01*
X109843249Y-56177088D01*
X110013409Y-56106606D01*
X110074240Y-56065960D01*
X110998735Y-56065960D01*
X111000752Y-56086434D01*
X111051288Y-56253030D01*
X111133355Y-56406566D01*
X111137470Y-56411580D01*
X96954545Y-56411580D01*
X96910868Y-56306133D01*
X96726465Y-56030155D01*
X96491765Y-55795455D01*
X96215787Y-55611052D01*
X95909136Y-55484034D01*
X95583598Y-55419280D01*
X95251682Y-55419280D01*
X94926144Y-55484034D01*
X94619493Y-55611052D01*
X94343515Y-55795455D01*
X94108815Y-56030155D01*
X93924412Y-56306133D01*
X93797394Y-56612784D01*
X93732640Y-56938322D01*
X85032338Y-56938322D01*
X85032416Y-56684635D01*
X85032632Y-56012241D01*
X85032853Y-55353909D01*
X85033079Y-54709976D01*
X85033310Y-54080779D01*
X85033547Y-53466656D01*
X85033788Y-52867946D01*
X85034035Y-52284983D01*
X85034288Y-51718105D01*
X85034545Y-51167652D01*
X85034808Y-50633958D01*
X85035076Y-50117361D01*
X85035349Y-49618200D01*
X85035627Y-49136812D01*
X85035911Y-48673533D01*
X85036200Y-48228700D01*
X85036494Y-47802651D01*
X85036793Y-47395726D01*
X85037098Y-47008258D01*
X85037407Y-46640588D01*
X85037722Y-46293052D01*
X85038043Y-45965986D01*
X85038368Y-45659730D01*
X85038699Y-45374622D01*
X85039035Y-45110997D01*
X85039376Y-44869196D01*
X85039722Y-44649558D01*
X85040074Y-44452419D01*
X85040431Y-44278123D01*
X85040793Y-44126950D01*
X85040792Y-44126950D01*
X85041159Y-43999436D01*
X85041531Y-43895760D01*
X85041532Y-43895760D01*
X85041559Y-43890000D01*
X181999890Y-43890000D01*
X181999890Y-140069225D01*
M02*
