M48
; DRILL file {KiCad (5.1.2)-1} date 7/17/2019 8:56:35 AM
; FORMAT={-:-/ absolute / inch / decimal}
; #@! TF.CreationDate,2019-07-17T08:56:35-05:00
; #@! TF.GenerationSoftware,Kicad,Pcbnew,(5.1.2)-1
; #@! TF.FileFunction,Plated,1,2,PTH
FMAT,2
INCH
T1C0.0157
T2C0.0394
T3C0.0433
%
G90
G05
T1
X3.4021Y-5.0033
X4.3138Y-2.1763
X4.3161Y-2.327
X4.3451Y-2.7214
X4.5572Y-5.0035
X6.0128Y-2.1714
X6.1349Y-2.2512
X6.2546Y-2.4307
X6.2563Y-2.3295
X6.429Y-1.9316
X6.7328Y-2.3312
X6.7377Y-2.4307
T2
X5.5364Y-5.002
X5.6364Y-5.002
X5.7364Y-5.002
X5.8364Y-5.002
X5.9364Y-5.002
X6.0364Y-5.002
T3
X6.8866Y-2.3305
X6.8866Y-2.4305
X6.8866Y-2.5305
X3.7566Y-2.2482
X3.7566Y-2.3466
X3.7566Y-2.4451
X3.7566Y-2.5435
X3.7566Y-2.6419
X6.5162Y-4.998
X6.6146Y-4.998
X6.7131Y-4.998
X6.8115Y-4.998
X6.9099Y-4.998
T0
M30
