M48
; DRILL file {KiCad (5.1.2)-1} date 07/16/19 22:17:41
; FORMAT={-:-/ absolute / inch / decimal}
; #@! TF.CreationDate,2019-07-16T22:17:41-05:00
; #@! TF.GenerationSoftware,Kicad,Pcbnew,(5.1.2)-1
; #@! TF.FileFunction,Plated,1,2,PTH
FMAT,2
INCH
T1C0.0157
T2C0.0394
T3C0.0433
%
G90
G05
T1
X-1.8545Y-1.3851
X-0.9428Y1.4419
X-0.9405Y1.2912
X-0.9115Y0.8968
X-0.6994Y-1.3853
X0.7562Y1.4468
X0.8783Y1.367
X0.998Y1.1875
X0.9997Y1.2887
X1.1724Y1.6866
X1.4762Y1.287
X1.4811Y1.1875
T2
X0.2798Y-1.3838
X0.3798Y-1.3838
X0.4798Y-1.3838
X0.5798Y-1.3838
X0.6798Y-1.3838
X0.7798Y-1.3838
T3
X1.63Y1.2877
X1.63Y1.1877
X1.63Y1.0877
X-1.5Y1.37
X-1.5Y1.2716
X-1.5Y1.1731
X-1.5Y1.0747
X-1.5Y0.9763
X1.2596Y-1.3798
X1.358Y-1.3798
X1.4565Y-1.3798
X1.5549Y-1.3798
X1.6533Y-1.3798
T0
M30
